<?xml version="1.0" encoding="utf-8"?>
<!-- Generator: Adobe Illustrator 17.0.0, SVG Export Plug-In . SVG Version: 6.00 Build 0)  -->
<!DOCTYPE svg PUBLIC "-//W3C//DTD SVG 1.1//EN" "http://www.w3.org/Graphics/SVG/1.1/DTD/svg11.dtd">
<svg version="1.1" id="Layer_1" xmlns="http://www.w3.org/2000/svg" xmlns:xlink="http://www.w3.org/1999/xlink" x="0px" y="0px"
	 width="1752.836px" height="106.897px" viewBox="0 0 1752.836 106.897" enable-background="new 0 0 1752.836 106.897"
	 xml:space="preserve">
<path fill="none" stroke="#8917FF" stroke-width="2" stroke-miterlimit="10" d="M0.827,14.077h871.264
	c0,0,23.92,0.616,44.043,10.328c14.664,7.077,29.908,22.065,43.315,24.1c27.488,4.172,27.692-34.909,39.15-44.295
	c17.847-14.62,24.107,24.843,27.488,35.324c5.831,18.072,23.641,49.378,48.03,6.025c18.967-33.716,75.399-31.481,75.399-31.481
	h599.775"/>
<circle fill="#8917FF" cx="6.456" cy="14.062" r="6.444"/>
<circle fill="#8917FF" cx="1746.392" cy="14.062" r="6.444"/>
<path fill="#8917FF" d="M1078.418,52.932c-25.723,37.321-48.422,13.084-55.474-2.371c-5.188-11.369-9.079-37.233-17.832-37.233
	c-9.729,0-15.215,18.467-15.215,18.467c-5.606,12.514-11.641,27.759-30.448,25.257c-13.407-1.784-28.651-14.921-43.315-21.125
	c-3.936-1.665-8.015-3.021-12.033-4.132H0v75.101h1752.836V31.796h-634.729C1100.084,33.063,1088.084,38.907,1078.418,52.932z"/>
</svg>
