<?xml version="1.0" encoding="utf-8"?>
<!-- Generator: Adobe Illustrator 17.0.0, SVG Export Plug-In . SVG Version: 6.00 Build 0)  -->
<!DOCTYPE svg PUBLIC "-//W3C//DTD SVG 1.1//EN" "http://www.w3.org/Graphics/SVG/1.1/DTD/svg11.dtd">
<svg version="1.1" id="Layer_1" xmlns="http://www.w3.org/2000/svg" xmlns:xlink="http://www.w3.org/1999/xlink" x="0px" y="0px"
	 width="202.127px" height="202.125px" viewBox="0 0 202.127 202.125" enable-background="new 0 0 202.127 202.125"
	 xml:space="preserve">
<g>
	<path fill="none" stroke="#32BD9F" stroke-miterlimit="10" d="M101.064,201.625C45.614,201.625,0.5,156.513,0.5,101.063
		C0.5,45.613,45.614,0.5,101.064,0.5c55.45,0,100.562,45.113,100.562,100.563C201.627,156.513,156.515,201.625,101.064,201.625z
		 M101.064,6.409c-52.194,0-94.655,42.461-94.655,94.654c0,52.192,42.462,94.653,94.655,94.653
		c52.192,0,94.654-42.461,94.654-94.653C195.718,48.87,153.256,6.409,101.064,6.409z"/>
	<path fill="none" stroke="#32BD9F" stroke-miterlimit="10" d="M101.064,181.952c-44.602,0-80.889-36.287-80.889-80.89
		c0-44.603,36.287-80.89,80.889-80.89s80.889,36.287,80.889,80.89C181.954,145.665,145.666,181.952,101.064,181.952z
		 M101.064,26.081c-41.344,0-74.981,33.637-74.981,74.982c0,41.345,33.637,74.981,74.981,74.981
		c41.344,0,74.981-33.636,74.981-74.981C176.045,59.718,142.408,26.081,101.064,26.081z"/>
</g>
<g>
	<path fill="none" stroke="#32BD9F" stroke-width="1.3011" stroke-miterlimit="10" d="M65.66,119.353
		c-0.888,0-1.656-0.077-2.403,0.015c-1.78,0.219-3.427-1.412-3.438-2.988c-0.012-1.646,1.441-3.303,3.527-3.088
		c0.693,0.071,1.399,0.011,2.254,0.011c0-2.896,0-5.68,0-8.703c-0.786-0.026-1.605-0.044-2.423-0.083
		c-2.053-0.099-3.351-1.291-3.34-3.055c0.012-1.803,1.264-2.924,3.374-2.994c0.762-0.025,1.526-0.004,2.416-0.004
		c0-2.955,0-5.74,0-8.782c-0.923,0-1.821,0.043-2.713-0.009c-1.849-0.107-3.112-1.404-3.077-3.095
		c0.034-1.648,1.201-2.822,2.995-2.937c0.899-0.058,1.804-0.01,2.811-0.01c0-2.995,0-5.78,0-8.795c-0.973,0-1.874,0.041-2.771-0.008
		c-1.872-0.102-3.084-1.368-3.035-3.111c0.046-1.648,1.214-2.805,3.016-2.917c0.897-0.055,1.801-0.01,2.904-0.01
		c0-0.98,0.028-1.74-0.005-2.498c-0.227-5.232,4.044-9.444,9.499-9.419c20.274,0.093,40.548,0.069,60.822-0.006
		c2.409-0.009,4.072,1.193,4.047,4.148c-0.101,12.22-0.037,24.442-0.038,36.663c-0.001,9.678-0.027,19.356,0.009,29.033
		c0.006,1.615-0.315,2.969-1.329,4.311c-2.298,3.043-2.184,6.27,0.078,9.404c0.289,0.4,0.628,0.774,0.851,1.208
		c0.968,1.883-0.077,4.01-2.155,4.373c-0.55,0.096-1.127,0.057-1.691,0.057c-19.709,0.002-39.418-0.011-59.128,0.015
		c-3.05,0.004-5.686-0.889-7.863-3.048c-2.057-2.04-3.096-4.514-3.102-7.411c-0.01-4.874-0.008-9.749-0.017-14.623
		C65.738,120.522,65.695,120.045,65.66,119.353z M119.366,63.034c-0.584-0.029-1.004-0.068-1.424-0.068
		c-14.053-0.003-28.106-0.003-42.159-0.001c-0.423,0-0.853-0.015-1.269,0.048c-1.334,0.203-2.428,1.132-2.602,2.432
		c-0.143,1.071-0.029,2.177-0.029,3.345c1.127,0,1.975-0.044,2.818,0.009c1.751,0.11,2.981,1.322,3.029,2.922
		c0.052,1.732-1.153,2.983-3.048,3.097c-0.895,0.054-1.795,0.009-2.753,0.009c0,3.033,0,5.817,0,8.797
		c0.874,0,1.642,0.07,2.393-0.014c1.902-0.213,3.441,1.528,3.421,2.995c-0.024,1.761-1.301,2.987-3.333,3.062
		c-0.82,0.031-1.642,0.005-2.448,0.005c0,3.071,0,5.855,0,8.791c0.916,0,1.684-0.025,2.449,0.005
		c2.033,0.08,3.309,1.303,3.331,3.064c0.02,1.545-1.597,3.199-3.421,2.999c-0.801-0.088-1.624,0.025-2.5,0.048
		c0.01,3.068-0.066,5.856,0.049,8.72c1.146,0,1.995-0.048,2.837,0.01c1.753,0.121,2.979,1.34,3.024,2.934
		c0.048,1.688-1.214,2.986-3.069,3.095c-0.893,0.052-1.791,0.009-2.74,0.009c0,2.346,0,4.431,0,6.286
		c2.404-0.163,4.705-0.446,7.007-0.453c12.782-0.039,25.564-0.01,38.346-0.011c0.691,0,1.381-0.057,2.172-0.092
		c0.711-3.713,2.344-6.868,4.948-9.487c2.652-2.668,5.887-4.293,9.507-4.978c0-11.157,0-22.076,0-33.02
		C126.063,75.726,121.262,70.917,119.366,63.034z M131.285,131.313c-0.272-0.024-0.615-0.08-0.958-0.08
		c-17.864-0.005-35.728,0.016-53.592-0.024c-3.141-0.007-4.956,2.399-4.901,4.468c0.063,2.387,2.155,4.372,5.016,4.362
		c17.723-0.059,35.445-0.035,53.168-0.048c0.473,0,0.947-0.1,1.267-0.136C131.285,137.007,131.285,134.285,131.285,131.313z
		 M134.012,71.211c-0.044-2.876,0.073-5.513-0.033-8.143c-2.862,0-5.445,0-8.214,0C127.105,67.271,129.701,69.907,134.012,71.211z
		 M133.935,117.142c-3.256,0.141-7.675,4.48-7.984,7.897c2.643,0,5.278,0,7.984,0C133.935,122.318,133.935,119.731,133.935,117.142z
		"/>
	<path fill="none" stroke="#32BD9F" stroke-width="1.3011" stroke-miterlimit="10" d="M111.688,93.866
		c2.918,2.849,5.844,5.702,8.765,8.56c0.403,0.394,0.824,0.779,1.173,1.22c1.054,1.333,0.973,3.113-0.157,4.232
		c-1.147,1.136-2.893,1.194-4.184-0.024c-2-1.887-3.913-3.868-5.862-5.81c-1.342-1.336-2.683-2.673-4.115-4.101
		c-4.015,2.542-8.266,3.054-12.656,1.718c-3.486-1.061-6.216-3.214-8.191-6.335c-3.705-5.856-2.757-13.833,2.279-18.648
		c5.27-5.038,13.101-5.618,19.052-1.413C114.076,77.706,115.564,85.079,111.688,93.866z M90.38,85.335
		c-0.032,4.906,3.761,8.805,8.625,8.867c4.953,0.062,8.915-3.865,8.898-8.819c-0.017-4.808-3.992-8.799-8.753-8.786
		C94.276,76.61,90.412,80.46,90.38,85.335z"/>
</g>
</svg>
