<?xml version="1.0" encoding="utf-8"?>
<!-- Generator: Adobe Illustrator 17.0.0, SVG Export Plug-In . SVG Version: 6.00 Build 0)  -->
<!DOCTYPE svg PUBLIC "-//W3C//DTD SVG 1.1//EN" "http://www.w3.org/Graphics/SVG/1.1/DTD/svg11.dtd">
<svg version="1.1" id="Layer_1" xmlns="http://www.w3.org/2000/svg" xmlns:xlink="http://www.w3.org/1999/xlink" x="0px" y="0px"
	 width="202.127px" height="202.125px" viewBox="0 0 202.127 202.125" enable-background="new 0 0 202.127 202.125"
	 xml:space="preserve">
<g>
	<path fill="none" stroke="#32BD9F" stroke-miterlimit="10" d="M101.064,201.625C45.614,201.625,0.5,156.513,0.5,101.063
		C0.5,45.613,45.614,0.5,101.064,0.5c55.45,0,100.562,45.113,100.562,100.563C201.627,156.513,156.515,201.625,101.064,201.625z
		 M101.064,6.409c-52.194,0-94.655,42.461-94.655,94.654c0,52.192,42.462,94.653,94.655,94.653
		c52.192,0,94.654-42.461,94.654-94.653C195.718,48.87,153.256,6.409,101.064,6.409z"/>
	<path fill="none" stroke="#32BD9F" stroke-miterlimit="10" d="M101.064,181.953c-44.602,0-80.889-36.287-80.889-80.89
		c0-44.603,36.287-80.89,80.889-80.89c44.602,0,80.889,36.287,80.889,80.89C181.954,145.665,145.666,181.953,101.064,181.953z
		 M101.064,26.082c-41.344,0-74.981,33.637-74.981,74.981c0,41.345,33.637,74.981,74.981,74.981
		c41.344,0,74.981-33.636,74.981-74.981C176.045,59.718,142.408,26.082,101.064,26.082z"/>
</g>
<g>
	<path fill="none" stroke="#32BD9F" stroke-width="1.3471" stroke-miterlimit="10" d="M159.08,132.031
		c0.046-0.009,0.092-0.022,0.137-0.033c0.039-0.01,0.078-0.018,0.116-0.03c0.045-0.014,0.088-0.03,0.131-0.046
		c0.038-0.014,0.077-0.026,0.115-0.042c0.041-0.017,0.081-0.037,0.12-0.056c0.039-0.019,0.078-0.036,0.117-0.056
		c0.038-0.02,0.074-0.043,0.111-0.066c0.038-0.023,0.077-0.044,0.114-0.069c0.04-0.026,0.076-0.056,0.114-0.084
		c0.032-0.024,0.065-0.046,0.096-0.072c0.058-0.047,0.113-0.098,0.166-0.15c0.01-0.009,0.02-0.017,0.03-0.027
		c0.01-0.01,0.019-0.021,0.028-0.031c0.051-0.053,0.101-0.107,0.148-0.164c0.027-0.033,0.051-0.068,0.077-0.103
		c0.026-0.036,0.054-0.07,0.079-0.107c0.026-0.04,0.05-0.081,0.074-0.121c0.02-0.034,0.042-0.068,0.061-0.103
		c0.022-0.041,0.041-0.083,0.06-0.125c0.017-0.037,0.036-0.074,0.052-0.112c0.017-0.041,0.031-0.083,0.046-0.124
		c0.015-0.041,0.03-0.081,0.043-0.122c0.013-0.042,0.022-0.085,0.033-0.128c0.01-0.042,0.022-0.083,0.031-0.126
		c0.01-0.05,0.016-0.101,0.023-0.151c0.005-0.036,0.012-0.071,0.015-0.107c0.009-0.089,0.014-0.177,0.014-0.267V72.283
		c0-1.476-1.196-2.673-2.673-2.673H74.371c-0.024,0-0.046,0.003-0.07,0.004c-0.051,0.001-0.102,0.004-0.152,0.008
		c-0.04,0.003-0.08,0.008-0.12,0.013c-0.046,0.006-0.091,0.012-0.136,0.021c-0.042,0.007-0.084,0.016-0.126,0.026
		c-0.042,0.01-0.085,0.021-0.127,0.033c-0.042,0.012-0.083,0.025-0.123,0.038c-0.042,0.014-0.083,0.029-0.124,0.046
		c-0.039,0.015-0.077,0.031-0.115,0.048c-0.042,0.019-0.084,0.039-0.125,0.06c-0.035,0.018-0.07,0.037-0.104,0.056
		c-0.041,0.024-0.082,0.048-0.122,0.074c-0.033,0.021-0.066,0.043-0.098,0.066c-0.038,0.027-0.075,0.055-0.112,0.084
		c-0.033,0.027-0.066,0.054-0.099,0.082c-0.032,0.028-0.064,0.056-0.095,0.086c-0.035,0.034-0.069,0.069-0.103,0.105
		c-0.017,0.018-0.035,0.034-0.051,0.052c-0.01,0.011-0.017,0.022-0.026,0.033c-0.034,0.039-0.065,0.079-0.096,0.12
		c-0.023,0.03-0.046,0.06-0.068,0.091c-0.028,0.04-0.053,0.081-0.079,0.122c-0.021,0.034-0.043,0.067-0.062,0.102
		c-0.022,0.04-0.042,0.081-0.062,0.122c-0.019,0.037-0.038,0.075-0.055,0.113c-0.017,0.04-0.033,0.082-0.048,0.123
		c-0.015,0.04-0.031,0.08-0.044,0.121c-0.013,0.041-0.024,0.083-0.035,0.124c-0.011,0.043-0.024,0.085-0.033,0.128
		c-0.009,0.04-0.015,0.081-0.022,0.122c-0.008,0.046-0.016,0.093-0.021,0.139c-0.005,0.038-0.007,0.078-0.01,0.117
		c-0.004,0.05-0.007,0.1-0.007,0.15c0,0.015-0.002,0.029-0.002,0.043v16.482c0,1.476,1.196,2.673,2.673,2.673
		s2.673-1.196,2.673-2.673V78.218l23.762,21.038c-0.124,0.087-0.243,0.184-0.355,0.295l-23.407,23.407v-17.564
		c0-1.476-1.196-2.673-2.673-2.673s-2.673,1.196-2.673,2.673v3.266H57.89c-1.476,0-2.673,1.196-2.673,2.673s1.196,2.673,2.673,2.673
		h13.808v15.405c0,1.476,1.196,2.673,2.673,2.673h84.187c0.088,0,0.176-0.005,0.264-0.013c0.041-0.004,0.081-0.012,0.121-0.017
		C158.989,132.045,159.034,132.04,159.08,132.031z M155.886,122.958L132.478,99.55c-0.015-0.015-0.031-0.027-0.046-0.042
		l17.598-14.93c1.125-0.955,1.264-2.641,0.309-3.767c-0.954-1.125-2.641-1.264-3.767-0.309l-30.069,25.511l-35.08-31.059h74.464
		L155.886,122.958L155.886,122.958z M104.231,103.331c0.191-0.191,0.345-0.403,0.466-0.629l9.996,8.85
		c0.505,0.447,1.138,0.672,1.772,0.672c0.615,0,1.23-0.211,1.729-0.635l10.187-8.643c0.093,0.135,0.197,0.265,0.317,0.385
		l23.407,23.407H80.823L104.231,103.331z"/>
	<path fill="none" stroke="#32BD9F" stroke-width="1.3471" stroke-miterlimit="10" d="M40.666,100.048h45.137
		c1.476,0,2.673-1.196,2.673-2.673c0-1.476-1.196-2.673-2.673-2.673H40.666c-1.476,0-2.673,1.196-2.673,2.673
		C37.994,98.852,39.19,100.048,40.666,100.048z"/>
	<path fill="none" stroke="#32BD9F" stroke-width="1.3471" stroke-miterlimit="10" d="M45.343,85.32h20.267
		c1.476,0,2.673-1.196,2.673-2.673s-1.196-2.673-2.673-2.673H45.343c-1.476,0-2.673,1.196-2.673,2.673S43.867,85.32,45.343,85.32z"
		/>
	<path fill="none" stroke="#32BD9F" stroke-width="1.3471" stroke-miterlimit="10" d="M60.265,119.944H40.666
		c-1.476,0-2.673,1.196-2.673,2.673s1.196,2.673,2.673,2.673h19.599c1.476,0,2.673-1.196,2.673-2.673S61.742,119.944,60.265,119.944
		z"/>
</g>
</svg>
