<?xml version="1.0" encoding="utf-8"?>
<!-- Generator: Adobe Illustrator 17.0.0, SVG Export Plug-In . SVG Version: 6.00 Build 0)  -->
<!DOCTYPE svg PUBLIC "-//W3C//DTD SVG 1.1//EN" "http://www.w3.org/Graphics/SVG/1.1/DTD/svg11.dtd">
<svg version="1.1" id="Layer_1" xmlns="http://www.w3.org/2000/svg" xmlns:xlink="http://www.w3.org/1999/xlink" x="0px" y="0px"
	 width="202.127px" height="202.125px" viewBox="0 0 202.127 202.125" enable-background="new 0 0 202.127 202.125"
	 xml:space="preserve">
<g>
	<path fill="none" stroke="#32BD9F" stroke-miterlimit="10" d="M101.064,201.625C45.614,201.625,0.5,156.513,0.5,101.063
		C0.5,45.613,45.614,0.5,101.064,0.5c55.45,0,100.562,45.113,100.562,100.563C201.627,156.513,156.515,201.625,101.064,201.625z
		 M101.064,6.409c-52.194,0-94.655,42.461-94.655,94.654c0,52.192,42.462,94.653,94.655,94.653
		c52.192,0,94.654-42.461,94.654-94.653C195.718,48.87,153.256,6.409,101.064,6.409z"/>
	<path fill="none" stroke="#32BD9F" stroke-miterlimit="10" d="M101.064,181.953c-44.602,0-80.889-36.287-80.889-80.89
		c0-44.603,36.287-80.89,80.889-80.89c44.602,0,80.889,36.287,80.889,80.89C181.954,145.665,145.666,181.953,101.064,181.953z
		 M101.064,26.082c-41.344,0-74.981,33.637-74.981,74.981c0,41.345,33.637,74.981,74.981,74.981
		c41.344,0,74.981-33.636,74.981-74.981C176.045,59.718,142.408,26.082,101.064,26.082z"/>
</g>
<g>
	<defs>
		<circle id="SVGID_3_" cx="100.946" cy="100.959" r="64.333"/>
	</defs>
	<clipPath id="SVGID_1_">
		<use xlink:href="#SVGID_3_"  overflow="visible"/>
	</clipPath>
	<g clip-path="url(#SVGID_1_)">
		<g>
			<g>
				<path fill="none" stroke="#32BD9F" stroke-width="1.1657" stroke-miterlimit="10" d="M124.389,99.192l-10.173-4.521
					c-0.719-0.319-1.183-1.034-1.183-1.82v-2.794c3.417-2.723,5.614-6.916,5.614-11.614v-3.932c1.126-0.622,1.871-1.824,1.871-3.17
					v-0.382c0-8.187-6.661-14.848-14.848-14.848h-3.742c-8.187,0-14.848,6.661-14.848,14.848v3.463c0,1.183,0.509,2.256,1.397,2.942
					c0.151,0.116,0.309,0.218,0.474,0.307v0.773c0,4.699,2.196,8.892,5.613,11.614v2.794c0,0.786-0.464,1.501-1.183,1.82
					l-10.173,4.521c-3.332,1.481-5.484,4.793-5.484,8.439v23.202c0,0.967,0.784,1.751,1.751,1.751c0.967,0,1.751-0.784,1.751-1.751
					v-23.202c0-0.203,0.014-0.403,0.035-0.602l4.687,4.687c0.729,0.73,1.131,1.7,1.131,2.731v16.386
					c0,0.967,0.784,1.751,1.751,1.751c0.967,0,1.751-0.784,1.751-1.751v-16.386c0-1.967-0.766-3.816-2.157-5.207l-5.588-5.588
					c0.503-0.522,1.108-0.955,1.795-1.261l10.001-4.445l7.417,7.417v25.47c0,0.967,0.784,1.751,1.751,1.751
					c0.967,0,1.751-0.784,1.751-1.751v-25.47l7.417-7.417l10.001,4.445c0.687,0.306,1.291,0.739,1.795,1.261l-5.588,5.588
					c-1.391,1.391-2.157,3.24-2.157,5.207v16.386c0,0.967,0.784,1.751,1.751,1.751c0.967,0,1.751-0.784,1.751-1.751v-16.386
					c0-1.032,0.402-2.002,1.131-2.731l4.687-4.687c0.021,0.199,0.035,0.399,0.035,0.602v23.203c0,0.967,0.784,1.751,1.751,1.751
					c0.967,0,1.751-0.784,1.751-1.751v-23.202C129.873,103.985,127.72,100.673,124.389,99.192z M103.798,102.162l-6.508-6.508
					c0.495-0.833,0.774-1.796,0.774-2.804v-0.712c1.765,0.742,3.702,1.153,5.734,1.153c2.031,0,3.968-0.411,5.733-1.153v0.712
					c0,1.008,0.279,1.971,0.774,2.804L103.798,102.162z M103.798,89.79c-6.257,0-11.347-5.09-11.347-11.347v-0.787
					c1.092-0.433,2.159-1.122,3.179-2.064c0.71-0.656,0.755-1.763,0.099-2.474c-0.656-0.71-1.763-0.755-2.474-0.099
					c-0.876,0.808-1.75,1.33-2.6,1.552c-0.021,0.005-0.036,0.008-0.046,0.009c-0.013-0.025-0.03-0.076-0.03-0.158v-3.463
					c0-6.257,5.09-11.347,11.347-11.347h3.742c6.257,0,11.347,5.09,11.347,11.347v0.382c0,0.057-0.034,0.106-0.079,0.115
					c-10.483,2.07-15.741-1.832-17.515-3.606c-0.684-0.684-1.792-0.684-2.476,0c-0.684,0.684-0.684,1.792,0,2.476
					c5.436,5.436,13.369,5.534,18.198,4.954v3.163C115.145,84.699,110.055,89.79,103.798,89.79z"/>
			</g>
		</g>
		<g>
			<g>
				<path fill="none" stroke="#32BD9F" stroke-width="1.1657" stroke-miterlimit="10" d="M75.611,89.67v-3.743
					c0-4.567-2.373-8.587-5.95-10.901c0.221-0.708,0.336-1.45,0.336-2.197c0-4.061-3.303-7.364-7.364-7.364
					s-7.364,3.304-7.364,7.364c0,0.756,0.114,1.49,0.336,2.197c-3.576,2.313-5.949,6.334-5.949,10.901v3.742
					c0,4.423,2.225,8.333,5.613,10.677v3.85c0,0.759-0.422,1.442-1.101,1.781l-6.055,3.027c-2.511,1.256-4.071,3.779-4.071,6.587
					v15.242c0,0.967,0.784,1.751,1.751,1.751c0.967,0,1.751-0.784,1.751-1.751v-14.485l2.852,2.852
					c0.729,0.73,1.131,1.7,1.131,2.731v8.901c0,0.967,0.784,1.751,1.751,1.751c0.967,0,1.751-0.784,1.751-1.751v-8.901
					c0-1.967-0.766-3.816-2.157-5.207l-3.969-3.969c-0.019-0.019-0.04-0.036-0.059-0.054c0.249-0.22,0.528-0.411,0.836-0.565
					l6.055-3.027c0.31-0.155,0.599-0.338,0.868-0.542l4.28,4.28v17.986c0,0.967,0.784,1.751,1.751,1.751s1.751-0.784,1.751-1.751
					v-17.986l4.28-4.28c0.269,0.204,0.558,0.387,0.868,0.542l1.67,0.835c0.251,0.126,0.518,0.185,0.782,0.185
					c0.642,0,1.26-0.355,1.567-0.968c0.433-0.865,0.082-1.916-0.783-2.349l-1.67-0.835c-0.679-0.34-1.101-1.022-1.101-1.781v-3.85
					C73.386,98.003,75.611,94.092,75.611,89.67z M62.634,68.967c2.13,0,3.863,1.733,3.863,3.863c0,0.235-0.021,0.465-0.061,0.69
					c-1.203-0.369-2.479-0.569-3.801-0.569c-1.32,0-2.595,0.199-3.796,0.568c-0.04-0.225-0.067-0.454-0.067-0.688
					C58.771,70.7,60.504,68.967,62.634,68.967z M62.634,76.451c5.225,0,9.476,4.251,9.476,9.476v0.634
					c-7.288,2.231-11.632-3.313-11.818-3.556c-0.305-0.406-0.77-0.66-1.276-0.696c-0.506-0.035-1.003,0.15-1.362,0.508
					c-1.671,1.671-3.308,2.477-4.49,2.866C53.294,80.571,57.49,76.451,62.634,76.451z M62.634,109.647l-4.045-4.045
					c0.118-0.451,0.183-0.922,0.183-1.405v-2.137c1.221,0.381,2.518,0.587,3.863,0.587c1.344,0,2.642-0.206,3.863-0.587v2.137
					c0,0.483,0.065,0.954,0.183,1.405L62.634,109.647z M62.634,99.145c-5.225,0-9.476-4.251-9.476-9.476v-0.363
					c1.396-0.321,3.466-1.066,5.625-2.803c0.764,0.721,1.856,1.605,3.246,2.363c1.645,0.897,3.916,1.727,6.69,1.727
					c1.054,0,2.182-0.123,3.375-0.404C71.823,95.174,67.684,99.145,62.634,99.145z"/>
			</g>
		</g>
		<g>
			<g>
				<path fill="none" stroke="#32BD9F" stroke-width="1.1657" stroke-miterlimit="10" d="M159.482,105.263l-9.797-4.899
					c-0.679-0.34-1.101-1.022-1.101-1.781v-2.481c2.293-2.036,3.742-5.003,3.742-8.304v-1.993c0.04,0,0.08,0.001,0.12,0.001
					c0.967,0,1.751-0.784,1.751-1.751v-3.742c0-6.124-4.982-11.106-11.106-11.106h-3.742c-6.124,0-11.106,4.982-11.106,11.106v3.742
					c0,0.967,0.784,1.751,1.751,1.751c0.014,0,0.056,0,0.12-0.003v1.995c0,3.301,1.449,6.268,3.742,8.304v2.481
					c0,0.759-0.422,1.442-1.101,1.781c-0.865,0.432-1.215,1.484-0.783,2.349c0.307,0.613,0.925,0.968,1.567,0.968
					c0.263,0,0.53-0.06,0.781-0.185c0.31-0.155,0.599-0.338,0.868-0.542l4.28,4.28v23.599c0,0.967,0.784,1.751,1.751,1.751
					s1.751-0.784,1.751-1.751v-23.6l4.28-4.28c0.269,0.204,0.558,0.387,0.868,0.542l9.48,4.74l-2.875,2.875
					c-1.391,1.391-2.157,3.24-2.157,5.207v14.515c0,0.967,0.784,1.751,1.751,1.751c0.967,0,1.751-0.784,1.751-1.751v-14.515
					c0-1.032,0.402-2.002,1.131-2.731l2.724-2.724c0.083,0.317,0.128,0.647,0.128,0.986v18.984c0,0.967,0.784,1.751,1.751,1.751
					s1.751-0.784,1.751-1.751v-18.984C163.552,109.042,161.993,106.519,159.482,105.263z M131.744,81.946v-1.632h0
					c0-4.193,3.412-7.605,7.605-7.605h3.742c4.193,0,7.605,3.412,7.605,7.605v1.945c-7.61-0.411-12.203-3.372-12.247-3.401
					c-0.296-0.197-0.634-0.294-0.971-0.294c-0.452,0-0.9,0.175-1.238,0.513C134.565,80.751,132.924,81.557,131.744,81.946z
					 M141.22,104.033l-4.045-4.045c0.118-0.451,0.183-0.922,0.183-1.405V98.21c1.203,0.448,2.505,0.694,3.863,0.694
					c1.358,0,2.659-0.246,3.863-0.694v0.373c0,0.483,0.064,0.953,0.183,1.405L141.22,104.033z M141.22,95.403
					c-4.193,0-7.605-3.411-7.605-7.605v-2.822l0,0c1.226-0.49,2.655-1.269,4.108-2.507c1.838,0.957,5.685,2.61,11.102,3.156v2.174
					C148.825,91.992,145.413,95.403,141.22,95.403z"/>
			</g>
		</g>
	</g>
</g>
</svg>
