<?xml version="1.0" encoding="utf-8"?>
<!-- Generator: Adobe Illustrator 17.0.0, SVG Export Plug-In . SVG Version: 6.00 Build 0)  -->
<!DOCTYPE svg PUBLIC "-//W3C//DTD SVG 1.1//EN" "http://www.w3.org/Graphics/SVG/1.1/DTD/svg11.dtd">
<svg version="1.1" id="Layer_1" xmlns="http://www.w3.org/2000/svg" xmlns:xlink="http://www.w3.org/1999/xlink" x="0px" y="0px"
	 width="372.71px" height="292.882px" viewBox="0 0 372.71 292.882" enable-background="new 0 0 372.71 292.882"
	 xml:space="preserve">
<polygon fill="#6F00FF" points="194.635,259.978 176.633,292.881 184.065,292.881 202.067,259.978 "/>
<g>
	<path fill="#6F00FF" d="M40.748,111.105c0,11.191-9.119,20.31-20.311,20.31c-11.19,0-20.31-9.119-20.31-20.31
		c0-11.191,9.119-20.31,20.31-20.31C31.629,90.795,40.748,99.915,40.748,111.105z M40.333,237.525v-17.201l-16.372-79.168h-6.632
		L0.957,220.324v17.201H40.333z"/>
	<path fill="#6F00FF" d="M90.689,237.318l9.948-12.021v-36.889l-42.692-84.349l-5.803-11.398v-0.207h67.769v0.207l-13.057,11.398
		l32.33,74.816l21.761-45.801l-20.31-40.413v-0.207H185.4v0.207l-5.388,11.398l-39.584,84.349v36.889l9.947,12.021v0.207H90.689
		V237.318z"/>
	<path fill="#6F00FF" d="M168.609,237.318l26.32-29.016l32.744-101.135l-5.181-14.507v-0.207h41.863l53.055,144.657v0.415h-58.028
		v-0.207l10.569-11.398l-14.3-39.377h-48.495l-6.839,21.76l25.49,29.016v0.207h-57.199V237.318z M254.201,181.983l-23.833-67.354
		l-21.554,67.354H254.201z"/>
	<path fill="#6F00FF" d="M327.147,218.873c0-11.191,9.119-20.311,20.31-20.311c11.191,0,20.311,9.119,20.311,20.311
		s-9.119,20.311-20.311,20.311C336.267,239.184,327.147,230.064,327.147,218.873z M327.977,109.655l16.372,79.167h6.632
		l16.372-79.167V92.454h-39.376V109.655z"/>
</g>
<g>
	<path fill="#6F00FF" d="M8.858,270.093h3.933l3.756,4.535l-0.143,0.106l-3.72-4.252H8.858c-4.642,0-8.469,3.756-8.469,8.539
		s3.791,8.539,8.469,8.539c4.287,0,8.042-3.154,8.609-7.264h0.177c-0.602,4.322-4.322,7.652-8.786,7.652
		c-4.89,0-8.858-3.932-8.858-8.928S3.969,270.093,8.858,270.093z"/>
	<path fill="#6F00FF" d="M21.008,287.666l3.437-0.213v-16.864l-3.366,2.339l-0.142-0.107l3.508-2.728h0.39v17.36l3.437,0.213v0.143
		h-7.263V287.666z M23.983,266.975c0-0.354,0.283-0.638,0.638-0.638s0.638,0.284,0.638,0.638c0,0.354-0.283,0.638-0.638,0.638
		S23.983,267.329,23.983,266.975z"/>
	<path fill="#6F00FF" d="M30.572,287.666l3.437-0.213v-16.864l-3.366,2.339l-0.142-0.107l3.508-2.728h0.39v5.279
		c0.638-3.083,3.401-5.421,6.731-5.421c3.934,0,6.697,2.869,6.697,6.873v10.629l3.437,0.213v0.143H44v-0.143l3.437-0.213v-10.629
		c0-3.826-2.586-6.483-6.307-6.483c-3.613,0-6.731,2.94-6.731,6.519v10.594l3.437,0.213v0.143h-7.263V287.666z"/>
	<path fill="#6F00FF" d="M62.563,270.093h3.933l3.756,4.535l-0.143,0.106l-3.72-4.252h-3.826c-4.642,0-8.469,3.756-8.469,8.539
		s3.791,8.539,8.469,8.539c4.287,0,8.042-3.154,8.609-7.264h0.177c-0.602,4.322-4.322,7.652-8.786,7.652
		c-4.89,0-8.858-3.932-8.858-8.928S57.673,270.093,62.563,270.093z"/>
	<path fill="#6F00FF" d="M73.684,270.093h3.827v10.983c0,3.826,2.586,6.484,6.307,6.484c3.613,0,6.731-2.941,6.731-6.52v-10.594
		l-3.437-0.213v-0.142h3.826v17.36l3.438,0.213v0.143h-3.827v-5.279c-0.638,3.082-3.401,5.42-6.731,5.42
		c-3.933,0-6.696-2.869-6.696-6.873v-10.629l-3.438-0.213V270.093z"/>
	<path fill="#6F00FF" d="M106.064,269.951c3.543,0,6.59,2.09,8.008,5.066H98.518c-0.603,1.17-0.921,2.48-0.921,3.933
		c0,4.854,3.791,8.61,8.468,8.61c4.287,0,8.043-3.154,8.609-7.264h0.178c-0.603,4.322-4.323,7.652-8.787,7.652
		c-4.89,0-8.857-3.932-8.857-8.999C97.207,273.884,101.175,269.951,106.064,269.951z M113.54,274.805
		c-1.417-2.657-4.216-4.464-7.476-4.464c-3.188,0-5.987,1.771-7.44,4.464H113.54z"/>
	<path fill="#6F00FF" d="M118.214,287.666l3.437-0.213v-16.864l-3.365,2.339l-0.142-0.107l3.507-2.728h0.39v5.279
		c0.639-3.083,3.401-5.421,6.732-5.421c3.933,0,6.696,2.869,6.696,6.873v10.629l3.437,0.213v0.143h-7.263v-0.143l3.437-0.213
		v-10.629c0-3.826-2.587-6.483-6.307-6.483c-3.614,0-6.732,2.94-6.732,6.519v10.594l3.438,0.213v0.143h-7.264V287.666z"/>
	<path fill="#6F00FF" d="M142.835,282.6v-12.117h-2.374v-0.39h2.374v-7.087h0.39v7.087h5.917v0.39h-5.917v11.904
		c0,3.473,2.231,5.174,4.499,5.174c2.232,0,4.217-1.453,4.5-3.614h0.106c-0.319,2.268-2.268,4.003-4.606,4.003
		C145.173,287.949,142.835,285.966,142.835,282.6z"/>
	<path fill="#6F00FF" d="M158.351,278.95l7.866-2.799c1.204-0.39,1.984-1.488,1.984-2.728c0-1.596-1.56-2.941-3.473-2.941h-5.952
		l-3.791,4.252l-0.142-0.106l3.755-4.535h6.201c2.09,0,3.791,1.523,3.791,3.331v14.029l3.472,0.213v0.143h-3.861v-5.527
		c-0.603,3.508-3.543,5.668-7.299,5.668c-3.862,0-6.271-1.416-6.271-4.57C154.631,281.502,156.119,279.694,158.351,278.95z
		 M160.725,287.561c5.244,0,7.477-3.614,7.477-6.414v-6.199c-0.354,0.708-1.028,1.275-1.878,1.559l-7.866,2.799
		c-2.09,0.709-3.401,2.338-3.401,4.039C155.056,286.497,157.571,287.561,160.725,287.561z"/>
	<path fill="#6F00FF" d="M199.41,263.006h0.354l-13.57,24.803h-0.354L199.41,263.006z"/>
	<path fill="#6F00FF" d="M214.321,281.146l0.921,4.891c1.666,1.133,4.004,1.7,6.307,1.7c3.897,0,7.122-1.275,7.122-4.216
		c0-2.977-2.834-4.039-6.52-4.748c-4.216-0.851-7.405-1.736-7.405-4.678c0-2.303,2.41-4.145,6.768-4.145
		c1.913,0,4.039,0.39,5.138,0.921l1.347,4.89h-0.142l-1.56-4.818c-1.275-0.567-3.366-0.779-4.783-0.779
		c-4.074,0-6.342,1.7-6.342,3.896c0,2.729,3.118,3.543,6.944,4.287c3.862,0.779,6.979,1.949,6.979,5.103
		c0,2.87-2.976,4.499-7.547,4.499c-2.373,0-4.995-0.531-6.696-1.948l-0.673-4.854H214.321z"/>
	<path fill="#6F00FF" d="M232.354,287.666l3.437-0.213v-16.864l-3.366,2.339l-0.142-0.107l3.508-2.728h0.39v17.36l3.437,0.213v0.143
		h-7.263V287.666z M238.376,263.254l-5.598,5.031h0.318l5.882-5.031H238.376z"/>
	<path fill="#6F00FF" d="M263.245,270.093h3.933l3.756,4.535l-0.142,0.106l-3.721-4.252h-3.826c-4.642,0-8.468,3.756-8.468,8.539
		s3.791,8.539,8.468,8.539c4.287,0,8.043-3.154,8.609-7.264h0.178c-0.603,4.322-4.323,7.652-8.787,7.652
		c-4.89,0-8.857-3.932-8.857-8.928S258.355,270.093,263.245,270.093z"/>
	<path fill="#6F00FF" d="M274.367,270.093h3.826v10.983c0,3.826,2.587,6.484,6.307,6.484c3.614,0,6.732-2.941,6.732-6.52v-10.594
		l-3.438-0.213v-0.142h3.827v17.36l3.437,0.213v0.143h-3.826v-5.279c-0.638,3.082-3.401,5.42-6.732,5.42
		c-3.933,0-6.696-2.869-6.696-6.873v-10.629l-3.437-0.213V270.093z"/>
	<path fill="#6F00FF" d="M306.712,269.951c3.543,0,6.59,2.09,8.008,5.066h-15.555c-0.603,1.17-0.921,2.48-0.921,3.933
		c0,4.854,3.791,8.61,8.468,8.61c4.287,0,8.043-3.154,8.609-7.264h0.178c-0.603,4.322-4.323,7.652-8.787,7.652
		c-4.89,0-8.857-3.932-8.857-8.999C297.854,273.884,301.822,269.951,306.712,269.951z M314.188,274.805
		c-1.417-2.657-4.216-4.464-7.476-4.464c-3.188,0-5.987,1.771-7.44,4.464H314.188z"/>
	<path fill="#6F00FF" d="M318.861,287.666l3.437-0.213v-16.864l-3.366,2.339l-0.142-0.107l3.508-2.728h0.39v5.279
		c0.638-3.083,3.401-5.421,6.731-5.421c3.934,0,6.697,2.869,6.697,6.873v10.629l3.437,0.213v0.143h-7.264v-0.143l3.437-0.213
		v-10.629c0-3.826-2.586-6.483-6.307-6.483c-3.613,0-6.731,2.94-6.731,6.519v10.594l3.437,0.213v0.143h-7.263V287.666z"/>
	<path fill="#6F00FF" d="M343.482,282.6v-12.117h-2.374v-0.39h2.374v-7.087h0.39v7.087h5.917v0.39h-5.917v11.904
		c0,3.473,2.231,5.174,4.499,5.174c2.232,0,4.217-1.453,4.5-3.614h0.106c-0.319,2.268-2.268,4.003-4.606,4.003
		C345.82,287.949,343.482,285.966,343.482,282.6z"/>
	<path fill="#6F00FF" d="M358.998,278.95l7.866-2.799c1.204-0.39,1.984-1.488,1.984-2.728c0-1.596-1.56-2.941-3.473-2.941h-5.952
		l-3.791,4.252l-0.142-0.106l3.755-4.535h6.201c2.09,0,3.791,1.523,3.791,3.331v14.029l3.472,0.213v0.143h-3.861v-5.527
		c-0.603,3.508-3.543,5.668-7.299,5.668c-3.862,0-6.271-1.416-6.271-4.57C355.278,281.502,356.767,279.694,358.998,278.95z
		 M361.372,287.561c5.244,0,7.477-3.614,7.477-6.414v-6.199c-0.354,0.708-1.028,1.275-1.878,1.559l-7.866,2.799
		c-2.09,0.709-3.401,2.338-3.401,4.039C355.703,286.497,358.219,287.561,361.372,287.561z"/>
</g>
<g>
	<path fill="#6F00FF" d="M2.085,59.824l6.18-2.747V2.918l-6.18-2.747V0h26.007c12.188,0,19.741,7.124,19.741,17.509
		c0,10.386-7.554,17.51-19.741,17.51H16.934v22.059l6.18,2.747v0.257H2.085V59.824z M25.345,33.646
		c7.554,0,13.219-7.038,13.219-16.136c0-9.098-5.665-16.136-13.219-16.136h-8.411v32.272H25.345z"/>
	<path fill="#6F00FF" d="M43.972,59.91l9.613-5.75L72.124,3.605l-5.149-3.348V0h13.304l22.059,56.906l6.18,2.918v0.257H86.716
		v-0.257l6.18-2.747l-7.21-18.625H60.881L55.13,54.159l9.699,5.75v0.172H43.972V59.91z M85.171,37.165l-12.188-31.5l-11.587,31.5
		H85.171z"/>
	<path fill="#6F00FF" d="M111.437,59.824l6.18-2.747V2.918l-6.18-2.747V0h25.578c12.188,0,19.74,7.038,19.74,17.252
		s-7.553,17.252-19.74,17.252h-10.729v0.086c4.206,11.072,15.192,15.021,31.672,15.021v10.471
		c-17.338-0.687-27.208-11.072-31.672-22.402v19.398l6.18,2.747v0.257h-21.028V59.824z M134.268,33.131
		c7.553,0,13.218-6.781,13.218-15.879S141.82,1.374,134.268,1.374h-7.982v31.757H134.268z"/>
	<path fill="#6F00FF" d="M165.854,59.824l6.18-2.747V2.918l-6.18-2.747V0h21.028v0.172l-6.18,2.747v54.159l6.18,2.747v0.257h-21.028
		V59.824z"/>
	<path fill="#6F00FF" d="M194.951,59.824l6.18-2.747V2.918l-6.18-2.747V0h27.208c16.395,0,26.865,15.278,26.608,30.813
		c-0.258,15.878-10.558,29.268-26.608,29.268h-27.208V59.824z M217.696,58.708c12.789,0,21.973-12.446,22.145-27.895
		c0.172-14.935-9.098-29.44-22.145-29.44H209.8v57.335H217.696z"/>
	<path fill="#6F00FF" d="M248.425,59.91l9.612-5.75l18.54-50.554l-5.15-3.348V0h13.304l22.059,56.906l6.18,2.918v0.257h-21.801
		v-0.257l6.18-2.747l-7.209-18.625h-24.806l-5.751,15.707l9.699,5.75v0.172h-20.856V59.91z M289.623,37.165l-12.188-31.5
		l-11.588,31.5H289.623z"/>
	<path fill="#6F00FF" d="M315.89,59.824l6.18-2.747V2.918l-6.18-2.747V0h27.208c16.395,0,26.865,15.278,26.608,30.813
		c-0.258,15.878-10.558,29.268-26.608,29.268H315.89V59.824z M338.635,58.708c12.789,0,21.973-12.446,22.145-27.895
		c0.172-14.935-9.098-29.44-22.145-29.44h-7.896v57.335H338.635z"/>
</g>
</svg>
