<?xml version="1.0" encoding="utf-8"?>
<!-- Generator: Adobe Illustrator 17.0.0, SVG Export Plug-In . SVG Version: 6.00 Build 0)  -->
<!DOCTYPE svg PUBLIC "-//W3C//DTD SVG 1.1//EN" "http://www.w3.org/Graphics/SVG/1.1/DTD/svg11.dtd">
<svg version="1.1" id="Layer_1" xmlns="http://www.w3.org/2000/svg" xmlns:xlink="http://www.w3.org/1999/xlink" x="0px" y="0px"
	 width="794.446px" height="68.489px" viewBox="0 0 794.446 68.489" enable-background="new 0 0 794.446 68.489"
	 xml:space="preserve">
<g>
	<path fill="#8917FF" d="M12.631,48.841c-2.309,0-4.413-0.562-6.315-1.684c-1.903-1.123-3.432-2.634-4.585-4.538
		C0.576,40.717,0,38.581,0,36.209c0-2.37,0.576-4.521,1.73-6.456c1.153-1.933,2.682-3.462,4.585-4.584
		c1.902-1.123,4.007-1.684,6.315-1.684c2.433,0,4.6,0.562,6.503,1.684c1.902,1.123,3.415,2.652,4.538,4.584
		c1.123,1.935,1.684,4.086,1.684,6.456c0,2.372-0.561,4.507-1.684,6.409c-1.123,1.904-2.636,3.415-4.538,4.538
		C17.231,48.279,15.064,48.841,12.631,48.841z"/>
	<path fill="#8917FF" d="M81.493,68.489c-4.804,0-9.045-0.827-12.725-2.479c-3.682-1.652-6.582-4.023-8.702-7.111
		c-2.121-3.087-3.213-6.845-3.274-11.274h12.631c0.125,3.057,1.231,5.63,3.322,7.719c2.089,2.09,4.973,3.134,8.654,3.134
		c3.182,0,5.707-0.763,7.579-2.292c1.871-1.528,2.807-3.57,2.807-6.128c0-2.681-0.827-4.772-2.479-6.269
		c-1.653-1.497-3.853-2.713-6.597-3.649c-2.745-0.936-5.677-1.933-8.795-2.994c-5.053-1.745-8.904-3.991-11.555-6.736
		c-2.652-2.744-3.977-6.393-3.977-10.947c-0.063-3.867,0.856-7.188,2.76-9.965c1.902-2.774,4.506-4.927,7.812-6.456
		c3.306-1.528,7.111-2.292,11.415-2.292c4.365,0,8.218,0.781,11.556,2.339c3.336,1.56,5.956,3.743,7.859,6.55
		c1.901,2.807,2.915,6.145,3.041,10.011H90.008c-0.063-2.307-0.952-4.351-2.667-6.128c-1.717-1.778-4.103-2.667-7.158-2.667
		c-2.619-0.062-4.818,0.578-6.596,1.918c-1.778,1.342-2.667,3.291-2.667,5.848c0,2.184,0.686,3.915,2.059,5.192
		c1.371,1.279,3.242,2.355,5.614,3.228c2.369,0.875,5.083,1.81,8.14,2.807c3.243,1.123,6.206,2.433,8.889,3.93
		c2.682,1.497,4.833,3.478,6.456,5.941c1.621,2.465,2.433,5.63,2.433,9.497c0,3.431-0.874,6.612-2.62,9.543
		c-1.746,2.933-4.336,5.286-7.766,7.064C90.693,67.6,86.482,68.489,81.493,68.489z"/>
	<path fill="#8917FF" d="M136.976,68.489c-4.491,0-8.531-1.029-12.117-3.087c-3.588-2.059-6.425-4.912-8.515-8.561
		c-2.09-3.649-3.134-7.874-3.134-12.678c0-4.803,1.06-9.029,3.181-12.678c2.12-3.649,4.974-6.502,8.562-8.561
		c3.586-2.059,7.625-3.087,12.116-3.087c4.429,0,8.436,1.029,12.023,3.087c3.586,2.059,6.424,4.912,8.515,8.561
		c2.089,3.649,3.134,7.875,3.134,12.678c0,4.804-1.045,9.029-3.134,12.678c-2.091,3.649-4.944,6.502-8.562,8.561
		C145.427,67.46,141.403,68.489,136.976,68.489z M136.976,58.104c3.118,0,5.831-1.17,8.14-3.509
		c2.307-2.339,3.462-5.816,3.462-10.433c0-4.615-1.155-8.093-3.462-10.433c-2.309-2.339-4.991-3.508-8.047-3.508
		c-3.181,0-5.91,1.169-8.187,3.508c-2.277,2.339-3.415,5.817-3.415,10.433c0,4.617,1.138,8.093,3.415,10.433
		C131.158,56.934,133.856,58.104,136.976,58.104z"/>
	<path fill="#8917FF" d="M171.406,67.367V20.958h10.572l1.029,6.269c1.497-2.246,3.477-4.038,5.941-5.38
		c2.464-1.34,5.317-2.011,8.562-2.011c7.172,0,12.257,2.776,15.251,8.327c1.684-2.557,3.944-4.585,6.783-6.082
		c2.838-1.497,5.941-2.245,9.31-2.245c6.05,0,10.697,1.81,13.941,5.427c3.242,3.618,4.865,8.92,4.865,15.906v26.198h-11.977V42.291
		c0-3.991-0.765-7.048-2.292-9.169c-1.529-2.12-3.883-3.181-7.064-3.181c-3.244,0-5.848,1.186-7.813,3.555
		c-1.965,2.372-2.947,5.677-2.947,9.918v23.953h-11.977V42.291c0-3.991-0.78-7.048-2.339-9.169c-1.56-2.12-3.962-3.181-7.204-3.181
		c-3.182,0-5.755,1.186-7.72,3.555c-1.965,2.372-2.947,5.677-2.947,9.918v23.953H171.406z"/>
	<path fill="#8917FF" d="M281.345,68.489c-4.491,0-8.531-1.029-12.117-3.087c-3.588-2.059-6.425-4.912-8.515-8.561
		c-2.09-3.649-3.134-7.874-3.134-12.678c0-4.803,1.06-9.029,3.181-12.678c2.12-3.649,4.974-6.502,8.562-8.561
		c3.586-2.059,7.625-3.087,12.116-3.087c4.429,0,8.436,1.029,12.023,3.087c3.586,2.059,6.424,4.912,8.515,8.561
		c2.089,3.649,3.134,7.875,3.134,12.678c0,4.804-1.045,9.029-3.134,12.678c-2.091,3.649-4.944,6.502-8.562,8.561
		C289.796,67.46,285.773,68.489,281.345,68.489z M281.345,58.104c3.118,0,5.831-1.17,8.14-3.509
		c2.307-2.339,3.462-5.816,3.462-10.433c0-4.615-1.155-8.093-3.462-10.433c-2.309-2.339-4.991-3.508-8.047-3.508
		c-3.181,0-5.91,1.169-8.187,3.508c-2.277,2.339-3.415,5.817-3.415,10.433c0,4.617,1.138,8.093,3.415,10.433
		C275.527,56.934,278.225,58.104,281.345,58.104z"/>
	<path fill="#8917FF" d="M334.956,68.489c-4.117,0-7.735-0.671-10.854-2.011c-3.12-1.341-5.614-3.196-7.485-5.567
		c-1.871-2.37-2.994-5.114-3.368-8.233h12.069c0.375,1.81,1.388,3.354,3.041,4.631c1.652,1.279,3.79,1.918,6.409,1.918
		c2.62,0,4.538-0.529,5.755-1.591c1.216-1.06,1.824-2.276,1.824-3.649c0-1.996-0.874-3.352-2.62-4.07
		c-1.747-0.716-4.18-1.418-7.298-2.105c-1.997-0.436-4.023-0.966-6.082-1.59c-2.059-0.623-3.945-1.418-5.66-2.386
		c-1.717-0.966-3.104-2.213-4.164-3.742c-1.062-1.528-1.591-3.416-1.591-5.661c0-4.117,1.638-7.579,4.912-10.385
		c3.275-2.807,7.874-4.21,13.801-4.21c5.488,0,9.871,1.279,13.146,3.836c3.274,2.559,5.224,6.082,5.848,10.573h-11.321
		c-0.688-3.43-3.274-5.146-7.766-5.146c-2.246,0-3.977,0.437-5.193,1.31c-1.216,0.874-1.824,1.965-1.824,3.274
		c0,1.373,0.903,2.465,2.713,3.275c1.809,0.812,4.211,1.56,7.205,2.246c3.242,0.749,6.222,1.576,8.936,2.479
		c2.713,0.905,4.88,2.246,6.503,4.023c1.621,1.778,2.433,4.32,2.433,7.625c0.061,2.87-0.688,5.459-2.246,7.766
		c-1.56,2.309-3.806,4.117-6.736,5.427C342.409,67.834,338.947,68.489,334.956,68.489z"/>
	<path fill="#8917FF" d="M387.164,67.367V20.958h10.572l1.029,6.269c1.497-2.246,3.477-4.038,5.941-5.38
		c2.464-1.34,5.317-2.011,8.562-2.011c7.172,0,12.257,2.776,15.251,8.327c1.684-2.557,3.944-4.585,6.783-6.082
		c2.838-1.497,5.941-2.245,9.31-2.245c6.05,0,10.697,1.81,13.941,5.427c3.242,3.618,4.865,8.92,4.865,15.906v26.198h-11.977V42.291
		c0-3.991-0.765-7.048-2.292-9.169c-1.529-2.12-3.883-3.181-7.064-3.181c-3.244,0-5.848,1.186-7.813,3.555
		c-1.965,2.372-2.947,5.677-2.947,9.918v23.953H419.35V42.291c0-3.991-0.78-7.048-2.339-9.169c-1.56-2.12-3.962-3.181-7.204-3.181
		c-3.182,0-5.755,1.186-7.72,3.555c-1.965,2.372-2.947,5.677-2.947,9.918v23.953H387.164z"/>
	<path fill="#8917FF" d="M492.236,68.489c-5.801,0-10.277-1.808-13.426-5.427c-3.15-3.617-4.726-8.919-4.726-15.906V20.958h11.883
		v25.075c0,3.993,0.81,7.05,2.433,9.169c1.621,2.122,4.179,3.181,7.673,3.181c3.305,0,6.034-1.184,8.187-3.555
		c2.152-2.37,3.229-5.675,3.229-9.918V20.958h11.976v46.408h-10.572l-0.936-7.859c-1.437,2.746-3.509,4.928-6.223,6.549
		C499.021,67.678,495.854,68.489,492.236,68.489z"/>
	<path fill="#8917FF" d="M554.457,68.489c-4.741,0-8.921-1.029-12.538-3.087c-3.618-2.059-6.472-4.927-8.562-8.608
		c-2.09-3.68-3.134-7.89-3.134-12.631c0-4.74,1.044-8.95,3.134-12.631c2.09-3.68,4.943-6.549,8.562-8.608
		c3.617-2.059,7.797-3.087,12.538-3.087c5.925,0,10.915,1.543,14.97,4.631c4.055,3.087,6.644,7.345,7.767,12.771h-12.632
		c-0.624-2.246-1.856-4.007-3.695-5.286c-1.841-1.278-4.009-1.918-6.503-1.918c-3.307,0-6.114,1.249-8.421,3.743
		c-2.309,2.496-3.462,5.958-3.462,10.386c0,4.43,1.153,7.892,3.462,10.386c2.307,2.496,5.114,3.743,8.421,3.743
		c2.494,0,4.662-0.623,6.503-1.872c1.839-1.247,3.071-3.024,3.695-5.333h12.632c-1.123,5.24-3.712,9.45-7.767,12.631
		S560.382,68.489,554.457,68.489z"/>
	<path fill="#8917FF" d="M587.858,67.367V0h11.976v28.069c1.559-2.557,3.664-4.568,6.316-6.035c2.65-1.465,5.691-2.199,9.122-2.199
		c5.738,0,10.183,1.81,13.333,5.427c3.149,3.618,4.726,8.92,4.726,15.906v26.198h-11.883V42.291c0-3.991-0.796-7.048-2.387-9.169
		c-1.59-2.12-4.102-3.181-7.531-3.181c-3.368,0-6.161,1.186-8.374,3.555c-2.215,2.372-3.322,5.677-3.322,9.918v23.953H587.858z"/>
	<path fill="#8917FF" d="M660.743,68.489c-3.992,0-7.268-0.64-9.824-1.918c-2.559-1.278-4.46-2.978-5.707-5.099
		c-1.249-2.12-1.871-4.459-1.871-7.018c0-4.304,1.684-7.796,5.052-10.479c3.368-2.681,8.421-4.023,15.158-4.023h11.789v-1.123
		c0-3.181-0.905-5.521-2.714-7.018c-1.81-1.497-4.056-2.246-6.736-2.246c-2.433,0-4.554,0.578-6.362,1.731
		c-1.811,1.155-2.933,2.854-3.368,5.099h-11.696c0.312-3.368,1.45-6.299,3.415-8.795c1.965-2.494,4.506-4.412,7.626-5.754
		c3.118-1.34,6.61-2.011,10.479-2.011c6.61,0,11.819,1.653,15.625,4.958c3.804,3.307,5.707,7.985,5.707,14.035v28.537h-10.198
		l-1.123-7.485c-1.372,2.496-3.29,4.554-5.754,6.175C667.775,67.678,664.61,68.489,660.743,68.489z M663.457,59.133
		c3.43,0,6.096-1.123,8-3.368c1.901-2.246,3.102-5.021,3.602-8.327H664.86c-3.182,0-5.459,0.577-6.83,1.731
		c-1.373,1.155-2.059,2.573-2.059,4.257c0,1.81,0.686,3.213,2.059,4.21C659.401,58.634,661.211,59.133,663.457,59.133z"/>
	<path fill="#8917FF" d="M717.912,68.489c-4.117,0-7.735-0.671-10.854-2.011c-3.12-1.341-5.614-3.196-7.485-5.567
		c-1.871-2.37-2.994-5.114-3.368-8.233h12.069c0.375,1.81,1.388,3.354,3.041,4.631c1.652,1.279,3.79,1.918,6.409,1.918
		c2.62,0,4.538-0.529,5.755-1.591c1.216-1.06,1.824-2.276,1.824-3.649c0-1.996-0.874-3.352-2.62-4.07
		c-1.747-0.716-4.18-1.418-7.298-2.105c-1.997-0.436-4.023-0.966-6.082-1.59c-2.059-0.623-3.945-1.418-5.66-2.386
		c-1.717-0.966-3.104-2.213-4.164-3.742c-1.062-1.528-1.591-3.416-1.591-5.661c0-4.117,1.638-7.579,4.912-10.385
		c3.275-2.807,7.874-4.21,13.801-4.21c5.488,0,9.871,1.279,13.146,3.836c3.274,2.559,5.224,6.082,5.848,10.573h-11.321
		c-0.688-3.43-3.274-5.146-7.766-5.146c-2.246,0-3.977,0.437-5.193,1.31c-1.216,0.874-1.824,1.965-1.824,3.274
		c0,1.373,0.903,2.465,2.713,3.275c1.809,0.812,4.211,1.56,7.205,2.246c3.242,0.749,6.222,1.576,8.936,2.479
		c2.713,0.905,4.88,2.246,6.503,4.023c1.621,1.778,2.433,4.32,2.433,7.625c0.061,2.87-0.688,5.459-2.246,7.766
		c-1.56,2.309-3.806,4.117-6.736,5.427C725.365,67.834,721.903,68.489,717.912,68.489z"/>
	<path fill="#8917FF" d="M781.722,48.841c-2.309,0-4.413-0.562-6.315-1.684c-1.903-1.123-3.432-2.634-4.585-4.538
		c-1.154-1.902-1.73-4.038-1.73-6.409c0-2.37,0.576-4.521,1.73-6.456c1.153-1.933,2.682-3.462,4.585-4.584
		c1.902-1.123,4.007-1.684,6.315-1.684c2.433,0,4.6,0.562,6.503,1.684c1.902,1.123,3.415,2.652,4.538,4.584
		c1.123,1.935,1.684,4.086,1.684,6.456c0,2.372-0.561,4.507-1.684,6.409c-1.123,1.904-2.636,3.415-4.538,4.538
		C786.321,48.279,784.154,48.841,781.722,48.841z"/>
</g>
</svg>
