<svg width="544" height="144" viewBox="0 0 544 144" fill="none" xmlns="http://www.w3.org/2000/svg">
<path d="M360.772 81.4094C361.066 81.4094 361.349 81.2901 361.545 81.084C361.654 80.9857 361.731 80.8664 361.785 80.7362C361.84 80.6061 361.872 80.4651 361.872 80.3241C361.872 80.0312 361.753 79.7492 361.545 79.5533C361.295 79.3038 360.924 79.1845 360.565 79.2604C360.5 79.2713 360.424 79.293 360.359 79.3147C360.294 79.3479 360.228 79.3797 360.174 79.4231C360.119 79.4564 360.065 79.4998 360.011 79.5533C359.804 79.7492 359.695 80.0312 359.695 80.3241C359.695 80.4651 359.716 80.6068 359.771 80.7362C359.825 80.8664 359.912 80.9857 360.011 81.084C360.065 81.1382 360.119 81.1816 360.174 81.225C360.228 81.2575 360.294 81.2901 360.359 81.3226C360.424 81.3552 360.5 81.366 360.565 81.3877C360.631 81.3993 360.707 81.4094 360.772 81.4094Z" fill="#32BD9F"/>
<path d="M360.555 75.6018C361.154 75.5258 361.568 74.9828 361.503 74.3863C361.426 73.7891 360.882 73.3653 360.283 73.4413C359.684 73.5172 359.26 74.0602 359.336 74.6574C359.412 75.2005 359.88 75.6126 360.413 75.6126C360.457 75.6126 360.511 75.6018 360.555 75.6018ZM269.448 74.5808C269.524 73.9836 269.099 73.4413 268.501 73.3646C267.913 73.2887 267.368 73.7124 267.293 74.3097C267.216 74.9069 267.641 75.4499 268.229 75.5258C268.283 75.5258 268.327 75.5367 268.37 75.5367C268.914 75.536 269.383 75.1347 269.448 74.5808ZM359.608 69.8693C360.184 69.7175 360.533 69.1311 360.391 68.5447C360.239 67.9698 359.651 67.6221 359.063 67.7631C358.486 67.9149 358.127 68.5013 358.279 69.087C358.409 69.5758 358.845 69.9012 359.336 69.9012C359.423 69.9019 359.51 69.891 359.608 69.8693ZM270.515 69.0118C270.667 68.4362 270.319 67.839 269.731 67.698C269.154 67.5461 268.555 67.8932 268.413 68.4688C268.261 69.0552 268.61 69.6416 269.197 69.7927C269.284 69.8144 269.371 69.826 269.458 69.826C269.949 69.826 270.395 69.5006 270.515 69.0118ZM357.931 64.3003C358.497 64.0827 358.769 63.4529 358.552 62.8889C358.323 62.3358 357.692 62.0639 357.136 62.2808C356.57 62.5086 356.298 63.1384 356.526 63.6922C356.689 64.1152 357.103 64.3762 357.539 64.3762C357.67 64.3762 357.8 64.3545 357.931 64.3003ZM272.279 63.6271C272.507 63.0733 272.235 62.4442 271.669 62.2157C271.114 61.9988 270.482 62.2707 270.265 62.8238C270.036 63.3777 270.308 64.0183 270.864 64.2352C270.994 64.2895 271.136 64.3112 271.267 64.3112C271.701 64.3104 272.115 64.0501 272.279 63.6271ZM355.578 58.9909C356.101 58.698 356.297 58.0357 356.003 57.5144C355.71 56.993 355.055 56.7978 354.522 57.0907C353.999 57.3727 353.804 58.0357 354.097 58.5563C354.293 58.9251 354.664 59.121 355.055 59.121C355.23 59.1217 355.415 59.0784 355.578 58.9909ZM274.707 58.5021V58.5129C275 57.9808 274.815 57.3184 274.282 57.0364C273.76 56.7436 273.095 56.928 272.801 57.4601C272.518 57.9815 272.703 58.6438 273.226 58.9366C273.4 59.0234 273.574 59.0668 273.76 59.0668C274.14 59.0668 274.511 58.8607 274.707 58.5021ZM352.562 54.0184C353.052 53.6597 353.161 52.9866 352.802 52.4985C352.454 52.0097 351.767 51.9012 351.289 52.2592C350.799 52.607 350.69 53.291 351.049 53.779C351.256 54.0618 351.594 54.2244 351.931 54.2244C352.149 54.2252 352.377 54.1492 352.562 54.0184ZM277.766 53.7255C278.126 53.2476 278.017 52.5643 277.527 52.2165C277.048 51.8586 276.362 51.967 276.014 52.4443C276.014 52.4443 276.014 52.4443 276.003 52.4443C275.654 52.9331 275.763 53.6171 276.242 53.9649C276.438 54.1059 276.667 54.1709 276.884 54.1709C277.222 54.1709 277.56 54.0184 277.766 53.7255ZM348.958 49.4587C349.394 49.0466 349.416 48.3626 349.001 47.9172C348.588 47.4833 347.902 47.4609 347.467 47.8738C347.032 48.2867 347.009 48.9707 347.423 49.4045C347.63 49.6323 347.924 49.7516 348.218 49.7516C348.479 49.7516 348.751 49.654 348.958 49.4587ZM281.404 49.372C281.807 48.9266 281.796 48.2426 281.35 47.8297C280.915 47.4175 280.228 47.4392 279.814 47.8731C279.4 48.3185 279.422 49.0025 279.857 49.4154C280.075 49.6106 280.337 49.7082 280.609 49.7082C280.892 49.7082 281.186 49.5889 281.404 49.372ZM344.81 45.3771C345.19 44.9215 345.125 44.2375 344.667 43.8572C344.2 43.466 343.514 43.5311 343.133 43.9982C342.751 44.4537 342.806 45.1377 343.274 45.5289C343.481 45.6916 343.721 45.7784 343.971 45.7784C344.276 45.7791 344.592 45.6374 344.81 45.3771ZM285.552 45.4855C286.01 45.1052 286.075 44.4219 285.694 43.9548C285.313 43.4993 284.628 43.4335 284.159 43.8138C283.702 44.1941 283.636 44.8774 284.018 45.3445C284.235 45.6048 284.541 45.735 284.856 45.735C285.095 45.735 285.346 45.6591 285.552 45.4855ZM340.182 41.8594C340.508 41.3496 340.356 40.6764 339.845 40.3511C339.344 40.0358 338.668 40.1884 338.342 40.6873C338.027 41.197 338.168 41.8702 338.679 42.1855C338.865 42.3048 339.061 42.359 339.257 42.359C339.626 42.359 339.975 42.1855 340.182 41.8594ZM290.147 42.1522C290.659 41.8377 290.812 41.1645 290.484 40.654C290.168 40.1544 289.493 40.0025 288.982 40.3178C288.481 40.6439 288.328 41.3163 288.645 41.8167C288.851 42.1421 289.211 42.3265 289.57 42.3265C289.766 42.3265 289.973 42.2722 290.147 42.1522ZM335.151 38.9281C335.412 38.3959 335.173 37.7451 334.628 37.4841C334.084 37.2347 333.442 37.4624 333.18 38.0054C332.93 38.5485 333.158 39.1999 333.703 39.4494C333.855 39.5253 334.007 39.5579 334.16 39.5579C334.574 39.5579 334.966 39.3301 335.151 38.9281ZM295.135 39.4277C295.679 39.1667 295.918 38.5268 295.657 37.9838C295.396 37.4407 294.754 37.2021 294.209 37.4624C293.665 37.7119 293.436 38.3634 293.686 38.9064C293.871 39.2968 294.263 39.5253 294.678 39.5253C294.829 39.5253 294.982 39.4928 295.135 39.4277ZM329.794 36.67C329.979 36.0951 329.663 35.487 329.097 35.2911C329.097 35.2911 329.097 35.2911 329.086 35.2911C328.52 35.1067 327.899 35.4212 327.714 35.9968C327.529 36.5615 327.845 37.1804 328.422 37.3648C328.531 37.3973 328.64 37.419 328.76 37.419C329.217 37.419 329.642 37.1262 329.794 36.67ZM300.426 37.3431C300.993 37.1587 301.308 36.5398 301.123 35.9751C300.938 35.4003 300.328 35.0958 299.751 35.2694C299.751 35.2694 299.751 35.2694 299.751 35.2802C299.185 35.4538 298.87 36.0727 299.055 36.6374C299.207 37.1038 299.632 37.3974 300.089 37.3974C300.198 37.3974 300.318 37.3757 300.426 37.3431ZM324.187 35.085C324.295 34.4986 323.915 33.9339 323.315 33.8146C322.727 33.7061 322.16 34.0966 322.041 34.683C321.932 35.2694 322.324 35.8449 322.912 35.9534C322.977 35.9642 323.042 35.9751 323.118 35.9751C323.63 35.9751 324.088 35.6063 324.187 35.085ZM305.937 35.9425C306.536 35.8232 306.916 35.2585 306.808 34.6721C306.699 34.0749 306.122 33.6946 305.533 33.803C304.945 33.9115 304.554 34.487 304.662 35.0734C304.76 35.5948 305.217 35.9527 305.729 35.9527C305.805 35.9534 305.871 35.9534 305.937 35.9425ZM318.426 34.2274C318.459 33.6302 318.012 33.1096 317.402 33.0763C316.803 33.0438 316.292 33.4885 316.248 34.0966C316.216 34.6938 316.673 35.2036 317.272 35.2477C317.293 35.2477 317.315 35.2477 317.337 35.2477C317.914 35.2477 318.393 34.8023 318.426 34.2274ZM311.577 35.2368C312.186 35.2036 312.643 34.683 312.6 34.0857C312.567 33.4885 312.044 33.0322 311.445 33.0756C310.846 33.1081 310.389 33.6186 310.432 34.2267C310.465 34.8016 310.944 35.2368 311.511 35.2368C311.533 35.2368 311.555 35.2368 311.577 35.2368Z" fill="#32BD9F"/>
<path d="M268 81.4096C268.141 81.4096 268.283 81.377 268.413 81.3228C268.555 81.2686 268.663 81.1927 268.773 81.0842C268.969 80.889 269.088 80.6063 269.088 80.3243C269.088 80.0314 268.968 79.7596 268.773 79.5535C268.664 79.4559 268.544 79.3691 268.413 79.3142C268.01 79.1515 267.531 79.2498 267.227 79.5535C267.03 79.7596 266.911 80.0314 266.911 80.3243C266.911 80.607 267.03 80.889 267.227 81.0842C267.325 81.1927 267.444 81.2686 267.586 81.3228C267.716 81.3778 267.858 81.4096 268 81.4096Z" fill="#32BD9F"/>
<path d="M347.053 81.4096C347.129 81.4096 347.194 81.3987 347.27 81.3879C347.335 81.3662 347.401 81.3554 347.467 81.3228C347.543 81.3011 347.597 81.2577 347.662 81.2252C347.718 81.1818 347.771 81.1384 347.826 81.0842C347.881 81.0408 347.924 80.9859 347.957 80.9208C348 80.8666 348.034 80.8015 348.066 80.7364C348.087 80.6713 348.109 80.6063 348.12 80.5303C348.142 80.4653 348.142 80.3893 348.142 80.3243C348.142 80.0314 348.033 79.7596 347.826 79.5535C347.521 79.2498 347.042 79.1515 346.639 79.3142C346.509 79.3691 346.389 79.4559 346.291 79.5535C346.182 79.6511 346.106 79.7711 346.051 79.9006C345.997 80.0423 345.964 80.1833 345.964 80.3243C345.964 80.607 346.084 80.889 346.29 81.0842C346.487 81.291 346.77 81.4096 347.053 81.4096Z" fill="#32BD9F"/>
<path d="M346.748 75.7322C347.347 75.6237 347.739 75.0698 347.641 74.4726C347.532 73.8862 346.966 73.4849 346.378 73.5933C345.779 73.6917 345.387 74.2557 345.496 74.8529C345.583 75.3743 346.041 75.7437 346.563 75.7437C346.628 75.743 346.682 75.743 346.748 75.7322ZM283.298 74.7987C283.396 74.2123 283.005 73.6476 282.416 73.5391C281.817 73.4415 281.252 73.832 281.154 74.4184C281.045 75.0149 281.448 75.5796 282.036 75.6779C282.101 75.6888 282.166 75.6996 282.221 75.6996C282.743 75.6996 283.2 75.3301 283.298 74.7987ZM345.463 70.195C346.029 69.9889 346.323 69.3699 346.116 68.806C345.91 68.2412 345.289 67.9585 344.723 68.1545C344.157 68.3606 343.863 68.9903 344.07 69.555C344.233 69.9889 344.646 70.2716 345.093 70.2716C345.212 70.2716 345.343 70.2499 345.463 70.195ZM284.725 69.5008C284.931 68.947 284.638 68.3172 284.071 68.1111C283.505 67.905 282.885 68.1979 282.678 68.7626C282.472 69.3273 282.765 69.9455 283.332 70.1523C283.451 70.1957 283.582 70.2174 283.701 70.2174C284.148 70.2167 284.562 69.9455 284.725 69.5008ZM343.231 64.973C343.754 64.6802 343.928 64.0178 343.622 63.4965C343.329 62.9752 342.664 62.8017 342.141 63.0945C341.619 63.3989 341.444 64.0605 341.738 64.5818C341.945 64.9289 342.315 65.1248 342.685 65.1248C342.871 65.1248 343.056 65.0713 343.231 64.973ZM287.055 64.5392C287.359 64.0178 287.185 63.3562 286.663 63.0627C286.14 62.7583 285.476 62.9325 285.171 63.4531C284.878 63.9636 285.051 64.6361 285.574 64.9296C285.738 65.0381 285.934 65.0815 286.119 65.0815C286.489 65.0815 286.859 64.8862 287.055 64.5392ZM340.117 60.2181C340.574 59.8378 340.64 59.1545 340.247 58.6983C339.866 58.2312 339.18 58.1769 338.722 58.5573C338.254 58.9477 338.199 59.6317 338.581 60.088C338.799 60.349 339.104 60.4792 339.419 60.4792C339.67 60.4784 339.91 60.3917 340.117 60.2181ZM290.223 60.0555C290.616 59.5992 290.55 58.9043 290.093 58.5247C289.635 58.1343 288.949 58.1994 288.558 58.6549C288.176 59.1111 288.231 59.7944 288.688 60.1856C288.895 60.3591 289.145 60.4351 289.384 60.4351C289.7 60.4351 290.006 60.3049 290.223 60.0555ZM336.229 56.0707C336.61 55.6144 336.556 54.9304 336.087 54.5508C336.087 54.5508 336.087 54.5508 336.098 54.5508C335.63 54.1596 334.944 54.2247 334.563 54.6809C334.171 55.1372 334.237 55.8212 334.693 56.2117C334.9 56.3744 335.151 56.4611 335.39 56.4611C335.707 56.4618 336.011 56.331 336.229 56.0707ZM294.121 56.1798C294.579 55.7995 294.644 55.1047 294.252 54.6491C293.87 54.1929 293.185 54.1278 292.717 54.519C292.26 54.8993 292.194 55.5826 292.586 56.0497C292.804 56.2992 293.109 56.43 293.424 56.43C293.664 56.4293 293.915 56.3527 294.121 56.1798ZM331.677 52.6622C331.982 52.1408 331.797 51.4792 331.285 51.1748C330.762 50.882 330.099 51.0555 329.794 51.5768C329.489 52.0873 329.674 52.7598 330.186 53.0642C330.36 53.1618 330.545 53.2052 330.73 53.2052C331.112 53.2044 331.482 53.0092 331.677 52.6622ZM298.63 53.0309C299.153 52.7381 299.327 52.0649 299.022 51.5544C298.728 51.0331 298.064 50.8487 297.541 51.1524C297.018 51.4568 296.844 52.1191 297.138 52.6289C297.344 52.9868 297.704 53.182 298.085 53.182C298.27 53.1828 298.455 53.1293 298.63 53.0309ZM326.603 50.0888C326.81 49.5241 326.516 48.8943 325.95 48.6998C325.383 48.4821 324.763 48.7757 324.556 49.3404C324.35 49.9051 324.643 50.5233 325.21 50.7301C325.33 50.7735 325.46 50.7945 325.58 50.7945C326.026 50.7945 326.44 50.5226 326.603 50.0888ZM303.617 50.7186C304.184 50.5125 304.477 49.8935 304.271 49.3296C304.063 48.7648 303.443 48.472 302.877 48.6781C302.31 48.8842 302.017 49.5031 302.223 50.0671C302.387 50.5125 302.801 50.7836 303.247 50.7836C303.366 50.7836 303.498 50.7619 303.617 50.7186ZM321.159 48.4387C321.257 47.8415 320.865 47.2775 320.266 47.1799C319.678 47.0714 319.112 47.4619 319.014 48.0591C318.906 48.6448 319.297 49.2095 319.896 49.318C319.961 49.3288 320.017 49.3288 320.082 49.3288C320.604 49.3288 321.061 48.9594 321.159 48.4387ZM308.931 49.3071C309.519 49.1987 309.922 48.6448 309.813 48.0476C309.715 47.4612 309.149 47.0591 308.561 47.1683C307.962 47.2659 307.57 47.8307 307.668 48.4279C307.766 48.9492 308.223 49.318 308.746 49.318C308.8 49.318 308.865 49.318 308.931 49.3071ZM314.419 48.84C315.018 48.84 315.508 48.3513 315.508 47.754C315.508 47.1568 315.018 46.668 314.419 46.668C313.809 46.668 313.329 47.1459 313.319 47.754C313.319 48.3513 313.809 48.84 314.408 48.84C315.018 48.84 314.408 48.84 314.419 48.84Z" fill="#32BD9F"/>
<path d="M281.719 81.4096C281.861 81.4096 282.002 81.377 282.144 81.3228C282.274 81.2686 282.394 81.1927 282.493 81.0842C282.59 80.9859 282.677 80.8666 282.732 80.7364C282.787 80.6063 282.809 80.4653 282.809 80.3243C282.809 80.2483 282.809 80.1833 282.787 80.1066C282.776 80.0423 282.754 79.9656 282.732 79.9006C282.699 79.8355 282.667 79.7812 282.623 79.7162C282.59 79.6619 282.547 79.6077 282.493 79.5535C282.394 79.4559 282.274 79.3691 282.144 79.3142C281.74 79.1515 281.251 79.2498 280.946 79.5535C280.903 79.6077 280.859 79.6619 280.815 79.7162C280.782 79.7812 280.738 79.8355 280.717 79.9006C280.695 79.9656 280.673 80.0423 280.651 80.1066C280.64 80.1833 280.63 80.2483 280.63 80.3243C280.63 80.4653 280.663 80.607 280.717 80.7364C280.772 80.8666 280.848 80.9859 280.946 81.0842C281.153 81.291 281.437 81.4096 281.719 81.4096Z" fill="#32BD9F"/>
<path d="M333.67 81.4096C333.953 81.4096 334.237 81.2903 334.443 81.0842C334.639 80.889 334.759 80.6063 334.759 80.3243C334.759 80.0314 334.639 79.7596 334.443 79.5535C334.138 79.2498 333.648 79.1515 333.256 79.3142C333.115 79.3691 333.006 79.4559 332.897 79.5535C332.701 79.7596 332.581 80.0314 332.581 80.3243C332.581 80.3893 332.592 80.4653 332.603 80.5303C332.613 80.607 332.635 80.6713 332.667 80.7364C332.689 80.8015 332.722 80.8666 332.766 80.9208C332.809 80.9859 332.853 81.0408 332.896 81.0842C333.104 81.291 333.387 81.4096 333.67 81.4096Z" fill="#32BD9F"/>
<path d="M333.202 75.9382C333.778 75.7755 334.105 75.1674 333.931 74.5925C333.768 74.017 333.158 73.6916 332.582 73.8543C332.015 74.0278 331.678 74.6251 331.851 75.2006C331.982 75.6786 332.418 75.9823 332.897 75.9823C332.995 75.9815 333.093 75.9714 333.202 75.9382ZM296.931 75.1891C297.105 74.6142 296.779 74.0061 296.201 73.8434C295.624 73.6692 295.015 73.9953 294.851 74.5708C294.677 75.1457 295.003 75.7538 295.581 75.9165C295.689 75.9497 295.788 75.9714 295.886 75.9714C296.365 75.9714 296.789 75.6562 296.931 75.1891ZM331.199 70.8362C331.71 70.5101 331.851 69.837 331.525 69.3373C331.199 68.8276 330.523 68.6866 330.022 69.0119C329.51 69.3373 329.369 70.0105 329.695 70.5101C329.903 70.8362 330.251 71.0098 330.611 71.0098C330.817 71.009 331.013 70.9555 331.199 70.8362ZM299.087 70.4993C299.414 69.9996 299.272 69.3265 298.771 69.0004C298.26 68.675 297.585 68.816 297.258 69.3156C297.258 69.3156 297.258 69.3156 297.269 69.3156C296.932 69.8261 297.084 70.4993 297.585 70.8247C297.77 70.944 297.977 70.9989 298.173 70.9989C298.532 70.9989 298.88 70.8247 299.087 70.4993ZM327.834 66.5036C328.237 66.0481 328.183 65.3641 327.725 64.9729C327.278 64.5716 326.592 64.6259 326.19 65.0814C325.798 65.5376 325.852 66.2217 326.298 66.6121C326.505 66.7864 326.766 66.8724 327.016 66.8724C327.322 66.8731 327.627 66.7538 327.834 66.5036ZM302.485 66.6013C302.942 66.2108 302.996 65.5268 302.593 65.0705C302.201 64.6143 301.515 64.5709 301.058 64.9621C300.611 65.3525 300.557 66.0365 300.949 66.4928C301.168 66.7423 301.472 66.8616 301.777 66.8616C302.028 66.8623 302.278 66.7755 302.485 66.6013ZM323.391 63.2795C323.642 62.7365 323.402 62.0966 322.858 61.8464C322.313 61.5969 321.66 61.8356 321.41 62.3786C321.16 62.9216 321.399 63.5724 321.954 63.8218C322.096 63.8869 322.248 63.9201 322.401 63.9201C322.814 63.9201 323.217 63.6808 323.391 63.2795ZM306.84 63.8117C307.385 63.5622 307.635 62.9216 307.385 62.3786C307.135 61.8247 306.481 61.5861 305.937 61.8356C305.392 62.085 305.153 62.7256 305.404 63.2788C305.578 63.67 305.98 63.9086 306.394 63.9086C306.546 63.9093 306.699 63.8768 306.84 63.8117ZM318.219 61.4444C318.306 60.8479 317.892 60.3048 317.293 60.2181C316.705 60.1313 316.15 60.5442 316.063 61.1407C315.976 61.7271 316.39 62.2802 316.988 62.3677C317.042 62.3677 317.087 62.3786 317.14 62.3786C317.674 62.3786 318.143 61.9874 318.219 61.4444ZM311.806 62.3677C312.405 62.281 312.818 61.7271 312.731 61.1298C312.654 60.5442 312.099 60.1313 311.5 60.2181C311.5 60.2181 311.5 60.2181 311.5 60.2072C310.901 60.294 310.488 60.8479 310.575 61.4444C310.651 61.9874 311.12 62.3786 311.653 62.3786C311.707 62.3786 311.762 62.3677 311.806 62.3677Z" fill="#32BD9F"/>
<path d="M295.102 81.4096C295.395 81.4096 295.668 81.2903 295.876 81.095C295.93 81.0408 295.973 80.9866 296.017 80.9208C296.05 80.8666 296.082 80.8015 296.115 80.7364C296.137 80.6713 296.158 80.6062 296.169 80.5303C296.191 80.4653 296.191 80.3893 296.191 80.3243C296.191 80.0423 296.082 79.7595 295.876 79.5535C295.472 79.1514 294.743 79.1514 294.34 79.5535C294.134 79.7595 294.013 80.0423 294.013 80.3243C294.013 80.3893 294.024 80.4653 294.035 80.5303C294.057 80.607 294.078 80.6713 294.1 80.7364C294.133 80.8015 294.166 80.8666 294.198 80.9208C294.242 80.9859 294.285 81.0408 294.34 81.095C294.383 81.1384 294.437 81.1818 294.503 81.2252C294.557 81.2577 294.622 81.3011 294.688 81.3228C294.753 81.3553 294.829 81.377 294.894 81.3879C294.96 81.3994 295.037 81.4096 295.102 81.4096Z" fill="#32BD9F"/>
<path d="M202.132 86.8379C202.427 86.8379 202.699 86.7186 202.905 86.5125C202.96 86.4692 203.003 86.4142 203.036 86.3491C203.079 86.2949 203.113 86.2298 203.145 86.1647C203.167 86.0997 203.188 86.0346 203.2 85.9587C203.221 85.8936 203.221 85.8177 203.221 85.7526C203.221 85.6767 203.221 85.6116 203.2 85.535C203.188 85.4706 203.167 85.4048 203.145 85.3289C203.113 85.2638 203.08 85.2096 203.036 85.1445C203.003 85.0903 202.959 85.036 202.905 84.9818C202.807 84.8842 202.687 84.7974 202.557 84.7425C202.285 84.634 201.98 84.634 201.719 84.7425C201.588 84.7967 201.468 84.8842 201.37 84.9818C201.316 85.036 201.272 85.0903 201.229 85.1445C201.196 85.2096 201.153 85.2638 201.131 85.3289C201.097 85.4055 201.087 85.4706 201.066 85.535C201.055 85.6116 201.044 85.6767 201.044 85.7526C201.044 85.8177 201.055 85.8936 201.066 85.9587C201.087 86.0353 201.098 86.0997 201.131 86.1647C201.153 86.2298 201.195 86.2949 201.229 86.3491C201.272 86.4142 201.316 86.4692 201.37 86.5125C201.567 86.7186 201.849 86.8379 202.132 86.8379Z" fill="#32BD9F"/>
<path d="M251.471 133C252.069 132.956 252.527 132.446 252.483 131.848C252.451 131.251 251.939 130.796 251.34 130.828C250.741 130.872 250.273 131.382 250.316 131.979C250.349 132.554 250.828 133 251.405 133C251.427 133 251.448 133 251.471 133ZM246.668 131.979C246.7 131.382 246.243 130.861 245.644 130.828C245.045 130.785 244.534 131.24 244.491 131.838C244.458 132.436 244.915 132.956 245.514 132.989C245.536 132.989 245.557 133 245.58 133C246.156 133 246.625 132.554 246.668 131.979ZM257.383 132.261C257.383 132.261 257.383 132.261 257.383 132.272C257.971 132.153 258.362 131.588 258.254 131.002C258.133 130.405 257.568 130.025 256.98 130.133C256.381 130.241 255.999 130.806 256.109 131.403C256.206 131.924 256.663 132.282 257.175 132.282C257.241 132.283 257.307 132.272 257.383 132.261ZM240.875 131.393C240.984 130.796 240.593 130.232 240.004 130.123C239.416 130.003 238.839 130.394 238.73 130.98C238.621 131.566 239.002 132.141 239.601 132.251C239.601 132.251 239.601 132.251 239.59 132.251C239.666 132.261 239.732 132.272 239.797 132.272C240.32 132.272 240.767 131.903 240.875 131.393ZM263.154 130.796C263.731 130.611 264.047 130.004 263.862 129.428C263.677 128.864 263.056 128.549 262.49 128.734C261.912 128.919 261.608 129.526 261.793 130.102C261.934 130.558 262.37 130.851 262.828 130.851C262.936 130.85 263.045 130.828 263.154 130.796ZM235.202 130.079C235.387 129.504 235.072 128.896 234.494 128.711C233.928 128.527 233.317 128.831 233.121 129.406C232.937 129.971 233.252 130.589 233.83 130.774C233.938 130.807 234.048 130.828 234.156 130.828C234.625 130.828 235.051 130.535 235.202 130.079ZM268.707 128.614C269.252 128.353 269.48 127.713 269.23 127.17C268.968 126.627 268.326 126.388 267.782 126.648C267.237 126.898 266.998 127.549 267.259 128.092C267.444 128.483 267.836 128.711 268.239 128.711C268.402 128.711 268.555 128.679 268.707 128.614ZM229.737 128.06C229.986 127.517 229.758 126.877 229.214 126.616C228.669 126.367 228.017 126.595 227.766 127.138C227.504 127.681 227.745 128.332 228.289 128.582C228.43 128.658 228.592 128.69 228.745 128.69C229.159 128.689 229.55 128.451 229.737 128.06ZM273.934 125.747C274.435 125.422 274.587 124.76 274.272 124.249C273.945 123.739 273.27 123.598 272.769 123.913C272.257 124.239 272.105 124.901 272.431 125.412C272.638 125.737 272.987 125.922 273.345 125.922C273.553 125.922 273.749 125.867 273.934 125.747ZM224.575 125.379C224.891 124.879 224.75 124.206 224.237 123.88C223.726 123.554 223.061 123.706 222.734 124.217C222.408 124.716 222.559 125.389 223.072 125.715C223.245 125.823 223.453 125.888 223.649 125.888C224.008 125.889 224.367 125.704 224.575 125.379ZM278.758 122.252C279.215 121.872 279.281 121.188 278.899 120.732C278.518 120.265 277.832 120.2 277.364 120.58C276.906 120.961 276.841 121.644 277.222 122.111C277.44 122.371 277.745 122.501 278.06 122.501C278.301 122.501 278.551 122.426 278.758 122.252ZM219.783 122.078C220.176 121.612 220.11 120.927 219.642 120.548C219.174 120.168 218.488 120.222 218.107 120.689C217.726 121.146 217.791 121.841 218.248 122.22C218.455 122.384 218.706 122.47 218.946 122.47C219.261 122.469 219.566 122.339 219.783 122.078ZM283.103 118.191C283.517 117.757 283.495 117.073 283.06 116.661C282.613 116.248 281.927 116.27 281.513 116.705C281.099 117.139 281.121 117.823 281.556 118.235C281.775 118.431 282.036 118.528 282.308 118.528C282.601 118.528 282.885 118.419 283.103 118.191ZM215.45 118.202C215.885 117.79 215.907 117.095 215.494 116.661C215.09 116.226 214.394 116.204 213.958 116.617C213.523 117.018 213.502 117.713 213.915 118.148C214.121 118.376 214.416 118.496 214.699 118.496C214.971 118.496 215.243 118.397 215.45 118.202ZM286.903 113.621C287.262 113.144 287.153 112.46 286.663 112.101C286.184 111.754 285.498 111.862 285.15 112.34C284.79 112.828 284.9 113.502 285.389 113.86C285.574 114.001 285.803 114.066 286.021 114.066C286.358 114.066 286.696 113.914 286.903 113.621ZM211.628 113.817C212.118 113.458 212.227 112.775 211.868 112.297C211.519 111.808 210.833 111.7 210.353 112.058C209.864 112.405 209.754 113.089 210.114 113.567C210.321 113.859 210.659 114.022 210.996 114.022C211.213 114.023 211.443 113.947 211.628 113.817ZM290.104 108.616C290.397 108.094 290.213 107.433 289.679 107.139C289.156 106.846 288.492 107.041 288.198 107.562C287.915 108.084 288.1 108.746 288.633 109.039C288.797 109.126 288.982 109.169 289.156 109.169C289.537 109.17 289.908 108.974 290.104 108.616ZM208.394 108.985C208.917 108.692 209.112 108.03 208.818 107.509C208.524 106.987 207.872 106.792 207.338 107.085C206.815 107.368 206.619 108.029 206.912 108.562C207.109 108.919 207.479 109.115 207.872 109.115C208.045 109.115 208.219 109.072 208.394 108.985ZM292.651 103.242C292.881 102.689 292.609 102.059 292.042 101.831C291.487 101.613 290.855 101.885 290.627 102.439C290.409 103.003 290.681 103.633 291.237 103.85C291.378 103.905 291.508 103.927 291.64 103.927C292.075 103.926 292.488 103.677 292.651 103.242ZM205.781 103.785C206.336 103.568 206.618 102.938 206.39 102.384V102.374C206.172 101.82 205.54 101.549 204.974 101.765C204.42 101.993 204.147 102.623 204.364 103.177C204.539 103.601 204.952 103.861 205.377 103.861C205.52 103.861 205.65 103.839 205.781 103.785ZM294.503 97.597C294.655 97.0215 294.307 96.4242 293.719 96.2724C293.142 96.1206 292.543 96.4785 292.401 97.054C292.249 97.6404 292.598 98.2268 293.174 98.378C293.273 98.3996 293.36 98.4112 293.446 98.4112C293.936 98.4112 294.383 98.0851 294.503 97.597ZM203.853 98.302C204.431 98.161 204.79 97.5638 204.637 96.9882C204.485 96.4018 203.897 96.0548 203.309 96.1957C202.732 96.3476 202.384 96.9448 202.525 97.5197C202.656 98.0085 203.102 98.3338 203.581 98.3338C203.668 98.3346 203.766 98.3237 203.853 98.302ZM295.624 91.7562C295.701 91.1698 295.276 90.6267 294.677 90.5508C294.089 90.4749 293.544 90.8986 293.468 91.485C293.392 92.0815 293.806 92.6245 294.405 92.7005C294.459 92.7113 294.503 92.7113 294.546 92.7113C295.08 92.7113 295.56 92.3093 295.624 91.7562ZM202.633 92.6246C203.232 92.5486 203.657 92.0056 203.581 91.4199C203.504 90.8227 202.961 90.3997 202.361 90.4756C201.763 90.5515 201.339 91.0946 201.414 91.6802C201.491 92.2341 201.959 92.6354 202.493 92.6354C202.536 92.6347 202.59 92.6347 202.633 92.6246Z" fill="#32BD9F"/>
<path d="M294.916 86.8378C295.2 86.8378 295.483 86.7185 295.689 86.5124C295.788 86.4141 295.864 86.2948 295.918 86.1646C295.973 86.0345 296.005 85.8935 296.005 85.7525C296.005 85.6115 295.972 85.4705 295.918 85.3288C295.863 85.1986 295.787 85.0793 295.689 84.9817C295.385 84.678 294.894 84.5797 294.503 84.7424C294.361 84.8074 294.242 84.8841 294.143 84.9817C294.045 85.0793 293.969 85.1994 293.915 85.3288C293.849 85.4705 293.828 85.6115 293.828 85.7525C293.828 85.8935 293.849 86.0352 293.915 86.1646C293.97 86.2948 294.045 86.4141 294.143 86.5124C294.242 86.6202 294.361 86.6968 294.503 86.751C294.633 86.8053 294.775 86.8378 294.916 86.8378Z" fill="#32BD9F"/>
<path d="M215.723 86.8383C215.864 86.8383 216.006 86.8057 216.136 86.7515C216.267 86.6973 216.386 86.6214 216.496 86.5129C216.692 86.3177 216.811 86.035 216.811 85.753C216.811 85.612 216.779 85.471 216.724 85.3408C216.67 85.1998 216.594 85.0798 216.496 84.9822C216.386 84.8846 216.267 84.8079 216.136 84.7428C215.94 84.6669 215.723 84.6452 215.504 84.6886C215.438 84.6995 215.374 84.7212 215.309 84.7428C215.243 84.7754 215.178 84.8079 215.112 84.8513C215.058 84.8838 215.003 84.9279 214.95 84.9815C214.851 85.0791 214.775 85.1991 214.721 85.3401C214.666 85.4702 214.634 85.6112 214.634 85.7522C214.634 86.035 214.753 86.3169 214.95 86.5122C215.005 86.5664 215.058 86.6098 215.113 86.6532C215.179 86.6966 215.243 86.7291 215.309 86.7508C215.374 86.784 215.439 86.8057 215.505 86.8159C215.581 86.8274 215.646 86.8383 215.723 86.8383Z" fill="#32BD9F"/>
<path d="M249.587 118.453C249.587 117.856 249.107 117.367 248.497 117.367C247.898 117.367 247.409 117.855 247.409 118.453C247.409 119.05 247.899 119.539 248.497 119.539C249.107 119.538 249.587 119.061 249.587 118.453ZM254.378 119.039C254.977 118.941 255.368 118.376 255.27 117.78C255.162 117.193 254.607 116.791 254.007 116.901C253.42 116.999 253.017 117.563 253.125 118.16C253.212 118.681 253.68 119.061 254.192 119.061C254.258 119.061 254.322 119.049 254.378 119.039ZM243.88 118.149C243.989 117.562 243.586 116.998 242.999 116.89C242.4 116.791 241.844 117.183 241.735 117.769C241.627 118.366 242.029 118.93 242.617 119.028C242.683 119.039 242.748 119.049 242.814 119.049C243.325 119.049 243.793 118.681 243.88 118.149ZM260.083 117.519C260.65 117.324 260.943 116.694 260.737 116.13C260.541 115.565 259.909 115.283 259.343 115.478C258.777 115.684 258.493 116.314 258.69 116.868C258.853 117.313 259.267 117.584 259.713 117.584C259.843 117.584 259.963 117.562 260.083 117.519ZM238.305 116.856C238.513 116.292 238.23 115.673 237.663 115.467C237.097 115.261 236.465 115.553 236.269 116.118C236.062 116.683 236.345 117.301 236.912 117.508C237.043 117.551 237.162 117.573 237.293 117.573C237.729 117.574 238.153 117.302 238.305 116.856ZM265.441 115.033C265.963 114.74 266.137 114.077 265.844 113.556C265.538 113.035 264.875 112.851 264.352 113.155C263.829 113.459 263.655 114.121 263.96 114.642C264.156 114.989 264.527 115.185 264.897 115.185C265.081 115.185 265.266 115.141 265.441 115.033ZM233.058 114.62C233.351 114.099 233.176 113.437 232.654 113.133C232.131 112.829 231.468 113.003 231.163 113.524C230.868 114.045 231.042 114.707 231.566 115.011C231.74 115.109 231.925 115.152 232.11 115.152C232.48 115.152 232.85 114.968 233.058 114.62ZM270.286 111.668C270.286 111.668 270.286 111.668 270.276 111.668C270.744 111.277 270.798 110.593 270.417 110.137C270.025 109.671 269.339 109.616 268.882 109.996C268.424 110.386 268.359 111.07 268.751 111.527C268.958 111.787 269.274 111.917 269.579 111.917C269.829 111.917 270.079 111.83 270.286 111.668ZM228.266 111.493C228.658 111.037 228.592 110.354 228.135 109.963C227.678 109.583 226.982 109.637 226.6 110.104C226.209 110.561 226.274 111.244 226.731 111.624C226.938 111.798 227.188 111.885 227.428 111.885C227.744 111.884 228.048 111.754 228.266 111.493ZM274.456 107.499C274.849 107.042 274.794 106.358 274.326 105.978C273.868 105.587 273.182 105.642 272.791 106.108C272.409 106.564 272.464 107.248 272.932 107.639C273.129 107.802 273.379 107.888 273.629 107.888C273.934 107.89 274.239 107.759 274.456 107.499ZM224.095 107.596C224.553 107.216 224.607 106.533 224.226 106.065C223.845 105.61 223.147 105.556 222.691 105.935C222.234 106.326 222.168 107.01 222.56 107.466C222.778 107.727 223.083 107.856 223.388 107.856C223.638 107.856 223.889 107.77 224.095 107.596ZM277.854 102.689C278.159 102.167 277.985 101.506 277.462 101.201C276.94 100.909 276.276 101.082 275.971 101.603C275.677 102.113 275.851 102.786 276.374 103.08C276.537 103.178 276.734 103.232 276.919 103.232C277.288 103.232 277.658 103.037 277.854 102.689ZM220.654 103.037C221.177 102.744 221.352 102.071 221.057 101.56C220.754 101.039 220.089 100.865 219.566 101.158C219.043 101.462 218.869 102.124 219.162 102.645C219.37 102.992 219.74 103.188 220.11 103.188C220.295 103.188 220.481 103.134 220.654 103.037ZM280.358 97.3583C280.565 96.7936 280.281 96.1754 279.716 95.9686C279.149 95.7625 278.529 96.0554 278.323 96.6092C278.116 97.1739 278.399 97.8037 278.965 98.0098C279.096 98.0532 279.215 98.0749 279.347 98.0749C279.781 98.0749 280.206 97.8037 280.358 97.3583ZM218.063 97.9556C218.629 97.7488 218.923 97.1306 218.717 96.5658C218.51 96.0011 217.889 95.7083 217.323 95.9144C216.756 96.1204 216.463 96.7502 216.671 97.3041C216.833 97.7488 217.247 98.0199 217.694 98.0199C217.813 98.0206 217.944 97.999 218.063 97.9556ZM281.893 91.67C282.002 91.0836 281.611 90.5189 281.012 90.4213C280.423 90.3135 279.857 90.704 279.749 91.3005H279.76C279.651 91.8869 280.043 92.4516 280.642 92.5492C280.696 92.5601 280.761 92.5709 280.827 92.5709C281.349 92.5709 281.806 92.2014 281.893 91.67ZM216.408 92.5058C216.996 92.3974 217.387 91.8327 217.289 91.2463C217.181 90.6599 216.626 90.2578 216.026 90.367C215.438 90.4646 215.036 91.0294 215.144 91.6158C215.231 92.1479 215.689 92.5167 216.211 92.5167C216.278 92.516 216.342 92.516 216.408 92.5058Z" fill="#32BD9F"/>
<path d="M281.327 86.8385C281.404 86.8385 281.469 86.8277 281.545 86.8168C281.611 86.7951 281.676 86.7843 281.741 86.7518C281.807 86.7301 281.872 86.6867 281.938 86.6542C281.993 86.6108 282.047 86.5674 282.101 86.524C282.297 86.3179 282.417 86.0359 282.417 85.7532C282.417 85.4604 282.297 85.1885 282.101 84.9824C282.047 84.9282 281.993 84.8848 281.938 84.8523C281.872 84.8089 281.807 84.7764 281.741 84.7438C281.677 84.7221 281.611 84.7012 281.545 84.6896C281.327 84.6462 281.11 84.6679 280.914 84.7438C280.783 84.798 280.664 84.8855 280.554 84.9832C280.358 85.1892 280.238 85.4604 280.238 85.7539C280.238 86.0367 280.358 86.3187 280.554 86.5247C280.663 86.6223 280.782 86.6983 280.914 86.7525C281.044 86.806 281.186 86.8385 281.327 86.8385Z" fill="#32BD9F"/>
<path d="M229.421 80.3239C229.496 80.3239 229.562 80.3131 229.637 80.3022C229.703 80.2805 229.779 80.2697 229.845 80.2372C229.909 80.2155 229.975 80.1721 230.03 80.1395C230.084 80.0962 230.15 80.0528 230.194 79.9985C230.4 79.8026 230.51 79.5206 230.51 79.2386C230.51 78.9458 230.4 78.6638 230.194 78.4678C230.15 78.4136 230.084 78.3702 230.03 78.3377C229.975 78.2943 229.909 78.2618 229.845 78.2292C229.779 78.2075 229.703 78.1866 229.637 78.175C229.278 78.0991 228.908 78.2184 228.658 78.4678C228.604 78.5221 228.561 78.5763 228.517 78.6305C228.484 78.6956 228.44 78.7498 228.418 78.8149C228.386 78.8915 228.376 78.9566 228.354 79.021C228.343 79.0976 228.333 79.1627 228.333 79.2386C228.333 79.5213 228.452 79.8033 228.659 79.9985C228.854 80.2046 229.137 80.3239 229.421 80.3239Z" fill="#32BD9F"/>
<path d="M229.126 74.6458C229.714 74.5373 230.107 73.9834 230.009 73.3862C229.899 72.7998 229.334 72.3985 228.745 72.5069C228.157 72.6053 227.754 73.1693 227.863 73.7665C227.95 74.2878 228.407 74.6573 228.93 74.6573C228.996 74.6573 229.062 74.6573 229.126 74.6458ZM165.666 73.7123C165.775 73.1259 165.372 72.5612 164.784 72.4527C164.196 72.3551 163.629 72.7455 163.52 73.3319C163.52 73.3319 163.52 73.3319 163.52 73.3428C163.412 73.9292 163.815 74.4939 164.403 74.5915C164.467 74.6024 164.533 74.6132 164.588 74.6132C165.111 74.6139 165.578 74.2445 165.666 73.7123ZM227.842 69.1093C228.397 68.9032 228.69 68.2843 228.484 67.7203C228.289 67.1556 227.657 66.8728 227.09 67.0688C226.525 67.2749 226.23 67.9046 226.438 68.4694C226.6 68.9032 227.015 69.1751 227.461 69.1751C227.591 69.1743 227.711 69.1527 227.842 69.1093ZM167.093 68.4253C167.299 67.8605 167.016 67.2308 166.45 67.0247C165.883 66.8186 165.252 67.1115 165.045 67.6762C164.838 68.2409 165.132 68.8591 165.698 69.0659C165.819 69.1093 165.949 69.131 166.068 69.131C166.515 69.131 166.929 68.8591 167.093 68.4253ZM225.598 63.8873C226.121 63.5945 226.296 62.9322 226.001 62.4108C225.696 61.8895 225.032 61.716 224.509 62.0088C223.987 62.3132 223.813 62.9748 224.119 63.4961C224.314 63.8432 224.684 64.0392 225.054 64.0392C225.238 64.0392 225.436 63.9958 225.598 63.8873ZM169.433 63.4528H169.422C169.727 62.9314 169.553 62.2698 169.031 61.9763C168.518 61.6719 167.843 61.8461 167.549 62.3667C167.549 62.3667 167.549 62.3667 167.538 62.3667C167.244 62.888 167.418 63.5496 167.941 63.8541C168.115 63.9517 168.3 63.9951 168.486 63.9951C168.856 63.9958 169.226 63.8005 169.433 63.4528ZM222.485 59.1317C222.952 58.7514 223.007 58.0681 222.626 57.6119C222.234 57.1448 221.548 57.0905 221.091 57.4709C220.623 57.8613 220.568 58.5453 220.949 59.0016H220.96C221.168 59.2626 221.483 59.3928 221.788 59.3928C222.038 59.3928 222.287 59.306 222.485 59.1317ZM172.591 58.9691C172.984 58.5128 172.918 57.8295 172.461 57.4383C172.003 57.0479 171.318 57.1129 170.925 57.5685C170.545 58.024 170.599 58.708 171.056 59.0992C171.263 59.2727 171.513 59.3595 171.765 59.3595C172.068 59.3602 172.384 59.2192 172.591 58.9691ZM218.597 54.985C218.989 54.5295 218.923 53.8447 218.466 53.4651C218.009 53.0739 217.312 53.1289 216.931 53.5953C216.55 54.0515 216.605 54.7355 217.061 55.126C217.269 55.2887 217.519 55.3754 217.77 55.3754C218.073 55.3754 218.378 55.2453 218.597 54.985ZM176.489 55.0934C176.957 54.7131 177.012 54.0182 176.631 53.5627C176.238 53.1072 175.552 53.0414 175.095 53.4326C174.628 53.8129 174.573 54.4962 174.954 54.9633C175.172 55.2127 175.477 55.3436 175.793 55.3436C176.043 55.3436 176.282 55.267 176.489 55.0934ZM214.045 51.5757C214.349 51.0544 214.176 50.3928 213.653 50.0884C213.131 49.7956 212.467 49.9691 212.161 50.4904C211.867 51.0118 212.042 51.6734 212.564 51.9669C212.728 52.0754 212.924 52.1188 213.109 52.1188C213.479 52.1188 213.849 51.9228 214.045 51.5757ZM180.997 51.9445C181.52 51.6517 181.695 50.9785 181.4 50.468C181.095 49.9467 180.432 49.7623 179.909 50.066C179.397 50.3704 179.213 51.0327 179.517 51.5533C179.713 51.9004 180.083 52.0964 180.453 52.0964C180.638 52.0971 180.822 52.0428 180.997 51.9445ZM208.971 49.0031C209.177 48.4384 208.884 47.8086 208.328 47.6134C208.328 47.6134 208.328 47.6134 208.328 47.6025C207.762 47.3964 207.13 47.6893 206.924 48.254C206.716 48.8187 207.011 49.4369 207.576 49.6437C207.697 49.698 207.827 49.7081 207.946 49.7081C208.394 49.7081 208.807 49.4369 208.971 49.0031ZM185.985 49.6329C186.552 49.4268 186.845 48.8079 186.639 48.2432C186.431 47.6784 185.811 47.3856 185.245 47.5917C184.678 47.7977 184.385 48.4167 184.591 48.9814C184.755 49.4268 185.168 49.698 185.615 49.698C185.734 49.698 185.865 49.6763 185.985 49.6329ZM203.527 47.3422C203.625 46.7558 203.232 46.1911 202.644 46.0935C202.045 45.985 201.48 46.3755 201.382 46.9727C201.272 47.5584 201.675 48.1231 202.263 48.2316C202.328 48.2424 202.394 48.2424 202.448 48.2424C202.971 48.2432 203.429 47.8737 203.527 47.3422ZM191.298 48.2215C191.898 48.1231 192.29 47.5591 192.181 46.9619C192.083 46.3755 191.516 45.9735 190.928 46.0826C190.329 46.1803 189.937 46.745 190.046 47.3422C190.134 47.8635 190.591 48.2323 191.113 48.2323C191.179 48.2316 191.233 48.2316 191.298 48.2215ZM197.875 46.6683C197.875 46.0718 197.385 45.583 196.787 45.583C196.188 45.583 195.697 46.0602 195.697 46.6683C195.697 47.2656 196.177 47.7544 196.787 47.7544C197.385 47.7544 197.875 47.2656 197.875 46.6683Z" fill="#32BD9F"/>
<path d="M164.098 80.3241C164.381 80.3241 164.664 80.2048 164.861 79.9987C165.067 79.8028 165.187 79.5208 165.187 79.2388C165.187 79.0978 165.154 78.9568 165.1 78.8151C165.046 78.6849 164.969 78.5656 164.861 78.468C164.457 78.066 163.728 78.066 163.325 78.468C163.228 78.5656 163.14 78.6857 163.085 78.8151C163.031 78.9568 163.01 79.0978 163.01 79.2388C163.01 79.5215 163.118 79.8035 163.325 79.9987C163.52 80.2048 163.803 80.3241 164.098 80.3241Z" fill="#32BD9F"/>
<path d="M216.038 80.3236C216.321 80.3236 216.604 80.2043 216.811 79.9982C216.855 79.9549 216.909 79.8999 216.942 79.8348C216.985 79.7806 217.017 79.7155 217.051 79.6505C217.072 79.5854 217.094 79.5203 217.105 79.4444C217.127 79.3793 217.127 79.3034 217.127 79.2383C217.127 79.0973 217.105 78.9563 217.051 78.8146C216.996 78.6844 216.909 78.5651 216.811 78.4675C216.408 78.0655 215.678 78.0655 215.276 78.4675C215.166 78.5651 215.091 78.6852 215.037 78.8146C214.982 78.9563 214.95 79.0973 214.95 79.2383C214.95 79.521 215.069 79.803 215.276 79.9982C215.471 80.2043 215.754 80.3236 216.038 80.3236Z" fill="#32BD9F"/>
<path d="M215.569 74.8525C216.146 74.6898 216.473 74.0817 216.31 73.5068C216.136 72.9313 215.537 72.6059 214.96 72.7686C214.383 72.9428 214.045 73.5394 214.219 74.1149C214.361 74.5929 214.796 74.8966 215.264 74.8966C215.363 74.8958 215.471 74.885 215.569 74.8525ZM179.31 74.1034C179.474 73.5285 179.146 72.9204 178.57 72.7577C177.993 72.5842 177.384 72.9096 177.22 73.4851C177.22 73.4851 177.22 73.4851 177.22 73.496C177.046 74.0607 177.372 74.6688 177.949 74.8423C178.057 74.864 178.157 74.8857 178.265 74.8857C178.732 74.885 179.168 74.5697 179.31 74.1034ZM213.566 69.7498C214.077 69.4237 214.22 68.7505 213.892 68.2509C213.566 67.7411 212.901 67.6001 212.39 67.9255C211.889 68.2509 211.737 68.9241 212.063 69.4237C212.271 69.7498 212.618 69.9233 212.978 69.9233C213.185 69.9233 213.391 69.8691 213.566 69.7498ZM181.466 69.4136C181.792 68.9031 181.651 68.2408 181.138 67.9147C180.637 67.5893 179.962 67.7303 179.635 68.2292C179.309 68.7397 179.45 69.4129 179.962 69.7382C180.136 69.8575 180.343 69.9118 180.55 69.9118C180.899 69.9125 181.259 69.7281 181.466 69.4136ZM210.212 65.4179C210.604 64.9617 210.55 64.2784 210.103 63.8872C209.645 63.4859 208.96 63.5402 208.557 63.9957C208.165 64.4411 208.219 65.1359 208.676 65.5264C208.883 65.6999 209.133 65.7867 209.384 65.7867C209.69 65.7867 209.994 65.6674 210.212 65.4179ZM184.863 65.5156C185.309 65.1251 185.365 64.4411 184.972 63.9848C184.569 63.5293 183.883 63.4852 183.437 63.8764C182.979 64.2668 182.926 64.9508 183.328 65.4071C183.534 65.6566 183.839 65.7759 184.145 65.7759C184.395 65.7766 184.656 65.6891 184.863 65.5156ZM205.758 62.1931C206.02 61.6501 205.781 61.0102 205.225 60.76C204.68 60.5105 204.038 60.7491 203.788 61.2921C203.537 61.8352 203.776 62.4859 204.321 62.7354C204.474 62.8005 204.626 62.8337 204.778 62.8337C205.193 62.8344 205.584 62.5951 205.758 62.1931ZM189.207 62.7253C189.762 62.4758 190.003 61.8352 189.752 61.2921C189.502 60.7383 188.86 60.4997 188.304 60.7491C187.759 60.9986 187.52 61.6392 187.771 62.1924C187.956 62.5835 188.347 62.8222 188.761 62.8222C188.914 62.8229 189.066 62.7903 189.207 62.7253ZM200.587 60.3587C200.674 59.7614 200.26 59.2191 199.661 59.1316C199.073 59.0449 198.517 59.4577 198.431 60.0543C198.344 60.6407 198.758 61.1938 199.357 61.2806C199.411 61.2806 199.466 61.2914 199.509 61.2914C200.042 61.2929 200.51 60.901 200.587 60.3587ZM194.173 61.2813C194.772 61.1945 195.185 60.6407 195.098 60.0434C195.021 59.4577 194.467 59.0449 193.868 59.1316C193.28 59.2076 192.866 59.7614 192.942 60.3587C193.029 60.9017 193.487 61.2929 194.019 61.2929C194.076 61.2929 194.129 61.2813 194.173 61.2813Z" fill="#32BD9F"/>
<path d="M177.481 80.3236C177.764 80.3236 178.046 80.2043 178.254 79.9982C178.45 79.8023 178.57 79.5203 178.57 79.2383C178.57 78.9455 178.45 78.6736 178.254 78.4675C177.84 78.0655 177.111 78.0655 176.708 78.4675C176.5 78.6736 176.392 78.9455 176.392 79.2383C176.392 79.521 176.5 79.803 176.708 79.9982C176.914 80.2043 177.186 80.3236 177.481 80.3236Z" fill="#32BD9F"/>
<path d="M98.0892 85.7523C98.3829 85.7523 98.6549 85.633 98.8623 85.427C99.0581 85.2317 99.1777 84.9497 99.1777 84.667C99.1777 84.3742 99.0574 84.0922 98.8623 83.8962C98.4591 83.4942 97.7194 83.4942 97.3162 83.8962C97.1203 84.1023 96.9999 84.3742 96.9999 84.667C96.9999 84.9497 97.1203 85.2317 97.3162 85.427C97.5228 85.633 97.8064 85.7523 98.0892 85.7523Z" fill="#32BD9F"/>
<path d="M131.966 117.367C131.966 116.77 131.475 116.282 130.877 116.282C130.266 116.282 129.788 116.77 129.776 117.367C129.776 117.964 130.266 118.453 130.877 118.453C131.475 118.453 131.966 117.975 131.966 117.367ZM136.756 117.953C136.756 117.953 136.756 117.953 136.745 117.953C137.344 117.855 137.736 117.29 137.638 116.705C137.54 116.107 136.974 115.705 136.375 115.814C135.787 115.912 135.383 116.476 135.492 117.073C135.579 117.595 136.048 117.974 136.56 117.974C136.625 117.975 136.691 117.964 136.756 117.953ZM126.249 117.063C126.357 116.476 125.954 115.912 125.366 115.804C124.778 115.705 124.212 116.097 124.103 116.683C124.005 117.28 124.397 117.844 124.985 117.942C125.05 117.953 125.116 117.964 125.181 117.964C125.692 117.964 126.162 117.584 126.249 117.063ZM142.462 116.434C143.027 116.238 143.311 115.609 143.114 115.044C142.908 114.479 142.277 114.197 141.71 114.392C141.144 114.598 140.861 115.228 141.067 115.793C141.22 116.227 141.644 116.499 142.091 116.499C142.211 116.499 142.331 116.477 142.462 116.434ZM120.684 115.771C120.89 115.206 120.597 114.588 120.031 114.381C119.465 114.175 118.843 114.468 118.638 115.033C118.43 115.586 118.725 116.216 119.28 116.423C119.411 116.466 119.53 116.488 119.661 116.488C120.107 116.488 120.52 116.217 120.684 115.771ZM147.809 113.948C148.331 113.655 148.516 112.992 148.212 112.47C147.906 111.949 147.242 111.776 146.72 112.069C146.207 112.373 146.022 113.035 146.328 113.556C146.523 113.904 146.895 114.099 147.275 114.099C147.449 114.099 147.645 114.055 147.809 113.948ZM115.425 113.535C115.73 113.013 115.545 112.352 115.022 112.048C114.51 111.744 113.835 111.918 113.54 112.439C113.236 112.96 113.41 113.622 113.932 113.926C114.106 114.024 114.292 114.078 114.477 114.078C114.859 114.077 115.217 113.883 115.425 113.535ZM152.654 110.582C153.112 110.191 153.177 109.507 152.784 109.051C152.404 108.585 151.717 108.53 151.25 108.91C150.793 109.301 150.737 109.985 151.119 110.441C151.337 110.701 151.641 110.831 151.958 110.831C152.196 110.831 152.447 110.744 152.654 110.582ZM110.633 110.408C111.026 109.952 110.961 109.269 110.503 108.878C110.045 108.498 109.359 108.552 108.968 109.019C108.587 109.475 108.64 110.159 109.099 110.539C109.305 110.713 109.556 110.799 109.806 110.799C110.111 110.799 110.416 110.669 110.633 110.408ZM156.835 106.423C157.216 105.956 157.162 105.272 156.694 104.893C156.236 104.502 155.549 104.557 155.169 105.023C154.776 105.479 154.842 106.162 155.299 106.554C155.495 106.716 155.746 106.803 155.995 106.803C156.302 106.804 156.617 106.674 156.835 106.423ZM106.463 106.511C106.921 106.131 106.986 105.447 106.593 104.98C106.212 104.524 105.526 104.47 105.059 104.85C104.6 105.241 104.546 105.925 104.928 106.381C105.145 106.642 105.45 106.771 105.766 106.771C106.005 106.771 106.256 106.684 106.463 106.511ZM160.233 101.604C160.527 101.082 160.352 100.421 159.83 100.127C159.317 99.8226 158.643 99.9969 158.349 100.517H158.338C158.044 101.027 158.218 101.7 158.741 101.994C158.916 102.102 159.101 102.146 159.286 102.146C159.666 102.147 160.026 101.951 160.233 101.604ZM103.023 101.951C103.545 101.658 103.719 100.995 103.426 100.474C103.121 99.9528 102.457 99.7792 101.934 100.072C101.411 100.376 101.237 101.039 101.542 101.559C101.738 101.906 102.108 102.102 102.479 102.102C102.663 102.102 102.848 102.059 103.023 101.951ZM162.737 96.2724C162.943 95.7077 162.65 95.0895 162.083 94.8834C161.517 94.6773 160.897 94.9701 160.69 95.524C160.482 96.0887 160.777 96.7185 161.332 96.9246C161.463 96.968 161.582 96.9897 161.713 96.9897C162.149 96.9897 162.573 96.7178 162.737 96.2724ZM100.431 96.8704C100.997 96.6636 101.29 96.0453 101.084 95.4806C100.876 94.9159 100.256 94.6231 99.6898 94.8292C99.1242 95.0352 98.8297 95.665 99.0371 96.2297C99.1996 96.6636 99.6144 96.9354 100.06 96.9354C100.18 96.9347 100.311 96.9137 100.431 96.8704ZM164.272 90.5841C164.37 89.9976 163.978 89.4329 163.39 89.3245C162.791 89.2269 162.225 89.6173 162.126 90.2037V90.2146C162.018 90.801 162.411 91.3657 163.009 91.4633C163.074 91.4741 163.14 91.485 163.194 91.485C163.716 91.4857 164.174 91.1162 164.272 90.5841ZM98.7753 91.4199C99.3635 91.3115 99.7558 90.7467 99.6565 90.1603C99.5484 89.5739 98.9929 89.1719 98.3946 89.2811C97.8065 89.3787 97.4032 89.9434 97.512 90.5407C97.599 91.062 98.0668 91.4308 98.5904 91.4308C98.6448 91.4308 98.7108 91.4308 98.7753 91.4199Z" fill="#32BD9F"/>
<path d="M163.695 85.7523C163.989 85.7523 164.261 85.633 164.468 85.427C164.676 85.2317 164.784 84.9497 164.784 84.667C164.784 84.3742 164.676 84.1023 164.468 83.8962C164.065 83.4942 163.335 83.4942 162.933 83.8962C162.727 84.1023 162.607 84.3742 162.607 84.667C162.607 84.9497 162.727 85.2317 162.933 85.427C163.128 85.633 163.412 85.7523 163.695 85.7523Z" fill="#32BD9F"/>
<path d="M229.247 86.8384C229.311 86.8384 229.388 86.8275 229.452 86.8167C229.529 86.8058 229.594 86.7842 229.66 86.7516C229.724 86.7299 229.79 86.6974 229.845 86.654C229.909 86.6106 229.965 86.5672 230.009 86.513C230.118 86.4147 230.194 86.2954 230.248 86.1652C230.302 86.0351 230.335 85.8941 230.335 85.7531C230.335 85.4602 230.215 85.1782 230.009 84.9823C229.965 84.9281 229.91 84.8847 229.845 84.8521C229.79 84.8087 229.724 84.7762 229.66 84.7437C229.594 84.722 229.529 84.701 229.452 84.6894C229.311 84.6569 229.17 84.6569 229.028 84.6894C228.962 84.7003 228.887 84.722 228.832 84.7437C228.756 84.7762 228.702 84.8087 228.636 84.8521C228.582 84.8847 228.527 84.9288 228.473 84.9823C228.277 85.1884 228.158 85.4595 228.158 85.7531C228.158 86.0358 228.277 86.3178 228.473 86.513C228.528 86.5672 228.582 86.6106 228.636 86.654C228.702 86.6974 228.756 86.7299 228.832 86.7516C228.887 86.7849 228.962 86.8066 229.028 86.8167C229.105 86.8275 229.17 86.8384 229.247 86.8384Z" fill="#32BD9F"/>
<path d="M251.416 105.859C252.015 105.773 252.429 105.219 252.342 104.632C252.255 104.035 251.699 103.622 251.111 103.71C250.511 103.796 250.098 104.34 250.185 104.937C250.262 105.48 250.73 105.871 251.263 105.871C251.307 105.87 251.361 105.859 251.416 105.859ZM246.853 104.936C246.94 104.339 246.527 103.785 245.927 103.709C245.328 103.622 244.784 104.034 244.697 104.621C244.609 105.218 245.023 105.772 245.623 105.859C245.677 105.859 245.721 105.87 245.775 105.87C246.309 105.87 246.777 105.479 246.853 104.936ZM256.98 104.23C257.525 103.981 257.764 103.34 257.514 102.797C257.263 102.254 256.621 102.005 256.077 102.254C255.532 102.504 255.282 103.155 255.532 103.698C255.717 104.099 256.109 104.327 256.523 104.327C256.675 104.328 256.828 104.306 256.98 104.23ZM241.496 103.688C241.746 103.145 241.517 102.505 240.962 102.255C240.418 102.005 239.776 102.244 239.525 102.786C239.275 103.329 239.514 103.981 240.059 104.23C240.2 104.295 240.364 104.328 240.506 104.328C240.919 104.328 241.322 104.089 241.496 103.688ZM261.848 101.115C262.305 100.724 262.359 100.029 261.968 99.5847C261.576 99.1284 260.878 99.0742 260.421 99.4646C259.975 99.8666 259.92 100.551 260.313 101.006C260.53 101.246 260.835 101.376 261.14 101.376C261.39 101.376 261.651 101.289 261.848 101.115ZM236.727 100.995C237.119 100.539 237.064 99.8558 236.618 99.4538H236.607C236.16 99.0633 235.474 99.1168 235.071 99.5731C234.679 100.018 234.734 100.703 235.192 101.104C235.192 101.104 235.192 101.104 235.181 101.104C235.387 101.277 235.649 101.364 235.899 101.364C236.204 101.364 236.509 101.235 236.727 100.995ZM265.647 96.7503C265.974 96.2506 265.832 95.5774 265.331 95.2521C264.82 94.9267 264.145 95.0677 263.818 95.5775C263.491 96.0771 263.643 96.7503 264.145 97.0764C264.33 97.1957 264.536 97.2499 264.733 97.2499C265.092 97.2499 265.441 97.0764 265.647 96.7503ZM232.894 97.0547C233.405 96.7401 233.548 96.0662 233.22 95.5565C232.894 95.0568 232.218 94.905 231.717 95.2304C231.206 95.5565 231.065 96.2289 231.391 96.7394C231.598 97.0539 231.947 97.2275 232.306 97.2275C232.513 97.2282 232.709 97.174 232.894 97.0547ZM268.065 91.4958C268.239 90.9209 267.913 90.323 267.335 90.1494C266.758 89.9759 266.148 90.3128 265.974 90.8877C265.81 91.4632 266.138 92.0605 266.714 92.234C266.823 92.2557 266.921 92.2774 267.019 92.2774C267.499 92.2781 267.934 91.9737 268.065 91.4958ZM230.324 92.2123C230.901 92.0489 231.239 91.4415 231.065 90.866C230.901 90.2911 230.292 89.965 229.714 90.1277C229.137 90.3013 228.811 90.8985 228.975 91.4733C229.116 91.9506 229.551 92.255 230.02 92.255C230.128 92.2564 230.226 92.2449 230.324 92.2123Z" fill="#32BD9F"/>
<path d="M267.803 86.8383C268.097 86.8383 268.37 86.719 268.576 86.5129C268.783 86.3177 268.893 86.035 268.893 85.753C268.893 85.612 268.871 85.471 268.816 85.3293C268.761 85.1991 268.674 85.0798 268.576 84.9822C268.173 84.5802 267.444 84.5802 267.041 84.9822C266.933 85.0798 266.856 85.1998 266.802 85.3293C266.747 85.471 266.715 85.612 266.715 85.753C266.715 86.0357 266.834 86.3177 267.041 86.5129C267.237 86.719 267.52 86.8383 267.803 86.8383Z" fill="#32BD9F"/>
<path d="M332.186 81L340.601 43.6H355.011L363.426 81H355.836L354.351 74.235H341.261L339.776 81H332.186ZM346.486 49.87L342.691 67.635H352.921L349.126 49.87H346.486ZM367.747 81V53.5H375.062V56.415C378.142 54.5817 381.075 53.39 383.862 52.84V60.265C380.892 60.8883 378.344 61.53 376.217 62.19L375.117 62.575V81H367.747ZM403.446 59.77H396.681V71.045C396.681 72.145 396.699 72.9333 396.736 73.41C396.809 73.85 397.011 74.235 397.341 74.565C397.707 74.895 398.257 75.06 398.991 75.06L403.171 74.95L403.501 80.835C401.044 81.385 399.174 81.66 397.891 81.66C394.591 81.66 392.336 80.9267 391.126 79.46C389.916 77.9567 389.311 75.2067 389.311 71.21V59.77H386.066V53.5H389.311V45.855H396.681V53.5H403.446V59.77ZM406.54 45.195L420.4 39.585L422.6 45.91L408.19 49.98L406.54 45.195ZM408.245 53.5H415.615V81H408.245V53.5ZM432.71 52.84C434.616 52.84 437.055 53.1333 440.025 53.72L441.51 54.05L441.29 59.88C438.393 59.5867 436.248 59.44 434.855 59.44C432.325 59.44 430.638 59.99 429.795 61.09C428.988 62.1533 428.585 64.1883 428.585 67.195C428.585 70.2017 428.988 72.2733 429.795 73.41C430.638 74.51 432.343 75.06 434.91 75.06L441.29 74.62L441.51 80.505C437.586 81.275 434.598 81.66 432.545 81.66C428.475 81.66 425.541 80.5233 423.745 78.25C421.985 75.94 421.105 72.255 421.105 67.195C421.105 62.135 422.021 58.4867 423.855 56.25C425.688 53.9767 428.64 52.84 432.71 52.84ZM463.196 53.5H470.566V81H463.251V79.46C460.611 80.9267 458.319 81.66 456.376 81.66C452.562 81.66 449.996 80.615 448.676 78.525C447.356 76.3983 446.696 72.86 446.696 67.91V53.5H454.066V68.02C454.066 70.7333 454.286 72.585 454.726 73.575C455.166 74.565 456.229 75.06 457.916 75.06C459.529 75.06 461.051 74.8033 462.481 74.29L463.196 74.07V53.5ZM477.701 81V42.5H485.071V81H477.701ZM493.68 56.635C495.623 54.105 498.868 52.84 503.415 52.84C507.962 52.84 511.207 54.105 513.15 56.635C515.093 59.1283 516.065 62.6483 516.065 67.195C516.065 76.8383 511.848 81.66 503.415 81.66C494.982 81.66 490.765 76.8383 490.765 67.195C490.765 62.6483 491.737 59.1283 493.68 56.635ZM499.345 73.41C500.115 74.73 501.472 75.39 503.415 75.39C505.358 75.39 506.697 74.73 507.43 73.41C508.2 72.09 508.585 70.0183 508.585 67.195C508.585 64.3717 508.2 62.3183 507.43 61.035C506.697 59.7517 505.358 59.11 503.415 59.11C501.472 59.11 500.115 59.7517 499.345 61.035C498.612 62.3183 498.245 64.3717 498.245 67.195C498.245 70.0183 498.612 72.09 499.345 73.41ZM541.213 60.375C536.666 59.7883 533.476 59.495 531.643 59.495C529.846 59.495 528.673 59.66 528.123 59.99C527.609 60.32 527.353 60.8517 527.353 61.585C527.353 62.2817 527.701 62.7767 528.398 63.07C529.131 63.3267 530.964 63.73 533.898 64.28C536.868 64.7933 538.976 65.655 540.223 66.865C541.469 68.075 542.093 70.0367 542.093 72.75C542.093 78.69 538.408 81.66 531.038 81.66C528.618 81.66 525.684 81.33 522.238 80.67L520.478 80.34L520.698 74.18C525.244 74.7667 528.398 75.06 530.158 75.06C531.954 75.06 533.164 74.895 533.788 74.565C534.448 74.1983 534.778 73.6667 534.778 72.97C534.778 72.2733 534.429 71.76 533.733 71.43C533.073 71.1 531.313 70.6967 528.453 70.22C525.629 69.7433 523.521 68.9367 522.128 67.8C520.734 66.6633 520.038 64.6467 520.038 61.75C520.038 58.8167 521.028 56.6167 523.008 55.15C524.988 53.6467 527.536 52.895 530.653 52.895C532.816 52.895 535.768 53.2433 539.508 53.94L541.323 54.27L541.213 60.375ZM244.104 128V100.5H251.419V103.415C254.499 101.582 257.433 100.39 260.219 99.84V107.265C257.249 107.888 254.701 108.53 252.574 109.19L251.474 109.575V128H244.104ZM270.618 117.385C270.655 119.072 271.095 120.3 271.938 121.07C272.818 121.803 274.065 122.17 275.678 122.17C279.088 122.17 282.132 122.06 284.808 121.84L286.348 121.675L286.458 127.12C282.242 128.147 278.428 128.66 275.018 128.66C270.875 128.66 267.868 127.56 265.998 125.36C264.128 123.16 263.193 119.585 263.193 114.635C263.193 104.772 267.245 99.84 275.348 99.84C283.342 99.84 287.338 103.983 287.338 112.27L286.788 117.385H270.618ZM280.078 111.775C280.078 109.575 279.73 108.053 279.033 107.21C278.337 106.33 277.108 105.89 275.348 105.89C273.625 105.89 272.397 106.348 271.663 107.265C270.967 108.145 270.6 109.648 270.563 111.775H280.078ZM292.935 128V89.5H300.305V128H292.935ZM328.495 109.08V120.52C328.568 121.4 328.715 122.023 328.935 122.39C329.155 122.72 329.613 122.958 330.31 123.105L330.09 128.66C328.22 128.66 326.716 128.532 325.58 128.275C324.48 128.018 323.361 127.505 322.225 126.735C319.585 128.018 316.89 128.66 314.14 128.66C308.456 128.66 305.615 125.653 305.615 119.64C305.615 116.707 306.403 114.635 307.98 113.425C309.556 112.178 311.976 111.445 315.24 111.225L321.125 110.785V109.08C321.125 107.943 320.868 107.173 320.355 106.77C319.841 106.33 319.016 106.11 317.88 106.11L307.54 106.55L307.32 101.435C311.243 100.372 314.965 99.84 318.485 99.84C322.041 99.84 324.59 100.573 326.13 102.04C327.706 103.507 328.495 105.853 328.495 109.08ZM316.12 116.34C314.066 116.523 313.04 117.623 313.04 119.64C313.04 121.657 313.938 122.665 315.735 122.665C317.128 122.665 318.65 122.445 320.3 122.005L321.125 121.785V115.9L316.12 116.34ZM345.805 99.84C347.712 99.84 350.15 100.133 353.12 100.72L354.605 101.05L354.385 106.88C351.489 106.587 349.344 106.44 347.95 106.44C345.42 106.44 343.734 106.99 342.89 108.09C342.084 109.153 341.68 111.188 341.68 114.195C341.68 117.202 342.084 119.273 342.89 120.41C343.734 121.51 345.439 122.06 348.005 122.06L354.385 121.62L354.605 127.505C350.682 128.275 347.694 128.66 345.64 128.66C341.57 128.66 338.637 127.523 336.84 125.25C335.08 122.94 334.2 119.255 334.2 114.195C334.2 109.135 335.117 105.487 336.95 103.25C338.784 100.977 341.735 99.84 345.805 99.84ZM360.066 128V100.5H367.436V128H360.066ZM360.066 96.98V89.5H367.436V96.98H360.066ZM375.731 103.635C377.674 101.105 380.919 99.84 385.466 99.84C390.013 99.84 393.258 101.105 395.201 103.635C397.144 106.128 398.116 109.648 398.116 114.195C398.116 123.838 393.899 128.66 385.466 128.66C377.033 128.66 372.816 123.838 372.816 114.195C372.816 109.648 373.788 106.128 375.731 103.635ZM381.396 120.41C382.166 121.73 383.523 122.39 385.466 122.39C387.409 122.39 388.748 121.73 389.481 120.41C390.251 119.09 390.636 117.018 390.636 114.195C390.636 111.372 390.251 109.318 389.481 108.035C388.748 106.752 387.409 106.11 385.466 106.11C383.523 106.11 382.166 106.752 381.396 108.035C380.663 109.318 380.296 111.372 380.296 114.195C380.296 117.018 380.663 119.09 381.396 120.41ZM410.888 128H403.518V100.5H410.833V102.04C413.327 100.573 415.618 99.84 417.708 99.84C421.375 99.84 423.905 100.922 425.298 103.085C426.692 105.248 427.388 108.585 427.388 113.095V128H420.018V113.315C420.018 110.968 419.743 109.245 419.193 108.145C418.643 107.008 417.543 106.44 415.893 106.44C414.39 106.44 412.942 106.697 411.548 107.21L410.888 107.43V128ZM454.984 109.08V120.52C455.057 121.4 455.204 122.023 455.424 122.39C455.644 122.72 456.102 122.958 456.799 123.105L456.579 128.66C454.709 128.66 453.205 128.532 452.069 128.275C450.969 128.018 449.85 127.505 448.714 126.735C446.074 128.018 443.379 128.66 440.629 128.66C434.945 128.66 432.104 125.653 432.104 119.64C432.104 116.707 432.892 114.635 434.469 113.425C436.045 112.178 438.465 111.445 441.729 111.225L447.614 110.785V109.08C447.614 107.943 447.357 107.173 446.844 106.77C446.33 106.33 445.505 106.11 444.369 106.11L434.029 106.55L433.809 101.435C437.732 100.372 441.454 99.84 444.974 99.84C448.53 99.84 451.079 100.573 452.619 102.04C454.195 103.507 454.984 105.853 454.984 109.08ZM442.609 116.34C440.555 116.523 439.529 117.623 439.529 119.64C439.529 121.657 440.427 122.665 442.224 122.665C443.617 122.665 445.139 122.445 446.789 122.005L447.614 121.785V115.9L442.609 116.34ZM485.385 89.5V128H478.07V126.845C475.503 128.055 473.285 128.66 471.415 128.66C467.418 128.66 464.631 127.505 463.055 125.195C461.478 122.885 460.69 119.237 460.69 114.25C460.69 109.227 461.625 105.578 463.495 103.305C465.401 100.995 468.261 99.84 472.075 99.84C473.248 99.84 474.88 100.023 476.97 100.39L478.015 100.61V89.5H485.385ZM477.245 121.4L478.015 121.235V106.77C475.998 106.403 474.201 106.22 472.625 106.22C469.655 106.22 468.17 108.86 468.17 114.14C468.17 117 468.5 119.035 469.16 120.245C469.82 121.455 470.901 122.06 472.405 122.06C473.945 122.06 475.558 121.84 477.245 121.4ZM493.68 103.635C495.623 101.105 498.868 99.84 503.415 99.84C507.962 99.84 511.207 101.105 513.15 103.635C515.093 106.128 516.065 109.648 516.065 114.195C516.065 123.838 511.848 128.66 503.415 128.66C494.982 128.66 490.765 123.838 490.765 114.195C490.765 109.648 491.737 106.128 493.68 103.635ZM499.345 120.41C500.115 121.73 501.472 122.39 503.415 122.39C505.358 122.39 506.697 121.73 507.43 120.41C508.2 119.09 508.585 117.018 508.585 114.195C508.585 111.372 508.2 109.318 507.43 108.035C506.697 106.752 505.358 106.11 503.415 106.11C501.472 106.11 500.115 106.752 499.345 108.035C498.612 109.318 498.245 111.372 498.245 114.195C498.245 117.018 498.612 119.09 499.345 120.41ZM541.213 107.375C536.666 106.788 533.476 106.495 531.643 106.495C529.846 106.495 528.673 106.66 528.123 106.99C527.609 107.32 527.353 107.852 527.353 108.585C527.353 109.282 527.701 109.777 528.398 110.07C529.131 110.327 530.964 110.73 533.898 111.28C536.868 111.793 538.976 112.655 540.223 113.865C541.469 115.075 542.093 117.037 542.093 119.75C542.093 125.69 538.408 128.66 531.038 128.66C528.618 128.66 525.684 128.33 522.238 127.67L520.478 127.34L520.698 121.18C525.244 121.767 528.398 122.06 530.158 122.06C531.954 122.06 533.164 121.895 533.788 121.565C534.448 121.198 534.778 120.667 534.778 119.97C534.778 119.273 534.429 118.76 533.733 118.43C533.073 118.1 531.313 117.697 528.453 117.22C525.629 116.743 523.521 115.937 522.128 114.8C520.734 113.663 520.038 111.647 520.038 108.75C520.038 105.817 521.028 103.617 523.008 102.15C524.988 100.647 527.536 99.895 530.653 99.895C532.816 99.895 535.768 100.243 539.508 100.94L541.323 101.27L541.213 107.375Z" fill="#8917FF"/>
</svg>
