<?xml version="1.0" encoding="utf-8"?>
<!-- Generator: Adobe Illustrator 17.0.0, SVG Export Plug-In . SVG Version: 6.00 Build 0)  -->
<!DOCTYPE svg PUBLIC "-//W3C//DTD SVG 1.1//EN" "http://www.w3.org/Graphics/SVG/1.1/DTD/svg11.dtd">
<svg version="1.1" id="Layer_1" xmlns="http://www.w3.org/2000/svg" xmlns:xlink="http://www.w3.org/1999/xlink" x="0px" y="0px"
	 width="731.965px" height="142.007px" viewBox="0 0 731.965 142.007" enable-background="new 0 0 731.965 142.007"
	 xml:space="preserve">
<g>
	<g>
		<path fill="#8917FF" d="M7.11,115.006v-61.65h17.37l13.77,48.15l13.77-48.15H69.48v61.65H59.4v-50.58H58.05l-14.58,48.061H33.03
			L18.45,64.426H17.1v50.58H7.11z"/>
		<path fill="#8917FF" d="M113.939,106.907l2.52-0.271l0.18,7.29c-6.84,1.38-12.9,2.07-18.18,2.07c-6.66,0-11.445-1.829-14.355-5.49
			c-2.91-3.659-4.364-9.509-4.364-17.55c0-15.96,6.509-23.94,19.529-23.94c12.601,0,18.9,6.871,18.9,20.61l-0.63,7.021h-27.9
			c0.06,3.721,0.869,6.45,2.431,8.189c1.56,1.741,4.469,2.61,8.729,2.61C105.059,107.447,109.439,107.266,113.939,106.907z
			 M108.539,89.086c0-4.439-0.706-7.544-2.115-9.314c-1.41-1.77-3.795-2.655-7.155-2.655s-5.805,0.931-7.335,2.79
			c-1.529,1.86-2.325,4.92-2.385,9.18H108.539z"/>
		<path fill="#8917FF" d="M151.829,78.376h-12.42v19.8c0,3.661,0.27,6.091,0.81,7.29c0.54,1.201,1.92,1.8,4.14,1.8l7.38-0.27
			l0.45,7.83c-4.021,0.779-7.08,1.17-9.18,1.17c-5.101,0-8.595-1.17-10.485-3.51c-1.89-2.34-2.835-6.75-2.835-13.23v-20.88h-5.76
			v-8.37h5.76v-13.05h9.721v13.05h12.42V78.376z"/>
		<path fill="#8917FF" d="M162.313,74.867c3.09-3.9,8.235-5.851,15.435-5.851c7.2,0,12.345,1.951,15.436,5.851
			c3.09,3.9,4.635,9.751,4.635,17.55c0,7.801-1.5,13.68-4.5,17.64c-3.001,3.96-8.189,5.94-15.57,5.94
			c-7.38,0-12.57-1.98-15.569-5.94c-3.001-3.96-4.5-9.839-4.5-17.64C157.678,84.618,159.222,78.767,162.313,74.867z
			 M169.647,104.117c1.38,2.4,4.079,3.6,8.1,3.6c4.02,0,6.72-1.199,8.101-3.6c1.379-2.399,2.069-6.33,2.069-11.79
			c0-5.459-0.735-9.329-2.204-11.61c-1.472-2.279-4.126-3.42-7.966-3.42s-6.495,1.141-7.965,3.42
			c-1.471,2.281-2.205,6.151-2.205,11.61C167.577,97.787,168.267,101.717,169.647,104.117z"/>
		<path fill="#8917FF" d="M244.258,51.286v63.72h-9.72v-2.34c-4.381,2.221-8.401,3.33-12.061,3.33c-5.881,0-10.186-1.77-12.915-5.31
			c-2.73-3.54-4.095-9.479-4.095-17.82c0-8.339,1.515-14.4,4.545-18.18c3.029-3.781,7.754-5.671,14.175-5.671
			c2.16,0,5.58,0.391,10.26,1.17v-18.9H244.258z M232.918,105.647l1.529-0.631v-26.64c-3.6-0.599-6.93-0.899-9.989-0.899
			c-6.062,0-9.091,5.039-9.091,15.119c0,5.521,0.705,9.347,2.115,11.476c1.409,2.13,3.646,3.194,6.705,3.194
			C227.248,107.266,230.157,106.727,232.918,105.647z"/>
		<path fill="#8917FF" d="M258.612,74.867c3.09-3.9,8.235-5.851,15.435-5.851c7.2,0,12.345,1.951,15.436,5.851
			c3.09,3.9,4.635,9.751,4.635,17.55c0,7.801-1.5,13.68-4.5,17.64c-3.001,3.96-8.189,5.94-15.57,5.94
			c-7.38,0-12.57-1.98-15.569-5.94c-3.001-3.96-4.5-9.839-4.5-17.64C253.978,84.618,255.521,78.767,258.612,74.867z
			 M265.947,104.117c1.38,2.4,4.079,3.6,8.1,3.6c4.02,0,6.72-1.199,8.101-3.6c1.379-2.399,2.069-6.33,2.069-11.79
			c0-5.459-0.735-9.329-2.204-11.61c-1.472-2.279-4.126-3.42-7.966-3.42s-6.495,1.141-7.965,3.42
			c-1.471,2.281-2.205,6.151-2.205,11.61C263.877,97.787,264.566,101.717,265.947,104.117z"/>
		<path fill="#8917FF" d="M304.378,115.006v-63.72h9.81v63.72H304.378z"/>
		<path fill="#8917FF" d="M329.081,74.867c3.09-3.9,8.235-5.851,15.435-5.851c7.2,0,12.345,1.951,15.436,5.851
			c3.09,3.9,4.635,9.751,4.635,17.55c0,7.801-1.5,13.68-4.5,17.64c-3.001,3.96-8.189,5.94-15.57,5.94
			c-7.38,0-12.57-1.98-15.569-5.94c-3.001-3.96-4.5-9.839-4.5-17.64C324.446,84.618,325.99,78.767,329.081,74.867z M336.416,104.117
			c1.38,2.4,4.079,3.6,8.1,3.6c4.02,0,6.72-1.199,8.101-3.6c1.379-2.399,2.069-6.33,2.069-11.79c0-5.459-0.735-9.329-2.204-11.61
			c-1.472-2.279-4.126-3.42-7.966-3.42s-6.495,1.141-7.965,3.42c-1.471,2.281-2.205,6.151-2.205,11.61
			C334.346,97.787,335.035,101.717,336.416,104.117z"/>
		<path fill="#8917FF" d="M413.636,121.126c0,9.84-7.109,14.76-21.329,14.76c-6.841,0-11.911-0.931-15.21-2.79
			c-3.301-1.86-4.95-5.251-4.95-10.17c0-2.22,0.54-4.126,1.62-5.715c1.08-1.59,2.819-3.314,5.22-5.175
			c-1.98-1.319-2.97-3.51-2.97-6.57c0-1.199,0.81-3.149,2.43-5.85l0.81-1.351c-4.319-2.578-6.479-7.078-6.479-13.5
			c0-5.399,1.62-9.359,4.859-11.88c3.24-2.52,7.619-3.78,13.141-3.78c2.64,0,5.249,0.301,7.83,0.9l1.35,0.27l13.95-0.36v7.92
			l-7.47-0.45c1.62,2.102,2.43,4.561,2.43,7.38c0,5.882-1.485,9.945-4.455,12.195s-7.604,3.375-13.905,3.375
			c-1.561,0-2.88-0.119-3.96-0.359c-0.841,2.04-1.26,3.615-1.26,4.725c0,1.111,0.554,1.876,1.665,2.295
			c1.109,0.421,3.794,0.661,8.055,0.72c7.14,0.061,12.029,1.021,14.67,2.88C412.315,112.458,413.636,115.965,413.636,121.126z
			 M381.776,122.027c0,2.1,0.84,3.6,2.52,4.5c1.68,0.899,4.56,1.35,8.641,1.35c7.259,0,10.89-2.07,10.89-6.21
			c0-2.34-0.646-3.825-1.935-4.455c-1.291-0.63-3.856-0.976-7.695-1.035l-8.82-0.54c-1.32,1.08-2.25,2.084-2.79,3.016
			C382.046,119.582,381.776,120.707,381.776,122.027z M384.477,90.841c1.318,1.291,3.449,1.936,6.39,1.936
			c2.939,0,5.054-0.645,6.345-1.936c1.29-1.289,1.936-3.314,1.936-6.075c0-2.759-0.661-4.783-1.98-6.074
			c-1.32-1.29-3.451-1.936-6.39-1.936c-5.521,0-8.28,2.671-8.28,8.01C382.496,87.527,383.155,89.552,384.477,90.841z"/>
		<path fill="#8917FF" d="M418.675,56.776l21.24-9.09l3.061,8.46l-21.96,7.02L418.675,56.776z M421.556,70.006h9.81v45h-9.81V70.006
			z"/>
		<path fill="#8917FF" d="M476.546,83.867v20.52c0.059,1.321,0.404,2.295,1.035,2.926c0.63,0.63,1.604,1.034,2.925,1.215
			l-0.271,7.47c-5.16,0-9.15-1.109-11.97-3.33c-4.801,2.221-9.63,3.33-14.49,3.33c-8.94,0-13.41-4.77-13.41-14.31
			c0-4.56,1.216-7.86,3.646-9.9c2.43-2.039,6.165-3.27,11.205-3.69l11.609-0.989v-3.24c0-2.399-0.525-4.08-1.574-5.04
			c-1.051-0.959-2.597-1.44-4.636-1.44c-3.84,0-8.64,0.241-14.399,0.721l-2.88,0.18l-0.36-6.93c6.539-1.56,12.555-2.34,18.045-2.34
			s9.45,1.186,11.88,3.556C475.331,74.943,476.546,78.708,476.546,83.867z M456.386,95.027c-4.14,0.359-6.21,2.609-6.21,6.75
			c0,4.14,1.829,6.21,5.49,6.21c2.999,0,6.179-0.479,9.54-1.44l1.619-0.54v-11.97L456.386,95.027z"/>
		<path fill="#8917FF" d="M520.104,79.277c-7.08-0.959-12.21-1.44-15.39-1.44c-3.182,0-5.386,0.376-6.615,1.125
			c-1.23,0.751-1.845,1.936-1.845,3.555c0,1.62,0.675,2.761,2.024,3.421c1.351,0.66,4.53,1.426,9.54,2.295
			c5.01,0.87,8.564,2.235,10.665,4.095c2.1,1.86,3.15,5.161,3.15,9.9c0,4.74-1.517,8.221-4.545,10.439
			c-3.03,2.221-7.456,3.33-13.275,3.33c-3.66,0-8.28-0.511-13.86-1.53l-2.789-0.45l0.359-8.189c7.2,0.96,12.39,1.439,15.57,1.439
			c3.18,0,5.445-0.389,6.795-1.17c1.35-0.778,2.025-2.069,2.025-3.869c0-1.801-0.646-3.045-1.936-3.735
			c-1.291-0.689-4.381-1.44-9.27-2.25c-4.892-0.811-8.476-2.084-10.756-3.825c-2.28-1.739-3.42-4.919-3.42-9.54
			c0-4.619,1.575-8.069,4.726-10.35c3.149-2.28,7.185-3.42,12.104-3.42c3.84,0,8.551,0.481,14.13,1.44l2.79,0.54L520.104,79.277z"/>
	</g>
</g>
<g>
	<g>
		<g>
			<path fill="#32BD9F" d="M368.25,66.849c-0.405,0-0.796-0.165-1.066-0.45c-0.15-0.136-0.256-0.301-0.331-0.481
				c-0.075-0.18-0.12-0.375-0.12-0.57c0-0.405,0.165-0.795,0.451-1.066c0.345-0.345,0.855-0.51,1.351-0.405
				c0.09,0.015,0.195,0.045,0.285,0.075c0.09,0.046,0.18,0.09,0.255,0.15c0.075,0.046,0.15,0.106,0.225,0.18
				c0.285,0.271,0.436,0.661,0.436,1.066c0,0.195-0.03,0.391-0.105,0.57c-0.075,0.18-0.195,0.345-0.331,0.481
				c-0.075,0.075-0.15,0.135-0.225,0.195c-0.075,0.045-0.165,0.09-0.255,0.135c-0.09,0.045-0.195,0.06-0.285,0.09
				C368.445,66.835,368.34,66.849,368.25,66.849z"/>
		</g>
		<g>
			<path fill="#32BD9F" d="M368.549,58.816c-0.825-0.105-1.396-0.856-1.306-1.681l0,0l0,0l0,0c0.105-0.826,0.856-1.412,1.681-1.307
				l0,0c0.826,0.105,1.411,0.856,1.306,1.682l0,0c-0.105,0.751-0.751,1.321-1.486,1.321l0,0
				C368.685,58.832,368.609,58.816,368.549,58.816z M494.177,57.405L494.177,57.405c-0.105-0.826,0.481-1.576,1.306-1.682l0,0
				c0.811-0.105,1.562,0.481,1.666,1.307l0,0c0.106,0.826-0.48,1.577-1.291,1.682l0,0c-0.075,0-0.135,0.015-0.195,0.015l0,0
				C494.913,58.726,494.267,58.171,494.177,57.405z M369.856,50.889c-0.795-0.21-1.276-1.021-1.081-1.832l0,0
				c0.21-0.795,1.021-1.276,1.832-1.081l0,0c0.796,0.21,1.291,1.021,1.081,1.831l0,0c-0.18,0.676-0.781,1.126-1.457,1.126l0,0
				C370.111,50.934,369.991,50.919,369.856,50.889z M492.706,49.703c-0.21-0.796,0.27-1.622,1.081-1.817l0,0
				c0.795-0.21,1.622,0.27,1.817,1.066l0,0c0.21,0.811-0.27,1.622-1.081,1.831l0,0c-0.12,0.03-0.24,0.046-0.36,0.046l0,0
				C493.486,50.829,492.871,50.379,492.706,49.703z M372.168,43.187c-0.781-0.301-1.156-1.172-0.855-1.952l0,0
				c0.315-0.765,1.186-1.141,1.952-0.841l0,0c0.781,0.315,1.156,1.186,0.841,1.952l0,0c-0.225,0.585-0.796,0.946-1.397,0.946l0,0
				C372.528,43.291,372.349,43.261,372.168,43.187z M490.274,42.255c-0.315-0.766,0.06-1.636,0.841-1.952l0,0
				c0.765-0.3,1.636,0.076,1.936,0.841l0,0c0.316,0.766-0.059,1.652-0.826,1.952l0,0c-0.18,0.075-0.375,0.105-0.556,0.105l0,0
				C491.069,43.201,490.499,42.841,490.274,42.255z M375.412,35.844c-0.721-0.405-0.991-1.321-0.586-2.042l0,0
				c0.405-0.721,1.307-0.991,2.042-0.586l0,0c0.721,0.39,0.991,1.307,0.586,2.027l0,0c-0.27,0.51-0.781,0.781-1.321,0.781l0,0
				C375.892,36.025,375.637,35.964,375.412,35.844z M486.926,35.168v0.015c-0.405-0.736-0.15-1.652,0.585-2.042l0,0
				c0.721-0.405,1.637-0.15,2.043,0.586l0,0l0,0l0,0c0.39,0.721,0.135,1.637-0.586,2.042l0,0c-0.24,0.12-0.48,0.18-0.736,0.18l0,0
				C487.706,35.949,487.195,35.664,486.926,35.168z M379.571,28.967c-0.676-0.496-0.826-1.427-0.331-2.102l0,0
				c0.48-0.676,1.427-0.826,2.087-0.331l0,0c0.675,0.481,0.826,1.427,0.33,2.102l0,0c-0.285,0.391-0.751,0.616-1.216,0.616l0,0
				C380.141,29.252,379.826,29.148,379.571,28.967z M482.706,28.562c-0.496-0.661-0.345-1.606,0.33-2.087l0,0
				c0.661-0.495,1.607-0.345,2.087,0.315l0,0c0,0,0,0,0.015,0l0,0c0.481,0.676,0.331,1.622-0.33,2.103l0,0
				c-0.27,0.195-0.586,0.285-0.886,0.285l0,0C483.457,29.178,482.992,28.967,482.706,28.562z M384.54,22.661
				c-0.6-0.57-0.631-1.516-0.059-2.132l0,0c0.57-0.6,1.516-0.631,2.116-0.06l0,0c0.6,0.571,0.631,1.517,0.06,2.117l0,0
				c-0.285,0.315-0.691,0.48-1.096,0.48l0,0C385.201,23.066,384.826,22.931,384.54,22.661z M477.691,22.541
				c-0.555-0.616-0.54-1.562,0.075-2.133l0,0c0.6-0.57,1.546-0.54,2.117,0.06l0,0c0.571,0.616,0.541,1.562-0.059,2.133l0,0
				c-0.301,0.27-0.661,0.405-1.037,0.405l0,0C478.397,23.006,477.992,22.841,477.691,22.541z M390.261,17.016
				c-0.525-0.63-0.435-1.576,0.196-2.102l0,0c0.645-0.541,1.591-0.451,2.116,0.195l0,0c0.526,0.63,0.451,1.576-0.195,2.117l0,0
				c-0.285,0.225-0.616,0.345-0.961,0.345l0,0C390.997,17.571,390.561,17.376,390.261,17.016z M471.971,17.166L471.971,17.166
				c-0.631-0.526-0.721-1.471-0.196-2.117l0,0c0.526-0.63,1.471-0.721,2.117-0.195l0,0c0.63,0.526,0.721,1.471,0.195,2.117l0,0
				c-0.3,0.36-0.721,0.54-1.156,0.54l0,0C472.602,17.511,472.256,17.406,471.971,17.166z M396.642,12.151
				c-0.45-0.705-0.24-1.636,0.465-2.086l0,0c0.691-0.436,1.622-0.225,2.072,0.465l0,0c0.435,0.705,0.24,1.636-0.465,2.072l0,0
				c-0.256,0.165-0.526,0.24-0.796,0.24l0,0C397.408,12.842,396.927,12.602,396.642,12.151z M465.635,12.556L465.635,12.556
				c-0.706-0.435-0.916-1.366-0.466-2.072l0,0c0.436-0.691,1.367-0.901,2.072-0.465l0,0c0.691,0.451,0.901,1.381,0.466,2.073l0,0
				c-0.285,0.45-0.781,0.705-1.276,0.705l0,0C466.16,12.797,465.875,12.722,465.635,12.556z M403.579,8.097
				c-0.36-0.736-0.03-1.636,0.721-1.997l0,0c0.751-0.345,1.636-0.03,1.997,0.721l0,0c0.345,0.751,0.03,1.652-0.721,1.997l0,0
				c-0.21,0.105-0.42,0.15-0.63,0.15l0,0C404.375,8.968,403.834,8.653,403.579,8.097z M458.758,8.788
				c-0.751-0.361-1.081-1.246-0.721-1.997l0,0c0.361-0.751,1.246-1.081,1.997-0.721l0,0l0,0l0,0
				c0.751,0.345,1.066,1.246,0.721,1.997l0,0c-0.255,0.54-0.795,0.856-1.367,0.856l0,0C459.179,8.923,458.968,8.878,458.758,8.788z
				 M410.966,4.974c-0.255-0.795,0.18-1.636,0.961-1.907l0,0c0,0,0,0,0.015,0l0,0c0.781-0.255,1.637,0.18,1.892,0.976l0,0
				c0.255,0.781-0.18,1.637-0.976,1.892l0,0c-0.15,0.045-0.301,0.075-0.466,0.075l0,0C411.762,6.01,411.176,5.604,410.966,4.974z
				 M451.461,5.905L451.461,5.905c-0.781-0.255-1.216-1.111-0.961-1.892l0,0c0.255-0.795,1.096-1.216,1.892-0.976l0,0
				c0,0,0,0,0,0.015l0,0c0.781,0.24,1.215,1.096,0.96,1.877l0,0c-0.21,0.645-0.795,1.051-1.426,1.051l0,0
				C451.776,5.98,451.611,5.95,451.461,5.905z M418.698,2.782c-0.15-0.811,0.375-1.592,1.202-1.757l0,0
				c0.811-0.15,1.592,0.39,1.757,1.201l0,0c0.15,0.811-0.39,1.607-1.201,1.757l0,0c-0.09,0.015-0.18,0.03-0.285,0.03l0,0
				C419.464,4.013,418.834,3.502,418.698,2.782z M443.863,3.968c-0.826-0.165-1.351-0.946-1.201-1.757l0,0
				c0.15-0.826,0.946-1.352,1.757-1.202l0,0l0,0l0,0c0.811,0.15,1.351,0.946,1.201,1.757l0,0c-0.135,0.721-0.765,1.216-1.471,1.216
				l0,0C444.044,3.983,443.953,3.983,443.863,3.968z M426.641,1.596c-0.045-0.826,0.571-1.546,1.412-1.592l0,0
				c0.826-0.045,1.531,0.57,1.591,1.411l0,0c0.045,0.826-0.585,1.531-1.411,1.592l0,0c-0.03,0-0.06,0-0.09,0l0,0
				C427.347,3.007,426.687,2.391,426.641,1.596z M436.085,2.992c-0.841-0.046-1.471-0.766-1.411-1.592l0,0
				c0.045-0.826,0.766-1.457,1.592-1.397l0,0c0.826,0.045,1.457,0.751,1.397,1.592l0,0c-0.045,0.795-0.706,1.397-1.487,1.397l0,0
				C436.146,2.992,436.115,2.992,436.085,2.992z"/>
		</g>
		<g>
			<path fill="#32BD9F" d="M496.174,66.849c-0.195,0-0.39-0.045-0.57-0.12c-0.195-0.075-0.345-0.18-0.496-0.33
				c-0.27-0.27-0.435-0.66-0.435-1.051c0-0.405,0.166-0.781,0.435-1.066c0.15-0.135,0.315-0.255,0.496-0.331
				c0.556-0.225,1.216-0.089,1.636,0.331c0.271,0.285,0.436,0.661,0.436,1.066c0,0.391-0.165,0.781-0.436,1.051
				c-0.135,0.15-0.3,0.255-0.495,0.33C496.565,66.805,496.37,66.849,496.174,66.849z"/>
		</g>
	</g>
	<g>
		<g>
			<path fill="#32BD9F" d="M387.167,66.849c-0.105,0-0.195-0.015-0.3-0.03c-0.09-0.03-0.18-0.045-0.271-0.09
				c-0.105-0.03-0.18-0.09-0.27-0.135c-0.076-0.06-0.15-0.12-0.226-0.195c-0.075-0.06-0.135-0.136-0.18-0.226
				c-0.06-0.075-0.106-0.165-0.15-0.255c-0.03-0.09-0.06-0.18-0.075-0.285c-0.03-0.09-0.03-0.195-0.03-0.285
				c0-0.405,0.15-0.781,0.435-1.066c0.421-0.42,1.081-0.556,1.637-0.331c0.18,0.076,0.345,0.196,0.48,0.331
				c0.15,0.135,0.255,0.301,0.331,0.48c0.075,0.196,0.12,0.391,0.12,0.586c0,0.391-0.165,0.781-0.45,1.051
				C387.948,66.684,387.558,66.849,387.167,66.849z"/>
		</g>
		<g>
			<path fill="#32BD9F" d="M387.588,58.997c-0.826-0.15-1.367-0.916-1.231-1.742l0,0c0.15-0.811,0.93-1.366,1.741-1.216l0,0
				c0.826,0.136,1.367,0.916,1.216,1.742l0,0c-0.12,0.721-0.751,1.232-1.471,1.232l0,0
				C387.753,59.012,387.678,59.012,387.588,58.997z M475.079,57.706c-0.135-0.811,0.405-1.592,1.216-1.742l0,0
				c0.826-0.135,1.606,0.405,1.741,1.216l0,0c0.15,0.825-0.405,1.606-1.216,1.742l0,0c-0.09,0.015-0.18,0.03-0.256,0.03l0,0
				C475.844,58.952,475.214,58.441,475.079,57.706z M389.36,51.339c-0.781-0.285-1.186-1.141-0.901-1.921l0,0l0,0l0,0
				c0.285-0.781,1.141-1.172,1.921-0.901l0,0c0.781,0.285,1.186,1.156,0.901,1.937l0,0c-0.225,0.6-0.795,0.991-1.411,0.991l0,0
				C389.706,51.445,389.525,51.415,389.36,51.339z M473.112,50.379L473.112,50.379c-0.285-0.766,0.12-1.637,0.901-1.922l0,0
				c0.781-0.285,1.636,0.12,1.921,0.901l0,0c0.285,0.781-0.12,1.636-0.901,1.922l0,0c-0.165,0.06-0.345,0.09-0.51,0.09l0,0
				C473.907,51.369,473.337,50.994,473.112,50.379z M392.438,44.117c-0.721-0.405-0.961-1.321-0.54-2.042l0,0
				c0.405-0.721,1.321-0.961,2.042-0.556l0,0c0.721,0.421,0.961,1.336,0.556,2.057l0,0c-0.285,0.48-0.796,0.751-1.306,0.751l0,0
				C392.934,44.327,392.678,44.253,392.438,44.117z M469.898,43.516c-0.42-0.721-0.18-1.636,0.541-2.042l0,0
				c0.721-0.421,1.636-0.18,2.056,0.54l0,0c0.405,0.706,0.166,1.636-0.555,2.042l0,0c-0.226,0.15-0.496,0.21-0.751,0.21l0,0
				C470.679,44.267,470.169,43.997,469.898,43.516z M396.732,37.541c-0.63-0.526-0.721-1.471-0.18-2.102l0,0
				c0.526-0.646,1.472-0.721,2.103-0.195l0,0c0.645,0.54,0.721,1.486,0.195,2.117l0,0c-0.301,0.361-0.721,0.541-1.156,0.541l0,0
				C397.348,37.901,397.017,37.781,396.732,37.541z M465.53,37.316c-0.541-0.631-0.451-1.592,0.18-2.117l0,0
				c0.631-0.54,1.577-0.45,2.117,0.18l0,0c0.526,0.631,0.45,1.576-0.18,2.117l0,0c-0.285,0.24-0.63,0.345-0.96,0.345l0,0
				C466.25,37.841,465.83,37.661,465.53,37.316z M402.093,31.805c-0.526-0.631-0.451-1.577,0.195-2.102l0,0c0,0,0,0-0.015,0l0,0
				c0.646-0.541,1.592-0.451,2.117,0.18l0,0c0.54,0.631,0.45,1.577-0.18,2.117l0,0c-0.285,0.225-0.631,0.345-0.96,0.345l0,0
				C402.813,32.346,402.393,32.165,402.093,31.805z M460.154,31.956c-0.631-0.526-0.721-1.487-0.18-2.117l0,0
				c0.526-0.631,1.471-0.721,2.117-0.18l0,0c0.63,0.526,0.721,1.471,0.18,2.117l0,0c-0.3,0.345-0.721,0.526-1.156,0.526l0,0
				C460.785,32.301,460.44,32.195,460.154,31.956z M408.368,27.09c-0.42-0.721-0.165-1.636,0.541-2.057l0,0
				c0.721-0.405,1.636-0.165,2.056,0.556l0,0c0.421,0.706,0.166,1.636-0.54,2.057l0,0c-0.24,0.135-0.496,0.195-0.751,0.195l0,0
				C409.149,27.841,408.639,27.571,408.368,27.09z M453.938,27.601c-0.721-0.405-0.961-1.336-0.54-2.042l0,0
				c0.405-0.721,1.321-0.976,2.042-0.556l0,0c0.721,0.421,0.961,1.337,0.556,2.042l0,0c-0.285,0.495-0.781,0.765-1.306,0.765l0,0
				C454.434,27.811,454.179,27.736,453.938,27.601z M415.365,23.532c-0.285-0.781,0.12-1.652,0.901-1.921l0,0
				c0.781-0.301,1.636,0.105,1.921,0.886l0,0c0.285,0.781-0.12,1.636-0.901,1.922l0,0c-0.165,0.06-0.345,0.089-0.51,0.089l0,0
				C416.161,24.508,415.591,24.132,415.365,23.532z M447.061,24.403c-0.781-0.285-1.186-1.141-0.901-1.921l0,0
				c0.286-0.781,1.141-1.186,1.922-0.901l0,0c0.781,0.285,1.186,1.141,0.901,1.921l0,0c-0.226,0.616-0.796,0.991-1.411,0.991l0,0
				C447.407,24.493,447.226,24.463,447.061,24.403z M422.873,21.25c-0.135-0.826,0.405-1.606,1.231-1.741l0,0
				c0.811-0.15,1.592,0.39,1.726,1.216l0,0c0.15,0.81-0.39,1.591-1.216,1.741l0,0c-0.09,0.015-0.166,0.015-0.256,0.015l0,0
				C423.638,22.481,423.008,21.97,422.873,21.25z M439.734,22.451c-0.811-0.15-1.367-0.916-1.216-1.742l0,0
				c0.135-0.811,0.916-1.367,1.726-1.216l0,0l0,0l0,0c0.826,0.135,1.367,0.916,1.232,1.742l0,0
				c-0.136,0.721-0.766,1.231-1.487,1.231l0,0C439.915,22.466,439.824,22.466,439.734,22.451z M432.167,21.805
				c-0.826,0-1.502-0.676-1.502-1.502l0,0c0-0.826,0.676-1.502,1.502-1.502l0,0c0.841,0,1.501,0.661,1.517,1.502l0,0
				c0,0.826-0.676,1.502-1.502,1.502l0,0C431.341,21.805,432.182,21.805,432.167,21.805z"/>
		</g>
		<g>
			<path fill="#32BD9F" d="M477.256,66.849c-0.195,0-0.39-0.045-0.585-0.12c-0.18-0.075-0.345-0.18-0.481-0.33
				c-0.135-0.136-0.255-0.301-0.33-0.481c-0.076-0.18-0.106-0.375-0.106-0.57c0-0.105,0-0.195,0.03-0.301
				c0.015-0.089,0.046-0.195,0.076-0.285c0.045-0.09,0.09-0.165,0.15-0.255c0.045-0.075,0.105-0.15,0.18-0.225
				c0.136-0.135,0.301-0.255,0.481-0.331c0.556-0.225,1.231-0.089,1.652,0.331c0.059,0.075,0.12,0.15,0.18,0.225
				c0.046,0.09,0.106,0.165,0.136,0.255c0.03,0.09,0.06,0.196,0.09,0.285c0.015,0.106,0.029,0.196,0.029,0.301
				c0,0.195-0.045,0.391-0.12,0.57c-0.076,0.18-0.18,0.345-0.315,0.481C478.036,66.684,477.646,66.849,477.256,66.849z"/>
		</g>
	</g>
	<g>
		<g>
			<path fill="#32BD9F" d="M405.621,66.849c-0.39,0-0.781-0.165-1.066-0.45c-0.27-0.27-0.436-0.66-0.436-1.051
				c0-0.405,0.166-0.781,0.436-1.066c0.421-0.42,1.096-0.556,1.637-0.331c0.195,0.076,0.345,0.196,0.495,0.331
				c0.271,0.285,0.436,0.661,0.436,1.066c0,0.09-0.015,0.195-0.03,0.285c-0.015,0.106-0.045,0.195-0.089,0.285
				c-0.03,0.09-0.076,0.18-0.136,0.255c-0.06,0.09-0.12,0.166-0.18,0.226C406.401,66.684,406.011,66.849,405.621,66.849z"/>
		</g>
		<g>
			<path fill="#32BD9F" d="M406.266,59.282c-0.796-0.225-1.246-1.066-1.006-1.861l0,0c0.225-0.796,1.066-1.246,1.861-1.021l0,0
				c0.781,0.24,1.246,1.066,1.007,1.862l0,0c-0.18,0.661-0.781,1.081-1.442,1.081l0,0C406.552,59.342,406.417,59.327,406.266,59.282
				z M456.28,58.246L456.28,58.246c-0.24-0.795,0.21-1.636,1.006-1.861l0,0c0.796-0.241,1.636,0.21,1.862,1.006l0,0
				c0.24,0.795-0.21,1.636-1.007,1.861l0,0c-0.149,0.046-0.285,0.076-0.42,0.076l0,0C457.061,59.327,456.475,58.892,456.28,58.246z
				 M409.029,52.225c-0.705-0.451-0.9-1.382-0.45-2.073l0,0l0,0l0,0c0.45-0.705,1.381-0.9,2.072-0.45l0,0
				c0.706,0.45,0.901,1.381,0.451,2.072l0,0c-0.286,0.451-0.766,0.691-1.262,0.691l0,0C409.555,52.465,409.285,52.39,409.029,52.225
				z M453.308,51.76c-0.451-0.691-0.255-1.622,0.435-2.073l0,0c0.705-0.45,1.636-0.255,2.087,0.436l0,0c0,0,0,0-0.015,0l0,0
				c0.465,0.706,0.255,1.637-0.436,2.087l0,0c-0.255,0.165-0.54,0.241-0.811,0.241l0,0C454.073,52.451,453.593,52.21,453.308,51.76z
				 M413.669,46.234c-0.556-0.63-0.481-1.576,0.15-2.117l0,0l0,0l0,0c0.616-0.555,1.562-0.48,2.117,0.15l0,0
				c0.54,0.631,0.466,1.577-0.15,2.117l0,0c-0.285,0.241-0.645,0.36-0.99,0.36l0,0C414.374,46.745,413.954,46.579,413.669,46.234z
				 M448.623,46.369L448.623,46.369c-0.631-0.54-0.705-1.486-0.15-2.117l0,0c0.541-0.631,1.487-0.691,2.117-0.15l0,0l0,0l0,0
				c0.616,0.54,0.691,1.486,0.15,2.117l0,0c-0.301,0.345-0.721,0.51-1.142,0.51l0,0C449.253,46.73,448.908,46.61,448.623,46.369z
				 M419.795,41.774c-0.346-0.751-0.015-1.636,0.735-1.982l0,0l0,0l0,0c0.751-0.345,1.652-0.015,1.997,0.736l0,0
				c0.345,0.751,0.015,1.651-0.751,1.996l0,0c-0.195,0.09-0.405,0.136-0.616,0.136l0,0C420.591,42.661,420.035,42.33,419.795,41.774
				z M442.617,42.511L442.617,42.511c-0.751-0.345-1.096-1.231-0.751-1.982l0,0c0.345-0.766,1.246-1.096,1.997-0.751l0,0
				c0.751,0.345,1.081,1.231,0.735,1.996l0,0c-0.24,0.541-0.795,0.871-1.366,0.871l0,0
				C443.022,42.645,442.812,42.601,442.617,42.511z M426.927,39.237c-0.12-0.825,0.45-1.576,1.276-1.696l0,0l0,0l0,0
				c0.811-0.12,1.577,0.451,1.697,1.276l0,0c0.12,0.811-0.451,1.576-1.276,1.697l0,0c-0.075,0-0.136,0.015-0.21,0.015l0,0
				C427.678,40.529,427.032,39.988,426.927,39.237z M435.77,40.514L435.77,40.514c-0.826-0.12-1.396-0.886-1.276-1.712l0,0
				c0.106-0.81,0.871-1.381,1.697-1.261l0,0c0,0,0,0,0-0.015l0,0c0.826,0.12,1.396,0.886,1.276,1.711l0,0
				c-0.105,0.751-0.751,1.292-1.486,1.292l0,0C435.906,40.529,435.83,40.514,435.77,40.514z"/>
		</g>
		<g>
			<path fill="#32BD9F" d="M458.803,66.849c-0.405,0-0.781-0.165-1.067-0.435c-0.075-0.075-0.135-0.15-0.195-0.241
				c-0.045-0.075-0.09-0.165-0.135-0.255c-0.03-0.09-0.06-0.18-0.075-0.285c-0.03-0.09-0.03-0.195-0.03-0.285
				c0-0.39,0.15-0.781,0.435-1.066c0.556-0.556,1.562-0.556,2.117,0c0.285,0.285,0.451,0.676,0.451,1.066
				c0,0.09-0.015,0.195-0.03,0.285c-0.03,0.106-0.06,0.195-0.09,0.285c-0.045,0.09-0.09,0.18-0.136,0.255
				c-0.06,0.09-0.12,0.166-0.195,0.241c-0.06,0.06-0.135,0.12-0.225,0.18c-0.075,0.045-0.165,0.105-0.255,0.135
				c-0.09,0.045-0.195,0.075-0.285,0.09C458.998,66.835,458.893,66.849,458.803,66.849z"/>
		</g>
	</g>
	<g>
		<g>
			<path fill="#32BD9F" d="M586.998,74.357c-0.406,0-0.782-0.165-1.066-0.45c-0.075-0.06-0.135-0.136-0.18-0.226
				c-0.06-0.075-0.106-0.165-0.15-0.255c-0.031-0.09-0.06-0.18-0.076-0.285c-0.029-0.09-0.029-0.195-0.029-0.285
				c0-0.105,0-0.195,0.029-0.301c0.016-0.089,0.045-0.18,0.076-0.285c0.044-0.09,0.089-0.165,0.15-0.255
				c0.045-0.075,0.106-0.15,0.18-0.225c0.135-0.135,0.301-0.255,0.481-0.331c0.375-0.15,0.795-0.15,1.155,0
				c0.18,0.075,0.346,0.196,0.481,0.331c0.075,0.075,0.135,0.15,0.195,0.225c0.045,0.09,0.104,0.165,0.135,0.255
				c0.046,0.106,0.06,0.196,0.089,0.285c0.016,0.106,0.031,0.196,0.031,0.301c0,0.09-0.015,0.195-0.031,0.285
				c-0.029,0.106-0.044,0.195-0.089,0.285c-0.031,0.09-0.089,0.18-0.135,0.255c-0.06,0.09-0.12,0.166-0.195,0.226
				C587.778,74.192,587.388,74.357,586.998,74.357z"/>
		</g>
		<g>
			<path fill="#32BD9F" d="M518.966,138.199c-0.825-0.06-1.456-0.765-1.396-1.592l0,0c0.045-0.826,0.751-1.456,1.576-1.411l0,0
				c0.827,0.06,1.472,0.766,1.412,1.592l0,0c-0.045,0.795-0.705,1.411-1.502,1.411l0,0
				C519.026,138.199,518.997,138.199,518.966,138.199z M525.588,136.788c-0.044-0.826,0.587-1.547,1.412-1.592l0,0
				c0.826-0.06,1.531,0.57,1.591,1.397l0,0c0.045,0.826-0.585,1.546-1.411,1.592l0,0c-0.031,0-0.06,0.015-0.091,0.015l0,0
				C526.294,138.199,525.648,137.583,525.588,136.788z M510.813,137.178c0,0,0,0,0,0.015l0,0c-0.811-0.165-1.35-0.946-1.201-1.757
				l0,0c0.166-0.826,0.946-1.351,1.757-1.202l0,0c0.826,0.15,1.352,0.931,1.201,1.757l0,0c-0.135,0.721-0.765,1.216-1.471,1.216l0,0
				C511.008,137.208,510.919,137.193,510.813,137.178z M533.576,135.977c-0.15-0.826,0.39-1.606,1.201-1.757l0,0
				c0.811-0.165,1.607,0.375,1.757,1.186l0,0c0.151,0.811-0.375,1.606-1.201,1.757l0,0c0,0,0,0,0.015,0l0,0
				c-0.104,0.015-0.195,0.03-0.285,0.03l0,0C534.341,137.193,533.726,136.683,533.576,135.977z M502.856,135.151
				c-0.796-0.256-1.231-1.096-0.976-1.892l0,0c0.255-0.781,1.111-1.216,1.892-0.961l0,0c0.796,0.256,1.216,1.096,0.961,1.892l0,0
				c-0.195,0.631-0.796,1.036-1.427,1.036l0,0C503.156,135.226,503.006,135.196,502.856,135.151z M541.399,134.16
				c-0.255-0.796,0.18-1.636,0.977-1.892l0,0c0.78-0.255,1.622,0.166,1.892,0.961l0,0c0.255,0.781-0.18,1.636-0.977,1.892l0,0l0,0
				l0,0c-0.149,0.045-0.301,0.075-0.45,0.075l0,0C542.195,135.196,541.608,134.791,541.399,134.16z M495.198,132.133
				c-0.751-0.36-1.066-1.246-0.721-1.997l0,0c0.361-0.751,1.246-1.081,1.997-0.721l0,0c0.751,0.345,1.081,1.246,0.721,1.997l0,0
				c-0.255,0.54-0.796,0.856-1.351,0.856l0,0C495.619,132.268,495.409,132.223,495.198,132.133z M548.935,131.368
				c-0.344-0.751-0.029-1.637,0.721-1.997l0,0c0.751-0.345,1.651-0.03,1.997,0.721l0,0c0.361,0.751,0.029,1.652-0.721,1.997l0,0
				c-0.195,0.105-0.419,0.15-0.63,0.15l0,0C549.732,132.238,549.192,131.908,548.935,131.368z M487.992,128.169
				c-0.691-0.45-0.901-1.366-0.465-2.072l0,0c0.45-0.705,1.381-0.901,2.072-0.465l0,0c0.706,0.451,0.916,1.367,0.465,2.073l0,0
				c-0.285,0.45-0.766,0.705-1.261,0.705l0,0C488.517,128.41,488.247,128.335,487.992,128.169z M556.053,127.659
				c-0.436-0.691-0.241-1.622,0.466-2.072l0,0c0.705-0.451,1.622-0.241,2.072,0.465l0,0c0.45,0.691,0.241,1.622-0.466,2.072l0,0
				c-0.239,0.15-0.525,0.24-0.795,0.24l0,0C556.834,128.365,556.339,128.109,556.053,127.659z M481.34,123.335
				c-0.63-0.526-0.721-1.471-0.195-2.102l0,0c0.526-0.646,1.471-0.736,2.117-0.21l0,0c0.631,0.526,0.721,1.471,0.196,2.117l0,0
				c-0.301,0.36-0.721,0.54-1.156,0.54l0,0C481.97,123.68,481.625,123.575,481.34,123.335z M562.66,123.094
				c-0.541-0.645-0.45-1.592,0.195-2.117l0,0c0.645-0.525,1.591-0.45,2.117,0.196l0,0c0.525,0.631,0.435,1.592-0.195,2.117l0,0l0,0
				l0,0c-0.286,0.226-0.631,0.345-0.962,0.345l0,0C563.38,123.635,562.96,123.455,562.66,123.094z M475.349,117.719
				c-0.571-0.6-0.541-1.546,0.059-2.116l0,0c0.616-0.571,1.562-0.541,2.133,0.06l0,0c0.57,0.6,0.54,1.546-0.06,2.117l0,0
				c-0.301,0.27-0.661,0.405-1.036,0.405l0,0C476.04,118.184,475.649,118.034,475.349,117.719z M568.635,117.734
				c-0.6-0.57-0.63-1.531-0.06-2.132l0,0c0.556-0.601,1.518-0.631,2.117-0.06l0,0c0.601,0.555,0.63,1.516,0.06,2.117l0,0l0,0l0,0
				c-0.284,0.315-0.691,0.481-1.081,0.481l0,0C569.296,118.14,568.921,118.004,568.635,117.734z M470.109,111.398
				c-0.496-0.66-0.345-1.606,0.331-2.102l0,0c0.66-0.48,1.606-0.331,2.086,0.331l0,0c0.496,0.675,0.345,1.606-0.33,2.102l0,0
				c-0.255,0.195-0.571,0.285-0.871,0.285l0,0C470.86,112.014,470.394,111.803,470.109,111.398z M573.906,111.668
				c-0.676-0.496-0.827-1.441-0.331-2.102l0,0c0.481-0.676,1.427-0.826,2.088-0.331l0,0c0.675,0.48,0.826,1.427,0.33,2.087l0,0
				c-0.286,0.405-0.751,0.63-1.216,0.63l0,0C574.476,111.953,574.161,111.849,573.906,111.668z M465.695,104.476L465.695,104.476
				L465.695,104.476c-0.405-0.721-0.15-1.636,0.586-2.042l0,0c0.721-0.405,1.636-0.136,2.042,0.585l0,0
				c0.39,0.721,0.135,1.637-0.6,2.042l0,0c-0.226,0.12-0.481,0.18-0.721,0.18l0,0C466.476,105.242,465.965,104.972,465.695,104.476z
				 M578.365,104.986c-0.721-0.405-0.991-1.321-0.585-2.042l0,0c0.405-0.721,1.305-0.991,2.041-0.586l0,0
				c0.721,0.391,0.991,1.306,0.587,2.042l0,0c-0.271,0.495-0.781,0.765-1.323,0.765l0,0
				C578.846,105.167,578.605,105.107,578.365,104.986z M462.181,97.044c-0.316-0.765,0.059-1.636,0.84-1.952l0,0
				c0.766-0.301,1.637,0.075,1.952,0.841l0,0c0.3,0.781-0.075,1.652-0.841,1.952l0,0c-0.195,0.076-0.375,0.106-0.556,0.106l0,0
				C462.977,97.99,462.407,97.645,462.181,97.044z M581.968,97.794c-0.765-0.3-1.155-1.171-0.84-1.937v-0.015
				c0.301-0.766,1.172-1.141,1.952-0.841l0,0c0.765,0.315,1.141,1.186,0.842,1.952l0,0l0,0l0,0
				c-0.241,0.586-0.811,0.946-1.397,0.946l0,0C582.328,97.9,582.148,97.87,581.968,97.794z M459.629,89.236
				c-0.21-0.796,0.27-1.622,1.081-1.832l0,0c0.795-0.21,1.621,0.285,1.817,1.081l0,0c0.21,0.811-0.27,1.622-1.066,1.831l0,0
				c-0.136,0.03-0.256,0.046-0.375,0.046l0,0C460.409,90.363,459.794,89.912,459.629,89.236z M584.626,90.212
				c-0.796-0.195-1.292-1.021-1.081-1.817l0,0c0.21-0.811,1.02-1.291,1.831-1.096l0,0c0.796,0.21,1.276,1.036,1.081,1.831l0,0
				c-0.18,0.676-0.795,1.126-1.456,1.126l0,0C584.881,90.257,584.746,90.242,584.626,90.212z M458.083,81.159
				c-0.106-0.811,0.48-1.562,1.306-1.667l0,0c0.811-0.105,1.562,0.481,1.667,1.292l0,0c0.105,0.825-0.466,1.576-1.292,1.681l0,0
				c-0.075,0.015-0.135,0.015-0.195,0.015l0,0C458.833,82.48,458.172,81.924,458.083,81.159z M586.308,82.36
				c-0.826-0.105-1.412-0.856-1.307-1.666l0,0c0.106-0.826,0.856-1.411,1.682-1.306l0,0c0.825,0.105,1.41,0.856,1.306,1.666l0,0
				c-0.106,0.766-0.751,1.321-1.487,1.321l0,0C586.443,82.374,586.368,82.374,586.308,82.36z"/>
		</g>
		<g>
			<path fill="#32BD9F" d="M459.058,74.357c-0.391,0-0.781-0.165-1.066-0.45c-0.136-0.136-0.241-0.301-0.315-0.481
				c-0.075-0.18-0.12-0.375-0.12-0.57c0-0.195,0.045-0.39,0.12-0.586c0.075-0.18,0.18-0.345,0.315-0.48
				c0.42-0.42,1.096-0.556,1.636-0.331c0.195,0.09,0.36,0.196,0.496,0.331c0.135,0.135,0.24,0.301,0.315,0.48
				c0.09,0.196,0.12,0.391,0.12,0.586c0,0.195-0.03,0.391-0.12,0.57c-0.075,0.18-0.18,0.345-0.315,0.481
				c-0.136,0.149-0.301,0.255-0.496,0.33C459.448,74.312,459.253,74.357,459.058,74.357z"/>
		</g>
	</g>
	<g>
		<g>
			<path fill="#32BD9F" d="M568.259,74.357c-0.195,0-0.39-0.045-0.57-0.12c-0.18-0.075-0.344-0.18-0.496-0.33
				c-0.27-0.27-0.435-0.661-0.435-1.051c0-0.195,0.045-0.39,0.12-0.57c0.075-0.195,0.18-0.361,0.315-0.496
				c0.151-0.135,0.315-0.241,0.496-0.331c0.271-0.105,0.57-0.135,0.871-0.075c0.091,0.015,0.18,0.045,0.27,0.075
				c0.091,0.045,0.18,0.09,0.271,0.15c0.075,0.045,0.15,0.106,0.224,0.18c0.136,0.135,0.241,0.301,0.315,0.496
				c0.076,0.18,0.12,0.375,0.12,0.57c0,0.391-0.164,0.781-0.436,1.051c-0.075,0.075-0.149,0.135-0.224,0.195
				c-0.091,0.06-0.18,0.105-0.271,0.135c-0.089,0.046-0.179,0.076-0.27,0.09C568.454,74.342,568.365,74.357,568.259,74.357z"/>
		</g>
		<g>
			<path fill="#32BD9F" d="M521.564,118.08c0-0.826,0.661-1.502,1.502-1.502l0,0c0.826,0,1.501,0.675,1.501,1.502l0,0
				c0,0.826-0.676,1.502-1.501,1.502l0,0C522.226,119.581,521.564,118.92,521.564,118.08z M514.957,118.891
				c-0.826-0.136-1.365-0.916-1.23-1.742l0,0c0.149-0.811,0.915-1.367,1.742-1.216l0,0c0.809,0.136,1.365,0.916,1.216,1.742l0,0
				c-0.12,0.721-0.766,1.246-1.472,1.246l0,0C515.123,118.92,515.033,118.905,514.957,118.891z M529.432,117.659
				c-0.151-0.811,0.405-1.591,1.215-1.741l0,0c0.826-0.136,1.592,0.405,1.742,1.216l0,0c0.149,0.826-0.405,1.606-1.216,1.741l0,0
				c-0.091,0.015-0.18,0.03-0.271,0.03l0,0C530.198,118.905,529.553,118.395,529.432,117.659z M507.09,116.789
				c-0.781-0.27-1.186-1.141-0.901-1.922l0,0c0.271-0.781,1.141-1.171,1.922-0.901l0,0c0.78,0.285,1.172,1.156,0.9,1.922l0,0
				c-0.224,0.615-0.795,0.99-1.41,0.99l0,0C507.421,116.878,507.256,116.848,507.09,116.789z M537.12,115.872
				c-0.286-0.781,0.104-1.636,0.886-1.922l0,0c0.78-0.285,1.651,0.12,1.921,0.901l0,0c0.286,0.781-0.104,1.636-0.886,1.922l0,0
				c-0.18,0.06-0.345,0.09-0.525,0.09l0,0C537.915,116.863,537.33,116.488,537.12,115.872z M499.703,113.35
				c-0.721-0.405-0.961-1.322-0.556-2.042l0,0c0.421-0.721,1.336-0.976,2.057-0.555l0,0c0.721,0.42,0.961,1.336,0.54,2.056l0,0
				c-0.27,0.481-0.781,0.751-1.291,0.751l0,0C500.198,113.56,499.943,113.5,499.703,113.35z M544.356,112.779
				c-0.405-0.721-0.164-1.636,0.556-2.056l0,0c0.721-0.421,1.636-0.18,2.057,0.54l0,0c0.406,0.721,0.166,1.636-0.556,2.057l0,0
				c-0.24,0.135-0.496,0.195-0.751,0.195l0,0C545.152,113.515,544.642,113.26,544.356,112.779z M493.021,108.695c0,0,0,0,0.015,0
				l0,0c-0.646-0.54-0.721-1.487-0.195-2.117l0,0c0.54-0.645,1.486-0.721,2.117-0.195l0,0c0.631,0.54,0.721,1.486,0.18,2.117l0,0
				c-0.285,0.36-0.721,0.54-1.141,0.54l0,0C493.652,109.041,493.307,108.921,493.021,108.695z M550.963,108.455
				c-0.541-0.631-0.45-1.576,0.18-2.117l0,0c0.631-0.525,1.591-0.45,2.117,0.196l0,0c0.54,0.631,0.45,1.576-0.18,2.102l0,0
				c-0.286,0.24-0.631,0.36-0.962,0.36l0,0C551.683,108.995,551.264,108.816,550.963,108.455z M487.271,102.93L487.271,102.93
				L487.271,102.93c-0.541-0.631-0.465-1.577,0.18-2.103l0,0c0.631-0.54,1.577-0.465,2.117,0.18l0,0
				c0.526,0.63,0.45,1.576-0.195,2.117l0,0c-0.271,0.225-0.616,0.345-0.961,0.345l0,0C487.992,103.47,487.571,103.29,487.271,102.93
				z M556.714,103.065c-0.631-0.526-0.705-1.471-0.18-2.117l0,0c0.525-0.63,1.487-0.705,2.117-0.18l0,0
				c0.63,0.541,0.72,1.487,0.18,2.117l0,0c-0.301,0.361-0.721,0.54-1.142,0.54l0,0C557.344,103.425,556.998,103.305,556.714,103.065
				z M482.586,96.278c-0.421-0.721-0.18-1.636,0.54-2.057l0,0c0.721-0.405,1.636-0.165,2.057,0.556l0,0
				c0.405,0.705,0.165,1.636-0.556,2.042l0,0c-0.225,0.135-0.496,0.21-0.751,0.21l0,0C483.367,97.029,482.857,96.759,482.586,96.278
				z M561.459,96.759c-0.721-0.405-0.962-1.336-0.556-2.042l0,0c0.419-0.721,1.336-0.961,2.057-0.556l0,0
				c0.72,0.421,0.96,1.336,0.556,2.057l0,0c-0.286,0.48-0.796,0.751-1.306,0.751l0,0C561.954,96.969,561.698,96.894,561.459,96.759z
				 M479.132,88.906c-0.285-0.781,0.106-1.636,0.886-1.922l0,0c0.781-0.285,1.636,0.12,1.921,0.886l0,0
				c0.285,0.781-0.105,1.652-0.886,1.937l0,0c-0.18,0.06-0.345,0.09-0.526,0.09l0,0C479.929,89.897,479.343,89.522,479.132,88.906z
				 M565.032,89.732c-0.781-0.286-1.186-1.141-0.902-1.922l0,0c0.286-0.781,1.142-1.186,1.922-0.901l0,0
				c0.782,0.285,1.186,1.156,0.9,1.922l0,0c-0.224,0.615-0.795,0.99-1.411,0.99l0,0C565.377,89.821,565.196,89.792,565.032,89.732z
				 M477.016,81.038L477.016,81.038L477.016,81.038c-0.15-0.811,0.39-1.592,1.216-1.727l0,0c0.811-0.149,1.592,0.391,1.741,1.216
				h-0.015c0.15,0.811-0.391,1.592-1.216,1.727l0,0c-0.075,0.015-0.165,0.03-0.255,0.03l0,0
				C477.767,82.285,477.136,81.774,477.016,81.038z M567.314,82.195c-0.811-0.15-1.35-0.931-1.215-1.742l0,0
				c0.149-0.811,0.915-1.367,1.742-1.216l0,0c0.811,0.135,1.365,0.916,1.216,1.727l0,0c-0.12,0.736-0.751,1.246-1.471,1.246l0,0
				C567.494,82.209,567.404,82.209,567.314,82.195z"/>
		</g>
		<g>
			<path fill="none" d="M478.863,73.921c-0.15,0.135-0.315,0.24-0.496,0.315c-0.18,0.076-0.375,0.12-0.57,0.12
				c-0.106,0-0.195-0.015-0.301-0.03c-0.09-0.03-0.18-0.045-0.27-0.09c-0.09-0.03-0.18-0.09-0.27-0.135
				c-0.076-0.06-0.15-0.12-0.225-0.18c-0.271-0.285-0.436-0.675-0.436-1.066c0-0.405,0.165-0.781,0.436-1.066
				c0.075-0.075,0.149-0.135,0.225-0.18c0.09-0.06,0.18-0.105,0.27-0.15c0.089-0.03,0.18-0.059,0.27-0.075
				c0.301-0.06,0.6-0.03,0.871,0.075c0.18,0.075,0.345,0.196,0.496,0.331"/>
		</g>
	</g>
	<g>
		<g>
			<path fill="#32BD9F" d="M549.371,65.348c-0.104,0-0.195-0.015-0.299-0.03c-0.091-0.03-0.195-0.045-0.286-0.09
				c-0.089-0.03-0.18-0.09-0.255-0.135c-0.075-0.06-0.166-0.12-0.226-0.195c-0.284-0.271-0.436-0.661-0.436-1.051
				c0-0.405,0.151-0.795,0.436-1.066c0.06-0.075,0.151-0.135,0.226-0.18c0.075-0.06,0.166-0.105,0.255-0.15
				c0.091-0.03,0.195-0.059,0.286-0.075c0.496-0.105,1.006,0.06,1.35,0.405c0.075,0.075,0.135,0.15,0.195,0.225
				c0.045,0.09,0.106,0.165,0.136,0.255c0.044,0.106,0.059,0.196,0.089,0.285c0.015,0.106,0.029,0.196,0.029,0.301
				c0,0.391-0.164,0.781-0.45,1.051C550.152,65.183,549.762,65.348,549.371,65.348z"/>
		</g>
		<g>
			<path fill="#32BD9F" d="M549.777,57.495c-0.811-0.15-1.352-0.916-1.217-1.742l0,0l0,0l0,0c0.151-0.811,0.931-1.366,1.742-1.216
				l0,0c0.811,0.136,1.367,0.916,1.217,1.742l0,0c-0.12,0.721-0.751,1.232-1.472,1.232l0,0
				C549.957,57.511,549.866,57.511,549.777,57.495z M637.283,56.204c-0.151-0.811,0.405-1.592,1.216-1.742l0,0
				c0.811-0.135,1.592,0.405,1.742,1.216l0,0c0,0,0,0,0,0.015l0,0c0.15,0.811-0.406,1.592-1.217,1.727l0,0
				c-0.089,0.015-0.179,0.03-0.255,0.03l0,0C638.048,57.45,637.403,56.939,637.283,56.204z M551.548,49.838
				c-0.765-0.285-1.17-1.141-0.886-1.921l0,0l0,0l0,0c0.27-0.781,1.141-1.172,1.922-0.901l0,0c0.78,0.285,1.186,1.156,0.9,1.937l0,0
				c-0.224,0.6-0.796,0.976-1.411,0.976l0,0C551.894,49.928,551.729,49.898,551.548,49.838z M635.315,48.892
				c-0.285-0.781,0.106-1.652,0.886-1.937l0,0c0.782-0.285,1.652,0.12,1.937,0.901l0,0c0.286,0.781-0.12,1.636-0.9,1.922l0,0
				c-0.166,0.06-0.346,0.09-0.51,0.09l0,0C636.111,49.868,635.541,49.492,635.315,48.892z M554.642,42.615
				c-0.721-0.405-0.962-1.321-0.556-2.042l0,0c0.421-0.721,1.336-0.961,2.057-0.556l0,0c0.72,0.421,0.96,1.336,0.539,2.057l0,0
				c-0.27,0.48-0.78,0.751-1.29,0.751l0,0C555.138,42.826,554.866,42.766,554.642,42.615z M632.088,42.015h0.015
				c-0.421-0.721-0.18-1.636,0.54-2.042l0,0c0.707-0.421,1.638-0.18,2.043,0.54l0,0c0,0,0,0,0.015,0l0,0
				c0.406,0.721,0.166,1.636-0.556,2.057l0,0c-0.239,0.135-0.494,0.195-0.751,0.195l0,0
				C632.883,42.766,632.372,42.496,632.088,42.015z M558.935,36.039c-0.645-0.526-0.72-1.471-0.195-2.102l0,0l0,0l0,0
				c0.541-0.646,1.487-0.721,2.117-0.195l0,0c0.645,0.54,0.721,1.486,0.195,2.117h-0.015c-0.286,0.361-0.721,0.541-1.141,0.541l0,0
				C559.551,36.4,559.207,36.28,558.935,36.039z M627.733,35.814c-0.541-0.631-0.45-1.576,0.18-2.117l0,0
				c0.631-0.54,1.576-0.45,2.117,0.18l0,0l0,0l0,0c0.525,0.63,0.45,1.576-0.18,2.117l0,0c-0.286,0.24-0.63,0.36-0.977,0.36l0,0
				C628.454,36.354,628.019,36.159,627.733,35.814z M564.296,30.304c-0.541-0.63-0.45-1.577,0.18-2.102l0,0
				c0.63-0.541,1.591-0.465,2.117,0.18l0,0c0.525,0.631,0.45,1.577-0.18,2.117l0,0c-0.286,0.225-0.631,0.345-0.977,0.345l0,0
				C565.017,30.844,564.597,30.664,564.296,30.304z M622.358,30.454L622.358,30.454c-0.645-0.526-0.72-1.487-0.195-2.117l0,0
				c0.541-0.63,1.487-0.721,2.117-0.18l0,0c0.645,0.526,0.72,1.471,0.195,2.117l0,0c-0.301,0.345-0.721,0.526-1.157,0.526l0,0
				C622.974,30.799,622.644,30.694,622.358,30.454z M570.572,25.589c-0.419-0.721-0.18-1.636,0.541-2.057l0,0
				c0.72-0.405,1.636-0.165,2.057,0.556l0,0c0.405,0.721,0.164,1.636-0.556,2.042l0,0c-0.226,0.15-0.496,0.21-0.751,0.21l0,0
				C571.353,26.34,570.843,26.069,570.572,25.589z M616.142,26.099L616.142,26.099c-0.721-0.405-0.962-1.336-0.556-2.042l0,0
				c0.421-0.721,1.336-0.976,2.057-0.556l0,0l0,0l0,0c0.705,0.421,0.96,1.337,0.54,2.057l0,0c-0.27,0.48-0.78,0.751-1.29,0.751l0,0
				C616.638,26.31,616.383,26.235,616.142,26.099z M577.569,22.03c-0.284-0.781,0.12-1.652,0.886-1.922l0,0c0,0,0,0,0-0.015l0,0
				c0.781-0.285,1.652,0.12,1.937,0.901l0,0c0.286,0.781-0.12,1.636-0.9,1.922l0,0c-0.166,0.075-0.346,0.089-0.51,0.089l0,0
				C578.365,23.006,577.795,22.631,577.569,22.03z M609.265,22.901c-0.781-0.285-1.186-1.141-0.902-1.922l0,0
				c0.286-0.781,1.142-1.186,1.922-0.901l0,0c0.782,0.285,1.186,1.141,0.902,1.922l0,0c-0.226,0.616-0.796,0.991-1.412,0.991l0,0
				C609.61,22.991,609.429,22.961,609.265,22.901z M585.076,19.733c-0.135-0.811,0.406-1.592,1.217-1.727l0,0
				c0.826-0.15,1.606,0.39,1.741,1.216l0,0c0.151,0.81-0.405,1.591-1.216,1.741l0,0c-0.089,0.015-0.18,0.015-0.255,0.015l0,0
				C585.841,20.98,585.211,20.469,585.076,19.733z M601.938,20.95L601.938,20.95c-0.827-0.136-1.367-0.916-1.217-1.742l0,0
				c0.135-0.811,0.917-1.367,1.727-1.216l0,0c0.826,0.135,1.367,0.916,1.216,1.742l0,0c-0.12,0.721-0.751,1.231-1.471,1.231l0,0
				C602.103,20.964,602.028,20.964,601.938,20.95z M592.869,18.802c0-0.825,0.676-1.501,1.502-1.501l0,0
				c0.825,0,1.502,0.661,1.502,1.501l0,0c0,0.826-0.661,1.502-1.502,1.502l0,0C593.545,20.304,592.869,19.628,592.869,18.802z"/>
		</g>
		<g>
			<path fill="#32BD9F" d="M639.444,65.348c-0.39,0-0.78-0.165-1.051-0.45c-0.284-0.271-0.45-0.661-0.45-1.051
				c0-0.195,0.045-0.39,0.12-0.586c0.075-0.18,0.18-0.345,0.33-0.48c0.556-0.556,1.562-0.556,2.117,0
				c0.135,0.135,0.255,0.301,0.331,0.48c0.075,0.196,0.104,0.391,0.104,0.586c0,0.391-0.149,0.781-0.435,1.051
				C640.24,65.183,639.85,65.348,639.444,65.348z"/>
		</g>
	</g>
	<g>
		<g>
			<path fill="#32BD9F" d="M567.824,65.348c-0.39,0-0.78-0.165-1.066-0.45c-0.06-0.06-0.135-0.136-0.18-0.226
				c-0.059-0.075-0.104-0.165-0.15-0.255c-0.029-0.09-0.06-0.18-0.075-0.285c-0.031-0.09-0.031-0.195-0.031-0.285
				c0-0.195,0.031-0.39,0.106-0.586c0.075-0.18,0.195-0.345,0.33-0.48c0.556-0.556,1.562-0.556,2.117,0
				c0.151,0.135,0.255,0.301,0.33,0.48c0.076,0.196,0.12,0.391,0.12,0.586c0,0.391-0.164,0.781-0.45,1.051
				C568.605,65.183,568.215,65.348,567.824,65.348z"/>
		</g>
		<g>
			<path fill="#32BD9F" d="M568.47,57.78c-0.796-0.225-1.246-1.066-1.022-1.861l0,0l0,0l0,0c0.24-0.796,1.066-1.246,1.862-1.021l0,0
				c0.796,0.241,1.261,1.066,1.021,1.862l0,0c-0.195,0.661-0.795,1.081-1.441,1.081l0,0C568.755,57.841,568.605,57.826,568.47,57.78
				z M618.469,56.744c-0.226-0.795,0.226-1.636,1.02-1.861l0,0c0.796-0.24,1.636,0.21,1.862,1.006l0,0c0,0,0,0,0,0.015l0,0
				c0.24,0.781-0.21,1.622-1.006,1.862l0,0c-0.149,0.03-0.286,0.06-0.435,0.06l0,0C619.265,57.826,618.664,57.39,618.469,56.744z
				 M571.233,50.724c-0.705-0.451-0.902-1.382-0.45-2.073l0,0c0.45-0.705,1.367-0.9,2.072-0.45l0,0c0.691,0.45,0.9,1.381,0.45,2.072
				l0,0c-0.286,0.451-0.765,0.691-1.261,0.691l0,0C571.758,50.964,571.473,50.889,571.233,50.724z M615.496,50.258
				c-0.45-0.706-0.255-1.622,0.452-2.073l0,0c0.691-0.45,1.622-0.255,2.072,0.435l0,0c0.45,0.706,0.255,1.637-0.45,2.087l0,0
				c-0.24,0.165-0.526,0.24-0.811,0.24l0,0C616.277,50.949,615.781,50.694,615.496,50.258z M575.858,44.733
				c-0.541-0.631-0.466-1.576,0.15-2.117l0,0c0.631-0.555,1.576-0.48,2.132,0.15l0,0c0.541,0.616,0.466,1.577-0.164,2.117l0,0
				c-0.286,0.24-0.631,0.36-0.977,0.36l0,0C576.578,45.243,576.158,45.078,575.858,44.733z M610.812,44.868
				c-0.616-0.54-0.692-1.486-0.151-2.117l0,0c0.556-0.63,1.502-0.691,2.117-0.15l0,0c0.631,0.54,0.705,1.486,0.15,2.117l0,0
				c-0.284,0.345-0.705,0.51-1.126,0.51l0,0C611.457,45.228,611.097,45.108,610.812,44.868z M581.998,40.273
				c-0.361-0.751-0.031-1.636,0.736-1.982l0,0c0.751-0.345,1.636-0.015,1.981,0.736l0,0c0.346,0.751,0.016,1.651-0.735,1.996l0,0
				c-0.211,0.09-0.421,0.136-0.63,0.136l0,0C582.778,41.159,582.239,40.829,581.998,40.273z M604.821,41.009
				c-0.765-0.345-1.097-1.231-0.751-1.982l0,0c0.345-0.766,1.23-1.096,1.997-0.751l0,0c0.751,0.345,1.081,1.231,0.735,1.996l0,0
				c-0.255,0.541-0.795,0.871-1.365,0.871l0,0C605.226,41.144,605.016,41.099,604.821,41.009z M589.13,37.736
				c-0.12-0.826,0.45-1.576,1.276-1.697l0,0c0.811-0.12,1.578,0.451,1.696,1.276l0,0c0.12,0.811-0.45,1.576-1.276,1.696l0,0
				c-0.075,0-0.15,0.015-0.21,0.015l0,0C589.881,39.027,589.236,38.486,589.13,37.736z M597.974,39.012
				c-0.826-0.12-1.396-0.886-1.276-1.712l0,0c0.106-0.81,0.871-1.381,1.697-1.261l0,0c0.811,0.105,1.381,0.871,1.276,1.697l0,0
				c-0.119,0.751-0.751,1.292-1.485,1.292l0,0C598.108,39.027,598.034,39.012,597.974,39.012z"/>
		</g>
		<g>
			<path fill="#32BD9F" d="M620.991,65.348c-0.39,0-0.78-0.165-1.066-0.45c-0.27-0.271-0.436-0.661-0.436-1.051
				c0-0.405,0.166-0.781,0.436-1.066c0.57-0.556,1.576-0.556,2.132,0c0.286,0.285,0.436,0.661,0.436,1.066
				c0,0.391-0.15,0.781-0.436,1.051C621.773,65.183,621.397,65.348,620.991,65.348z"/>
		</g>
	</g>
	<g>
		<g>
			<path fill="#32BD9F" d="M730.463,72.855c-0.405,0-0.78-0.165-1.066-0.45c-0.27-0.27-0.435-0.66-0.435-1.051
				c0-0.405,0.166-0.795,0.435-1.066c0.556-0.556,1.576-0.556,2.132,0c0.27,0.285,0.435,0.661,0.435,1.066
				c0,0.391-0.166,0.781-0.435,1.051C731.245,72.69,730.853,72.855,730.463,72.855z"/>
		</g>
		<g>
			<path fill="#32BD9F" d="M683.752,116.578c0-0.826,0.676-1.501,1.501-1.501l0,0c0.842,0,1.502,0.675,1.518,1.501l0,0
				c0,0.826-0.676,1.502-1.518,1.502l0,0C684.428,118.08,683.752,117.419,683.752,116.578z M677.147,117.389c0,0,0,0,0.015,0l0,0
				c-0.826-0.136-1.367-0.916-1.232-1.727l0,0c0.136-0.826,0.916-1.382,1.742-1.232l0,0c0.811,0.136,1.367,0.916,1.217,1.742l0,0
				c-0.12,0.721-0.767,1.246-1.472,1.246l0,0C677.327,117.419,677.236,117.404,677.147,117.389z M691.635,116.157
				c-0.15-0.811,0.406-1.591,1.217-1.741l0,0c0.811-0.136,1.591,0.405,1.742,1.216l0,0c0.135,0.825-0.406,1.606-1.217,1.741l0,0
				c-0.089,0.015-0.18,0.03-0.27,0.03l0,0C692.402,117.404,691.755,116.878,691.635,116.157z M669.279,115.287
				c-0.78-0.27-1.172-1.141-0.9-1.922l0,0c0.284-0.781,1.155-1.171,1.937-0.901l0,0c0.78,0.285,1.17,1.156,0.886,1.937l0,0
				c-0.211,0.6-0.796,0.976-1.412,0.976l0,0C669.625,115.376,669.459,115.347,669.279,115.287z M699.308,114.371
				c-0.284-0.781,0.12-1.636,0.9-1.922l0,0c0.781-0.285,1.638,0.12,1.922,0.901l0,0c0.286,0.765-0.12,1.636-0.886,1.922l0,0
				c-0.18,0.06-0.345,0.09-0.525,0.09l0,0C700.104,115.362,699.534,114.986,699.308,114.371z M661.906,111.849L661.906,111.849
				L661.906,111.849c-0.72-0.405-0.975-1.322-0.556-2.043l0,0c0.421-0.721,1.337-0.96,2.057-0.555l0,0
				c0.707,0.42,0.962,1.336,0.541,2.056l0,0c-0.27,0.481-0.782,0.751-1.306,0.751l0,0
				C662.402,112.058,662.132,111.998,661.906,111.849z M706.56,111.278c-0.421-0.721-0.166-1.636,0.556-2.056l0,0
				c0.705-0.421,1.636-0.18,2.043,0.54l0,0c0.419,0.721,0.179,1.636-0.541,2.057l0,0c-0.24,0.135-0.496,0.21-0.751,0.21l0,0
				C707.34,112.028,706.846,111.758,706.56,111.278z M655.224,107.194c-0.631-0.54-0.72-1.487-0.179-2.117l0,0
				c0.525-0.645,1.471-0.721,2.116-0.195l0,0c0.63,0.54,0.707,1.486,0.18,2.117l0,0c-0.301,0.36-0.72,0.54-1.156,0.54l0,0
				C655.856,107.539,655.51,107.419,655.224,107.194z M713.167,106.953c-0.541-0.631-0.452-1.576,0.179-2.117l0,0
				c0.632-0.525,1.578-0.45,2.117,0.196l0,0c0.526,0.631,0.452,1.576-0.18,2.102l0,0c-0.284,0.24-0.631,0.36-0.975,0.36l0,0
				C713.887,107.494,713.466,107.314,713.167,106.953z M649.459,101.443c-0.525-0.646-0.45-1.592,0.195-2.117l0,0
				c0.631-0.54,1.578-0.465,2.103,0.18l0,0c0.541,0.631,0.45,1.576-0.18,2.117l0,0c-0.27,0.225-0.616,0.345-0.96,0.345l0,0
				C650.195,101.969,649.759,101.789,649.459,101.443z M718.918,101.563c-0.632-0.526-0.721-1.471-0.18-2.117l0,0
				c0.525-0.631,1.471-0.705,2.116-0.18l0,0c0.632,0.541,0.707,1.487,0.18,2.117l0,0c-0.299,0.361-0.72,0.54-1.155,0.54l0,0
				C719.548,101.923,719.202,101.804,718.918,101.563z M644.774,94.777c-0.405-0.721-0.164-1.636,0.556-2.042l0,0
				c0.707-0.421,1.636-0.18,2.042,0.54h0.015c0.406,0.705,0.166,1.636-0.556,2.042l0,0c-0.241,0.15-0.496,0.21-0.751,0.21l0,0
				C645.556,95.528,645.06,95.257,644.774,94.777z M723.661,95.257c-0.72-0.405-0.96-1.321-0.556-2.042l0,0
				c0.421-0.721,1.337-0.961,2.057-0.556l0,0c0.721,0.421,0.962,1.337,0.541,2.057l0,0c-0.27,0.48-0.78,0.751-1.292,0.751l0,0
				C724.157,95.467,723.902,95.407,723.661,95.257z M641.321,87.404L641.321,87.404L641.321,87.404
				c-0.284-0.781,0.12-1.636,0.902-1.921l0,0c0.78-0.285,1.636,0.12,1.921,0.886l0,0c0.286,0.781-0.12,1.652-0.886,1.937l0,0
				c-0.18,0.06-0.344,0.09-0.525,0.09l0,0C642.132,88.396,641.547,88.02,641.321,87.404z M727.235,88.231
				c-0.78-0.286-1.185-1.141-0.9-1.922l0,0c0.286-0.781,1.141-1.186,1.922-0.901l0,0c0.78,0.285,1.186,1.156,0.9,1.937l0,0
				c-0.224,0.6-0.796,0.976-1.411,0.976l0,0C727.581,88.32,727.4,88.291,727.235,88.231z M639.204,79.537
				c-0.135-0.811,0.406-1.592,1.217-1.742l0,0c0.825-0.135,1.606,0.405,1.742,1.216v0.015c0.15,0.811-0.391,1.592-1.217,1.727l0,0
				c-0.089,0.015-0.18,0.03-0.255,0.03l0,0C639.971,80.783,639.34,80.272,639.204,79.537z M729.518,80.693
				c-0.811-0.15-1.352-0.931-1.215-1.742l0,0c0.149-0.811,0.915-1.367,1.74-1.216l0,0c0.811,0.135,1.367,0.916,1.217,1.742l0,0l0,0
				l0,0c-0.12,0.721-0.765,1.231-1.487,1.231l0,0C729.698,80.708,729.607,80.708,729.518,80.693z"/>
		</g>
		<g>
			<path fill="#32BD9F" d="M640,72.855c-0.405,0-0.78-0.165-1.066-0.45c-0.286-0.27-0.435-0.66-0.435-1.051
				c0-0.405,0.149-0.781,0.435-1.066c0.556-0.556,1.562-0.556,2.117,0c0.284,0.285,0.45,0.661,0.45,1.066
				c0,0.391-0.166,0.781-0.45,1.051C640.781,72.69,640.39,72.855,640,72.855z"/>
		</g>
	</g>
	<g>
		<g>
			<path fill="#32BD9F" d="M549.611,74.357c-0.089,0-0.195-0.015-0.284-0.03c-0.106-0.015-0.195-0.045-0.286-0.09
				c-0.089-0.03-0.18-0.075-0.255-0.135c-0.089-0.06-0.166-0.12-0.226-0.195c-0.15-0.136-0.255-0.301-0.33-0.481
				c-0.075-0.18-0.12-0.375-0.12-0.57c0-0.405,0.166-0.795,0.45-1.066c0.06-0.075,0.136-0.135,0.226-0.18
				c0.075-0.06,0.166-0.105,0.255-0.15c0.091-0.03,0.18-0.059,0.286-0.075c0.195-0.045,0.39-0.045,0.585,0
				c0.091,0.015,0.195,0.045,0.27,0.075c0.106,0.045,0.18,0.09,0.271,0.15c0.075,0.045,0.15,0.106,0.224,0.18
				c0.271,0.285,0.435,0.661,0.435,1.066c0,0.391-0.164,0.781-0.435,1.051c-0.075,0.075-0.15,0.135-0.224,0.195
				c-0.091,0.06-0.166,0.105-0.271,0.135c-0.075,0.046-0.179,0.076-0.27,0.09C549.806,74.342,549.717,74.357,549.611,74.357z"/>
		</g>
		<g>
			<path fill="#32BD9F" d="M519.042,100.662c-0.827-0.12-1.397-0.886-1.277-1.697l0,0c0.12-0.826,0.886-1.397,1.697-1.276l0,0
				c0.827,0.12,1.397,0.871,1.277,1.697l0,0c-0.106,0.751-0.751,1.292-1.487,1.292l0,0
				C519.192,100.678,519.117,100.662,519.042,100.662z M525.333,99.386c-0.12-0.826,0.45-1.592,1.277-1.697l0,0
				c0.826-0.12,1.576,0.45,1.697,1.261l0,0c0.12,0.826-0.45,1.592-1.277,1.712l0,0c-0.075,0-0.135,0.015-0.21,0.015l0,0
				C526.083,100.678,525.438,100.137,525.333,99.386z M511.369,98.41c-0.751-0.345-1.081-1.231-0.736-1.982l0,0
				c0.346-0.751,1.232-1.096,1.982-0.751l0,0c0.751,0.345,1.095,1.246,0.751,1.997l0,0c-0.255,0.555-0.796,0.87-1.367,0.87l0,0
				C511.79,98.545,511.579,98.515,511.369,98.41z M532.72,97.659c-0.345-0.751-0.029-1.636,0.736-1.982l0,0
				c0.751-0.345,1.636-0.015,1.982,0.735l0,0c0.345,0.751,0.015,1.652-0.736,1.997l0,0c-0.195,0.09-0.421,0.135-0.616,0.135l0,0
				C533.516,98.545,532.96,98.215,532.72,97.659z M504.657,94.101c-0.63-0.54-0.705-1.501-0.165-2.116l0,0
				c0.54-0.631,1.501-0.706,2.132-0.166l0,0c0.616,0.556,0.691,1.502,0.15,2.132l0,0c-0.3,0.331-0.721,0.511-1.141,0.511l0,0
				C505.289,94.462,504.928,94.341,504.657,94.101z M539.296,93.936c-0.54-0.631-0.465-1.576,0.151-2.132h0.015
				c0.616-0.54,1.562-0.466,2.117,0.165l0,0c0.541,0.616,0.465,1.562-0.166,2.117l0,0c0,0,0,0,0.015,0l0,0
				c-0.284,0.24-0.645,0.36-0.99,0.36l0,0C540.017,94.446,539.597,94.267,539.296,93.936z M499.418,88.065
				c-0.45-0.691-0.255-1.622,0.436-2.072l0,0c0.705-0.45,1.636-0.255,2.087,0.45l0,0c0.45,0.691,0.24,1.622-0.451,2.073l0,0
				c-0.255,0.165-0.54,0.24-0.811,0.24l0,0C500.183,88.756,499.703,88.516,499.418,88.065z M544.582,88.486
				c-0.705-0.435-0.902-1.367-0.45-2.072l0,0c0.45-0.691,1.381-0.901,2.072-0.451l0,0c0.705,0.451,0.9,1.381,0.45,2.087l0,0
				c-0.286,0.435-0.766,0.675-1.261,0.675l0,0C545.107,88.725,544.837,88.651,544.582,88.486z M496.084,80.798
				c-0.24-0.795,0.21-1.622,1.007-1.862l0,0c0.795-0.24,1.636,0.226,1.877,1.021l0,0c0.225,0.796-0.226,1.622-1.021,1.862l0,0
				c-0.15,0.03-0.285,0.06-0.421,0.06l0,0C496.865,81.879,496.264,81.459,496.084,80.798z M548.126,81.789
				c-0.796-0.226-1.262-1.066-1.022-1.862l0,0c0.226-0.795,1.066-1.246,1.862-1.021l0,0c0.796,0.24,1.246,1.066,1.02,1.861l0,0l0,0
				l0,0c-0.195,0.661-0.795,1.081-1.441,1.081l0,0C548.396,81.849,548.261,81.834,548.126,81.789z"/>
		</g>
		<g>
			<path fill="#32BD9F" d="M496.445,74.357c-0.405,0-0.781-0.165-1.066-0.45c-0.285-0.27-0.436-0.661-0.436-1.051
				c0-0.195,0.03-0.39,0.105-0.586c0.075-0.18,0.196-0.345,0.331-0.48c0.556-0.556,1.562-0.556,2.117,0
				c0.149,0.135,0.255,0.301,0.33,0.48c0.075,0.196,0.12,0.391,0.12,0.586c0,0.391-0.165,0.781-0.45,1.051
				C497.225,74.192,496.835,74.357,496.445,74.357z"/>
		</g>
	</g>
</g>
</svg>
