<?xml version="1.0" encoding="utf-8"?>
<!-- Generator: Adobe Illustrator 17.0.0, SVG Export Plug-In . SVG Version: 6.00 Build 0)  -->
<!DOCTYPE svg PUBLIC "-//W3C//DTD SVG 1.1//EN" "http://www.w3.org/Graphics/SVG/1.1/DTD/svg11.dtd">
<svg version="1.1" id="Layer_1" xmlns="http://www.w3.org/2000/svg" xmlns:xlink="http://www.w3.org/1999/xlink" x="0px" y="0px"
	 width="516.576px" height="142.007px" viewBox="0 0 516.576 142.007" enable-background="new 0 0 516.576 142.007"
	 xml:space="preserve">
<g>
	<g>
		<path fill="#8917FF" d="M1.8,115.007l15.21-61.65H36.9l15.3,61.65H42.12l-3.33-13.23H15.12l-3.33,13.23H1.8z M24.75,61.727
			l-7.65,31.23h19.71l-7.56-31.23H24.75z"/>
		<path fill="#8917FF" d="M98.46,121.127c0,9.839-7.109,14.76-21.329,14.76c-6.841,0-11.911-0.931-15.21-2.79
			c-3.301-1.86-4.95-5.251-4.95-10.17c0-2.221,0.54-4.126,1.62-5.715c1.08-1.591,2.819-3.314,5.22-5.176
			c-1.98-1.318-2.97-3.51-2.97-6.569c0-1.2,0.81-3.15,2.43-5.851l0.81-1.35c-4.319-2.579-6.479-7.079-6.479-13.5
			c0-5.4,1.62-9.36,4.859-11.88c3.24-2.521,7.619-3.78,13.141-3.78c2.64,0,5.249,0.301,7.83,0.9l1.35,0.27l13.95-0.36v7.92
			l-7.47-0.45c1.62,2.101,2.43,4.561,2.43,7.38c0,5.881-1.485,9.945-4.455,12.195s-7.604,3.375-13.905,3.375
			c-1.561,0-2.88-0.12-3.96-0.36c-0.841,2.04-1.26,3.615-1.26,4.725c0,1.111,0.554,1.876,1.665,2.296
			c1.109,0.42,3.794,0.66,8.055,0.72c7.14,0.061,12.029,1.021,14.67,2.88C97.14,112.457,98.46,115.966,98.46,121.127z
			 M66.601,122.027c0,2.1,0.84,3.601,2.52,4.5c1.68,0.9,4.56,1.351,8.641,1.351c7.259,0,10.89-2.07,10.89-6.21
			c0-2.341-0.646-3.825-1.935-4.455c-1.291-0.63-3.856-0.977-7.695-1.035l-8.82-0.54c-1.32,1.08-2.25,2.084-2.79,3.015
			C66.87,119.581,66.601,120.706,66.601,122.027z M69.301,90.842c1.318,1.291,3.449,1.935,6.39,1.935
			c2.939,0,5.054-0.644,6.345-1.935c1.29-1.29,1.936-3.314,1.936-6.075c0-2.759-0.661-4.784-1.98-6.075
			c-1.32-1.289-3.451-1.935-6.39-1.935c-5.521,0-8.28,2.67-8.28,8.01C67.32,87.528,67.979,89.552,69.301,90.842z"/>
		<path fill="#8917FF" d="M138.42,106.907l2.52-0.27l0.18,7.29c-6.84,1.379-12.9,2.07-18.18,2.07c-6.66,0-11.445-1.83-14.355-5.49
			c-2.91-3.659-4.364-9.51-4.364-17.55c0-15.96,6.509-23.941,19.529-23.941c12.601,0,18.9,6.872,18.9,20.611l-0.63,7.02h-27.9
			c0.06,3.721,0.869,6.45,2.431,8.19c1.56,1.74,4.469,2.609,8.729,2.609C129.539,107.447,133.92,107.267,138.42,106.907z
			 M133.02,89.087c0-4.439-0.706-7.545-2.115-9.315c-1.41-1.769-3.795-2.655-7.155-2.655s-5.805,0.932-7.335,2.79
			c-1.529,1.86-2.325,4.921-2.385,9.181H133.02z"/>
		<path fill="#8917FF" d="M161.909,115.007h-9.81v-45h9.72v2.791c4.379-2.521,8.519-3.781,12.42-3.781
			c5.999,0,10.094,1.696,12.285,5.085c2.189,3.391,3.285,8.986,3.285,16.785v24.12h-9.721V91.157c0-4.859-0.525-8.31-1.574-10.35
			c-1.051-2.039-3.195-3.06-6.436-3.06c-3.06,0-6,0.6-8.82,1.8l-1.35,0.54V115.007z"/>
		<path fill="#8917FF" d="M237.959,51.286v63.721h-9.72v-2.34c-4.381,2.22-8.401,3.33-12.061,3.33
			c-5.881,0-10.186-1.77-12.915-5.311c-2.73-3.539-4.095-9.479-4.095-17.82c0-8.339,1.515-14.399,4.545-18.18
			c3.029-3.78,7.754-5.67,14.175-5.67c2.16,0,5.58,0.391,10.26,1.17v-18.9H237.959z M226.619,105.647l1.529-0.63v-26.64
			c-3.6-0.6-6.93-0.9-9.989-0.9c-6.062,0-9.091,5.04-9.091,15.12c0,5.521,0.705,9.346,2.115,11.475
			c1.409,2.131,3.646,3.195,6.705,3.195C220.949,107.267,223.858,106.727,226.619,105.647z"/>
		<path fill="#8917FF" d="M283.138,83.867v20.521c0.059,1.32,0.404,2.295,1.035,2.925c0.63,0.63,1.604,1.035,2.925,1.215
			l-0.271,7.471c-5.16,0-9.15-1.11-11.97-3.33c-4.801,2.22-9.63,3.33-14.49,3.33c-8.94,0-13.41-4.771-13.41-14.311
			c0-4.559,1.216-7.859,3.646-9.9c2.43-2.039,6.165-3.27,11.205-3.689l11.609-0.99v-3.24c0-2.398-0.525-4.079-1.574-5.04
			c-1.051-0.959-2.597-1.439-4.636-1.439c-3.84,0-8.64,0.24-14.399,0.72l-2.88,0.18l-0.36-6.93c6.539-1.56,12.555-2.34,18.045-2.34
			s9.45,1.186,11.88,3.555C281.923,74.943,283.138,78.707,283.138,83.867z M262.978,95.027c-4.14,0.36-6.21,2.61-6.21,6.75
			c0,4.141,1.829,6.21,5.49,6.21c2.999,0,6.179-0.479,9.54-1.439l1.619-0.54V94.036L262.978,95.027z"/>
		<path fill="#8917FF" d="M326.696,79.277c-7.08-0.959-12.21-1.439-15.39-1.439c-3.182,0-5.386,0.375-6.615,1.125
			c-1.23,0.751-1.845,1.935-1.845,3.555s0.675,2.761,2.024,3.42c1.351,0.661,4.53,1.426,9.54,2.295
			c5.01,0.871,8.564,2.236,10.665,4.095c2.1,1.861,3.15,5.161,3.15,9.9c0,4.74-1.517,8.221-4.545,10.44
			c-3.03,2.22-7.456,3.33-13.275,3.33c-3.66,0-8.28-0.511-13.86-1.53l-2.789-0.45l0.359-8.19c7.2,0.961,12.39,1.44,15.57,1.44
			c3.18,0,5.445-0.39,6.795-1.17c1.35-0.779,2.025-2.07,2.025-3.87s-0.646-3.045-1.936-3.735c-1.291-0.688-4.381-1.439-9.27-2.25
			c-4.892-0.81-8.476-2.084-10.756-3.824s-3.42-4.92-3.42-9.54s1.575-8.069,4.726-10.351c3.149-2.28,7.185-3.42,12.104-3.42
			c3.84,0,8.551,0.481,14.13,1.44l2.79,0.54L326.696,79.277z"/>
	</g>
</g>
<g>
	<g>
		<g>
			<path fill="#32BD9F" d="M152.861,66.849c-0.405,0-0.796-0.165-1.066-0.45c-0.15-0.136-0.256-0.301-0.331-0.481
				c-0.075-0.18-0.12-0.375-0.12-0.57c0-0.405,0.165-0.795,0.451-1.066c0.345-0.345,0.855-0.51,1.351-0.405
				c0.09,0.015,0.195,0.045,0.285,0.075c0.09,0.046,0.18,0.09,0.255,0.15c0.075,0.046,0.15,0.106,0.225,0.18
				c0.285,0.271,0.436,0.661,0.436,1.066c0,0.195-0.03,0.391-0.105,0.57c-0.075,0.18-0.195,0.345-0.331,0.481
				c-0.075,0.075-0.15,0.135-0.225,0.195c-0.075,0.045-0.165,0.09-0.255,0.135c-0.09,0.045-0.195,0.06-0.285,0.09
				C153.056,66.834,152.951,66.849,152.861,66.849z"/>
		</g>
		<g>
			<path fill="#32BD9F" d="M153.161,58.816c-0.825-0.105-1.396-0.856-1.306-1.681l0,0l0,0l0,0c0.105-0.826,0.856-1.412,1.681-1.307
				l0,0c0.826,0.105,1.411,0.856,1.307,1.682l0,0c-0.105,0.751-0.751,1.321-1.486,1.321l0,0
				C153.296,58.831,153.221,58.816,153.161,58.816z M278.789,57.405L278.789,57.405c-0.105-0.826,0.481-1.576,1.306-1.682l0,0
				c0.811-0.105,1.562,0.481,1.666,1.307l0,0c0.106,0.826-0.48,1.577-1.291,1.682l0,0c-0.075,0-0.135,0.015-0.195,0.015l0,0
				C279.525,58.726,278.879,58.171,278.789,57.405z M154.467,50.889c-0.795-0.21-1.276-1.021-1.081-1.832l0,0
				c0.21-0.795,1.021-1.276,1.832-1.081l0,0c0.795,0.21,1.291,1.021,1.081,1.831l0,0c-0.18,0.676-0.781,1.126-1.457,1.126l0,0
				C154.722,50.933,154.602,50.919,154.467,50.889z M277.317,49.702c-0.21-0.796,0.27-1.622,1.081-1.817l0,0
				c0.795-0.21,1.622,0.27,1.817,1.066l0,0c0.21,0.811-0.27,1.622-1.081,1.831l0,0c-0.12,0.03-0.24,0.046-0.36,0.046l0,0
				C278.098,50.829,277.483,50.378,277.317,49.702z M156.78,43.186c-0.781-0.301-1.156-1.172-0.856-1.952l0,0
				c0.315-0.765,1.186-1.141,1.952-0.841l0,0c0.781,0.315,1.156,1.186,0.841,1.952l0,0c-0.225,0.585-0.796,0.946-1.397,0.946l0,0
				C157.14,43.291,156.96,43.261,156.78,43.186z M274.885,42.255c-0.315-0.766,0.06-1.636,0.841-1.952l0,0
				c0.765-0.3,1.636,0.076,1.936,0.841l0,0c0.316,0.766-0.059,1.652-0.826,1.952l0,0c-0.18,0.075-0.375,0.105-0.556,0.105l0,0
				C275.681,43.201,275.111,42.841,274.885,42.255z M160.023,35.844c-0.721-0.405-0.991-1.321-0.586-2.042l0,0
				c0.405-0.721,1.307-0.991,2.042-0.586l0,0c0.721,0.39,0.991,1.307,0.586,2.027l0,0c-0.27,0.51-0.781,0.781-1.321,0.781l0,0
				C160.503,36.024,160.248,35.964,160.023,35.844z M271.537,35.168v0.015c-0.405-0.736-0.15-1.652,0.585-2.042l0,0
				c0.721-0.405,1.637-0.15,2.043,0.586l0,0l0,0l0,0c0.39,0.721,0.135,1.637-0.586,2.042l0,0c-0.24,0.12-0.48,0.18-0.736,0.18l0,0
				C272.318,35.949,271.807,35.664,271.537,35.168z M164.182,28.967c-0.676-0.496-0.826-1.427-0.331-2.102l0,0
				c0.48-0.676,1.427-0.826,2.087-0.331l0,0c0.675,0.481,0.826,1.427,0.33,2.102l0,0c-0.285,0.391-0.751,0.616-1.216,0.616l0,0
				C164.753,29.252,164.437,29.147,164.182,28.967z M267.318,28.562c-0.496-0.661-0.345-1.606,0.33-2.087l0,0
				c0.661-0.495,1.607-0.345,2.087,0.315l0,0c0,0,0,0,0.015,0l0,0c0.481,0.676,0.331,1.622-0.33,2.103l0,0
				c-0.271,0.195-0.586,0.285-0.886,0.285l0,0C268.069,29.178,267.603,28.967,267.318,28.562z M169.151,22.661
				c-0.6-0.57-0.631-1.516-0.059-2.132l0,0c0.57-0.6,1.516-0.631,2.116-0.06l0,0c0.6,0.571,0.631,1.517,0.06,2.117l0,0
				c-0.285,0.315-0.691,0.48-1.096,0.48l0,0C169.813,23.066,169.437,22.931,169.151,22.661z M262.303,22.541
				c-0.555-0.616-0.54-1.562,0.075-2.133l0,0c0.6-0.57,1.546-0.54,2.117,0.06l0,0c0.571,0.616,0.541,1.562-0.059,2.133l0,0
				c-0.301,0.27-0.661,0.405-1.037,0.405l0,0C263.009,23.006,262.603,22.841,262.303,22.541z M174.872,17.015
				c-0.525-0.63-0.435-1.576,0.196-2.102l0,0c0.645-0.541,1.591-0.451,2.116,0.195l0,0c0.526,0.63,0.451,1.576-0.195,2.117l0,0
				c-0.285,0.225-0.616,0.345-0.961,0.345l0,0C175.608,17.571,175.173,17.375,174.872,17.015z M256.583,17.166L256.583,17.166
				c-0.631-0.526-0.721-1.471-0.196-2.117l0,0c0.526-0.63,1.471-0.721,2.117-0.195l0,0c0.63,0.526,0.721,1.471,0.195,2.117l0,0
				c-0.3,0.36-0.721,0.54-1.156,0.54l0,0C257.213,17.511,256.868,17.405,256.583,17.166z M181.253,12.15
				c-0.45-0.705-0.24-1.636,0.465-2.086l0,0c0.691-0.436,1.622-0.225,2.072,0.465l0,0c0.435,0.705,0.24,1.636-0.465,2.072l0,0
				c-0.256,0.165-0.526,0.24-0.796,0.24l0,0C182.019,12.842,181.538,12.601,181.253,12.15z M250.246,12.556L250.246,12.556
				c-0.706-0.435-0.916-1.366-0.465-2.072l0,0c0.436-0.691,1.367-0.901,2.072-0.465l0,0c0.691,0.451,0.901,1.381,0.466,2.073l0,0
				c-0.285,0.45-0.781,0.705-1.276,0.705l0,0C250.772,12.796,250.487,12.722,250.246,12.556z M188.19,8.097
				c-0.36-0.736-0.03-1.636,0.721-1.997l0,0c0.751-0.345,1.636-0.03,1.997,0.721l0,0c0.345,0.751,0.03,1.652-0.721,1.997l0,0
				c-0.21,0.105-0.42,0.15-0.63,0.15l0,0C188.986,8.968,188.445,8.653,188.19,8.097z M243.369,8.787
				c-0.751-0.361-1.081-1.246-0.721-1.997l0,0c0.361-0.751,1.246-1.081,1.997-0.721l0,0l0,0l0,0
				c0.751,0.345,1.066,1.246,0.721,1.997l0,0c-0.255,0.54-0.795,0.856-1.367,0.856l0,0C243.79,8.922,243.58,8.878,243.369,8.787z
				 M195.577,4.974c-0.255-0.795,0.18-1.636,0.961-1.907l0,0c0,0,0,0,0.015,0l0,0c0.781-0.255,1.637,0.18,1.892,0.976l0,0
				c0.255,0.781-0.18,1.637-0.976,1.892l0,0c-0.15,0.045-0.301,0.075-0.466,0.075l0,0C196.374,6.01,195.788,5.604,195.577,4.974z
				 M236.072,5.905L236.072,5.905c-0.781-0.255-1.216-1.111-0.961-1.892l0,0c0.255-0.795,1.096-1.216,1.892-0.976l0,0
				c0,0,0,0,0,0.015l0,0c0.781,0.24,1.215,1.096,0.96,1.877l0,0c-0.21,0.645-0.795,1.051-1.426,1.051l0,0
				C236.388,5.979,236.223,5.95,236.072,5.905z M203.31,2.782c-0.15-0.811,0.375-1.592,1.202-1.757l0,0
				c0.811-0.15,1.592,0.39,1.757,1.201l0,0c0.15,0.811-0.39,1.607-1.201,1.757l0,0c-0.09,0.015-0.18,0.03-0.285,0.03l0,0
				C204.076,4.012,203.445,3.502,203.31,2.782z M228.475,3.968c-0.826-0.165-1.351-0.946-1.201-1.757l0,0
				c0.15-0.826,0.946-1.352,1.757-1.202l0,0l0,0l0,0c0.811,0.15,1.351,0.946,1.201,1.757l0,0c-0.135,0.721-0.765,1.216-1.471,1.216
				l0,0C228.655,3.983,228.565,3.983,228.475,3.968z M211.253,1.595c-0.045-0.826,0.571-1.546,1.412-1.592l0,0
				c0.826-0.045,1.531,0.57,1.591,1.411l0,0c0.045,0.826-0.585,1.531-1.411,1.592l0,0c-0.03,0-0.06,0-0.09,0l0,0
				C211.959,3.007,211.298,2.391,211.253,1.595z M220.697,2.992c-0.841-0.046-1.471-0.766-1.411-1.592l0,0
				c0.045-0.826,0.766-1.457,1.592-1.397l0,0c0.826,0.045,1.457,0.751,1.397,1.592l0,0c-0.045,0.795-0.706,1.397-1.487,1.397l0,0
				C220.757,2.992,220.727,2.992,220.697,2.992z"/>
		</g>
		<g>
			<path fill="#32BD9F" d="M280.786,66.849c-0.195,0-0.39-0.045-0.57-0.12c-0.195-0.075-0.345-0.18-0.496-0.33
				c-0.27-0.27-0.435-0.66-0.435-1.051c0-0.405,0.166-0.781,0.435-1.066c0.15-0.135,0.315-0.255,0.496-0.331
				c0.556-0.225,1.216-0.089,1.636,0.331c0.271,0.285,0.436,0.661,0.436,1.066c0,0.391-0.165,0.781-0.436,1.051
				c-0.135,0.15-0.3,0.255-0.495,0.33C281.176,66.804,280.981,66.849,280.786,66.849z"/>
		</g>
	</g>
	<g>
		<g>
			<path fill="#32BD9F" d="M171.779,66.849c-0.105,0-0.195-0.015-0.3-0.03c-0.09-0.03-0.18-0.045-0.271-0.09
				c-0.105-0.03-0.18-0.09-0.27-0.135c-0.076-0.06-0.15-0.12-0.226-0.195c-0.075-0.06-0.135-0.136-0.18-0.226
				c-0.06-0.075-0.106-0.165-0.15-0.255c-0.03-0.09-0.06-0.18-0.075-0.285c-0.03-0.09-0.03-0.195-0.03-0.285
				c0-0.405,0.15-0.781,0.435-1.066c0.421-0.42,1.081-0.556,1.637-0.331c0.18,0.076,0.345,0.196,0.48,0.331
				c0.15,0.135,0.255,0.301,0.331,0.48c0.075,0.196,0.12,0.391,0.12,0.586c0,0.391-0.165,0.781-0.45,1.051
				C172.56,66.684,172.17,66.849,171.779,66.849z"/>
		</g>
		<g>
			<path fill="#32BD9F" d="M172.2,58.997c-0.826-0.15-1.367-0.916-1.231-1.742l0,0c0.15-0.811,0.93-1.366,1.741-1.216l0,0
				c0.826,0.136,1.367,0.916,1.216,1.742l0,0c-0.12,0.721-0.751,1.232-1.471,1.232l0,0C172.365,59.012,172.29,59.012,172.2,58.997z
				 M259.69,57.705c-0.135-0.811,0.405-1.592,1.216-1.742l0,0c0.826-0.135,1.606,0.405,1.741,1.216l0,0
				c0.15,0.825-0.405,1.606-1.216,1.742l0,0c-0.09,0.015-0.18,0.03-0.256,0.03l0,0C260.456,58.952,259.825,58.441,259.69,57.705z
				 M173.972,51.339c-0.781-0.285-1.186-1.141-0.901-1.921l0,0l0,0l0,0c0.285-0.781,1.141-1.172,1.921-0.901l0,0
				c0.781,0.285,1.186,1.156,0.901,1.937l0,0c-0.225,0.6-0.795,0.991-1.411,0.991l0,0C174.317,51.444,174.137,51.414,173.972,51.339
				z M257.723,50.378L257.723,50.378c-0.285-0.766,0.12-1.637,0.901-1.922l0,0c0.781-0.285,1.636,0.12,1.921,0.901l0,0
				c0.285,0.781-0.12,1.636-0.901,1.922l0,0c-0.165,0.06-0.345,0.09-0.51,0.09l0,0C258.519,51.369,257.948,50.994,257.723,50.378z
				 M177.049,44.117c-0.721-0.405-0.961-1.321-0.54-2.042l0,0c0.405-0.721,1.321-0.961,2.042-0.556l0,0
				c0.721,0.421,0.961,1.336,0.556,2.057l0,0c-0.285,0.48-0.796,0.751-1.306,0.751l0,0C177.545,44.327,177.29,44.252,177.049,44.117
				z M254.51,43.516c-0.42-0.721-0.18-1.636,0.541-2.042l0,0c0.721-0.421,1.636-0.18,2.056,0.54l0,0
				c0.405,0.706,0.166,1.636-0.555,2.042l0,0c-0.226,0.15-0.496,0.21-0.751,0.21l0,0C255.291,44.267,254.78,43.997,254.51,43.516z
				 M181.343,37.54c-0.63-0.526-0.721-1.471-0.18-2.102l0,0c0.526-0.646,1.472-0.721,2.103-0.195l0,0
				c0.645,0.54,0.721,1.486,0.195,2.117l0,0c-0.301,0.361-0.721,0.541-1.156,0.541l0,0C181.959,37.901,181.629,37.781,181.343,37.54
				z M250.141,37.315c-0.541-0.631-0.451-1.592,0.18-2.117l0,0c0.631-0.54,1.577-0.45,2.117,0.18l0,0
				c0.526,0.631,0.45,1.576-0.18,2.117l0,0c-0.285,0.24-0.63,0.345-0.96,0.345l0,0C250.862,37.841,250.441,37.661,250.141,37.315z
				 M186.704,31.805c-0.526-0.631-0.451-1.577,0.195-2.102l0,0c0,0,0,0-0.015,0l0,0c0.646-0.541,1.592-0.451,2.117,0.18l0,0
				c0.54,0.631,0.45,1.577-0.18,2.117l0,0c-0.285,0.225-0.631,0.345-0.96,0.345l0,0C187.425,32.345,187.004,32.165,186.704,31.805z
				 M244.766,31.955c-0.631-0.526-0.721-1.487-0.18-2.117l0,0c0.526-0.631,1.471-0.721,2.117-0.18l0,0
				c0.63,0.526,0.721,1.471,0.18,2.117l0,0c-0.3,0.345-0.721,0.526-1.156,0.526l0,0C245.396,32.301,245.051,32.195,244.766,31.955z
				 M192.98,27.09c-0.42-0.721-0.165-1.636,0.541-2.057l0,0c0.721-0.405,1.636-0.165,2.056,0.556l0,0
				c0.421,0.706,0.166,1.636-0.54,2.057l0,0c-0.24,0.135-0.496,0.195-0.751,0.195l0,0C193.761,27.841,193.25,27.57,192.98,27.09z
				 M238.55,27.601c-0.721-0.405-0.961-1.336-0.54-2.042l0,0c0.405-0.721,1.321-0.976,2.042-0.556l0,0
				c0.721,0.421,0.961,1.337,0.556,2.042l0,0c-0.285,0.495-0.781,0.765-1.306,0.765l0,0C239.045,27.811,238.79,27.736,238.55,27.601
				z M199.977,23.532c-0.285-0.781,0.12-1.652,0.901-1.921l0,0c0.781-0.301,1.636,0.105,1.921,0.886l0,0
				c0.285,0.781-0.12,1.636-0.901,1.922l0,0c-0.165,0.06-0.345,0.089-0.51,0.089l0,0C200.772,24.507,200.202,24.132,199.977,23.532z
				 M231.673,24.403c-0.781-0.285-1.186-1.141-0.901-1.921l0,0c0.286-0.781,1.141-1.186,1.922-0.901l0,0
				c0.781,0.285,1.186,1.141,0.901,1.921l0,0c-0.226,0.616-0.796,0.991-1.411,0.991l0,0
				C232.018,24.493,231.838,24.463,231.673,24.403z M207.484,21.249c-0.135-0.826,0.405-1.606,1.231-1.741l0,0
				c0.811-0.15,1.592,0.39,1.726,1.216l0,0c0.15,0.81-0.39,1.591-1.216,1.741l0,0c-0.09,0.015-0.166,0.015-0.256,0.015l0,0
				C208.25,22.481,207.619,21.97,207.484,21.249z M224.346,22.451c-0.811-0.15-1.367-0.916-1.216-1.742l0,0
				c0.135-0.811,0.916-1.367,1.726-1.216l0,0l0,0l0,0c0.826,0.135,1.367,0.916,1.232,1.742l0,0
				c-0.136,0.721-0.766,1.231-1.487,1.231l0,0C224.526,22.466,224.436,22.466,224.346,22.451z M216.778,21.805
				c-0.826,0-1.502-0.676-1.502-1.502l0,0c0-0.826,0.676-1.502,1.502-1.502l0,0c0.841,0,1.502,0.661,1.517,1.502l0,0
				c0,0.826-0.676,1.502-1.502,1.502l0,0C215.953,21.805,216.794,21.805,216.778,21.805z"/>
		</g>
		<g>
			<path fill="#32BD9F" d="M261.867,66.849c-0.195,0-0.39-0.045-0.585-0.12c-0.18-0.075-0.345-0.18-0.481-0.33
				c-0.135-0.136-0.255-0.301-0.33-0.481c-0.076-0.18-0.106-0.375-0.106-0.57c0-0.105,0-0.195,0.03-0.301
				c0.015-0.089,0.046-0.195,0.076-0.285c0.045-0.09,0.09-0.165,0.15-0.255c0.045-0.075,0.105-0.15,0.18-0.225
				c0.136-0.135,0.301-0.255,0.481-0.331c0.556-0.225,1.231-0.089,1.652,0.331c0.059,0.075,0.12,0.15,0.18,0.225
				c0.046,0.09,0.106,0.165,0.136,0.255c0.03,0.09,0.06,0.196,0.09,0.285c0.015,0.106,0.029,0.196,0.029,0.301
				c0,0.195-0.045,0.391-0.12,0.57c-0.076,0.18-0.18,0.345-0.315,0.481C262.648,66.684,262.258,66.849,261.867,66.849z"/>
		</g>
	</g>
	<g>
		<g>
			<path fill="#32BD9F" d="M190.232,66.849c-0.39,0-0.781-0.165-1.066-0.45c-0.27-0.27-0.436-0.66-0.436-1.051
				c0-0.405,0.166-0.781,0.436-1.066c0.421-0.42,1.096-0.556,1.637-0.331c0.195,0.076,0.345,0.196,0.495,0.331
				c0.271,0.285,0.436,0.661,0.436,1.066c0,0.09-0.015,0.195-0.03,0.285c-0.015,0.106-0.045,0.195-0.089,0.285
				c-0.03,0.09-0.075,0.18-0.136,0.255c-0.06,0.09-0.12,0.166-0.18,0.226C191.013,66.684,190.623,66.849,190.232,66.849z"/>
		</g>
		<g>
			<path fill="#32BD9F" d="M190.878,59.282c-0.795-0.225-1.246-1.066-1.006-1.861l0,0c0.225-0.796,1.066-1.246,1.861-1.021l0,0
				c0.781,0.24,1.246,1.066,1.007,1.862l0,0c-0.18,0.661-0.781,1.081-1.442,1.081l0,0C191.163,59.342,191.028,59.327,190.878,59.282
				z M240.892,58.246L240.892,58.246c-0.24-0.795,0.21-1.636,1.006-1.861l0,0c0.796-0.241,1.636,0.21,1.862,1.006l0,0
				c0.24,0.795-0.21,1.636-1.007,1.861l0,0c-0.149,0.046-0.285,0.076-0.42,0.076l0,0C241.673,59.327,241.087,58.892,240.892,58.246z
				 M193.64,52.225c-0.705-0.451-0.9-1.382-0.45-2.073l0,0l0,0l0,0c0.45-0.705,1.381-0.9,2.072-0.45l0,0
				c0.706,0.45,0.901,1.381,0.451,2.072l0,0c-0.286,0.451-0.766,0.691-1.262,0.691l0,0C194.166,52.465,193.896,52.39,193.64,52.225z
				 M237.919,51.76c-0.451-0.691-0.255-1.622,0.435-2.073l0,0c0.705-0.45,1.636-0.255,2.087,0.436l0,0c0,0,0,0-0.015,0l0,0
				c0.465,0.706,0.255,1.637-0.436,2.087l0,0c-0.255,0.165-0.54,0.241-0.811,0.241l0,0C238.684,52.45,238.204,52.21,237.919,51.76z
				 M198.28,46.234c-0.556-0.63-0.481-1.576,0.15-2.117l0,0l0,0l0,0c0.616-0.555,1.562-0.48,2.117,0.15l0,0
				c0.54,0.631,0.465,1.577-0.15,2.117l0,0c-0.285,0.241-0.645,0.36-0.99,0.36l0,0C198.986,46.744,198.566,46.579,198.28,46.234z
				 M233.234,46.369L233.234,46.369c-0.631-0.54-0.705-1.486-0.15-2.117l0,0c0.541-0.631,1.487-0.691,2.117-0.15l0,0l0,0l0,0
				c0.616,0.54,0.691,1.486,0.15,2.117l0,0c-0.301,0.345-0.721,0.51-1.142,0.51l0,0C233.865,46.73,233.519,46.609,233.234,46.369z
				 M204.407,41.774c-0.346-0.751-0.015-1.636,0.735-1.982l0,0l0,0l0,0c0.751-0.345,1.652-0.015,1.997,0.736l0,0
				c0.345,0.751,0.015,1.651-0.751,1.996l0,0c-0.195,0.09-0.405,0.136-0.616,0.136l0,0C205.202,42.661,204.646,42.33,204.407,41.774
				z M227.228,42.51L227.228,42.51c-0.751-0.345-1.096-1.231-0.751-1.982l0,0c0.345-0.766,1.246-1.096,1.997-0.751l0,0
				c0.751,0.345,1.081,1.231,0.735,1.996l0,0c-0.24,0.541-0.795,0.871-1.366,0.871l0,0C227.634,42.645,227.423,42.601,227.228,42.51
				z M211.539,39.237c-0.12-0.825,0.45-1.576,1.276-1.696l0,0l0,0l0,0c0.811-0.12,1.577,0.451,1.697,1.276l0,0
				c0.12,0.811-0.451,1.576-1.276,1.697l0,0c-0.075,0-0.136,0.015-0.21,0.015l0,0C212.289,40.529,211.643,39.988,211.539,39.237z
				 M220.382,40.513L220.382,40.513c-0.826-0.12-1.396-0.886-1.276-1.712l0,0c0.106-0.81,0.871-1.381,1.697-1.261l0,0
				c0,0,0,0,0-0.015l0,0c0.826,0.12,1.396,0.886,1.276,1.711l0,0c-0.105,0.751-0.751,1.292-1.486,1.292l0,0
				C220.517,40.529,220.442,40.513,220.382,40.513z"/>
		</g>
		<g>
			<path fill="#32BD9F" d="M243.415,66.849c-0.405,0-0.781-0.165-1.067-0.435c-0.075-0.075-0.135-0.15-0.195-0.241
				c-0.045-0.075-0.09-0.165-0.135-0.255c-0.03-0.09-0.06-0.18-0.075-0.285c-0.03-0.09-0.03-0.195-0.03-0.285
				c0-0.39,0.15-0.781,0.435-1.066c0.556-0.556,1.562-0.556,2.117,0c0.285,0.285,0.451,0.676,0.451,1.066
				c0,0.09-0.015,0.195-0.03,0.285c-0.03,0.106-0.06,0.195-0.09,0.285c-0.045,0.09-0.09,0.18-0.136,0.255
				c-0.06,0.09-0.12,0.166-0.195,0.241c-0.06,0.06-0.135,0.12-0.225,0.18c-0.075,0.045-0.165,0.105-0.255,0.135
				c-0.09,0.045-0.195,0.075-0.285,0.09C243.61,66.834,243.504,66.849,243.415,66.849z"/>
		</g>
	</g>
	<g>
		<g>
			<path fill="#32BD9F" d="M371.61,74.357c-0.406,0-0.782-0.165-1.066-0.45c-0.075-0.06-0.135-0.136-0.18-0.226
				c-0.06-0.075-0.106-0.165-0.15-0.255c-0.031-0.09-0.06-0.18-0.076-0.285c-0.029-0.09-0.029-0.195-0.029-0.285
				c0-0.105,0-0.195,0.029-0.301c0.016-0.089,0.045-0.18,0.076-0.285c0.044-0.09,0.089-0.165,0.15-0.255
				c0.045-0.075,0.106-0.15,0.18-0.225c0.135-0.135,0.301-0.255,0.481-0.331c0.375-0.15,0.795-0.15,1.155,0
				c0.18,0.075,0.346,0.196,0.481,0.331c0.075,0.075,0.135,0.15,0.195,0.225c0.045,0.09,0.104,0.165,0.135,0.255
				c0.046,0.106,0.06,0.196,0.089,0.285c0.016,0.106,0.031,0.196,0.031,0.301c0,0.09-0.015,0.195-0.031,0.285
				c-0.029,0.106-0.044,0.195-0.089,0.285c-0.031,0.09-0.089,0.18-0.135,0.255c-0.06,0.09-0.12,0.166-0.195,0.226
				C372.39,74.191,372,74.357,371.61,74.357z"/>
		</g>
		<g>
			<path fill="#32BD9F" d="M303.577,138.199c-0.825-0.06-1.456-0.765-1.396-1.592l0,0c0.045-0.826,0.751-1.456,1.576-1.411l0,0
				c0.827,0.06,1.472,0.766,1.412,1.592l0,0c-0.045,0.795-0.705,1.411-1.502,1.411l0,0
				C303.638,138.199,303.608,138.199,303.577,138.199z M310.199,136.788c-0.044-0.826,0.587-1.547,1.412-1.592l0,0
				c0.826-0.06,1.531,0.57,1.591,1.397l0,0c0.045,0.826-0.585,1.546-1.411,1.592l0,0c-0.031,0-0.06,0.015-0.091,0.015l0,0
				C310.906,138.199,310.259,137.583,310.199,136.788z M295.425,137.178c0,0,0,0,0,0.015l0,0c-0.811-0.165-1.35-0.946-1.201-1.757
				l0,0c0.166-0.826,0.946-1.351,1.757-1.202l0,0c0.826,0.15,1.352,0.931,1.201,1.757l0,0c-0.135,0.721-0.765,1.216-1.471,1.216l0,0
				C295.62,137.208,295.531,137.193,295.425,137.178z M318.188,135.977c-0.15-0.826,0.39-1.606,1.201-1.757l0,0
				c0.811-0.165,1.607,0.375,1.757,1.186l0,0c0.151,0.811-0.375,1.606-1.201,1.757l0,0c0,0,0,0,0.015,0l0,0
				c-0.104,0.015-0.195,0.03-0.285,0.03l0,0C318.953,137.193,318.337,136.683,318.188,135.977z M287.467,135.151
				c-0.796-0.256-1.231-1.096-0.976-1.892l0,0c0.255-0.781,1.111-1.216,1.892-0.961l0,0c0.796,0.256,1.216,1.096,0.961,1.892l0,0
				c-0.195,0.631-0.796,1.036-1.427,1.036l0,0C287.767,135.226,287.618,135.196,287.467,135.151z M326.01,134.16
				c-0.255-0.796,0.18-1.636,0.977-1.892l0,0c0.78-0.255,1.622,0.166,1.892,0.961l0,0c0.255,0.781-0.18,1.636-0.977,1.892l0,0l0,0
				l0,0c-0.149,0.045-0.301,0.075-0.45,0.075l0,0C326.806,135.196,326.22,134.791,326.01,134.16z M279.81,132.133
				c-0.751-0.36-1.066-1.246-0.721-1.997l0,0c0.361-0.751,1.246-1.081,1.997-0.721l0,0c0.751,0.345,1.081,1.246,0.721,1.997l0,0
				c-0.255,0.54-0.796,0.856-1.351,0.856l0,0C280.231,132.268,280.02,132.223,279.81,132.133z M333.547,131.367
				c-0.344-0.751-0.029-1.637,0.721-1.997l0,0c0.751-0.345,1.651-0.03,1.997,0.721l0,0c0.361,0.751,0.029,1.652-0.721,1.997l0,0
				c-0.195,0.105-0.419,0.15-0.63,0.15l0,0C334.343,132.238,333.803,131.908,333.547,131.367z M272.603,128.169
				c-0.691-0.45-0.901-1.366-0.466-2.072l0,0c0.45-0.705,1.381-0.901,2.072-0.465l0,0c0.706,0.451,0.916,1.367,0.466,2.073l0,0
				c-0.285,0.45-0.766,0.705-1.261,0.705l0,0C273.128,128.409,272.858,128.335,272.603,128.169z M340.664,127.659
				c-0.436-0.691-0.241-1.622,0.466-2.072l0,0c0.705-0.451,1.622-0.241,2.072,0.465l0,0c0.45,0.691,0.241,1.622-0.466,2.072l0,0
				c-0.239,0.15-0.525,0.24-0.795,0.24l0,0C341.446,128.365,340.95,128.109,340.664,127.659z M265.951,123.335
				c-0.63-0.526-0.721-1.471-0.195-2.102l0,0c0.526-0.646,1.471-0.736,2.117-0.21l0,0c0.631,0.526,0.721,1.471,0.196,2.117l0,0
				c-0.301,0.36-0.721,0.54-1.156,0.54l0,0C266.582,123.68,266.237,123.575,265.951,123.335z M347.271,123.094
				c-0.541-0.645-0.45-1.592,0.195-2.117l0,0c0.645-0.525,1.591-0.45,2.117,0.196l0,0c0.525,0.631,0.435,1.592-0.195,2.117l0,0l0,0
				l0,0c-0.286,0.226-0.631,0.345-0.962,0.345l0,0C347.991,123.634,347.572,123.455,347.271,123.094z M259.961,117.719
				c-0.571-0.6-0.541-1.546,0.059-2.116l0,0c0.616-0.571,1.562-0.541,2.133,0.06l0,0c0.57,0.6,0.54,1.546-0.06,2.117l0,0
				c-0.301,0.27-0.661,0.405-1.036,0.405l0,0C260.652,118.184,260.261,118.034,259.961,117.719z M353.246,117.734
				c-0.6-0.57-0.63-1.531-0.06-2.132l0,0c0.556-0.601,1.517-0.631,2.117-0.06l0,0c0.601,0.555,0.63,1.516,0.06,2.117l0,0l0,0l0,0
				c-0.284,0.315-0.691,0.481-1.081,0.481l0,0C353.908,118.14,353.532,118.004,353.246,117.734z M254.72,111.398
				c-0.496-0.66-0.345-1.606,0.331-2.102l0,0c0.66-0.48,1.606-0.331,2.086,0.331l0,0c0.496,0.675,0.345,1.606-0.33,2.102l0,0
				c-0.255,0.195-0.571,0.285-0.871,0.285l0,0C255.471,112.013,255.006,111.803,254.72,111.398z M358.517,111.668
				c-0.676-0.496-0.827-1.441-0.331-2.102l0,0c0.481-0.676,1.427-0.826,2.088-0.331l0,0c0.675,0.48,0.826,1.427,0.33,2.087l0,0
				c-0.286,0.405-0.751,0.63-1.216,0.63l0,0C359.088,111.953,358.773,111.849,358.517,111.668z M250.306,104.476L250.306,104.476
				L250.306,104.476c-0.405-0.721-0.15-1.636,0.586-2.042l0,0c0.721-0.405,1.636-0.136,2.042,0.585l0,0
				c0.39,0.721,0.135,1.637-0.6,2.042l0,0c-0.226,0.12-0.481,0.18-0.721,0.18l0,0C251.087,105.241,250.577,104.972,250.306,104.476z
				 M362.976,104.986c-0.721-0.405-0.991-1.321-0.585-2.042l0,0c0.405-0.721,1.305-0.991,2.041-0.586l0,0
				c0.721,0.391,0.991,1.306,0.587,2.042l0,0c-0.271,0.495-0.781,0.765-1.323,0.765l0,0
				C363.457,105.167,363.217,105.106,362.976,104.986z M246.793,97.043c-0.316-0.765,0.059-1.636,0.84-1.952l0,0
				c0.766-0.301,1.637,0.075,1.952,0.841l0,0c0.3,0.781-0.075,1.652-0.841,1.952l0,0c-0.195,0.076-0.375,0.106-0.556,0.106l0,0
				C247.588,97.99,247.018,97.645,246.793,97.043z M366.579,97.794c-0.765-0.3-1.155-1.171-0.84-1.937v-0.015
				c0.301-0.766,1.172-1.141,1.952-0.841l0,0c0.765,0.315,1.141,1.186,0.842,1.952l0,0l0,0l0,0
				c-0.241,0.586-0.811,0.946-1.397,0.946l0,0C366.94,97.9,366.759,97.87,366.579,97.794z M244.24,89.236
				c-0.21-0.796,0.27-1.622,1.081-1.832l0,0c0.795-0.21,1.621,0.285,1.817,1.081l0,0c0.21,0.811-0.27,1.622-1.066,1.831l0,0
				c-0.136,0.03-0.256,0.046-0.375,0.046l0,0C245.021,90.362,244.405,89.912,244.24,89.236z M369.237,90.212
				c-0.796-0.195-1.292-1.021-1.081-1.817l0,0c0.21-0.811,1.02-1.291,1.831-1.096l0,0c0.796,0.21,1.276,1.036,1.081,1.831l0,0
				c-0.18,0.676-0.795,1.126-1.456,1.126l0,0C369.493,90.257,369.358,90.242,369.237,90.212z M242.694,81.159
				c-0.106-0.811,0.48-1.562,1.306-1.667l0,0c0.811-0.105,1.562,0.481,1.667,1.292l0,0c0.105,0.825-0.466,1.576-1.292,1.681l0,0
				c-0.075,0.015-0.135,0.015-0.195,0.015l0,0C243.445,82.48,242.783,81.924,242.694,81.159z M370.919,82.359
				c-0.826-0.105-1.412-0.856-1.306-1.666l0,0c0.106-0.826,0.856-1.411,1.682-1.306l0,0c0.825,0.105,1.41,0.856,1.306,1.666l0,0
				c-0.106,0.766-0.751,1.321-1.487,1.321l0,0C371.054,82.374,370.979,82.374,370.919,82.359z"/>
		</g>
		<g>
			<path fill="#32BD9F" d="M243.67,74.357c-0.391,0-0.781-0.165-1.066-0.45c-0.136-0.136-0.241-0.301-0.315-0.481
				c-0.075-0.18-0.12-0.375-0.12-0.57s0.045-0.39,0.12-0.586c0.075-0.18,0.18-0.345,0.315-0.48c0.42-0.42,1.096-0.556,1.636-0.331
				c0.195,0.09,0.36,0.196,0.496,0.331c0.135,0.135,0.24,0.301,0.315,0.48c0.09,0.196,0.12,0.391,0.12,0.586s-0.03,0.391-0.12,0.57
				c-0.075,0.18-0.18,0.345-0.315,0.481c-0.136,0.149-0.301,0.255-0.496,0.33C244.06,74.312,243.865,74.357,243.67,74.357z"/>
		</g>
	</g>
	<g>
		<g>
			<path fill="#32BD9F" d="M352.871,74.357c-0.195,0-0.39-0.045-0.57-0.12c-0.18-0.075-0.344-0.18-0.496-0.33
				c-0.27-0.27-0.435-0.661-0.435-1.051c0-0.195,0.045-0.39,0.12-0.57c0.075-0.195,0.18-0.361,0.315-0.496
				c0.151-0.135,0.315-0.241,0.496-0.331c0.271-0.105,0.57-0.135,0.871-0.075c0.091,0.015,0.18,0.045,0.27,0.075
				c0.091,0.045,0.18,0.09,0.271,0.15c0.075,0.045,0.15,0.106,0.224,0.18c0.136,0.135,0.241,0.301,0.315,0.496
				c0.076,0.18,0.12,0.375,0.12,0.57c0,0.391-0.164,0.781-0.436,1.051c-0.075,0.075-0.149,0.135-0.224,0.195
				c-0.091,0.06-0.18,0.105-0.271,0.135c-0.089,0.046-0.179,0.076-0.27,0.09C353.066,74.342,352.976,74.357,352.871,74.357z"/>
		</g>
		<g>
			<path fill="#32BD9F" d="M306.176,118.079c0-0.826,0.661-1.502,1.501-1.502l0,0c0.826,0,1.502,0.675,1.502,1.502l0,0
				c0,0.826-0.676,1.502-1.502,1.502l0,0C306.837,119.581,306.176,118.92,306.176,118.079z M299.569,118.89
				c-0.826-0.136-1.365-0.916-1.23-1.742l0,0c0.149-0.811,0.915-1.367,1.742-1.216l0,0c0.809,0.136,1.365,0.916,1.216,1.742l0,0
				c-0.12,0.721-0.766,1.246-1.472,1.246l0,0C299.734,118.92,299.645,118.905,299.569,118.89z M314.044,117.659
				c-0.151-0.811,0.405-1.591,1.215-1.741l0,0c0.826-0.136,1.592,0.405,1.742,1.216l0,0c0.149,0.826-0.405,1.606-1.216,1.741l0,0
				c-0.091,0.015-0.18,0.03-0.271,0.03l0,0C314.809,118.905,314.164,118.395,314.044,117.659z M291.701,116.788
				c-0.781-0.27-1.186-1.141-0.901-1.922l0,0c0.27-0.781,1.141-1.171,1.922-0.901l0,0c0.78,0.285,1.172,1.156,0.9,1.922l0,0
				c-0.224,0.615-0.795,0.99-1.41,0.99l0,0C292.032,116.878,291.867,116.848,291.701,116.788z M321.732,115.872
				c-0.286-0.781,0.104-1.636,0.886-1.922l0,0c0.78-0.285,1.651,0.12,1.921,0.901l0,0c0.286,0.781-0.104,1.636-0.886,1.922l0,0
				c-0.18,0.06-0.345,0.09-0.525,0.09l0,0C322.526,116.863,321.941,116.488,321.732,115.872z M284.314,113.35
				c-0.721-0.405-0.961-1.322-0.556-2.042l0,0c0.421-0.721,1.336-0.976,2.057-0.555l0,0c0.721,0.42,0.961,1.336,0.54,2.056l0,0
				c-0.27,0.481-0.781,0.751-1.291,0.751l0,0C284.81,113.56,284.555,113.499,284.314,113.35z M328.968,112.779
				c-0.405-0.721-0.164-1.636,0.556-2.056l0,0c0.721-0.421,1.636-0.18,2.057,0.54l0,0c0.406,0.721,0.166,1.636-0.556,2.057l0,0
				c-0.24,0.135-0.496,0.195-0.751,0.195l0,0C329.764,113.515,329.253,113.26,328.968,112.779z M277.632,108.695c0,0,0,0,0.015,0
				l0,0c-0.646-0.54-0.721-1.487-0.195-2.117l0,0c0.54-0.645,1.486-0.721,2.117-0.195l0,0c0.631,0.54,0.721,1.486,0.18,2.117l0,0
				c-0.285,0.36-0.721,0.54-1.141,0.54l0,0C278.264,109.04,277.918,108.92,277.632,108.695z M335.575,108.455
				c-0.541-0.631-0.45-1.576,0.18-2.117l0,0c0.631-0.525,1.591-0.45,2.117,0.196l0,0c0.54,0.631,0.45,1.576-0.18,2.102l0,0
				c-0.286,0.24-0.631,0.36-0.962,0.36l0,0C336.295,108.995,335.875,108.815,335.575,108.455z M271.882,102.93L271.882,102.93
				L271.882,102.93c-0.541-0.631-0.466-1.577,0.18-2.103l0,0c0.631-0.54,1.577-0.465,2.117,0.18l0,0
				c0.526,0.63,0.45,1.576-0.195,2.117l0,0c-0.271,0.225-0.616,0.345-0.961,0.345l0,0C272.603,103.47,272.182,103.29,271.882,102.93
				z M341.325,103.065c-0.631-0.526-0.705-1.471-0.18-2.117l0,0c0.525-0.63,1.487-0.705,2.117-0.18l0,0
				c0.63,0.541,0.72,1.487,0.18,2.117l0,0c-0.301,0.361-0.721,0.54-1.142,0.54l0,0C341.956,103.425,341.61,103.305,341.325,103.065z
				 M267.198,96.278c-0.421-0.721-0.18-1.636,0.54-2.057l0,0c0.721-0.405,1.636-0.165,2.057,0.556l0,0
				c0.405,0.705,0.165,1.636-0.556,2.042l0,0c-0.225,0.135-0.496,0.21-0.751,0.21l0,0C267.978,97.029,267.468,96.758,267.198,96.278
				z M346.07,96.758c-0.721-0.405-0.962-1.336-0.556-2.042l0,0c0.419-0.721,1.336-0.961,2.057-0.556l0,0
				c0.72,0.421,0.96,1.336,0.556,2.057l0,0c-0.286,0.48-0.796,0.751-1.307,0.751l0,0C346.566,96.969,346.309,96.894,346.07,96.758z
				 M263.744,88.906c-0.285-0.781,0.106-1.636,0.886-1.922l0,0c0.781-0.285,1.636,0.12,1.921,0.886l0,0
				c0.285,0.781-0.105,1.652-0.886,1.937l0,0c-0.18,0.06-0.345,0.09-0.526,0.09l0,0C264.54,89.897,263.954,89.521,263.744,88.906z
				 M349.643,89.732c-0.782-0.286-1.186-1.141-0.902-1.922l0,0c0.286-0.781,1.142-1.186,1.922-0.901l0,0
				c0.782,0.285,1.186,1.156,0.9,1.922l0,0c-0.224,0.615-0.795,0.99-1.411,0.99l0,0C349.988,89.821,349.808,89.792,349.643,89.732z
				 M261.627,81.038L261.627,81.038L261.627,81.038c-0.15-0.811,0.39-1.592,1.216-1.727l0,0c0.811-0.149,1.592,0.391,1.741,1.216
				h-0.015c0.15,0.811-0.391,1.592-1.216,1.727l0,0c-0.075,0.015-0.165,0.03-0.255,0.03l0,0
				C262.378,82.285,261.747,81.774,261.627,81.038z M351.925,82.194c-0.811-0.15-1.35-0.931-1.215-1.742l0,0
				c0.149-0.811,0.915-1.367,1.742-1.216l0,0c0.811,0.135,1.365,0.916,1.216,1.727l0,0c-0.12,0.736-0.751,1.246-1.471,1.246l0,0
				C352.105,82.209,352.016,82.209,351.925,82.194z"/>
		</g>
		<g>
			<path fill="none" d="M263.474,73.921c-0.15,0.135-0.315,0.24-0.496,0.315c-0.18,0.076-0.375,0.12-0.57,0.12
				c-0.106,0-0.195-0.015-0.301-0.03c-0.09-0.03-0.18-0.045-0.27-0.09c-0.09-0.03-0.18-0.09-0.271-0.135
				c-0.076-0.06-0.15-0.12-0.225-0.18c-0.271-0.285-0.436-0.675-0.436-1.066c0-0.405,0.165-0.781,0.436-1.066
				c0.075-0.075,0.149-0.135,0.225-0.18c0.09-0.06,0.18-0.105,0.271-0.15c0.089-0.03,0.18-0.059,0.27-0.075
				c0.301-0.06,0.6-0.03,0.871,0.075c0.18,0.075,0.345,0.196,0.496,0.331"/>
		</g>
	</g>
	<g>
		<g>
			<path fill="#32BD9F" d="M333.982,65.348c-0.104,0-0.195-0.015-0.299-0.03c-0.091-0.03-0.195-0.045-0.286-0.09
				c-0.089-0.03-0.18-0.09-0.255-0.135c-0.075-0.06-0.166-0.12-0.226-0.195c-0.284-0.271-0.436-0.661-0.436-1.051
				c0-0.405,0.151-0.795,0.436-1.066c0.06-0.075,0.151-0.135,0.226-0.18c0.075-0.06,0.166-0.105,0.255-0.15
				c0.091-0.03,0.195-0.059,0.286-0.075c0.496-0.105,1.006,0.06,1.35,0.405c0.075,0.075,0.135,0.15,0.195,0.225
				c0.045,0.09,0.106,0.165,0.136,0.255c0.044,0.106,0.059,0.196,0.089,0.285c0.015,0.106,0.029,0.196,0.029,0.301
				c0,0.391-0.164,0.781-0.45,1.051C334.764,65.183,334.374,65.348,333.982,65.348z"/>
		</g>
		<g>
			<path fill="#32BD9F" d="M334.388,57.495c-0.811-0.15-1.352-0.916-1.217-1.742l0,0l0,0l0,0c0.151-0.811,0.931-1.366,1.742-1.216
				l0,0c0.811,0.136,1.367,0.916,1.217,1.742l0,0c-0.12,0.721-0.751,1.232-1.472,1.232l0,0
				C334.569,57.51,334.478,57.51,334.388,57.495z M421.894,56.204c-0.151-0.811,0.405-1.592,1.216-1.742l0,0
				c0.811-0.135,1.592,0.405,1.742,1.216l0,0c0,0,0,0,0,0.015l0,0c0.15,0.811-0.406,1.592-1.217,1.727l0,0
				c-0.089,0.015-0.179,0.03-0.255,0.03l0,0C422.66,57.45,422.015,56.939,421.894,56.204z M336.16,49.837
				c-0.765-0.285-1.17-1.141-0.886-1.921l0,0l0,0l0,0c0.27-0.781,1.141-1.172,1.922-0.901l0,0c0.78,0.285,1.186,1.156,0.9,1.937l0,0
				c-0.224,0.6-0.796,0.976-1.411,0.976l0,0C336.506,49.928,336.34,49.897,336.16,49.837z M419.927,48.892
				c-0.285-0.781,0.106-1.652,0.886-1.937l0,0c0.781-0.285,1.652,0.12,1.937,0.901l0,0c0.286,0.781-0.12,1.636-0.9,1.922l0,0
				c-0.166,0.06-0.346,0.09-0.51,0.09l0,0C420.723,49.867,420.152,49.492,419.927,48.892z M339.254,42.615
				c-0.721-0.405-0.962-1.321-0.556-2.042l0,0c0.421-0.721,1.336-0.961,2.057-0.556l0,0c0.72,0.421,0.96,1.336,0.539,2.057l0,0
				c-0.27,0.48-0.78,0.751-1.29,0.751l0,0C339.749,42.826,339.478,42.766,339.254,42.615z M416.699,42.015h0.015
				c-0.421-0.721-0.18-1.636,0.54-2.042l0,0c0.707-0.421,1.638-0.18,2.043,0.54l0,0c0,0,0,0,0.015,0l0,0
				c0.406,0.721,0.166,1.636-0.556,2.057l0,0c-0.239,0.135-0.494,0.195-0.751,0.195l0,0
				C417.494,42.766,416.984,42.496,416.699,42.015z M343.547,36.039c-0.645-0.526-0.72-1.471-0.195-2.102l0,0l0,0l0,0
				c0.541-0.646,1.487-0.721,2.117-0.195l0,0c0.645,0.54,0.721,1.486,0.195,2.117h-0.015c-0.286,0.361-0.721,0.541-1.141,0.541l0,0
				C344.163,36.4,343.818,36.279,343.547,36.039z M412.344,35.814c-0.541-0.631-0.45-1.576,0.18-2.117l0,0
				c0.631-0.54,1.576-0.45,2.117,0.18l0,0l0,0l0,0c0.525,0.63,0.45,1.576-0.18,2.117l0,0c-0.286,0.24-0.63,0.36-0.977,0.36l0,0
				C413.066,36.354,412.63,36.159,412.344,35.814z M348.908,30.304c-0.541-0.63-0.45-1.577,0.18-2.102l0,0
				c0.63-0.541,1.591-0.465,2.117,0.18l0,0c0.525,0.631,0.45,1.577-0.18,2.117l0,0c-0.286,0.225-0.631,0.345-0.977,0.345l0,0
				C349.629,30.844,349.208,30.664,348.908,30.304z M406.969,30.454L406.969,30.454c-0.645-0.526-0.72-1.487-0.195-2.117l0,0
				c0.541-0.63,1.487-0.721,2.117-0.18l0,0c0.645,0.526,0.72,1.471,0.195,2.117l0,0c-0.301,0.345-0.721,0.526-1.157,0.526l0,0
				C407.585,30.799,407.255,30.694,406.969,30.454z M355.183,25.589c-0.419-0.721-0.18-1.636,0.541-2.057l0,0
				c0.72-0.405,1.636-0.165,2.057,0.556l0,0c0.405,0.721,0.164,1.636-0.556,2.042l0,0c-0.226,0.15-0.496,0.21-0.751,0.21l0,0
				C355.965,26.34,355.454,26.069,355.183,25.589z M400.754,26.099L400.754,26.099c-0.721-0.405-0.962-1.336-0.556-2.042l0,0
				c0.421-0.721,1.336-0.976,2.057-0.556l0,0l0,0l0,0c0.705,0.421,0.96,1.337,0.54,2.057l0,0c-0.27,0.48-0.78,0.751-1.29,0.751l0,0
				C401.249,26.31,400.994,26.235,400.754,26.099z M362.18,22.03c-0.284-0.781,0.12-1.652,0.886-1.922l0,0c0,0,0,0,0-0.015l0,0
				c0.782-0.285,1.652,0.12,1.937,0.901l0,0c0.286,0.781-0.12,1.636-0.9,1.922l0,0c-0.166,0.075-0.346,0.089-0.51,0.089l0,0
				C362.976,23.006,362.406,22.631,362.18,22.03z M393.877,22.901c-0.782-0.285-1.186-1.141-0.902-1.922l0,0
				c0.286-0.781,1.142-1.186,1.922-0.901l0,0c0.782,0.285,1.186,1.141,0.902,1.922l0,0c-0.226,0.616-0.796,0.991-1.412,0.991l0,0
				C394.221,22.991,394.041,22.961,393.877,22.901z M369.688,19.733c-0.135-0.811,0.406-1.592,1.217-1.727l0,0
				c0.826-0.15,1.606,0.39,1.741,1.216l0,0c0.151,0.81-0.405,1.591-1.216,1.741l0,0c-0.089,0.015-0.18,0.015-0.255,0.015l0,0
				C370.453,20.98,369.822,20.469,369.688,19.733z M386.55,20.949L386.55,20.949c-0.827-0.136-1.367-0.916-1.217-1.742l0,0
				c0.135-0.811,0.917-1.367,1.727-1.216l0,0c0.826,0.135,1.367,0.916,1.216,1.742l0,0c-0.12,0.721-0.751,1.231-1.471,1.231l0,0
				C386.714,20.964,386.639,20.964,386.55,20.949z M377.481,18.802c0-0.825,0.676-1.501,1.501-1.501l0,0
				c0.825,0,1.502,0.661,1.502,1.501l0,0c0,0.826-0.661,1.502-1.502,1.502l0,0C378.157,20.304,377.481,19.628,377.481,18.802z"/>
		</g>
		<g>
			<path fill="#32BD9F" d="M424.056,65.348c-0.39,0-0.78-0.165-1.051-0.45c-0.284-0.271-0.45-0.661-0.45-1.051
				c0-0.195,0.045-0.39,0.12-0.586c0.075-0.18,0.18-0.345,0.33-0.48c0.556-0.556,1.562-0.556,2.117,0
				c0.135,0.135,0.255,0.301,0.331,0.48c0.075,0.196,0.104,0.391,0.104,0.586c0,0.391-0.149,0.781-0.435,1.051
				C424.852,65.183,424.462,65.348,424.056,65.348z"/>
		</g>
	</g>
	<g>
		<g>
			<path fill="#32BD9F" d="M352.435,65.348c-0.39,0-0.78-0.165-1.066-0.45c-0.06-0.06-0.135-0.136-0.18-0.226
				c-0.059-0.075-0.104-0.165-0.15-0.255c-0.029-0.09-0.06-0.18-0.075-0.285c-0.031-0.09-0.031-0.195-0.031-0.285
				c0-0.195,0.031-0.39,0.106-0.586c0.075-0.18,0.195-0.345,0.33-0.48c0.556-0.556,1.562-0.556,2.117,0
				c0.151,0.135,0.255,0.301,0.33,0.48c0.076,0.196,0.12,0.391,0.12,0.586c0,0.391-0.164,0.781-0.45,1.051
				C353.217,65.183,352.827,65.348,352.435,65.348z"/>
		</g>
		<g>
			<path fill="#32BD9F" d="M353.082,57.78c-0.796-0.225-1.246-1.066-1.022-1.861l0,0l0,0l0,0c0.24-0.796,1.066-1.246,1.862-1.021
				l0,0c0.796,0.241,1.261,1.066,1.021,1.862l0,0c-0.195,0.661-0.795,1.081-1.441,1.081l0,0
				C353.366,57.84,353.217,57.826,353.082,57.78z M403.081,56.744c-0.226-0.795,0.226-1.636,1.02-1.861l0,0
				c0.796-0.24,1.636,0.21,1.862,1.006l0,0c0,0,0,0,0,0.015l0,0c0.24,0.781-0.21,1.622-1.006,1.862l0,0
				c-0.149,0.03-0.286,0.06-0.435,0.06l0,0C403.877,57.826,403.276,57.39,403.081,56.744z M355.844,50.724
				c-0.705-0.451-0.902-1.382-0.45-2.073l0,0c0.45-0.705,1.367-0.9,2.072-0.45l0,0c0.691,0.45,0.9,1.381,0.45,2.072l0,0
				c-0.286,0.451-0.765,0.691-1.261,0.691l0,0C356.369,50.963,356.085,50.889,355.844,50.724z M400.107,50.258
				c-0.45-0.706-0.255-1.622,0.452-2.073l0,0c0.691-0.45,1.622-0.255,2.072,0.435l0,0c0.45,0.706,0.255,1.637-0.45,2.087l0,0
				c-0.24,0.165-0.526,0.24-0.811,0.24l0,0C400.889,50.949,400.393,50.694,400.107,50.258z M360.469,44.733
				c-0.541-0.631-0.466-1.576,0.15-2.117l0,0c0.631-0.555,1.576-0.48,2.132,0.15l0,0c0.541,0.616,0.466,1.577-0.164,2.117l0,0
				c-0.286,0.24-0.631,0.36-0.977,0.36l0,0C361.189,45.243,360.77,45.078,360.469,44.733z M395.424,44.867
				c-0.616-0.54-0.692-1.486-0.151-2.117l0,0c0.556-0.63,1.502-0.691,2.117-0.15l0,0c0.631,0.54,0.705,1.486,0.15,2.117l0,0
				c-0.284,0.345-0.705,0.51-1.126,0.51l0,0C396.069,45.228,395.708,45.108,395.424,44.867z M366.61,40.273
				c-0.361-0.751-0.031-1.636,0.736-1.982l0,0c0.751-0.345,1.636-0.015,1.981,0.736l0,0c0.346,0.751,0.016,1.651-0.735,1.996l0,0
				c-0.211,0.09-0.421,0.136-0.63,0.136l0,0C367.39,41.159,366.85,40.828,366.61,40.273z M389.432,41.009
				c-0.765-0.345-1.097-1.231-0.751-1.982l0,0c0.345-0.766,1.23-1.096,1.997-0.751l0,0c0.751,0.345,1.081,1.231,0.735,1.996l0,0
				c-0.255,0.541-0.795,0.871-1.365,0.871l0,0C389.837,41.144,389.627,41.099,389.432,41.009z M373.742,37.735
				c-0.12-0.826,0.45-1.576,1.276-1.697l0,0c0.811-0.12,1.578,0.451,1.696,1.276l0,0c0.12,0.811-0.45,1.576-1.276,1.696l0,0
				c-0.075,0-0.15,0.015-0.21,0.015l0,0C374.493,39.027,373.847,38.486,373.742,37.735z M382.585,39.012
				c-0.826-0.12-1.396-0.886-1.276-1.712l0,0c0.106-0.81,0.871-1.381,1.697-1.261l0,0c0.811,0.105,1.381,0.871,1.276,1.697l0,0
				c-0.119,0.751-0.751,1.292-1.485,1.292l0,0C382.72,39.027,382.645,39.012,382.585,39.012z"/>
		</g>
		<g>
			<path fill="#32BD9F" d="M405.603,65.348c-0.39,0-0.78-0.165-1.066-0.45c-0.27-0.271-0.436-0.661-0.436-1.051
				c0-0.405,0.166-0.781,0.436-1.066c0.57-0.556,1.576-0.556,2.132,0c0.286,0.285,0.436,0.661,0.436,1.066
				c0,0.391-0.15,0.781-0.436,1.051C406.384,65.183,406.009,65.348,405.603,65.348z"/>
		</g>
	</g>
	<g>
		<g>
			<path fill="#32BD9F" d="M515.075,72.855c-0.405,0-0.78-0.165-1.066-0.45c-0.27-0.27-0.435-0.661-0.435-1.051
				c0-0.405,0.166-0.795,0.435-1.066c0.556-0.556,1.576-0.556,2.132,0c0.27,0.285,0.436,0.66,0.436,1.066
				c0,0.391-0.166,0.781-0.436,1.051C515.856,72.69,515.465,72.855,515.075,72.855z"/>
		</g>
		<g>
			<path fill="#32BD9F" d="M468.364,116.578c0-0.826,0.676-1.501,1.501-1.501l0,0c0.842,0,1.502,0.675,1.518,1.501l0,0
				c0,0.826-0.676,1.502-1.518,1.502l0,0C469.04,118.079,468.364,117.419,468.364,116.578z M461.758,117.389c0,0,0,0,0.015,0l0,0
				c-0.826-0.136-1.367-0.916-1.232-1.727l0,0c0.136-0.826,0.916-1.382,1.742-1.232l0,0c0.811,0.136,1.367,0.916,1.217,1.742l0,0
				c-0.12,0.721-0.767,1.246-1.472,1.246l0,0C461.938,117.419,461.847,117.403,461.758,117.389z M476.246,116.157
				c-0.15-0.811,0.406-1.591,1.217-1.741l0,0c0.811-0.136,1.591,0.405,1.742,1.216l0,0c0.135,0.825-0.406,1.606-1.217,1.741l0,0
				c-0.089,0.015-0.18,0.03-0.27,0.03l0,0C477.013,117.403,476.367,116.878,476.246,116.157z M453.89,115.287
				c-0.78-0.27-1.172-1.141-0.9-1.922l0,0c0.284-0.781,1.155-1.171,1.937-0.901l0,0c0.78,0.285,1.17,1.156,0.886,1.937l0,0
				c-0.211,0.6-0.796,0.976-1.412,0.976l0,0C454.236,115.376,454.07,115.346,453.89,115.287z M483.919,114.37
				c-0.284-0.781,0.12-1.636,0.9-1.922l0,0c0.781-0.285,1.638,0.12,1.922,0.901l0,0c0.286,0.765-0.12,1.636-0.886,1.922l0,0
				c-0.18,0.06-0.345,0.09-0.525,0.09l0,0C484.716,115.362,484.145,114.986,483.919,114.37z M446.518,111.849L446.518,111.849
				L446.518,111.849c-0.72-0.405-0.975-1.322-0.556-2.043l0,0c0.421-0.721,1.337-0.96,2.057-0.555l0,0
				c0.707,0.42,0.962,1.336,0.541,2.056l0,0c-0.27,0.481-0.782,0.751-1.306,0.751l0,0
				C447.013,112.058,446.743,111.998,446.518,111.849z M491.172,111.277c-0.421-0.721-0.166-1.636,0.556-2.056l0,0
				c0.705-0.421,1.636-0.18,2.043,0.54l0,0c0.419,0.721,0.179,1.636-0.541,2.057l0,0c-0.24,0.135-0.496,0.21-0.751,0.21l0,0
				C491.952,112.028,491.457,111.758,491.172,111.277z M439.836,107.194c-0.631-0.54-0.72-1.487-0.179-2.117l0,0
				c0.525-0.645,1.471-0.721,2.116-0.195l0,0c0.63,0.54,0.707,1.486,0.18,2.117l0,0c-0.301,0.36-0.72,0.54-1.156,0.54l0,0
				C440.468,107.539,440.122,107.419,439.836,107.194z M497.779,106.953c-0.541-0.631-0.452-1.576,0.179-2.117l0,0
				c0.632-0.525,1.578-0.45,2.117,0.196l0,0c0.526,0.631,0.452,1.576-0.18,2.102l0,0c-0.284,0.24-0.631,0.36-0.975,0.36l0,0
				C498.499,107.494,498.078,107.314,497.779,106.953z M434.07,101.443c-0.525-0.646-0.45-1.592,0.195-2.117l0,0
				c0.631-0.54,1.578-0.465,2.103,0.18l0,0c0.541,0.631,0.45,1.576-0.18,2.117l0,0c-0.27,0.225-0.616,0.345-0.96,0.345l0,0
				C434.806,101.969,434.371,101.788,434.07,101.443z M503.529,101.563c-0.632-0.526-0.721-1.471-0.18-2.117l0,0
				c0.525-0.631,1.471-0.705,2.116-0.18l0,0c0.632,0.541,0.707,1.487,0.18,2.117l0,0c-0.299,0.361-0.72,0.54-1.155,0.54l0,0
				C504.16,101.923,503.814,101.804,503.529,101.563z M429.386,94.777c-0.405-0.721-0.164-1.636,0.556-2.042l0,0
				c0.707-0.421,1.636-0.18,2.042,0.54h0.015c0.406,0.705,0.166,1.636-0.556,2.042l0,0c-0.241,0.15-0.496,0.21-0.751,0.21l0,0
				C430.167,95.527,429.672,95.257,429.386,94.777z M508.273,95.257c-0.72-0.405-0.96-1.321-0.556-2.042l0,0
				c0.421-0.721,1.337-0.961,2.057-0.556l0,0c0.721,0.421,0.962,1.337,0.541,2.057l0,0c-0.27,0.48-0.78,0.751-1.292,0.751l0,0
				C508.768,95.467,508.513,95.407,508.273,95.257z M425.932,87.404L425.932,87.404L425.932,87.404
				c-0.284-0.781,0.12-1.636,0.902-1.921l0,0c0.78-0.285,1.636,0.12,1.921,0.886l0,0c0.286,0.781-0.12,1.652-0.886,1.937l0,0
				c-0.18,0.06-0.344,0.09-0.525,0.09l0,0C426.743,88.395,426.158,88.02,425.932,87.404z M511.846,88.23
				c-0.78-0.286-1.185-1.141-0.9-1.922l0,0c0.286-0.781,1.141-1.186,1.922-0.901l0,0c0.78,0.285,1.186,1.156,0.9,1.937l0,0
				c-0.224,0.6-0.796,0.976-1.411,0.976l0,0C512.192,88.32,512.012,88.29,511.846,88.23z M423.815,79.537
				c-0.135-0.811,0.406-1.592,1.217-1.742l0,0c0.825-0.135,1.606,0.405,1.742,1.216v0.015c0.15,0.811-0.392,1.592-1.217,1.727l0,0
				c-0.089,0.015-0.18,0.03-0.255,0.03l0,0C424.582,80.783,423.952,80.272,423.815,79.537z M514.129,80.693
				c-0.811-0.15-1.352-0.931-1.215-1.742l0,0c0.149-0.811,0.915-1.367,1.74-1.216l0,0c0.811,0.135,1.367,0.916,1.217,1.742l0,0l0,0
				l0,0c-0.12,0.721-0.765,1.231-1.487,1.231l0,0C514.309,80.708,514.219,80.708,514.129,80.693z"/>
		</g>
		<g>
			<path fill="#32BD9F" d="M424.611,72.855c-0.405,0-0.78-0.165-1.066-0.45c-0.286-0.27-0.435-0.661-0.435-1.051
				c0-0.405,0.149-0.781,0.435-1.066c0.556-0.556,1.562-0.556,2.117,0c0.284,0.285,0.45,0.66,0.45,1.066
				c0,0.391-0.166,0.781-0.45,1.051C425.393,72.69,425.001,72.855,424.611,72.855z"/>
		</g>
	</g>
	<g>
		<g>
			<path fill="#32BD9F" d="M334.223,74.357c-0.089,0-0.195-0.015-0.284-0.03c-0.106-0.015-0.195-0.045-0.286-0.09
				c-0.089-0.03-0.18-0.075-0.255-0.135c-0.089-0.06-0.166-0.12-0.226-0.195c-0.15-0.136-0.255-0.301-0.33-0.481
				c-0.075-0.18-0.12-0.375-0.12-0.57c0-0.405,0.166-0.795,0.45-1.066c0.06-0.075,0.136-0.135,0.226-0.18
				c0.075-0.06,0.166-0.105,0.255-0.15c0.091-0.03,0.18-0.059,0.286-0.075c0.195-0.045,0.39-0.045,0.585,0
				c0.091,0.015,0.195,0.045,0.27,0.075c0.106,0.045,0.18,0.09,0.271,0.15c0.075,0.045,0.15,0.106,0.224,0.18
				c0.271,0.285,0.435,0.66,0.435,1.066c0,0.391-0.164,0.781-0.435,1.051c-0.075,0.075-0.15,0.135-0.224,0.195
				c-0.091,0.06-0.166,0.105-0.271,0.135c-0.075,0.046-0.179,0.076-0.27,0.09C334.418,74.342,334.328,74.357,334.223,74.357z"/>
		</g>
		<g>
			<path fill="#32BD9F" d="M303.654,100.662c-0.827-0.12-1.397-0.886-1.277-1.697l0,0c0.12-0.826,0.886-1.397,1.697-1.276l0,0
				c0.827,0.12,1.397,0.871,1.277,1.697l0,0c-0.106,0.751-0.751,1.292-1.487,1.292l0,0
				C303.803,100.678,303.729,100.662,303.654,100.662z M309.944,99.386c-0.12-0.826,0.45-1.592,1.277-1.697l0,0
				c0.826-0.12,1.576,0.45,1.697,1.261l0,0c0.12,0.826-0.45,1.592-1.277,1.712l0,0c-0.075,0-0.135,0.015-0.21,0.015l0,0
				C310.695,100.678,310.05,100.137,309.944,99.386z M295.981,98.41c-0.751-0.345-1.081-1.231-0.736-1.982l0,0
				c0.346-0.751,1.232-1.096,1.982-0.751l0,0c0.751,0.345,1.095,1.246,0.751,1.997l0,0c-0.255,0.555-0.796,0.87-1.367,0.87l0,0
				C296.401,98.545,296.19,98.515,295.981,98.41z M317.331,97.659c-0.345-0.751-0.029-1.636,0.736-1.982l0,0
				c0.751-0.345,1.636-0.015,1.982,0.735l0,0c0.345,0.751,0.015,1.652-0.736,1.997l0,0c-0.195,0.09-0.421,0.135-0.616,0.135l0,0
				C318.127,98.545,317.572,98.215,317.331,97.659z M289.269,94.101c-0.63-0.54-0.705-1.501-0.165-2.116l0,0
				c0.54-0.631,1.502-0.706,2.132-0.166l0,0c0.616,0.556,0.691,1.502,0.15,2.132l0,0c-0.3,0.331-0.721,0.511-1.141,0.511l0,0
				C289.9,94.461,289.539,94.341,289.269,94.101z M323.907,93.936c-0.54-0.631-0.465-1.576,0.151-2.132h0.015
				c0.616-0.54,1.562-0.466,2.117,0.165l0,0c0.541,0.616,0.465,1.562-0.166,2.117l0,0c0,0,0,0,0.015,0l0,0
				c-0.284,0.24-0.645,0.36-0.99,0.36l0,0C324.629,94.446,324.208,94.266,323.907,93.936z M284.029,88.065
				c-0.45-0.691-0.255-1.622,0.436-2.072l0,0c0.705-0.45,1.636-0.255,2.087,0.45l0,0c0.45,0.691,0.24,1.622-0.451,2.073l0,0
				c-0.255,0.165-0.54,0.24-0.811,0.24l0,0C284.794,88.755,284.314,88.516,284.029,88.065z M329.193,88.486
				c-0.705-0.435-0.902-1.367-0.45-2.072l0,0c0.45-0.691,1.381-0.901,2.072-0.451l0,0c0.705,0.451,0.9,1.381,0.45,2.087l0,0
				c-0.286,0.435-0.766,0.675-1.261,0.675l0,0C329.718,88.725,329.449,88.65,329.193,88.486z M280.696,80.798
				c-0.24-0.795,0.21-1.622,1.007-1.862l0,0c0.796-0.24,1.636,0.226,1.877,1.021l0,0c0.225,0.796-0.226,1.622-1.021,1.862l0,0
				c-0.15,0.03-0.285,0.06-0.421,0.06l0,0C281.476,81.879,280.876,81.458,280.696,80.798z M332.737,81.789
				c-0.796-0.226-1.262-1.066-1.022-1.862l0,0c0.226-0.795,1.066-1.246,1.862-1.021l0,0c0.796,0.24,1.246,1.066,1.02,1.861l0,0l0,0
				l0,0c-0.195,0.66-0.795,1.081-1.441,1.081l0,0C333.007,81.849,332.872,81.834,332.737,81.789z"/>
		</g>
		<g>
			<path fill="#32BD9F" d="M281.056,74.357c-0.405,0-0.781-0.165-1.066-0.45c-0.285-0.27-0.436-0.661-0.436-1.051
				c0-0.195,0.03-0.39,0.105-0.586c0.076-0.18,0.196-0.345,0.331-0.48c0.556-0.556,1.562-0.556,2.117,0
				c0.149,0.135,0.255,0.301,0.33,0.48c0.075,0.196,0.12,0.391,0.12,0.586c0,0.391-0.165,0.781-0.45,1.051
				C281.837,74.191,281.446,74.357,281.056,74.357z"/>
		</g>
	</g>
</g>
</svg>
