<?xml version="1.0" encoding="utf-8"?>
<!-- Generator: Adobe Illustrator 17.0.0, SVG Export Plug-In . SVG Version: 6.00 Build 0)  -->
<!DOCTYPE svg PUBLIC "-//W3C//DTD SVG 1.1//EN" "http://www.w3.org/Graphics/SVG/1.1/DTD/svg11.dtd">
<svg version="1.1" id="Layer_1" xmlns="http://www.w3.org/2000/svg" xmlns:xlink="http://www.w3.org/1999/xlink" x="0px" y="0px"
	 width="783.169px" height="219.06px" viewBox="0 0 783.169 219.06" enable-background="new 0 0 783.169 219.06"
	 xml:space="preserve">
<g>
	<g>
		<g>
			<path fill="#32BD9F" d="M241.262,66.849c-0.405,0-0.796-0.165-1.066-0.45c-0.15-0.136-0.256-0.301-0.331-0.481
				c-0.075-0.18-0.12-0.375-0.12-0.57c0-0.405,0.165-0.795,0.451-1.066c0.345-0.345,0.856-0.51,1.351-0.405
				c0.09,0.015,0.195,0.045,0.285,0.075c0.09,0.046,0.18,0.09,0.255,0.15c0.075,0.046,0.15,0.106,0.225,0.18
				c0.285,0.271,0.436,0.661,0.436,1.066c0,0.195-0.03,0.391-0.105,0.57c-0.075,0.18-0.195,0.345-0.331,0.481
				c-0.075,0.075-0.15,0.135-0.225,0.195c-0.075,0.045-0.165,0.09-0.255,0.135c-0.09,0.045-0.195,0.06-0.285,0.09
				C241.457,66.835,241.352,66.849,241.262,66.849z"/>
		</g>
		<g>
			<path fill="#32BD9F" d="M241.562,58.816c-0.825-0.105-1.396-0.856-1.306-1.681l0,0l0,0l0,0c0.105-0.826,0.856-1.412,1.681-1.307
				l0,0c0.826,0.105,1.411,0.856,1.307,1.682l0,0c-0.105,0.751-0.751,1.321-1.486,1.321l0,0
				C241.698,58.832,241.622,58.816,241.562,58.816z M367.19,57.405L367.19,57.405c-0.105-0.826,0.481-1.576,1.306-1.682l0,0
				c0.811-0.105,1.562,0.481,1.666,1.307l0,0c0.106,0.826-0.48,1.577-1.291,1.682l0,0c-0.075,0-0.135,0.015-0.195,0.015l0,0
				C367.926,58.726,367.28,58.171,367.19,57.405z M242.868,50.889c-0.795-0.21-1.276-1.021-1.081-1.832l0,0
				c0.21-0.795,1.021-1.276,1.832-1.081l0,0c0.795,0.21,1.291,1.021,1.081,1.831l0,0c-0.18,0.676-0.781,1.126-1.457,1.126l0,0
				C243.124,50.934,243.003,50.919,242.868,50.889z M365.718,49.703c-0.21-0.796,0.27-1.622,1.081-1.817l0,0
				c0.795-0.21,1.622,0.27,1.817,1.066l0,0c0.21,0.811-0.271,1.622-1.081,1.831l0,0c-0.12,0.03-0.24,0.046-0.36,0.046l0,0
				C366.499,50.829,365.884,50.379,365.718,49.703z M245.181,43.187c-0.781-0.301-1.156-1.172-0.855-1.952l0,0
				c0.315-0.765,1.186-1.141,1.952-0.841l0,0c0.781,0.315,1.156,1.186,0.841,1.952l0,0c-0.225,0.585-0.796,0.946-1.397,0.946l0,0
				C245.541,43.291,245.361,43.261,245.181,43.187z M363.287,42.255c-0.315-0.766,0.06-1.636,0.841-1.952l0,0
				c0.765-0.3,1.636,0.076,1.936,0.841l0,0c0.316,0.766-0.059,1.652-0.826,1.952l0,0c-0.18,0.075-0.375,0.105-0.556,0.105l0,0
				C364.082,43.201,363.512,42.841,363.287,42.255z M248.424,35.844c-0.721-0.405-0.991-1.321-0.586-2.042l0,0
				c0.405-0.721,1.307-0.991,2.042-0.586l0,0c0.721,0.39,0.991,1.307,0.586,2.027l0,0c-0.27,0.51-0.781,0.781-1.321,0.781l0,0
				C248.904,36.025,248.649,35.964,248.424,35.844z M359.938,35.168v0.015c-0.405-0.736-0.15-1.652,0.585-2.042l0,0
				c0.721-0.405,1.637-0.15,2.043,0.586l0,0l0,0l0,0c0.39,0.721,0.135,1.637-0.586,2.042l0,0c-0.24,0.12-0.48,0.18-0.736,0.18l0,0
				C360.719,35.949,360.208,35.664,359.938,35.168z M252.583,28.967c-0.676-0.496-0.826-1.427-0.331-2.102l0,0
				c0.48-0.676,1.427-0.826,2.087-0.331l0,0c0.675,0.481,0.826,1.427,0.33,2.102l0,0c-0.285,0.391-0.751,0.616-1.216,0.616l0,0
				C253.154,29.252,252.838,29.148,252.583,28.967z M355.719,28.562c-0.496-0.661-0.345-1.606,0.33-2.087l0,0
				c0.661-0.495,1.607-0.345,2.087,0.315l0,0c0,0,0,0,0.015,0l0,0c0.481,0.676,0.331,1.622-0.33,2.103l0,0
				c-0.271,0.195-0.586,0.285-0.886,0.285l0,0C356.47,29.178,356.004,28.967,355.719,28.562z M257.552,22.661
				c-0.6-0.57-0.631-1.516-0.059-2.132l0,0c0.57-0.6,1.516-0.631,2.116-0.06l0,0c0.6,0.571,0.631,1.517,0.06,2.117l0,0
				c-0.285,0.315-0.691,0.48-1.096,0.48l0,0C258.214,23.066,257.838,22.931,257.552,22.661z M350.704,22.541
				c-0.555-0.616-0.54-1.562,0.075-2.133l0,0c0.6-0.57,1.546-0.54,2.117,0.06l0,0c0.571,0.616,0.541,1.562-0.059,2.133l0,0
				c-0.301,0.27-0.661,0.405-1.037,0.405l0,0C351.41,23.006,351.004,22.841,350.704,22.541z M263.273,17.016
				c-0.525-0.63-0.435-1.576,0.196-2.102l0,0c0.645-0.541,1.591-0.451,2.116,0.195l0,0c0.526,0.63,0.451,1.576-0.195,2.117l0,0
				c-0.285,0.225-0.616,0.345-0.961,0.345l0,0C264.009,17.571,263.574,17.376,263.273,17.016z M344.984,17.166L344.984,17.166
				c-0.631-0.526-0.721-1.471-0.196-2.117l0,0c0.526-0.63,1.471-0.721,2.117-0.195l0,0c0.63,0.526,0.721,1.471,0.195,2.117l0,0
				c-0.3,0.36-0.721,0.54-1.156,0.54l0,0C345.614,17.511,345.269,17.406,344.984,17.166z M269.654,12.15
				c-0.45-0.705-0.24-1.636,0.466-2.086l0,0c0.691-0.436,1.622-0.225,2.072,0.465l0,0c0.435,0.705,0.24,1.636-0.465,2.072l0,0
				c-0.256,0.165-0.526,0.24-0.796,0.24l0,0C270.42,12.842,269.94,12.601,269.654,12.15z M338.647,12.556L338.647,12.556
				c-0.706-0.435-0.916-1.366-0.465-2.072l0,0c0.436-0.691,1.367-0.901,2.072-0.465l0,0c0.691,0.451,0.901,1.381,0.465,2.073l0,0
				c-0.285,0.45-0.781,0.705-1.276,0.705l0,0C339.173,12.796,338.888,12.722,338.647,12.556z M276.591,8.097
				c-0.36-0.736-0.03-1.636,0.721-1.997l0,0c0.751-0.345,1.636-0.03,1.997,0.721l0,0c0.345,0.751,0.03,1.652-0.721,1.997l0,0
				c-0.21,0.105-0.42,0.15-0.63,0.15l0,0C277.388,8.968,276.846,8.653,276.591,8.097z M331.77,8.788
				c-0.751-0.361-1.081-1.246-0.721-1.997l0,0c0.361-0.751,1.246-1.081,1.997-0.721l0,0l0,0l0,0
				c0.751,0.345,1.066,1.246,0.721,1.997l0,0c-0.255,0.54-0.795,0.856-1.367,0.856l0,0C332.191,8.923,331.981,8.878,331.77,8.788z
				 M283.978,4.974c-0.255-0.795,0.18-1.636,0.961-1.907l0,0c0,0,0,0,0.015,0l0,0c0.781-0.255,1.637,0.18,1.892,0.976l0,0
				c0.255,0.781-0.18,1.637-0.976,1.892l0,0c-0.15,0.045-0.301,0.075-0.466,0.075l0,0C284.775,6.01,284.189,5.604,283.978,4.974z
				 M324.473,5.905L324.473,5.905c-0.781-0.255-1.216-1.111-0.961-1.892l0,0c0.255-0.795,1.096-1.216,1.892-0.976l0,0
				c0,0,0,0,0,0.015l0,0c0.781,0.24,1.215,1.096,0.96,1.877l0,0c-0.21,0.645-0.795,1.051-1.426,1.051l0,0
				C324.789,5.98,324.624,5.95,324.473,5.905z M291.711,2.782c-0.15-0.811,0.375-1.592,1.202-1.757l0,0
				c0.811-0.15,1.592,0.39,1.757,1.201l0,0c0.15,0.811-0.39,1.607-1.201,1.757l0,0c-0.09,0.015-0.18,0.03-0.285,0.03l0,0
				C292.477,4.013,291.847,3.502,291.711,2.782z M316.876,3.968c-0.826-0.165-1.351-0.946-1.201-1.757l0,0
				c0.15-0.826,0.946-1.352,1.757-1.202l0,0l0,0l0,0c0.811,0.15,1.351,0.946,1.201,1.757l0,0c-0.135,0.721-0.765,1.216-1.471,1.216
				l0,0C317.056,3.983,316.966,3.983,316.876,3.968z M299.654,1.596c-0.045-0.826,0.571-1.546,1.412-1.592l0,0
				c0.826-0.045,1.531,0.57,1.591,1.411l0,0c0.045,0.826-0.585,1.531-1.411,1.592l0,0c-0.03,0-0.06,0-0.09,0l0,0
				C300.36,3.007,299.699,2.391,299.654,1.596z M309.098,2.992c-0.841-0.046-1.471-0.766-1.411-1.592l0,0
				c0.045-0.826,0.766-1.457,1.592-1.397l0,0c0.826,0.045,1.457,0.751,1.397,1.592l0,0c-0.045,0.795-0.706,1.397-1.487,1.397l0,0
				C309.158,2.992,309.128,2.992,309.098,2.992z"/>
		</g>
		<g>
			<path fill="#32BD9F" d="M369.187,66.849c-0.195,0-0.39-0.045-0.57-0.12c-0.195-0.075-0.345-0.18-0.496-0.33
				c-0.27-0.27-0.435-0.66-0.435-1.051c0-0.405,0.166-0.781,0.435-1.066c0.15-0.135,0.315-0.255,0.496-0.331
				c0.556-0.225,1.216-0.089,1.636,0.331c0.271,0.285,0.436,0.661,0.436,1.066c0,0.391-0.165,0.781-0.436,1.051
				c-0.135,0.15-0.3,0.255-0.495,0.33C369.578,66.805,369.383,66.849,369.187,66.849z"/>
		</g>
	</g>
	<g>
		<g>
			<path fill="#32BD9F" d="M260.18,66.849c-0.105,0-0.195-0.015-0.3-0.03c-0.09-0.03-0.18-0.045-0.271-0.09
				c-0.105-0.03-0.18-0.09-0.27-0.135c-0.076-0.06-0.15-0.12-0.226-0.195c-0.075-0.06-0.135-0.136-0.18-0.226
				c-0.06-0.075-0.106-0.165-0.15-0.255c-0.03-0.09-0.06-0.18-0.075-0.285c-0.03-0.09-0.03-0.195-0.03-0.285
				c0-0.405,0.15-0.781,0.435-1.066c0.421-0.42,1.081-0.556,1.637-0.331c0.18,0.076,0.345,0.196,0.48,0.331
				c0.15,0.135,0.255,0.301,0.331,0.48c0.075,0.196,0.12,0.391,0.12,0.586c0,0.391-0.165,0.781-0.45,1.051
				C260.961,66.684,260.571,66.849,260.18,66.849z"/>
		</g>
		<g>
			<path fill="#32BD9F" d="M260.601,58.997c-0.826-0.15-1.367-0.916-1.231-1.742l0,0c0.15-0.811,0.93-1.366,1.741-1.216l0,0
				c0.826,0.136,1.367,0.916,1.216,1.742l0,0c-0.12,0.721-0.751,1.232-1.471,1.232l0,0
				C260.766,59.012,260.691,59.012,260.601,58.997z M348.091,57.706c-0.135-0.811,0.405-1.592,1.216-1.742l0,0
				c0.826-0.135,1.606,0.405,1.741,1.216l0,0c0.15,0.825-0.405,1.606-1.216,1.742l0,0c-0.09,0.015-0.18,0.03-0.256,0.03l0,0
				C348.857,58.952,348.226,58.441,348.091,57.706z M262.373,51.339c-0.781-0.285-1.186-1.141-0.901-1.921l0,0l0,0l0,0
				c0.285-0.781,1.141-1.172,1.921-0.901l0,0c0.781,0.285,1.186,1.156,0.901,1.937l0,0c-0.225,0.6-0.796,0.991-1.411,0.991l0,0
				C262.718,51.445,262.538,51.414,262.373,51.339z M346.124,50.379L346.124,50.379c-0.285-0.766,0.12-1.637,0.901-1.922l0,0
				c0.781-0.285,1.636,0.12,1.921,0.901l0,0c0.285,0.781-0.12,1.636-0.901,1.922l0,0c-0.165,0.06-0.345,0.09-0.51,0.09l0,0
				C346.92,51.369,346.35,50.994,346.124,50.379z M265.451,44.117c-0.721-0.405-0.961-1.321-0.54-2.042l0,0
				c0.405-0.721,1.321-0.961,2.042-0.556l0,0c0.721,0.421,0.961,1.336,0.556,2.057l0,0c-0.285,0.48-0.796,0.751-1.306,0.751l0,0
				C265.946,44.327,265.691,44.252,265.451,44.117z M342.911,43.516c-0.42-0.721-0.18-1.636,0.541-2.042l0,0
				c0.721-0.421,1.636-0.18,2.056,0.54l0,0c0.405,0.706,0.166,1.636-0.555,2.042l0,0c-0.226,0.15-0.496,0.21-0.751,0.21l0,0
				C343.692,44.267,343.182,43.997,342.911,43.516z M269.745,37.541c-0.63-0.526-0.721-1.471-0.18-2.102l0,0
				c0.526-0.646,1.472-0.721,2.103-0.195l0,0c0.645,0.54,0.721,1.486,0.195,2.117l0,0c-0.301,0.361-0.721,0.541-1.156,0.541l0,0
				C270.36,37.901,270.03,37.781,269.745,37.541z M338.542,37.316c-0.541-0.631-0.451-1.592,0.18-2.117l0,0
				c0.631-0.54,1.577-0.45,2.117,0.18l0,0c0.526,0.631,0.45,1.576-0.18,2.117l0,0c-0.285,0.24-0.63,0.345-0.96,0.345l0,0
				C339.263,37.841,338.842,37.661,338.542,37.316z M275.105,31.805c-0.526-0.631-0.451-1.577,0.195-2.102l0,0c0,0,0,0-0.015,0l0,0
				c0.646-0.541,1.592-0.451,2.117,0.18l0,0c0.54,0.631,0.45,1.577-0.18,2.117l0,0c-0.285,0.225-0.631,0.345-0.96,0.345l0,0
				C275.826,32.346,275.405,32.165,275.105,31.805z M333.167,31.956c-0.631-0.526-0.721-1.487-0.18-2.117l0,0
				c0.526-0.631,1.471-0.721,2.117-0.18l0,0c0.63,0.526,0.721,1.471,0.18,2.117l0,0c-0.3,0.345-0.721,0.526-1.156,0.526l0,0
				C333.797,32.301,333.452,32.195,333.167,31.956z M281.381,27.09c-0.42-0.721-0.165-1.636,0.541-2.057l0,0
				c0.721-0.405,1.637-0.165,2.056,0.556l0,0c0.421,0.706,0.166,1.636-0.54,2.057l0,0c-0.24,0.135-0.496,0.195-0.751,0.195l0,0
				C282.162,27.841,281.651,27.571,281.381,27.09z M326.951,27.601c-0.721-0.405-0.961-1.336-0.54-2.042l0,0
				c0.405-0.721,1.321-0.976,2.042-0.556l0,0c0.721,0.421,0.961,1.337,0.556,2.042l0,0c-0.285,0.495-0.781,0.765-1.306,0.765l0,0
				C327.446,27.811,327.191,27.736,326.951,27.601z M288.378,23.532c-0.285-0.781,0.12-1.652,0.901-1.921l0,0
				c0.781-0.301,1.636,0.105,1.921,0.886l0,0c0.285,0.781-0.12,1.636-0.901,1.922l0,0c-0.165,0.06-0.345,0.089-0.51,0.089l0,0
				C289.174,24.508,288.603,24.132,288.378,23.532z M320.074,24.403c-0.781-0.285-1.186-1.141-0.901-1.921l0,0
				c0.286-0.781,1.141-1.186,1.922-0.901l0,0c0.781,0.285,1.186,1.141,0.901,1.921l0,0c-0.226,0.616-0.796,0.991-1.411,0.991l0,0
				C320.419,24.493,320.239,24.463,320.074,24.403z M295.885,21.25c-0.135-0.826,0.405-1.606,1.231-1.741l0,0
				c0.811-0.15,1.592,0.39,1.726,1.216l0,0c0.15,0.81-0.39,1.591-1.216,1.741l0,0c-0.09,0.015-0.166,0.015-0.256,0.015l0,0
				C296.651,22.481,296.02,21.97,295.885,21.25z M312.747,22.451c-0.811-0.15-1.367-0.916-1.216-1.742l0,0
				c0.135-0.811,0.916-1.367,1.726-1.216l0,0l0,0l0,0c0.826,0.135,1.367,0.916,1.232,1.742l0,0
				c-0.136,0.721-0.766,1.231-1.487,1.231l0,0C312.927,22.466,312.837,22.466,312.747,22.451z M305.179,21.805
				c-0.826,0-1.502-0.676-1.502-1.502l0,0c0-0.826,0.676-1.502,1.502-1.502l0,0c0.841,0,1.502,0.661,1.517,1.502l0,0
				c0,0.826-0.676,1.502-1.501,1.502l0,0C304.354,21.805,305.195,21.805,305.179,21.805z"/>
		</g>
		<g>
			<path fill="#32BD9F" d="M350.268,66.849c-0.195,0-0.39-0.045-0.585-0.12c-0.18-0.075-0.345-0.18-0.481-0.33
				c-0.135-0.136-0.255-0.301-0.33-0.481c-0.076-0.18-0.106-0.375-0.106-0.57c0-0.105,0-0.195,0.03-0.301
				c0.015-0.089,0.046-0.195,0.076-0.285c0.045-0.09,0.09-0.165,0.15-0.255c0.045-0.075,0.105-0.15,0.18-0.225
				c0.136-0.135,0.301-0.255,0.481-0.331c0.556-0.225,1.231-0.089,1.652,0.331c0.059,0.075,0.12,0.15,0.18,0.225
				c0.046,0.09,0.106,0.165,0.136,0.255c0.03,0.09,0.06,0.196,0.09,0.285c0.015,0.106,0.029,0.196,0.029,0.301
				c0,0.195-0.045,0.391-0.12,0.57c-0.075,0.18-0.18,0.345-0.315,0.481C351.049,66.684,350.659,66.849,350.268,66.849z"/>
		</g>
	</g>
	<g>
		<g>
			<path fill="#32BD9F" d="M278.633,66.849c-0.39,0-0.781-0.165-1.066-0.45c-0.27-0.27-0.436-0.66-0.436-1.051
				c0-0.405,0.166-0.781,0.436-1.066c0.421-0.42,1.096-0.556,1.637-0.331c0.195,0.076,0.345,0.196,0.495,0.331
				c0.271,0.285,0.436,0.661,0.436,1.066c0,0.09-0.015,0.195-0.03,0.285c-0.015,0.106-0.045,0.195-0.089,0.285
				c-0.03,0.09-0.075,0.18-0.136,0.255c-0.06,0.09-0.12,0.166-0.18,0.226C279.414,66.684,279.024,66.849,278.633,66.849z"/>
		</g>
		<g>
			<path fill="#32BD9F" d="M279.279,59.282c-0.795-0.225-1.246-1.066-1.006-1.861l0,0c0.225-0.796,1.066-1.246,1.861-1.021l0,0
				c0.781,0.24,1.246,1.066,1.007,1.862l0,0c-0.18,0.661-0.781,1.081-1.442,1.081l0,0C279.564,59.342,279.429,59.327,279.279,59.282
				z M329.293,58.246L329.293,58.246c-0.24-0.795,0.21-1.636,1.006-1.861l0,0c0.796-0.241,1.636,0.21,1.862,1.006l0,0
				c0.24,0.795-0.21,1.636-1.007,1.861l0,0c-0.149,0.046-0.285,0.076-0.42,0.076l0,0C330.074,59.327,329.488,58.892,329.293,58.246z
				 M282.041,52.225c-0.705-0.451-0.9-1.382-0.45-2.073l0,0l0,0l0,0c0.45-0.705,1.381-0.9,2.072-0.45l0,0
				c0.706,0.45,0.901,1.381,0.451,2.072l0,0c-0.286,0.451-0.766,0.691-1.262,0.691l0,0C282.567,52.465,282.297,52.39,282.041,52.225
				z M326.32,51.76c-0.451-0.691-0.255-1.622,0.435-2.073l0,0c0.705-0.45,1.636-0.255,2.087,0.436l0,0c0,0,0,0-0.015,0l0,0
				c0.465,0.706,0.255,1.637-0.436,2.087l0,0c-0.255,0.165-0.54,0.241-0.811,0.241l0,0C327.086,52.451,326.605,52.21,326.32,51.76z
				 M286.682,46.234c-0.556-0.63-0.481-1.576,0.15-2.117l0,0l0,0l0,0c0.616-0.555,1.562-0.48,2.117,0.15l0,0
				c0.54,0.631,0.465,1.577-0.15,2.117l0,0c-0.285,0.241-0.645,0.36-0.99,0.36l0,0C287.387,46.744,286.967,46.579,286.682,46.234z
				 M321.635,46.369L321.635,46.369c-0.631-0.54-0.705-1.486-0.15-2.117l0,0c0.541-0.631,1.487-0.691,2.117-0.15l0,0l0,0l0,0
				c0.616,0.54,0.691,1.486,0.15,2.117l0,0c-0.301,0.345-0.721,0.51-1.142,0.51l0,0C322.266,46.73,321.921,46.61,321.635,46.369z
				 M292.808,41.774c-0.346-0.751-0.015-1.636,0.735-1.982l0,0l0,0l0,0c0.751-0.345,1.652-0.015,1.997,0.736l0,0
				c0.345,0.751,0.015,1.651-0.751,1.996l0,0c-0.195,0.09-0.405,0.136-0.616,0.136l0,0C293.603,42.661,293.047,42.33,292.808,41.774
				z M315.63,42.511L315.63,42.511c-0.751-0.345-1.096-1.231-0.751-1.982l0,0c0.345-0.766,1.246-1.096,1.997-0.751l0,0
				c0.751,0.345,1.081,1.231,0.735,1.996l0,0c-0.24,0.541-0.795,0.871-1.366,0.871l0,0C316.035,42.645,315.825,42.601,315.63,42.511
				z M299.94,39.237c-0.12-0.825,0.45-1.576,1.276-1.696l0,0l0,0l0,0c0.811-0.12,1.577,0.451,1.697,1.276l0,0
				c0.12,0.811-0.451,1.576-1.276,1.697l0,0c-0.075,0-0.136,0.015-0.21,0.015l0,0C300.69,40.529,300.044,39.988,299.94,39.237z
				 M308.783,40.513L308.783,40.513c-0.826-0.12-1.396-0.886-1.276-1.712l0,0c0.106-0.81,0.871-1.381,1.697-1.261l0,0
				c0,0,0,0,0-0.015l0,0c0.826,0.12,1.396,0.886,1.276,1.711l0,0c-0.105,0.751-0.751,1.292-1.486,1.292l0,0
				C308.918,40.529,308.843,40.513,308.783,40.513z"/>
		</g>
		<g>
			<path fill="#32BD9F" d="M331.816,66.849c-0.405,0-0.781-0.165-1.067-0.435c-0.075-0.075-0.135-0.15-0.195-0.241
				c-0.045-0.075-0.09-0.165-0.135-0.255c-0.03-0.09-0.06-0.18-0.075-0.285c-0.03-0.09-0.03-0.195-0.03-0.285
				c0-0.39,0.15-0.781,0.435-1.066c0.556-0.556,1.562-0.556,2.117,0c0.285,0.285,0.451,0.676,0.451,1.066
				c0,0.09-0.015,0.195-0.03,0.285c-0.03,0.106-0.06,0.195-0.09,0.285c-0.045,0.09-0.09,0.18-0.135,0.255
				c-0.06,0.09-0.12,0.166-0.195,0.241c-0.06,0.06-0.135,0.12-0.225,0.18c-0.075,0.045-0.165,0.105-0.255,0.135
				c-0.09,0.045-0.195,0.075-0.285,0.09C332.011,66.835,331.905,66.849,331.816,66.849z"/>
		</g>
	</g>
	<g>
		<g>
			<path fill="#32BD9F" d="M460.011,74.357c-0.406,0-0.782-0.165-1.066-0.45c-0.075-0.06-0.135-0.136-0.18-0.226
				c-0.06-0.075-0.106-0.165-0.15-0.255c-0.031-0.09-0.06-0.18-0.076-0.285c-0.029-0.09-0.029-0.195-0.029-0.285
				c0-0.105,0-0.195,0.029-0.301c0.016-0.089,0.045-0.18,0.076-0.285c0.044-0.09,0.089-0.165,0.15-0.255
				c0.045-0.075,0.106-0.15,0.18-0.225c0.135-0.135,0.301-0.255,0.481-0.331c0.375-0.15,0.795-0.15,1.155,0
				c0.18,0.075,0.346,0.196,0.481,0.331c0.075,0.075,0.135,0.15,0.195,0.225c0.045,0.09,0.104,0.165,0.135,0.255
				c0.046,0.106,0.06,0.196,0.089,0.285c0.016,0.106,0.031,0.196,0.031,0.301c0,0.09-0.015,0.195-0.031,0.285
				c-0.029,0.106-0.044,0.195-0.089,0.285c-0.031,0.09-0.089,0.18-0.135,0.255c-0.06,0.09-0.12,0.166-0.195,0.226
				C460.791,74.192,460.401,74.357,460.011,74.357z"/>
		</g>
		<g>
			<path fill="#32BD9F" d="M391.979,138.199c-0.825-0.06-1.456-0.765-1.396-1.592l0,0c0.045-0.826,0.751-1.456,1.576-1.411l0,0
				c0.827,0.06,1.472,0.766,1.412,1.592l0,0c-0.045,0.795-0.705,1.411-1.501,1.411l0,0
				C392.039,138.199,392.009,138.199,391.979,138.199z M398.6,136.788c-0.044-0.826,0.587-1.547,1.412-1.592l0,0
				c0.826-0.06,1.531,0.57,1.591,1.397l0,0c0.045,0.826-0.585,1.546-1.411,1.592l0,0c-0.031,0-0.06,0.015-0.091,0.015l0,0
				C399.307,138.199,398.66,137.583,398.6,136.788z M383.826,137.178c0,0,0,0,0,0.015l0,0c-0.811-0.165-1.35-0.946-1.201-1.757l0,0
				c0.166-0.826,0.946-1.351,1.757-1.202l0,0c0.826,0.15,1.352,0.931,1.201,1.757l0,0c-0.135,0.721-0.765,1.216-1.471,1.216l0,0
				C384.021,137.208,383.932,137.193,383.826,137.178z M406.589,135.977c-0.15-0.826,0.39-1.606,1.201-1.757l0,0
				c0.811-0.165,1.607,0.375,1.757,1.186l0,0c0.151,0.811-0.375,1.606-1.201,1.757l0,0c0,0,0,0,0.015,0l0,0
				c-0.104,0.015-0.195,0.03-0.285,0.03l0,0C407.354,137.193,406.738,136.683,406.589,135.977z M375.869,135.151
				c-0.796-0.256-1.231-1.096-0.976-1.892l0,0c0.255-0.781,1.111-1.216,1.892-0.961l0,0c0.796,0.256,1.216,1.096,0.961,1.892l0,0
				c-0.195,0.631-0.796,1.036-1.427,1.036l0,0C376.169,135.226,376.019,135.196,375.869,135.151z M414.411,134.16
				c-0.255-0.796,0.18-1.636,0.977-1.892l0,0c0.78-0.255,1.622,0.166,1.892,0.961l0,0c0.255,0.781-0.18,1.636-0.977,1.892l0,0l0,0
				l0,0c-0.149,0.045-0.301,0.075-0.45,0.075l0,0C415.207,135.196,414.621,134.791,414.411,134.16z M368.211,132.133
				c-0.751-0.36-1.066-1.246-0.721-1.997l0,0c0.361-0.751,1.246-1.081,1.997-0.721l0,0c0.751,0.345,1.081,1.246,0.721,1.997l0,0
				c-0.255,0.54-0.796,0.856-1.351,0.856l0,0C368.632,132.268,368.421,132.223,368.211,132.133z M421.948,131.368
				c-0.344-0.751-0.029-1.637,0.721-1.997l0,0c0.751-0.345,1.651-0.03,1.997,0.721l0,0c0.361,0.751,0.029,1.652-0.721,1.997l0,0
				c-0.195,0.105-0.419,0.15-0.63,0.15l0,0C422.744,132.238,422.204,131.908,421.948,131.368z M361.004,128.169
				c-0.691-0.45-0.901-1.366-0.466-2.072l0,0c0.45-0.705,1.381-0.901,2.072-0.465l0,0c0.706,0.451,0.916,1.367,0.466,2.073l0,0
				c-0.285,0.45-0.766,0.705-1.261,0.705l0,0C361.529,128.41,361.259,128.335,361.004,128.169z M429.065,127.659
				c-0.436-0.691-0.241-1.622,0.466-2.072l0,0c0.705-0.451,1.622-0.241,2.072,0.465l0,0c0.45,0.691,0.241,1.622-0.466,2.072l0,0
				c-0.239,0.15-0.525,0.24-0.795,0.24l0,0C429.847,128.365,429.351,128.109,429.065,127.659z M354.352,123.335
				c-0.63-0.526-0.721-1.471-0.195-2.102l0,0c0.526-0.646,1.471-0.736,2.117-0.21l0,0c0.631,0.526,0.721,1.471,0.196,2.117l0,0
				c-0.301,0.36-0.721,0.54-1.156,0.54l0,0C354.983,123.68,354.638,123.575,354.352,123.335z M435.672,123.094
				c-0.541-0.645-0.45-1.592,0.195-2.117l0,0c0.645-0.525,1.591-0.45,2.117,0.196l0,0c0.525,0.631,0.435,1.592-0.195,2.117l0,0l0,0
				l0,0c-0.286,0.226-0.631,0.345-0.962,0.345l0,0C436.392,123.635,435.973,123.455,435.672,123.094z M348.362,117.719
				c-0.571-0.6-0.541-1.546,0.059-2.116l0,0c0.616-0.571,1.562-0.541,2.133,0.06l0,0c0.57,0.6,0.54,1.546-0.06,2.117l0,0
				c-0.301,0.27-0.661,0.405-1.036,0.405l0,0C349.053,118.184,348.662,118.034,348.362,117.719z M441.647,117.734
				c-0.6-0.57-0.63-1.531-0.06-2.132l0,0c0.556-0.601,1.517-0.631,2.117-0.06l0,0c0.601,0.555,0.63,1.516,0.06,2.117l0,0l0,0l0,0
				c-0.284,0.315-0.691,0.481-1.081,0.481l0,0C442.309,118.14,441.933,118.004,441.647,117.734z M343.122,111.398
				c-0.496-0.66-0.345-1.606,0.331-2.102l0,0c0.66-0.48,1.606-0.331,2.086,0.331l0,0c0.496,0.675,0.345,1.606-0.33,2.102l0,0
				c-0.255,0.195-0.571,0.285-0.871,0.285l0,0C343.872,112.014,343.407,111.803,343.122,111.398z M446.919,111.668
				c-0.676-0.496-0.827-1.441-0.331-2.102l0,0c0.481-0.676,1.427-0.826,2.088-0.331l0,0c0.675,0.48,0.826,1.427,0.33,2.087l0,0
				c-0.286,0.405-0.751,0.63-1.216,0.63l0,0C447.489,111.953,447.174,111.849,446.919,111.668z M338.707,104.476L338.707,104.476
				L338.707,104.476c-0.405-0.721-0.15-1.636,0.586-2.042l0,0c0.721-0.405,1.636-0.136,2.042,0.585l0,0
				c0.39,0.721,0.135,1.637-0.6,2.042l0,0c-0.226,0.12-0.481,0.18-0.721,0.18l0,0C339.488,105.242,338.978,104.972,338.707,104.476z
				 M451.378,104.986c-0.721-0.405-0.991-1.321-0.585-2.042l0,0c0.405-0.721,1.305-0.991,2.041-0.586l0,0
				c0.721,0.391,0.991,1.306,0.587,2.042l0,0c-0.271,0.495-0.781,0.765-1.323,0.765l0,0
				C451.858,105.167,451.618,105.107,451.378,104.986z M335.194,97.044c-0.316-0.765,0.059-1.636,0.84-1.952l0,0
				c0.766-0.301,1.637,0.075,1.952,0.841l0,0c0.3,0.781-0.075,1.652-0.841,1.952l0,0c-0.195,0.076-0.375,0.106-0.556,0.106l0,0
				C335.99,97.99,335.419,97.645,335.194,97.044z M454.98,97.794c-0.765-0.3-1.155-1.171-0.84-1.937v-0.015
				c0.301-0.766,1.172-1.141,1.952-0.841l0,0c0.765,0.315,1.141,1.186,0.842,1.952l0,0l0,0l0,0
				c-0.241,0.586-0.811,0.946-1.397,0.946l0,0C455.341,97.9,455.16,97.87,454.98,97.794z M332.641,89.236
				c-0.21-0.796,0.27-1.622,1.081-1.832l0,0c0.795-0.21,1.621,0.285,1.817,1.081l0,0c0.21,0.811-0.271,1.622-1.066,1.831l0,0
				c-0.136,0.03-0.256,0.046-0.375,0.046l0,0C333.422,90.363,332.806,89.912,332.641,89.236z M457.639,90.212
				c-0.796-0.195-1.292-1.021-1.081-1.817l0,0c0.21-0.811,1.02-1.291,1.831-1.096l0,0c0.796,0.21,1.276,1.036,1.081,1.831l0,0
				c-0.18,0.676-0.795,1.126-1.456,1.126l0,0C457.894,90.257,457.759,90.242,457.639,90.212z M331.095,81.159
				c-0.106-0.811,0.48-1.562,1.306-1.667l0,0c0.811-0.105,1.562,0.481,1.667,1.292l0,0c0.105,0.825-0.466,1.576-1.292,1.681l0,0
				c-0.075,0.015-0.135,0.015-0.195,0.015l0,0C331.846,82.48,331.185,81.924,331.095,81.159z M459.32,82.36
				c-0.826-0.105-1.412-0.856-1.307-1.666l0,0c0.106-0.826,0.856-1.411,1.682-1.306l0,0c0.825,0.105,1.41,0.856,1.306,1.666l0,0
				c-0.106,0.766-0.751,1.321-1.487,1.321l0,0C459.455,82.374,459.38,82.374,459.32,82.36z"/>
		</g>
		<g>
			<path fill="#32BD9F" d="M332.071,74.357c-0.391,0-0.781-0.165-1.066-0.45c-0.136-0.136-0.241-0.301-0.315-0.481
				c-0.076-0.18-0.12-0.375-0.12-0.57s0.045-0.39,0.12-0.586c0.075-0.18,0.18-0.345,0.315-0.48c0.42-0.42,1.096-0.556,1.636-0.331
				c0.195,0.09,0.36,0.196,0.496,0.331c0.135,0.135,0.24,0.301,0.315,0.48c0.09,0.196,0.12,0.391,0.12,0.586s-0.03,0.391-0.12,0.57
				c-0.075,0.18-0.18,0.345-0.315,0.481c-0.136,0.149-0.301,0.255-0.496,0.33C332.461,74.312,332.266,74.357,332.071,74.357z"/>
		</g>
	</g>
	<g>
		<g>
			<path fill="#32BD9F" d="M441.272,74.357c-0.195,0-0.39-0.045-0.57-0.12c-0.18-0.075-0.344-0.18-0.496-0.33
				c-0.27-0.27-0.435-0.661-0.435-1.051c0-0.195,0.045-0.39,0.12-0.57c0.075-0.195,0.18-0.361,0.315-0.496
				c0.151-0.135,0.315-0.241,0.496-0.331c0.271-0.105,0.57-0.135,0.871-0.075c0.091,0.015,0.18,0.045,0.27,0.075
				c0.091,0.045,0.18,0.09,0.271,0.15c0.075,0.045,0.15,0.106,0.224,0.18c0.136,0.135,0.241,0.301,0.315,0.496
				c0.076,0.18,0.12,0.375,0.12,0.57c0,0.391-0.164,0.781-0.436,1.051c-0.075,0.075-0.149,0.135-0.224,0.195
				c-0.091,0.06-0.18,0.105-0.271,0.135c-0.089,0.046-0.179,0.076-0.27,0.09C441.467,74.342,441.377,74.357,441.272,74.357z"/>
		</g>
		<g>
			<path fill="#32BD9F" d="M394.577,118.08c0-0.826,0.661-1.502,1.502-1.502l0,0c0.826,0,1.501,0.675,1.501,1.502l0,0
				c0,0.826-0.676,1.502-1.501,1.502l0,0C395.238,119.581,394.577,118.92,394.577,118.08z M387.97,118.89
				c-0.826-0.136-1.365-0.916-1.23-1.742l0,0c0.149-0.811,0.915-1.367,1.742-1.216l0,0c0.809,0.136,1.365,0.916,1.216,1.742l0,0
				c-0.12,0.721-0.766,1.246-1.472,1.246l0,0C388.135,118.92,388.046,118.905,387.97,118.89z M402.445,117.659
				c-0.151-0.811,0.405-1.591,1.215-1.741l0,0c0.826-0.136,1.592,0.405,1.742,1.216l0,0c0.149,0.826-0.405,1.606-1.216,1.741l0,0
				c-0.091,0.015-0.18,0.03-0.271,0.03l0,0C403.21,118.905,402.565,118.395,402.445,117.659z M380.103,116.789
				c-0.781-0.27-1.186-1.141-0.901-1.922l0,0c0.27-0.781,1.141-1.171,1.922-0.901l0,0c0.78,0.285,1.172,1.156,0.9,1.922l0,0
				c-0.224,0.615-0.795,0.99-1.41,0.99l0,0C380.433,116.878,380.268,116.848,380.103,116.789z M410.133,115.872
				c-0.286-0.781,0.104-1.636,0.886-1.922l0,0c0.78-0.285,1.651,0.12,1.921,0.901l0,0c0.286,0.781-0.104,1.636-0.886,1.922l0,0
				c-0.18,0.06-0.345,0.09-0.525,0.09l0,0C410.927,116.863,410.342,116.488,410.133,115.872z M372.715,113.35
				c-0.721-0.405-0.961-1.322-0.556-2.042l0,0c0.421-0.721,1.336-0.976,2.057-0.555l0,0c0.721,0.42,0.961,1.336,0.54,2.056l0,0
				c-0.27,0.481-0.781,0.751-1.291,0.751l0,0C373.211,113.56,372.956,113.5,372.715,113.35z M417.369,112.779
				c-0.405-0.721-0.164-1.636,0.556-2.056l0,0c0.721-0.421,1.636-0.18,2.057,0.54l0,0c0.406,0.721,0.166,1.636-0.556,2.057l0,0
				c-0.24,0.135-0.496,0.195-0.751,0.195l0,0C418.165,113.515,417.655,113.26,417.369,112.779z M366.034,108.695c0,0,0,0,0.015,0
				l0,0c-0.646-0.54-0.721-1.487-0.195-2.117l0,0c0.54-0.645,1.486-0.721,2.117-0.195l0,0c0.631,0.54,0.721,1.486,0.18,2.117l0,0
				c-0.285,0.36-0.721,0.54-1.141,0.54l0,0C366.665,109.041,366.319,108.92,366.034,108.695z M423.976,108.455
				c-0.541-0.631-0.45-1.576,0.18-2.117l0,0c0.631-0.525,1.591-0.45,2.117,0.196l0,0c0.54,0.631,0.45,1.576-0.18,2.102l0,0
				c-0.286,0.24-0.631,0.36-0.962,0.36l0,0C424.696,108.995,424.276,108.816,423.976,108.455z M360.284,102.93L360.284,102.93
				L360.284,102.93c-0.541-0.631-0.465-1.577,0.18-2.103l0,0c0.631-0.54,1.577-0.465,2.117,0.18l0,0
				c0.526,0.63,0.45,1.576-0.195,2.117l0,0c-0.271,0.225-0.616,0.345-0.961,0.345l0,0C361.004,103.47,360.583,103.29,360.284,102.93
				z M429.727,103.065c-0.631-0.526-0.705-1.471-0.18-2.117l0,0c0.525-0.63,1.487-0.705,2.117-0.18l0,0
				c0.63,0.541,0.72,1.487,0.18,2.117l0,0c-0.301,0.361-0.721,0.54-1.142,0.54l0,0C430.357,103.425,430.011,103.305,429.727,103.065
				z M355.599,96.278c-0.421-0.721-0.18-1.636,0.54-2.057l0,0c0.721-0.405,1.636-0.165,2.057,0.556l0,0
				c0.405,0.705,0.165,1.636-0.556,2.042l0,0c-0.225,0.135-0.496,0.21-0.751,0.21l0,0C356.38,97.029,355.869,96.759,355.599,96.278z
				 M434.471,96.759c-0.721-0.405-0.962-1.336-0.556-2.042l0,0c0.419-0.721,1.336-0.961,2.057-0.556l0,0
				c0.72,0.421,0.96,1.336,0.556,2.057l0,0c-0.286,0.48-0.796,0.751-1.307,0.751l0,0C434.967,96.969,434.71,96.894,434.471,96.759z
				 M352.145,88.906c-0.285-0.781,0.106-1.636,0.886-1.922l0,0c0.781-0.285,1.636,0.12,1.921,0.886l0,0
				c0.285,0.781-0.105,1.652-0.886,1.937l0,0c-0.18,0.06-0.345,0.09-0.526,0.09l0,0C352.941,89.897,352.355,89.522,352.145,88.906z
				 M438.045,89.732c-0.781-0.286-1.186-1.141-0.902-1.922l0,0c0.286-0.781,1.142-1.186,1.922-0.901l0,0
				c0.782,0.285,1.186,1.156,0.9,1.922l0,0c-0.224,0.615-0.795,0.99-1.411,0.99l0,0C438.389,89.821,438.209,89.792,438.045,89.732z
				 M350.028,81.038L350.028,81.038L350.028,81.038c-0.15-0.811,0.39-1.592,1.216-1.727l0,0c0.811-0.149,1.592,0.391,1.741,1.216
				h-0.015c0.15,0.811-0.391,1.592-1.216,1.727l0,0c-0.075,0.015-0.165,0.03-0.255,0.03l0,0
				C350.779,82.285,350.149,81.774,350.028,81.038z M440.326,82.195c-0.811-0.15-1.35-0.931-1.215-1.742l0,0
				c0.149-0.811,0.915-1.367,1.742-1.216l0,0c0.811,0.135,1.365,0.916,1.216,1.727l0,0c-0.12,0.736-0.751,1.246-1.471,1.246l0,0
				C440.507,82.209,440.417,82.209,440.326,82.195z"/>
		</g>
		<g>
			<path fill="none" d="M351.875,73.921c-0.15,0.135-0.315,0.24-0.496,0.315c-0.18,0.076-0.375,0.12-0.57,0.12
				c-0.106,0-0.195-0.015-0.301-0.03c-0.09-0.03-0.18-0.045-0.27-0.09c-0.09-0.03-0.18-0.09-0.271-0.135
				c-0.076-0.06-0.15-0.12-0.225-0.18c-0.271-0.285-0.436-0.675-0.436-1.066c0-0.405,0.165-0.781,0.436-1.066
				c0.075-0.075,0.149-0.135,0.225-0.18c0.09-0.06,0.18-0.105,0.271-0.15c0.089-0.03,0.18-0.059,0.27-0.075
				c0.301-0.06,0.6-0.03,0.871,0.075c0.18,0.075,0.345,0.196,0.496,0.331"/>
		</g>
	</g>
	<g>
		<g>
			<path fill="#32BD9F" d="M422.383,65.348c-0.104,0-0.195-0.015-0.299-0.03c-0.091-0.03-0.195-0.045-0.286-0.09
				c-0.089-0.03-0.18-0.09-0.255-0.135c-0.075-0.06-0.166-0.12-0.226-0.195c-0.284-0.271-0.436-0.661-0.436-1.051
				c0-0.405,0.151-0.795,0.436-1.066c0.06-0.075,0.151-0.135,0.226-0.18c0.075-0.06,0.166-0.105,0.255-0.15
				c0.091-0.03,0.195-0.059,0.286-0.075c0.496-0.105,1.006,0.06,1.35,0.405c0.075,0.075,0.135,0.15,0.195,0.225
				c0.045,0.09,0.106,0.165,0.136,0.255c0.044,0.106,0.059,0.196,0.089,0.285c0.015,0.106,0.029,0.196,0.029,0.301
				c0,0.391-0.164,0.781-0.45,1.051C423.165,65.183,422.775,65.348,422.383,65.348z"/>
		</g>
		<g>
			<path fill="#32BD9F" d="M422.789,57.495c-0.811-0.15-1.352-0.916-1.217-1.742l0,0l0,0l0,0c0.151-0.811,0.931-1.366,1.742-1.216
				l0,0c0.811,0.136,1.367,0.916,1.217,1.742l0,0c-0.12,0.721-0.751,1.232-1.472,1.232l0,0
				C422.97,57.511,422.879,57.511,422.789,57.495z M510.296,56.204c-0.151-0.811,0.405-1.592,1.216-1.742l0,0
				c0.811-0.135,1.592,0.405,1.742,1.216l0,0c0,0,0,0,0,0.015l0,0c0.15,0.811-0.406,1.592-1.217,1.727l0,0
				c-0.089,0.015-0.179,0.03-0.255,0.03l0,0C511.061,57.45,510.416,56.939,510.296,56.204z M424.561,49.837
				c-0.765-0.285-1.17-1.141-0.886-1.921l0,0l0,0l0,0c0.27-0.781,1.141-1.172,1.922-0.901l0,0c0.78,0.285,1.186,1.156,0.9,1.937l0,0
				c-0.224,0.6-0.796,0.976-1.411,0.976l0,0C424.907,49.928,424.741,49.898,424.561,49.837z M508.328,48.892
				c-0.285-0.781,0.106-1.652,0.886-1.937l0,0c0.782-0.285,1.652,0.12,1.937,0.901l0,0c0.286,0.781-0.12,1.636-0.9,1.922l0,0
				c-0.166,0.06-0.346,0.09-0.51,0.09l0,0C509.124,49.868,508.554,49.492,508.328,48.892z M427.655,42.615
				c-0.721-0.405-0.962-1.321-0.556-2.042l0,0c0.421-0.721,1.336-0.961,2.057-0.556l0,0c0.72,0.421,0.96,1.336,0.539,2.057l0,0
				c-0.27,0.48-0.78,0.751-1.29,0.751l0,0C428.15,42.826,427.879,42.766,427.655,42.615z M505.1,42.015h0.015
				c-0.421-0.721-0.18-1.636,0.54-2.042l0,0c0.707-0.421,1.638-0.18,2.043,0.54l0,0c0,0,0,0,0.015,0l0,0
				c0.406,0.721,0.166,1.636-0.556,2.057l0,0c-0.239,0.135-0.494,0.195-0.751,0.195l0,0C505.895,42.766,505.385,42.496,505.1,42.015
				z M431.948,36.039c-0.645-0.526-0.72-1.471-0.195-2.102l0,0l0,0l0,0c0.541-0.646,1.487-0.721,2.117-0.195l0,0
				c0.645,0.54,0.721,1.486,0.195,2.117h-0.015c-0.286,0.361-0.721,0.541-1.141,0.541l0,0
				C432.564,36.4,432.219,36.28,431.948,36.039z M500.746,35.814c-0.541-0.631-0.45-1.576,0.18-2.117l0,0
				c0.631-0.54,1.576-0.45,2.117,0.18l0,0l0,0l0,0c0.525,0.63,0.45,1.576-0.18,2.117l0,0c-0.286,0.24-0.63,0.36-0.977,0.36l0,0
				C501.467,36.354,501.032,36.159,500.746,35.814z M437.309,30.304c-0.541-0.63-0.45-1.577,0.18-2.102l0,0
				c0.63-0.541,1.591-0.465,2.117,0.18l0,0c0.525,0.631,0.45,1.577-0.18,2.117l0,0c-0.286,0.225-0.631,0.345-0.977,0.345l0,0
				C438.03,30.844,437.609,30.664,437.309,30.304z M495.37,30.454L495.37,30.454c-0.645-0.526-0.72-1.487-0.195-2.117l0,0
				c0.541-0.63,1.487-0.721,2.117-0.18l0,0c0.645,0.526,0.72,1.471,0.195,2.117l0,0c-0.301,0.345-0.721,0.526-1.157,0.526l0,0
				C495.986,30.799,495.656,30.694,495.37,30.454z M443.584,25.589c-0.419-0.721-0.18-1.636,0.541-2.057l0,0
				c0.72-0.405,1.636-0.165,2.057,0.556l0,0c0.405,0.721,0.164,1.636-0.556,2.042l0,0c-0.226,0.15-0.496,0.21-0.751,0.21l0,0
				C444.366,26.34,443.855,26.069,443.584,25.589z M489.155,26.099L489.155,26.099c-0.721-0.405-0.962-1.336-0.556-2.042l0,0
				c0.421-0.721,1.336-0.976,2.057-0.556l0,0l0,0l0,0c0.705,0.421,0.96,1.337,0.54,2.057l0,0c-0.27,0.48-0.78,0.751-1.29,0.751l0,0
				C489.65,26.31,489.395,26.235,489.155,26.099z M450.581,22.03c-0.284-0.781,0.12-1.652,0.886-1.922l0,0c0,0,0,0,0-0.015l0,0
				c0.781-0.285,1.652,0.12,1.937,0.901l0,0c0.286,0.781-0.12,1.636-0.9,1.922l0,0c-0.166,0.075-0.346,0.089-0.51,0.089l0,0
				C451.378,23.006,450.807,22.631,450.581,22.03z M482.278,22.901c-0.782-0.285-1.186-1.141-0.902-1.922l0,0
				c0.286-0.781,1.142-1.186,1.922-0.901l0,0c0.782,0.285,1.186,1.141,0.902,1.922l0,0c-0.226,0.616-0.796,0.991-1.412,0.991l0,0
				C482.622,22.991,482.442,22.961,482.278,22.901z M458.089,19.733c-0.135-0.811,0.406-1.592,1.217-1.727l0,0
				c0.826-0.15,1.606,0.39,1.741,1.216l0,0c0.151,0.81-0.405,1.591-1.216,1.741l0,0c-0.089,0.015-0.18,0.015-0.255,0.015l0,0
				C458.854,20.98,458.224,20.469,458.089,19.733z M474.951,20.95L474.951,20.95c-0.827-0.136-1.367-0.916-1.217-1.742l0,0
				c0.135-0.811,0.917-1.367,1.727-1.216l0,0c0.826,0.135,1.367,0.916,1.216,1.742l0,0c-0.12,0.721-0.751,1.231-1.471,1.231l0,0
				C475.115,20.964,475.04,20.964,474.951,20.95z M465.882,18.802c0-0.825,0.676-1.501,1.501-1.501l0,0
				c0.825,0,1.502,0.661,1.502,1.501l0,0c0,0.826-0.661,1.502-1.502,1.502l0,0C466.558,20.304,465.882,19.628,465.882,18.802z"/>
		</g>
		<g>
			<path fill="#32BD9F" d="M512.457,65.348c-0.39,0-0.78-0.165-1.051-0.45c-0.284-0.271-0.45-0.661-0.45-1.051
				c0-0.195,0.045-0.39,0.12-0.586c0.075-0.18,0.18-0.345,0.33-0.48c0.556-0.556,1.562-0.556,2.117,0
				c0.135,0.135,0.255,0.301,0.331,0.48c0.075,0.196,0.104,0.391,0.104,0.586c0,0.391-0.149,0.781-0.435,1.051
				C513.253,65.183,512.863,65.348,512.457,65.348z"/>
		</g>
	</g>
	<g>
		<g>
			<path fill="#32BD9F" d="M440.836,65.348c-0.39,0-0.78-0.165-1.066-0.45c-0.06-0.06-0.135-0.136-0.18-0.226
				c-0.059-0.075-0.104-0.165-0.15-0.255c-0.029-0.09-0.06-0.18-0.075-0.285c-0.031-0.09-0.031-0.195-0.031-0.285
				c0-0.195,0.031-0.39,0.106-0.586c0.075-0.18,0.195-0.345,0.33-0.48c0.556-0.556,1.562-0.556,2.117,0
				c0.151,0.135,0.255,0.301,0.33,0.48c0.076,0.196,0.12,0.391,0.12,0.586c0,0.391-0.164,0.781-0.45,1.051
				C441.618,65.183,441.228,65.348,440.836,65.348z"/>
		</g>
		<g>
			<path fill="#32BD9F" d="M441.483,57.78c-0.796-0.225-1.246-1.066-1.022-1.861l0,0l0,0l0,0c0.24-0.796,1.066-1.246,1.862-1.021
				l0,0c0.796,0.241,1.261,1.066,1.021,1.862l0,0c-0.195,0.66-0.795,1.081-1.441,1.081l0,0
				C441.767,57.84,441.618,57.826,441.483,57.78z M491.482,56.744c-0.226-0.795,0.226-1.636,1.02-1.861l0,0
				c0.796-0.24,1.636,0.21,1.862,1.006l0,0c0,0,0,0,0,0.015l0,0c0.24,0.781-0.21,1.622-1.006,1.862l0,0
				c-0.149,0.03-0.286,0.06-0.435,0.06l0,0C492.278,57.826,491.677,57.39,491.482,56.744z M444.246,50.724
				c-0.705-0.451-0.902-1.382-0.45-2.073l0,0c0.45-0.705,1.367-0.9,2.072-0.45l0,0c0.691,0.45,0.9,1.381,0.45,2.072l0,0
				c-0.286,0.451-0.765,0.691-1.261,0.691l0,0C444.771,50.964,444.486,50.889,444.246,50.724z M488.508,50.258
				c-0.45-0.706-0.255-1.622,0.452-2.073l0,0c0.691-0.45,1.622-0.255,2.072,0.435l0,0c0.45,0.706,0.255,1.637-0.45,2.087l0,0
				c-0.24,0.165-0.526,0.24-0.811,0.24l0,0C489.29,50.949,488.794,50.694,488.508,50.258z M448.87,44.733
				c-0.541-0.631-0.466-1.576,0.15-2.117l0,0c0.631-0.555,1.576-0.48,2.132,0.15l0,0c0.541,0.616,0.466,1.577-0.164,2.117l0,0
				c-0.286,0.24-0.631,0.36-0.977,0.36l0,0C449.59,45.243,449.171,45.078,448.87,44.733z M483.825,44.868
				c-0.616-0.54-0.692-1.486-0.151-2.117l0,0c0.556-0.63,1.502-0.691,2.117-0.15l0,0c0.631,0.54,0.705,1.486,0.15,2.117l0,0
				c-0.284,0.345-0.705,0.51-1.126,0.51l0,0C484.47,45.228,484.109,45.108,483.825,44.868z M455.011,40.273
				c-0.361-0.751-0.031-1.636,0.736-1.982l0,0c0.751-0.345,1.636-0.015,1.981,0.736l0,0c0.346,0.751,0.016,1.651-0.735,1.996l0,0
				c-0.211,0.09-0.421,0.136-0.63,0.136l0,0C455.791,41.159,455.251,40.829,455.011,40.273z M477.834,41.009
				c-0.765-0.345-1.097-1.231-0.751-1.982l0,0c0.345-0.766,1.23-1.096,1.997-0.751l0,0c0.751,0.345,1.081,1.231,0.735,1.996l0,0
				c-0.255,0.541-0.795,0.871-1.365,0.871l0,0C478.238,41.144,478.029,41.099,477.834,41.009z M462.143,37.736
				c-0.12-0.826,0.45-1.576,1.276-1.697l0,0c0.811-0.12,1.578,0.451,1.696,1.276l0,0c0.12,0.811-0.45,1.576-1.276,1.696l0,0
				c-0.075,0-0.15,0.015-0.21,0.015l0,0C462.894,39.027,462.248,38.486,462.143,37.736z M470.986,39.012
				c-0.826-0.12-1.396-0.886-1.276-1.712l0,0c0.106-0.81,0.871-1.381,1.697-1.261l0,0c0.811,0.105,1.381,0.871,1.276,1.697l0,0
				c-0.119,0.751-0.751,1.292-1.485,1.292l0,0C471.121,39.027,471.046,39.012,470.986,39.012z"/>
		</g>
		<g>
			<path fill="#32BD9F" d="M494.004,65.348c-0.39,0-0.78-0.165-1.066-0.45c-0.27-0.271-0.436-0.661-0.436-1.051
				c0-0.405,0.166-0.781,0.436-1.066c0.57-0.556,1.576-0.556,2.132,0c0.286,0.285,0.436,0.661,0.436,1.066
				c0,0.391-0.15,0.781-0.436,1.051C494.785,65.183,494.41,65.348,494.004,65.348z"/>
		</g>
	</g>
	<g>
		<g>
			<path fill="#32BD9F" d="M603.476,72.855c-0.405,0-0.78-0.165-1.066-0.45c-0.27-0.27-0.435-0.66-0.435-1.051
				c0-0.405,0.166-0.795,0.435-1.066c0.556-0.556,1.576-0.556,2.132,0c0.27,0.285,0.436,0.66,0.436,1.066
				c0,0.391-0.166,0.781-0.436,1.051C604.257,72.69,603.866,72.855,603.476,72.855z"/>
		</g>
		<g>
			<path fill="#32BD9F" d="M556.765,116.578c0-0.826,0.676-1.501,1.502-1.501l0,0c0.842,0,1.501,0.675,1.518,1.501l0,0
				c0,0.826-0.676,1.502-1.518,1.502l0,0C557.441,118.08,556.765,117.419,556.765,116.578z M550.159,117.389c0,0,0,0,0.015,0l0,0
				c-0.826-0.136-1.367-0.916-1.232-1.727l0,0c0.136-0.826,0.916-1.382,1.742-1.232l0,0c0.811,0.136,1.367,0.916,1.217,1.742l0,0
				c-0.12,0.721-0.767,1.246-1.472,1.246l0,0C550.339,117.419,550.249,117.404,550.159,117.389z M564.648,116.157
				c-0.15-0.811,0.406-1.591,1.217-1.741l0,0c0.811-0.136,1.591,0.405,1.742,1.216l0,0c0.135,0.825-0.406,1.606-1.217,1.741l0,0
				c-0.089,0.015-0.18,0.03-0.27,0.03l0,0C565.414,117.404,564.768,116.878,564.648,116.157z M542.291,115.287
				c-0.78-0.27-1.172-1.141-0.9-1.922l0,0c0.284-0.781,1.155-1.171,1.937-0.901l0,0c0.78,0.285,1.17,1.156,0.886,1.937l0,0
				c-0.211,0.6-0.796,0.976-1.412,0.976l0,0C542.637,115.376,542.471,115.346,542.291,115.287z M572.321,114.371
				c-0.284-0.781,0.12-1.636,0.9-1.922l0,0c0.781-0.285,1.638,0.12,1.922,0.901l0,0c0.286,0.765-0.12,1.636-0.886,1.922l0,0
				c-0.18,0.06-0.345,0.09-0.525,0.09l0,0C573.117,115.362,572.546,114.986,572.321,114.371z M534.919,111.849L534.919,111.849
				L534.919,111.849c-0.72-0.405-0.975-1.322-0.556-2.043l0,0c0.421-0.721,1.337-0.96,2.057-0.555l0,0
				c0.707,0.42,0.962,1.336,0.541,2.056l0,0c-0.27,0.481-0.782,0.751-1.307,0.751l0,0
				C535.414,112.058,535.145,111.998,534.919,111.849z M579.573,111.278c-0.421-0.721-0.166-1.636,0.556-2.056l0,0
				c0.705-0.421,1.636-0.18,2.043,0.54l0,0c0.419,0.721,0.179,1.636-0.541,2.057l0,0c-0.24,0.135-0.496,0.21-0.751,0.21l0,0
				C580.353,112.028,579.859,111.758,579.573,111.278z M528.237,107.194c-0.631-0.54-0.72-1.487-0.179-2.117l0,0
				c0.525-0.645,1.471-0.721,2.116-0.195l0,0c0.63,0.54,0.707,1.486,0.18,2.117l0,0c-0.301,0.36-0.72,0.54-1.156,0.54l0,0
				C528.869,107.539,528.523,107.419,528.237,107.194z M586.18,106.953c-0.541-0.631-0.452-1.576,0.179-2.117l0,0
				c0.632-0.525,1.578-0.45,2.117,0.196l0,0c0.526,0.631,0.452,1.576-0.18,2.102l0,0c-0.284,0.24-0.631,0.36-0.975,0.36l0,0
				C586.9,107.494,586.479,107.314,586.18,106.953z M522.471,101.443c-0.525-0.646-0.45-1.592,0.195-2.117l0,0
				c0.631-0.54,1.578-0.465,2.103,0.18l0,0c0.541,0.631,0.45,1.576-0.18,2.117l0,0c-0.27,0.225-0.616,0.345-0.96,0.345l0,0
				C523.208,101.969,522.772,101.789,522.471,101.443z M591.931,101.563c-0.632-0.526-0.721-1.471-0.18-2.117l0,0
				c0.525-0.631,1.471-0.705,2.116-0.18l0,0c0.632,0.541,0.707,1.487,0.18,2.117l0,0c-0.299,0.361-0.72,0.54-1.155,0.54l0,0
				C592.561,101.923,592.215,101.804,591.931,101.563z M517.787,94.777c-0.405-0.721-0.164-1.636,0.556-2.042l0,0
				c0.707-0.421,1.636-0.18,2.042,0.54h0.015c0.406,0.705,0.166,1.636-0.556,2.042l0,0c-0.241,0.15-0.496,0.21-0.751,0.21l0,0
				C518.568,95.527,518.073,95.257,517.787,94.777z M596.674,95.257c-0.72-0.405-0.96-1.321-0.556-2.042l0,0
				c0.421-0.721,1.337-0.961,2.057-0.556l0,0c0.721,0.421,0.962,1.337,0.541,2.057l0,0c-0.27,0.48-0.78,0.751-1.292,0.751l0,0
				C597.169,95.467,596.914,95.407,596.674,95.257z M514.334,87.404L514.334,87.404L514.334,87.404
				c-0.284-0.781,0.12-1.636,0.902-1.921l0,0c0.78-0.285,1.636,0.12,1.921,0.886l0,0c0.286,0.781-0.12,1.652-0.886,1.937l0,0
				c-0.18,0.06-0.344,0.09-0.525,0.09l0,0C515.145,88.396,514.56,88.02,514.334,87.404z M600.247,88.231
				c-0.78-0.286-1.185-1.141-0.9-1.922l0,0c0.286-0.781,1.141-1.186,1.922-0.901l0,0c0.78,0.285,1.186,1.156,0.9,1.937l0,0
				c-0.224,0.6-0.796,0.976-1.411,0.976l0,0C600.593,88.32,600.413,88.291,600.247,88.231z M512.216,79.537
				c-0.135-0.811,0.406-1.592,1.217-1.742l0,0c0.825-0.135,1.606,0.405,1.742,1.216v0.015c0.15,0.811-0.392,1.592-1.217,1.727l0,0
				c-0.089,0.015-0.18,0.03-0.255,0.03l0,0C512.983,80.783,512.353,80.272,512.216,79.537z M602.53,80.693
				c-0.811-0.15-1.352-0.931-1.215-1.742l0,0c0.149-0.811,0.915-1.367,1.74-1.216l0,0c0.811,0.135,1.367,0.916,1.217,1.742l0,0l0,0
				l0,0c-0.12,0.721-0.765,1.231-1.487,1.231l0,0C602.711,80.708,602.62,80.708,602.53,80.693z"/>
		</g>
		<g>
			<path fill="#32BD9F" d="M513.012,72.855c-0.405,0-0.78-0.165-1.066-0.45c-0.286-0.27-0.435-0.66-0.435-1.051
				c0-0.405,0.149-0.781,0.435-1.066c0.556-0.556,1.562-0.556,2.117,0c0.284,0.285,0.45,0.66,0.45,1.066
				c0,0.391-0.166,0.781-0.45,1.051C513.794,72.69,513.403,72.855,513.012,72.855z"/>
		</g>
	</g>
	<g>
		<g>
			<path fill="#32BD9F" d="M422.624,74.357c-0.089,0-0.195-0.015-0.284-0.03c-0.106-0.015-0.195-0.045-0.286-0.09
				c-0.089-0.03-0.18-0.075-0.255-0.135c-0.089-0.06-0.166-0.12-0.226-0.195c-0.15-0.136-0.255-0.301-0.33-0.481
				c-0.075-0.18-0.12-0.375-0.12-0.57c0-0.405,0.166-0.795,0.45-1.066c0.06-0.075,0.136-0.135,0.226-0.18
				c0.075-0.06,0.166-0.105,0.255-0.15c0.091-0.03,0.18-0.059,0.286-0.075c0.195-0.045,0.39-0.045,0.585,0
				c0.091,0.015,0.195,0.045,0.27,0.075c0.106,0.045,0.18,0.09,0.271,0.15c0.075,0.045,0.15,0.106,0.224,0.18
				c0.271,0.285,0.435,0.661,0.435,1.066c0,0.391-0.164,0.781-0.435,1.051c-0.075,0.075-0.15,0.135-0.224,0.195
				c-0.091,0.06-0.166,0.105-0.271,0.135c-0.075,0.046-0.179,0.076-0.27,0.09C422.819,74.342,422.729,74.357,422.624,74.357z"/>
		</g>
		<g>
			<path fill="#32BD9F" d="M392.055,100.662c-0.827-0.12-1.397-0.886-1.277-1.697l0,0c0.12-0.826,0.886-1.397,1.697-1.276l0,0
				c0.827,0.12,1.397,0.871,1.277,1.697l0,0c-0.106,0.751-0.751,1.292-1.487,1.292l0,0
				C392.204,100.678,392.13,100.662,392.055,100.662z M398.345,99.386c-0.12-0.826,0.45-1.592,1.277-1.697l0,0
				c0.826-0.12,1.576,0.45,1.697,1.261l0,0c0.12,0.826-0.45,1.592-1.277,1.712l0,0c-0.075,0-0.135,0.015-0.21,0.015l0,0
				C399.096,100.678,398.451,100.137,398.345,99.386z M384.382,98.41c-0.751-0.345-1.081-1.231-0.736-1.982l0,0
				c0.346-0.751,1.232-1.096,1.982-0.751l0,0c0.751,0.345,1.095,1.246,0.751,1.997l0,0c-0.255,0.555-0.796,0.87-1.367,0.87l0,0
				C384.803,98.545,384.591,98.515,384.382,98.41z M405.732,97.659c-0.345-0.751-0.029-1.636,0.736-1.982l0,0
				c0.751-0.345,1.636-0.015,1.982,0.735l0,0c0.345,0.751,0.015,1.652-0.736,1.997l0,0c-0.195,0.09-0.421,0.135-0.616,0.135l0,0
				C406.528,98.545,405.973,98.215,405.732,97.659z M377.67,94.101c-0.63-0.54-0.705-1.501-0.165-2.116l0,0
				c0.54-0.631,1.502-0.706,2.132-0.166l0,0c0.616,0.556,0.691,1.502,0.15,2.132l0,0c-0.3,0.331-0.721,0.511-1.141,0.511l0,0
				C378.301,94.462,377.94,94.341,377.67,94.101z M412.309,93.936c-0.54-0.631-0.465-1.576,0.151-2.132h0.015
				c0.616-0.54,1.562-0.466,2.117,0.165l0,0c0.541,0.616,0.465,1.562-0.166,2.117l0,0c0,0,0,0,0.015,0l0,0
				c-0.284,0.24-0.645,0.36-0.99,0.36l0,0C413.03,94.446,412.609,94.267,412.309,93.936z M372.43,88.065
				c-0.45-0.691-0.255-1.622,0.436-2.072l0,0c0.705-0.45,1.636-0.255,2.087,0.45l0,0c0.45,0.691,0.24,1.622-0.451,2.073l0,0
				c-0.255,0.165-0.54,0.24-0.811,0.24l0,0C373.196,88.756,372.715,88.516,372.43,88.065z M417.594,88.486
				c-0.705-0.435-0.902-1.367-0.45-2.072l0,0c0.45-0.691,1.381-0.901,2.072-0.451l0,0c0.705,0.451,0.9,1.381,0.45,2.087l0,0
				c-0.286,0.435-0.766,0.675-1.261,0.675l0,0C418.119,88.725,417.85,88.651,417.594,88.486z M369.097,80.798
				c-0.24-0.795,0.21-1.622,1.007-1.862l0,0c0.795-0.24,1.636,0.226,1.877,1.021l0,0c0.225,0.796-0.226,1.622-1.021,1.862l0,0
				c-0.15,0.03-0.285,0.06-0.421,0.06l0,0C369.877,81.879,369.277,81.459,369.097,80.798z M421.138,81.789
				c-0.796-0.226-1.262-1.066-1.022-1.862l0,0c0.226-0.795,1.066-1.246,1.862-1.021l0,0c0.796,0.24,1.246,1.066,1.02,1.861l0,0l0,0
				l0,0c-0.195,0.661-0.795,1.081-1.441,1.081l0,0C421.408,81.849,421.273,81.834,421.138,81.789z"/>
		</g>
		<g>
			<path fill="#32BD9F" d="M369.457,74.357c-0.405,0-0.781-0.165-1.066-0.45c-0.285-0.27-0.436-0.661-0.436-1.051
				c0-0.195,0.03-0.39,0.105-0.586c0.076-0.18,0.196-0.345,0.331-0.48c0.556-0.556,1.562-0.556,2.117,0
				c0.149,0.135,0.255,0.301,0.33,0.48c0.075,0.196,0.12,0.391,0.12,0.586c0,0.391-0.165,0.781-0.45,1.051
				C370.238,74.192,369.847,74.357,369.457,74.357z"/>
		</g>
	</g>
</g>
<g>
	<g>
		<path fill="#8917FF" d="M6.467,113.232V51.583h17.37l13.77,48.149l13.77-48.149h17.461v61.649h-10.08v-50.58h-1.351l-14.58,48.06
			H32.387l-14.58-48.06h-1.351v50.58H6.467z"/>
		<path fill="#8917FF" d="M115.096,82.093v20.52c0.059,1.321,0.404,2.295,1.035,2.926c0.63,0.63,1.604,1.034,2.925,1.215
			l-0.271,7.47c-5.16,0-9.15-1.109-11.97-3.33c-4.801,2.221-9.63,3.33-14.49,3.33c-8.94,0-13.41-4.77-13.41-14.31
			c0-4.56,1.216-7.86,3.646-9.9c2.43-2.039,6.165-3.27,11.205-3.69l11.609-0.989v-3.24c0-2.399-0.525-4.08-1.574-5.04
			c-1.051-0.959-2.597-1.44-4.636-1.44c-3.84,0-8.64,0.241-14.399,0.721l-2.88,0.18l-0.36-6.93c6.539-1.56,12.555-2.34,18.045-2.34
			s9.45,1.186,11.88,3.555C113.881,73.169,115.096,76.934,115.096,82.093z M94.936,93.253c-4.14,0.359-6.21,2.609-6.21,6.75
			c0,4.14,1.829,6.21,5.49,6.21c2.999,0,6.179-0.479,9.54-1.44l1.619-0.54v-11.97L94.936,93.253z"/>
		<path fill="#8917FF" d="M151.635,76.603h-12.42v19.8c0,3.661,0.27,6.091,0.81,7.29c0.54,1.201,1.92,1.8,4.14,1.8l7.38-0.27
			l0.45,7.83c-4.021,0.779-7.08,1.17-9.18,1.17c-5.101,0-8.595-1.17-10.485-3.51c-1.89-2.34-2.835-6.75-2.835-13.23v-20.88h-5.76
			v-8.37h5.76v-13.05h9.721v13.05h12.42V76.603z"/>
		<path fill="#8917FF" d="M191.684,105.133l2.52-0.271l0.18,7.29c-6.84,1.38-12.9,2.07-18.18,2.07c-6.66,0-11.445-1.829-14.355-5.49
			c-2.91-3.659-4.364-9.509-4.364-17.55c0-15.96,6.509-23.94,19.529-23.94c12.601,0,18.9,6.871,18.9,20.61l-0.63,7.021h-27.9
			c0.06,3.721,0.869,6.45,2.431,8.189c1.56,1.741,4.469,2.61,8.729,2.61C182.803,105.673,187.184,105.492,191.684,105.133z
			 M186.283,87.312c0-4.439-0.706-7.544-2.115-9.314c-1.41-1.77-3.795-2.655-7.155-2.655s-5.805,0.931-7.335,2.79
			c-1.529,1.86-2.325,4.92-2.385,9.18H186.283z"/>
		<path fill="#8917FF" d="M205.363,113.232v-45h9.72v5.4c5.099-3.299,10.199-5.429,15.3-6.39v9.81
			c-5.161,1.021-9.571,2.34-13.229,3.96l-1.98,0.81v31.41H205.363z"/>
		<path fill="#8917FF" d="M237.853,60.583v-10.35h9.81v10.35H237.853z M237.853,113.232v-45h9.81v45H237.853z"/>
		<path fill="#8917FF" d="M292.843,82.093v20.52c0.059,1.321,0.404,2.295,1.035,2.926c0.63,0.63,1.604,1.034,2.925,1.215
			l-0.271,7.47c-5.16,0-9.15-1.109-11.97-3.33c-4.801,2.221-9.63,3.33-14.49,3.33c-8.94,0-13.41-4.77-13.41-14.31
			c0-4.56,1.216-7.86,3.646-9.9c2.43-2.039,6.165-3.27,11.205-3.69l11.609-0.989v-3.24c0-2.399-0.525-4.08-1.574-5.04
			c-1.051-0.959-2.597-1.44-4.636-1.44c-3.84,0-8.64,0.241-14.399,0.721l-2.88,0.18l-0.36-6.93c6.539-1.56,12.555-2.34,18.045-2.34
			s9.45,1.186,11.88,3.555C291.628,73.169,292.843,76.934,292.843,82.093z M272.683,93.253c-4.14,0.359-6.21,2.609-6.21,6.75
			c0,4.14,1.829,6.21,5.49,6.21c2.999,0,6.179-0.479,9.54-1.44l1.619-0.54v-11.97L272.683,93.253z"/>
		<path fill="#8917FF" d="M305.712,113.232v-63.72h9.81v63.72H305.712z"/>
		<path fill="#8917FF" d="M27.72,176.129v-8.819h17.55v31.319c-1.619,0.421-4.904,0.871-9.854,1.351s-8.536,0.72-10.755,0.72
			c-9.36,0-15.811-2.579-19.351-7.74C1.77,187.8,0,179.715,0,168.704c0-11.01,1.814-19.035,5.445-24.075
			c3.629-5.04,9.914-7.56,18.854-7.56c5.279,0,11.22,0.601,17.82,1.8l3.149,0.63l-0.359,7.92c-7.261-0.959-13.771-1.44-19.53-1.44
			s-9.706,1.62-11.835,4.86c-2.131,3.24-3.195,9.241-3.195,18c0,8.762,1.005,14.806,3.016,18.136
			c2.01,3.33,6.075,4.994,12.194,4.994c4.38,0,7.65-0.27,9.811-0.81v-15.03H27.72z"/>
		<path fill="#8917FF" d="M56.609,199.709v-45h9.72v5.4c5.099-3.299,10.199-5.429,15.3-6.39v9.81
			c-5.161,1.021-9.571,2.34-13.229,3.96l-1.98,0.81v31.41H56.609z"/>
		<path fill="#8917FF" d="M122.398,168.57v20.52c0.059,1.321,0.404,2.295,1.035,2.926c0.63,0.63,1.604,1.034,2.925,1.215
			l-0.271,7.47c-5.16,0-9.15-1.109-11.97-3.33c-4.801,2.221-9.63,3.33-14.49,3.33c-8.94,0-13.41-4.77-13.41-14.31
			c0-4.56,1.216-7.86,3.646-9.9c2.43-2.039,6.165-3.27,11.205-3.69l11.609-0.989v-3.24c0-2.399-0.525-4.08-1.574-5.04
			c-1.051-0.959-2.597-1.44-4.636-1.44c-3.84,0-8.64,0.241-14.399,0.721l-2.88,0.18l-0.36-6.93c6.539-1.56,12.555-2.34,18.045-2.34
			s9.45,1.186,11.88,3.555C121.184,159.646,122.398,163.41,122.398,168.57z M92.608,141.48l21.24-9.09l3.06,8.46l-21.96,7.02
			L92.608,141.48z M102.238,179.73c-4.14,0.359-6.21,2.609-6.21,6.75c0,4.14,1.829,6.21,5.49,6.21c2.999,0,6.179-0.479,9.54-1.44
			l1.619-0.54v-11.97L102.238,179.73z"/>
		<path fill="#8917FF" d="M146.519,163.079v36.63h-9.721v-36.63h-5.22v-8.37h5.22v-2.88c0-6.419,0.93-10.83,2.79-13.23
			c1.859-2.399,5.16-3.6,9.9-3.6l9.72,0.9l-0.09,8.01c-2.94-0.12-5.386-0.18-7.335-0.18c-1.95,0-3.316,0.585-4.095,1.755
			c-0.781,1.17-1.17,3.316-1.17,6.435v2.79h11.88v8.37H146.519z"/>
		<path fill="#8917FF" d="M165.867,147.06v-10.35h9.81v10.35H165.867z M165.867,199.709v-45h9.81v45H165.867z"/>
		<path fill="#8917FF" d="M204.386,153.719c3.18,0,6.931,0.421,11.25,1.26l2.25,0.45l-0.359,7.739
			c-4.74-0.479-8.251-0.72-10.53-0.72c-4.561,0-7.62,1.021-9.18,3.06c-1.562,2.041-2.34,5.882-2.34,11.521
			c0,5.641,0.749,9.54,2.25,11.7c1.499,2.16,4.619,3.239,9.359,3.239l10.53-0.72l0.27,7.83c-6.061,1.08-10.619,1.62-13.68,1.62
			c-6.84,0-11.655-1.845-14.445-5.535c-2.789-3.689-4.185-9.734-4.185-18.135c0-8.399,1.47-14.385,4.41-17.955
			C192.925,155.506,197.727,153.719,204.386,153.719z"/>
		<path fill="#8917FF" d="M229.361,159.57c3.09-3.899,8.235-5.85,15.435-5.85c7.2,0,12.345,1.951,15.436,5.85
			c3.09,3.9,4.635,9.751,4.635,17.55c0,7.801-1.5,13.68-4.5,17.64c-3.001,3.96-8.189,5.94-15.57,5.94
			c-7.38,0-12.57-1.98-15.569-5.94c-3.001-3.96-4.5-9.839-4.5-17.64C224.727,169.321,226.271,163.47,229.361,159.57z
			 M236.696,188.82c1.38,2.4,4.079,3.6,8.1,3.6c4.02,0,6.72-1.199,8.101-3.6c1.379-2.399,2.069-6.33,2.069-11.79
			c0-5.459-0.735-9.329-2.204-11.61c-1.472-2.279-4.126-3.42-7.966-3.42s-6.495,1.141-7.965,3.42
			c-1.471,2.281-2.205,6.151-2.205,11.61C234.626,182.489,235.315,186.42,236.696,188.82z"/>
		<path fill="#8917FF" d="M290.245,154.71h9.63l9.54,36.629h2.431l9.54-36.629h9.72l-17.101,64.35h-9.63l5.4-19.351h-7.74
			L290.245,154.71z"/>
		<path fill="#8917FF" d="M391.763,168.57v20.52c0.059,1.321,0.404,2.295,1.035,2.926c0.63,0.63,1.604,1.034,2.925,1.215
			l-0.271,7.47c-5.16,0-9.15-1.109-11.97-3.33c-4.801,2.221-9.63,3.33-14.49,3.33c-8.94,0-13.41-4.77-13.41-14.31
			c0-4.56,1.216-7.86,3.646-9.9c2.43-2.039,6.165-3.27,11.205-3.69l11.609-0.989v-3.24c0-2.399-0.525-4.08-1.574-5.04
			c-1.051-0.959-2.597-1.44-4.636-1.44c-3.84,0-8.64,0.241-14.399,0.721l-2.88,0.18l-0.36-6.93c6.539-1.56,12.555-2.34,18.045-2.34
			s9.45,1.186,11.88,3.555C390.548,159.646,391.763,163.41,391.763,168.57z M371.603,179.73c-4.14,0.359-6.21,2.609-6.21,6.75
			c0,4.14,1.829,6.21,5.49,6.21c2.999,0,6.179-0.479,9.54-1.44l1.619-0.54v-11.97L371.603,179.73z"/>
		<path fill="#8917FF" d="M431.361,154.71h9.72v45h-9.72v-2.79c-4.381,2.521-8.431,3.78-12.15,3.78c-6.18,0-10.32-1.665-12.42-4.995
			c-2.101-3.33-3.149-9.164-3.149-17.505v-23.49h9.81v23.58c0,5.4,0.45,9.031,1.351,10.891c0.899,1.86,2.999,2.789,6.3,2.789
			c3.24,0,6.21-0.599,8.91-1.8l1.35-0.54V154.71z"/>
		<path fill="#8917FF" d="M489.682,135.989v63.72h-9.72v-2.34c-4.381,2.221-8.401,3.33-12.061,3.33
			c-5.881,0-10.186-1.77-12.915-5.31c-2.73-3.54-4.095-9.479-4.095-17.82c0-8.339,1.515-14.4,4.545-18.18
			c3.029-3.78,7.754-5.67,14.175-5.67c2.16,0,5.58,0.391,10.26,1.17v-18.9H489.682z M478.342,190.35l1.529-0.631v-26.64
			c-3.6-0.599-6.93-0.899-9.989-0.899c-6.062,0-9.091,5.039-9.091,15.119c0,5.521,0.705,9.347,2.115,11.476
			c1.409,2.13,3.646,3.194,6.705,3.194C472.672,191.969,475.581,191.43,478.342,190.35z"/>
		<path fill="#8917FF" d="M501.562,147.06v-10.35h9.81v10.35H501.562z M501.562,199.709v-45h9.81v45H501.562z"/>
		<path fill="#8917FF" d="M525.726,159.57c3.09-3.899,8.235-5.85,15.435-5.85c7.2,0,12.345,1.951,15.436,5.85
			c3.09,3.9,4.635,9.751,4.635,17.55c0,7.801-1.5,13.68-4.5,17.64c-3.001,3.96-8.189,5.94-15.57,5.94
			c-7.38,0-12.57-1.98-15.569-5.94c-3.001-3.96-4.5-9.839-4.5-17.64C521.091,169.321,522.635,163.47,525.726,159.57z
			 M533.061,188.82c1.38,2.4,4.079,3.6,8.1,3.6c4.02,0,6.72-1.199,8.101-3.6c1.379-2.399,2.069-6.33,2.069-11.79
			c0-5.459-0.735-9.329-2.204-11.61c-1.472-2.279-4.126-3.42-7.966-3.42s-6.495,1.141-7.965,3.42
			c-1.471,2.281-2.205,6.151-2.205,11.61C530.99,182.489,531.68,186.42,533.061,188.82z"/>
		<path fill="#8917FF" d="M566.001,154.71h10.26l8.641,36.629h2.88l9-36.629h9.99l-11.7,45h-17.46L566.001,154.71z"/>
		<path fill="#8917FF" d="M614.421,147.06v-10.35h9.81v10.35H614.421z M614.421,199.709v-45h9.81v45H614.421z"/>
		<path fill="#8917FF" d="M667.341,163.98c-7.08-0.959-12.21-1.44-15.39-1.44c-3.182,0-5.386,0.376-6.615,1.125
			c-1.23,0.751-1.845,1.936-1.845,3.555c0,1.62,0.675,2.761,2.024,3.421c1.351,0.66,4.53,1.426,9.54,2.295
			c5.01,0.87,8.564,2.235,10.665,4.095c2.1,1.86,3.15,5.161,3.15,9.9c0,4.74-1.517,8.221-4.545,10.439
			c-3.03,2.221-7.456,3.33-13.275,3.33c-3.66,0-8.28-0.511-13.86-1.53l-2.789-0.45l0.359-8.189c7.2,0.96,12.39,1.439,15.57,1.439
			c3.18,0,5.445-0.389,6.795-1.17c1.35-0.778,2.025-2.069,2.025-3.869c0-1.801-0.646-3.045-1.936-3.735
			c-1.291-0.689-4.381-1.44-9.27-2.25c-4.892-0.811-8.476-2.084-10.756-3.825c-2.28-1.739-3.42-4.919-3.42-9.54
			c0-4.619,1.575-8.069,4.726-10.35c3.149-2.28,7.185-3.42,12.104-3.42c3.84,0,8.551,0.481,14.13,1.44l2.79,0.54L667.341,163.98z"/>
		<path fill="#8917FF" d="M705.59,154.71h9.72v45h-9.72v-2.79c-4.381,2.521-8.431,3.78-12.15,3.78c-6.18,0-10.32-1.665-12.42-4.995
			c-2.101-3.33-3.149-9.164-3.149-17.505v-23.49h9.81v23.58c0,5.4,0.45,9.031,1.351,10.891c0.899,1.86,2.999,2.789,6.3,2.789
			c3.24,0,6.21-0.599,8.91-1.8l1.35-0.54V154.71z"/>
		<path fill="#8917FF" d="M760.49,168.57v20.52c0.059,1.321,0.404,2.295,1.035,2.926c0.63,0.63,1.604,1.034,2.925,1.215l-0.271,7.47
			c-5.16,0-9.15-1.109-11.97-3.33c-4.801,2.221-9.63,3.33-14.49,3.33c-8.94,0-13.41-4.77-13.41-14.31c0-4.56,1.216-7.86,3.646-9.9
			c2.43-2.039,6.165-3.27,11.205-3.69l11.609-0.989v-3.24c0-2.399-0.525-4.08-1.574-5.04c-1.051-0.959-2.597-1.44-4.636-1.44
			c-3.84,0-8.64,0.241-14.399,0.721l-2.88,0.18l-0.36-6.93c6.539-1.56,12.555-2.34,18.045-2.34s9.45,1.186,11.88,3.555
			C759.275,159.646,760.49,163.41,760.49,168.57z M740.33,179.73c-4.14,0.359-6.21,2.609-6.21,6.75c0,4.14,1.829,6.21,5.49,6.21
			c2.999,0,6.179-0.479,9.54-1.44l1.619-0.54v-11.97L740.33,179.73z"/>
		<path fill="#8917FF" d="M773.359,199.709v-63.72h9.81v63.72H773.359z"/>
	</g>
</g>
</svg>
