<svg width="400" height="133" viewBox="0 0 400 133" fill="none" xmlns="http://www.w3.org/2000/svg">
<g clip-path="url(#clip0)">
<path d="M136.229 81.4094C135.935 81.4094 135.651 81.2901 135.455 81.084C135.347 80.9857 135.27 80.8664 135.215 80.7362C135.161 80.6061 135.128 80.4651 135.128 80.3241C135.128 80.0312 135.248 79.7492 135.455 79.5533C135.706 79.3038 136.076 79.1845 136.435 79.2604C136.501 79.2713 136.577 79.293 136.642 79.3147C136.707 79.3479 136.772 79.3797 136.827 79.4231C136.881 79.4564 136.936 79.4998 136.99 79.5533C137.197 79.7492 137.306 80.0312 137.306 80.3241C137.306 80.4651 137.284 80.6068 137.23 80.7362C137.176 80.8664 137.089 80.9857 136.99 81.084C136.936 81.1382 136.881 81.1816 136.827 81.225C136.772 81.2575 136.707 81.2901 136.642 81.3226C136.577 81.3552 136.501 81.366 136.435 81.3877C136.37 81.3993 136.294 81.4094 136.229 81.4094Z" fill="#32BD9F"/>
<path d="M136.445 75.6018C135.847 75.5258 135.433 74.9828 135.498 74.3863C135.574 73.7891 136.119 73.3653 136.717 73.4413C137.316 73.5172 137.741 74.0602 137.665 74.6574C137.589 75.2005 137.121 75.6126 136.587 75.6126C136.544 75.6126 136.49 75.6018 136.445 75.6018ZM227.553 74.5808C227.476 73.9836 227.901 73.4413 228.5 73.3646C229.088 73.2887 229.632 73.7124 229.708 74.3097C229.785 74.9069 229.36 75.4499 228.772 75.5258C228.717 75.5258 228.674 75.5367 228.63 75.5367C228.086 75.536 227.618 75.1347 227.553 74.5808ZM137.393 69.8693C136.817 69.7175 136.468 69.1311 136.609 68.5447C136.762 67.9698 137.35 67.6221 137.938 67.7631C138.514 67.9149 138.874 68.5013 138.722 69.087C138.591 69.5758 138.155 69.9012 137.665 69.9012C137.578 69.9019 137.491 69.891 137.393 69.8693ZM226.486 69.0118C226.334 68.4362 226.682 67.839 227.27 67.698C227.846 67.5461 228.446 67.8932 228.587 68.4688C228.74 69.0552 228.391 69.6416 227.804 69.7927C227.716 69.8144 227.629 69.826 227.542 69.826C227.052 69.826 226.605 69.5006 226.486 69.0118ZM139.07 64.3003C138.504 64.0827 138.232 63.4529 138.449 62.8889C138.678 62.3358 139.309 62.0639 139.865 62.2808C140.431 62.5086 140.703 63.1384 140.475 63.6922C140.311 64.1152 139.897 64.3762 139.462 64.3762C139.331 64.3762 139.201 64.3545 139.07 64.3003ZM224.722 63.6271C224.494 63.0733 224.766 62.4442 225.332 62.2157C225.887 61.9988 226.518 62.2707 226.736 62.8238C226.965 63.3777 226.693 64.0183 226.137 64.2352C226.006 64.2895 225.865 64.3112 225.734 64.3112C225.299 64.3104 224.885 64.0501 224.722 63.6271ZM141.422 58.9909C140.9 58.698 140.704 58.0357 140.998 57.5144C141.291 56.993 141.945 56.7978 142.478 57.0907C143.001 57.3727 143.197 58.0357 142.903 58.5563C142.708 58.9251 142.337 59.121 141.945 59.121C141.771 59.1217 141.586 59.0784 141.422 58.9909ZM222.294 58.5021V58.5129C222 57.9808 222.185 57.3184 222.718 57.0364C223.241 56.7436 223.905 56.928 224.2 57.4601C224.483 57.9815 224.298 58.6438 223.775 58.9366C223.601 59.0234 223.427 59.0668 223.241 59.0668C222.86 59.0668 222.49 58.8607 222.294 58.5021ZM144.439 54.0184C143.948 53.6597 143.84 52.9866 144.199 52.4985C144.547 52.0097 145.233 51.9012 145.712 52.2592C146.202 52.607 146.311 53.291 145.951 53.779C145.745 54.0618 145.407 54.2244 145.07 54.2244C144.852 54.2252 144.624 54.1492 144.439 54.0184ZM219.234 53.7255C218.875 53.2476 218.984 52.5643 219.474 52.2165C219.953 51.8586 220.639 51.967 220.987 52.4443C220.987 52.4443 220.987 52.4443 220.998 52.4443C221.347 52.9331 221.238 53.6171 220.759 53.9649C220.562 54.1059 220.334 54.1709 220.116 54.1709C219.778 54.1709 219.441 54.0184 219.234 53.7255ZM148.042 49.4587C147.607 49.0466 147.585 48.3626 147.999 47.9172C148.413 47.4833 149.099 47.4609 149.534 47.8738C149.969 48.2867 149.992 48.9707 149.578 49.4045C149.371 49.6323 149.076 49.7516 148.783 49.7516C148.522 49.7516 148.25 49.654 148.042 49.4587ZM215.597 49.372C215.194 48.9266 215.205 48.2426 215.651 47.8297C216.086 47.4175 216.772 47.4392 217.186 47.8731C217.6 48.3185 217.579 49.0025 217.144 49.4154C216.925 49.6106 216.664 49.7082 216.392 49.7082C216.109 49.7082 215.815 49.5889 215.597 49.372ZM152.191 45.3771C151.81 44.9215 151.876 44.2375 152.333 43.8572C152.801 43.466 153.487 43.5311 153.868 43.9982C154.249 44.4537 154.195 45.1377 153.726 45.5289C153.52 45.6916 153.28 45.7784 153.03 45.7784C152.725 45.7791 152.409 45.6374 152.191 45.3771ZM211.448 45.4855C210.991 45.1052 210.926 44.4219 211.306 43.9548C211.688 43.4993 212.373 43.4335 212.842 43.8138C213.299 44.1941 213.365 44.8774 212.983 45.3445C212.765 45.6048 212.46 45.735 212.145 45.735C211.906 45.735 211.655 45.6591 211.448 45.4855ZM156.819 41.8594C156.492 41.3496 156.645 40.6764 157.156 40.3511C157.657 40.0358 158.332 40.1884 158.659 40.6873C158.974 41.197 158.833 41.8702 158.321 42.1855C158.136 42.3048 157.94 42.359 157.744 42.359C157.374 42.359 157.025 42.1855 156.819 41.8594ZM206.854 42.1522C206.342 41.8377 206.189 41.1645 206.516 40.654C206.832 40.1544 207.508 40.0025 208.019 40.3178C208.52 40.6439 208.672 41.3163 208.356 41.8167C208.149 42.1421 207.79 42.3265 207.431 42.3265C207.234 42.3265 207.028 42.2722 206.854 42.1522ZM161.85 38.9281C161.589 38.3959 161.828 37.7451 162.372 37.4841C162.917 37.2347 163.559 37.4624 163.821 38.0054C164.071 38.5485 163.842 39.1999 163.298 39.4494C163.146 39.5253 162.993 39.5579 162.841 39.5579C162.427 39.5579 162.035 39.3301 161.85 38.9281ZM201.866 39.4277C201.322 39.1667 201.082 38.5268 201.343 37.9838C201.605 37.4407 202.247 37.2021 202.792 37.4624C203.336 37.7119 203.565 38.3634 203.314 38.9064C203.13 39.2968 202.738 39.5253 202.323 39.5253C202.172 39.5253 202.019 39.4928 201.866 39.4277ZM167.207 36.67C167.022 36.0951 167.337 35.487 167.904 35.2911C167.904 35.2911 167.904 35.2911 167.915 35.2911C168.481 35.1067 169.102 35.4212 169.287 35.9968C169.472 36.5615 169.156 37.1804 168.579 37.3648C168.47 37.3973 168.361 37.419 168.241 37.419C167.784 37.419 167.359 37.1262 167.207 36.67ZM196.574 37.3431C196.008 37.1587 195.692 36.5398 195.877 35.9751C196.062 35.4003 196.672 35.0958 197.25 35.2694C197.25 35.2694 197.25 35.2694 197.25 35.2802C197.816 35.4538 198.131 36.0727 197.946 36.6374C197.793 37.1038 197.369 37.3974 196.912 37.3974C196.803 37.3974 196.683 37.3757 196.574 37.3431ZM172.814 35.085C172.705 34.4986 173.086 33.9339 173.686 33.8146C174.274 33.7061 174.84 34.0966 174.96 34.683C175.069 35.2694 174.677 35.8449 174.089 35.9534C174.024 35.9642 173.959 35.9751 173.882 35.9751C173.37 35.9751 172.913 35.6063 172.814 35.085ZM191.064 35.9425C190.465 35.8232 190.084 35.2585 190.193 34.6721C190.302 34.0749 190.879 33.6946 191.467 33.803C192.056 33.9115 192.447 34.487 192.338 35.0734C192.24 35.5948 191.784 35.9527 191.272 35.9527C191.195 35.9534 191.13 35.9534 191.064 35.9425ZM178.575 34.2274C178.542 33.6302 178.989 33.1096 179.599 33.0763C180.198 33.0438 180.709 33.4885 180.752 34.0966C180.785 34.6938 180.328 35.2036 179.729 35.2477C179.707 35.2477 179.686 35.2477 179.664 35.2477C179.087 35.2477 178.608 34.8023 178.575 34.2274ZM185.424 35.2368C184.814 35.2036 184.357 34.683 184.401 34.0857C184.434 33.4885 184.956 33.0322 185.555 33.0756C186.154 33.1081 186.612 33.6186 186.569 34.2267C186.536 34.8016 186.057 35.2368 185.49 35.2368C185.468 35.2368 185.446 35.2368 185.424 35.2368Z" fill="#32BD9F"/>
<path d="M229.001 81.4096C228.859 81.4096 228.718 81.377 228.588 81.3228C228.446 81.2686 228.337 81.1927 228.228 81.0842C228.032 80.889 227.912 80.6063 227.912 80.3243C227.912 80.0314 228.033 79.7596 228.228 79.5535C228.337 79.4559 228.456 79.3691 228.588 79.3142C228.991 79.1515 229.469 79.2498 229.774 79.5535C229.971 79.7596 230.09 80.0314 230.09 80.3243C230.09 80.607 229.971 80.889 229.774 81.0842C229.676 81.1927 229.556 81.2686 229.415 81.3228C229.284 81.3778 229.143 81.4096 229.001 81.4096Z" fill="#32BD9F"/>
<path d="M149.948 81.4096C149.872 81.4096 149.807 81.3987 149.731 81.3879C149.665 81.3662 149.6 81.3554 149.534 81.3228C149.458 81.3011 149.404 81.2577 149.338 81.2252C149.283 81.1818 149.229 81.1384 149.174 81.0842C149.12 81.0408 149.076 80.9859 149.044 80.9208C149 80.8666 148.967 80.8015 148.935 80.7364C148.913 80.6713 148.892 80.6063 148.881 80.5303C148.859 80.4653 148.859 80.3893 148.859 80.3243C148.859 80.0314 148.968 79.7596 149.174 79.5535C149.48 79.2498 149.958 79.1515 150.362 79.3142C150.492 79.3691 150.612 79.4559 150.71 79.5535C150.818 79.6511 150.895 79.7711 150.95 79.9006C151.004 80.0423 151.037 80.1833 151.037 80.3243C151.037 80.607 150.917 80.889 150.71 81.0842C150.514 81.291 150.231 81.4096 149.948 81.4096Z" fill="#32BD9F"/>
<path d="M150.253 75.7322C149.654 75.6237 149.262 75.0698 149.36 74.4726C149.469 73.8862 150.035 73.4849 150.623 73.5933C151.222 73.6917 151.614 74.2557 151.505 74.8529C151.418 75.3743 150.96 75.7437 150.438 75.7437C150.373 75.743 150.319 75.743 150.253 75.7322ZM213.703 74.7987C213.605 74.2123 213.996 73.6476 214.584 73.5391C215.183 73.4415 215.749 73.832 215.847 74.4184C215.956 75.0149 215.553 75.5796 214.965 75.6779C214.9 75.6888 214.835 75.6996 214.78 75.6996C214.257 75.6996 213.8 75.3301 213.703 74.7987ZM151.538 70.195C150.972 69.9889 150.678 69.3699 150.885 68.806C151.091 68.2412 151.712 67.9585 152.278 68.1545C152.844 68.3606 153.138 68.9903 152.931 69.555C152.768 69.9889 152.355 70.2716 151.908 70.2716C151.789 70.2716 151.658 70.2499 151.538 70.195ZM212.276 69.5008C212.069 68.947 212.363 68.3172 212.93 68.1111C213.496 67.905 214.116 68.1979 214.323 68.7626C214.529 69.3273 214.236 69.9455 213.669 70.1523C213.55 70.1957 213.419 70.2174 213.299 70.2174C212.853 70.2167 212.439 69.9455 212.276 69.5008ZM153.77 64.973C153.247 64.6802 153.073 64.0178 153.379 63.4965C153.672 62.9752 154.337 62.8017 154.859 63.0945C155.382 63.3989 155.556 64.0605 155.263 64.5818C155.056 64.9289 154.685 65.1248 154.316 65.1248C154.13 65.1248 153.945 65.0713 153.77 64.973ZM209.946 64.5392C209.641 64.0178 209.815 63.3562 210.338 63.0627C210.861 62.7583 211.525 62.9325 211.829 63.4531C212.123 63.9636 211.95 64.6361 211.427 64.9296C211.263 65.0381 211.067 65.0815 210.882 65.0815C210.512 65.0815 210.142 64.8862 209.946 64.5392ZM156.884 60.2181C156.427 59.8378 156.361 59.1545 156.754 58.6983C157.135 58.2312 157.821 58.1769 158.279 58.5573C158.747 58.9477 158.802 59.6317 158.42 60.088C158.202 60.349 157.897 60.4792 157.582 60.4792C157.331 60.4784 157.091 60.3917 156.884 60.2181ZM206.778 60.0555C206.385 59.5992 206.45 58.9043 206.908 58.5247C207.366 58.1343 208.052 58.1994 208.443 58.6549C208.825 59.1111 208.77 59.7944 208.313 60.1856C208.106 60.3591 207.856 60.4351 207.617 60.4351C207.3 60.4351 206.995 60.3049 206.778 60.0555ZM160.772 56.0707C160.391 55.6144 160.445 54.9304 160.914 54.5508C160.914 54.5508 160.914 54.5508 160.903 54.5508C161.371 54.1596 162.057 54.2247 162.438 54.6809C162.83 55.1372 162.764 55.8212 162.307 56.2117C162.101 56.3744 161.85 56.4611 161.611 56.4611C161.294 56.4618 160.99 56.331 160.772 56.0707ZM202.88 56.1798C202.422 55.7995 202.357 55.1047 202.749 54.6491C203.13 54.1929 203.816 54.1278 204.284 54.519C204.741 54.8993 204.807 55.5826 204.415 56.0497C204.197 56.2992 203.892 56.43 203.576 56.43C203.336 56.4293 203.086 56.3527 202.88 56.1798ZM165.324 52.6622C165.019 52.1408 165.204 51.4792 165.716 51.1748C166.239 50.882 166.902 51.0555 167.207 51.5768C167.512 52.0873 167.327 52.7598 166.815 53.0642C166.641 53.1618 166.456 53.2052 166.271 53.2052C165.889 53.2044 165.519 53.0092 165.324 52.6622ZM198.371 53.0309C197.848 52.7381 197.674 52.0649 197.979 51.5544C198.273 51.0331 198.937 50.8487 199.46 51.1524C199.983 51.4568 200.157 52.1191 199.863 52.6289C199.657 52.9868 199.297 53.182 198.916 53.182C198.731 53.1828 198.546 53.1293 198.371 53.0309ZM170.398 50.0888C170.191 49.5241 170.485 48.8943 171.051 48.6998C171.618 48.4821 172.238 48.7757 172.444 49.3404C172.651 49.9051 172.357 50.5233 171.791 50.7301C171.671 50.7735 171.541 50.7945 171.421 50.7945C170.974 50.7945 170.561 50.5226 170.398 50.0888ZM193.384 50.7186C192.817 50.5125 192.523 49.8935 192.73 49.3296C192.938 48.7648 193.558 48.472 194.124 48.6781C194.69 48.8842 194.984 49.5031 194.777 50.0671C194.614 50.5125 194.2 50.7836 193.754 50.7836C193.634 50.7836 193.503 50.7619 193.384 50.7186ZM175.842 48.4387C175.744 47.8415 176.136 47.2775 176.735 47.1799C177.323 47.0714 177.889 47.4619 177.987 48.0591C178.095 48.6448 177.704 49.2095 177.105 49.318C177.039 49.3288 176.984 49.3288 176.919 49.3288C176.397 49.3288 175.94 48.9594 175.842 48.4387ZM188.07 49.3071C187.482 49.1987 187.079 48.6448 187.188 48.0476C187.286 47.4612 187.852 47.0591 188.44 47.1683C189.039 47.2659 189.431 47.8307 189.333 48.4279C189.235 48.9492 188.778 49.318 188.255 49.318C188.201 49.318 188.136 49.318 188.07 49.3071ZM182.582 48.84C181.983 48.84 181.493 48.3513 181.493 47.754C181.493 47.1568 181.983 46.668 182.582 46.668C183.192 46.668 183.671 47.1459 183.682 47.754C183.682 48.3513 183.192 48.84 182.593 48.84C181.983 48.84 182.593 48.84 182.582 48.84Z" fill="#32BD9F"/>
<path d="M215.281 81.4096C215.14 81.4096 214.998 81.377 214.857 81.3228C214.726 81.2686 214.607 81.1927 214.508 81.0842C214.41 80.9859 214.323 80.8666 214.269 80.7364C214.214 80.6063 214.192 80.4653 214.192 80.3243C214.192 80.2483 214.192 80.1833 214.214 80.1066C214.225 80.0423 214.247 79.9656 214.269 79.9006C214.301 79.8355 214.334 79.7812 214.378 79.7162C214.41 79.6619 214.454 79.6077 214.508 79.5535C214.607 79.4559 214.726 79.3691 214.857 79.3142C215.26 79.1515 215.75 79.2498 216.055 79.5535C216.098 79.6077 216.142 79.6619 216.185 79.7162C216.219 79.7812 216.262 79.8355 216.284 79.9006C216.306 79.9656 216.328 80.0423 216.349 80.1066C216.36 80.1833 216.37 80.2483 216.37 80.3243C216.37 80.4653 216.338 80.607 216.283 80.7364C216.229 80.8666 216.153 80.9859 216.055 81.0842C215.848 81.291 215.564 81.4096 215.281 81.4096Z" fill="#32BD9F"/>
<path d="M163.33 81.4096C163.048 81.4096 162.764 81.2903 162.557 81.0842C162.362 80.889 162.241 80.6063 162.241 80.3243C162.241 80.0314 162.362 79.7596 162.557 79.5535C162.863 79.2498 163.352 79.1515 163.745 79.3142C163.886 79.3691 163.995 79.4559 164.104 79.5535C164.3 79.7596 164.42 80.0314 164.42 80.3243C164.42 80.3893 164.409 80.4653 164.398 80.5303C164.387 80.607 164.365 80.6713 164.333 80.7364C164.312 80.8015 164.279 80.8666 164.235 80.9208C164.191 80.9859 164.148 81.0408 164.104 81.0842C163.897 81.291 163.613 81.4096 163.33 81.4096Z" fill="#32BD9F"/>
<path d="M163.799 75.9382C163.222 75.7755 162.895 75.1674 163.069 74.5925C163.233 74.017 163.843 73.6916 164.419 73.8543C164.985 74.0278 165.323 74.6251 165.149 75.2006C165.019 75.6786 164.583 75.9823 164.104 75.9823C164.006 75.9815 163.908 75.9714 163.799 75.9382ZM200.07 75.1891C199.896 74.6142 200.222 74.0061 200.799 73.8434C201.377 73.6692 201.986 73.9953 202.15 74.5708C202.324 75.1457 201.998 75.7538 201.42 75.9165C201.311 75.9497 201.213 75.9714 201.115 75.9714C200.636 75.9714 200.211 75.6562 200.07 75.1891ZM165.802 70.8362C165.291 70.5101 165.149 69.837 165.476 69.3373C165.802 68.8276 166.477 68.6866 166.978 69.0119C167.49 69.3373 167.632 70.0105 167.305 70.5101C167.098 70.8362 166.75 71.0098 166.39 71.0098C166.184 71.009 165.988 70.9555 165.802 70.8362ZM197.914 70.4993C197.587 69.9996 197.729 69.3265 198.229 69.0004C198.741 68.675 199.416 68.816 199.743 69.3156C199.743 69.3156 199.743 69.3156 199.732 69.3156C200.069 69.8261 199.917 70.4993 199.416 70.8247C199.231 70.944 199.024 70.9989 198.828 70.9989C198.469 70.9989 198.121 70.8247 197.914 70.4993ZM169.167 66.5036C168.764 66.0481 168.818 65.3641 169.276 64.9729C169.723 64.5716 170.409 64.6259 170.811 65.0814C171.203 65.5376 171.148 66.2217 170.702 66.6121C170.496 66.7864 170.235 66.8724 169.984 66.8724C169.678 66.8731 169.374 66.7538 169.167 66.5036ZM194.516 66.6013C194.059 66.2108 194.005 65.5268 194.407 65.0705C194.8 64.6143 195.486 64.5709 195.943 64.9621C196.389 65.3525 196.444 66.0365 196.051 66.4928C195.833 66.7423 195.529 66.8616 195.223 66.8616C194.973 66.8623 194.723 66.7755 194.516 66.6013ZM173.61 63.2795C173.359 62.7365 173.599 62.0966 174.143 61.8464C174.687 61.5969 175.341 61.8356 175.591 62.3786C175.841 62.9216 175.602 63.5724 175.046 63.8218C174.905 63.8869 174.753 63.9201 174.6 63.9201C174.187 63.9201 173.784 63.6808 173.61 63.2795ZM190.161 63.8117C189.616 63.5622 189.366 62.9216 189.616 62.3786C189.866 61.8247 190.52 61.5861 191.064 61.8356C191.609 62.085 191.848 62.7256 191.597 63.2788C191.423 63.67 191.021 63.9086 190.607 63.9086C190.455 63.9093 190.302 63.8768 190.161 63.8117ZM178.782 61.4444C178.695 60.8479 179.108 60.3048 179.707 60.2181C180.295 60.1313 180.851 60.5442 180.938 61.1407C181.025 61.7271 180.611 62.2802 180.013 62.3677C179.958 62.3677 179.914 62.3786 179.86 62.3786C179.327 62.3786 178.858 61.9874 178.782 61.4444ZM185.195 62.3677C184.596 62.281 184.183 61.7271 184.27 61.1298C184.347 60.5442 184.901 60.1313 185.5 60.2181C185.5 60.2181 185.5 60.2181 185.5 60.2072C186.099 60.294 186.513 60.8479 186.426 61.4444C186.35 61.9874 185.881 62.3786 185.348 62.3786C185.294 62.3786 185.239 62.3677 185.195 62.3677Z" fill="#32BD9F"/>
<path d="M201.899 81.4096C201.605 81.4096 201.332 81.2903 201.125 81.095C201.071 81.0408 201.027 80.9866 200.984 80.9208C200.951 80.8666 200.918 80.8015 200.886 80.7364C200.864 80.6713 200.842 80.6062 200.831 80.5303C200.81 80.4653 200.81 80.3893 200.81 80.3243C200.81 80.0423 200.918 79.7595 201.125 79.5535C201.528 79.1514 202.258 79.1514 202.66 79.5535C202.867 79.7595 202.987 80.0423 202.987 80.3243C202.987 80.3893 202.977 80.4653 202.966 80.5303C202.944 80.607 202.922 80.6713 202.9 80.7364C202.868 80.8015 202.835 80.8666 202.802 80.9208C202.759 80.9859 202.715 81.0408 202.661 81.095C202.618 81.1384 202.563 81.1818 202.498 81.2252C202.443 81.2577 202.378 81.3011 202.313 81.3228C202.248 81.3553 202.172 81.377 202.106 81.3879C202.04 81.3994 201.964 81.4096 201.899 81.4096Z" fill="#32BD9F"/>
<path d="M294.869 86.8379C294.574 86.8379 294.301 86.7186 294.095 86.5125C294.041 86.4692 293.998 86.4142 293.965 86.3491C293.921 86.2949 293.888 86.2298 293.856 86.1647C293.834 86.0997 293.813 86.0346 293.801 85.9587C293.78 85.8936 293.78 85.8177 293.78 85.7526C293.78 85.6767 293.78 85.6116 293.801 85.535C293.813 85.4706 293.834 85.4048 293.856 85.3289C293.888 85.2638 293.921 85.2096 293.965 85.1445C293.998 85.0903 294.042 85.036 294.095 84.9818C294.193 84.8842 294.314 84.7974 294.444 84.7425C294.716 84.634 295.021 84.634 295.282 84.7425C295.412 84.7967 295.533 84.8842 295.631 84.9818C295.685 85.036 295.729 85.0903 295.772 85.1445C295.805 85.2096 295.848 85.2638 295.87 85.3289C295.903 85.4055 295.914 85.4706 295.935 85.535C295.946 85.6116 295.957 85.6767 295.957 85.7526C295.957 85.8177 295.946 85.8936 295.935 85.9587C295.914 86.0353 295.903 86.0997 295.87 86.1647C295.848 86.2298 295.806 86.2949 295.772 86.3491C295.729 86.4142 295.685 86.4692 295.631 86.5125C295.434 86.7186 295.151 86.8379 294.869 86.8379Z" fill="#32BD9F"/>
<path d="M245.53 133C244.932 132.956 244.474 132.446 244.518 131.848C244.55 131.251 245.062 130.796 245.661 130.828C246.26 130.872 246.728 131.382 246.685 131.979C246.652 132.554 246.173 133 245.596 133C245.574 133 245.553 133 245.53 133ZM250.333 131.979C250.301 131.382 250.758 130.861 251.357 130.828C251.956 130.785 252.467 131.24 252.51 131.838C252.543 132.436 252.086 132.956 251.487 132.989C251.465 132.989 251.444 133 251.421 133C250.845 133 250.376 132.554 250.333 131.979ZM239.618 132.261C239.618 132.261 239.618 132.261 239.618 132.272C239.03 132.153 238.639 131.588 238.747 131.002C238.868 130.405 239.433 130.025 240.021 130.133C240.62 130.241 241.002 130.806 240.892 131.403C240.794 131.924 240.338 132.282 239.826 132.282C239.76 132.283 239.694 132.272 239.618 132.261ZM256.126 131.393C256.017 130.796 256.408 130.232 256.997 130.123C257.585 130.003 258.162 130.394 258.271 130.98C258.38 131.566 257.999 132.141 257.4 132.251C257.4 132.251 257.4 132.251 257.411 132.251C257.335 132.261 257.269 132.272 257.204 132.272C256.681 132.272 256.234 131.903 256.126 131.393ZM233.847 130.796C233.27 130.611 232.954 130.004 233.139 129.428C233.324 128.864 233.945 128.549 234.511 128.734C235.089 128.919 235.393 129.526 235.208 130.102C235.067 130.558 234.631 130.851 234.173 130.851C234.065 130.85 233.956 130.828 233.847 130.796ZM261.799 130.079C261.614 129.504 261.929 128.896 262.507 128.711C263.073 128.527 263.684 128.831 263.88 129.406C264.064 129.971 263.749 130.589 263.171 130.774C263.063 130.807 262.953 130.828 262.845 130.828C262.376 130.828 261.95 130.535 261.799 130.079ZM228.294 128.614C227.749 128.353 227.521 127.713 227.771 127.17C228.033 126.627 228.675 126.388 229.219 126.648C229.764 126.898 230.003 127.549 229.742 128.092C229.557 128.483 229.165 128.711 228.762 128.711C228.599 128.711 228.446 128.679 228.294 128.614ZM267.264 128.06C267.015 127.517 267.243 126.877 267.787 126.616C268.332 126.367 268.984 126.595 269.235 127.138C269.497 127.681 269.256 128.332 268.712 128.582C268.571 128.658 268.409 128.69 268.255 128.69C267.842 128.689 267.45 128.451 267.264 128.06ZM223.067 125.747C222.566 125.422 222.414 124.76 222.729 124.249C223.056 123.739 223.731 123.598 224.232 123.913C224.744 124.239 224.896 124.901 224.57 125.412C224.363 125.737 224.014 125.922 223.655 125.922C223.448 125.922 223.252 125.867 223.067 125.747ZM272.426 125.379C272.11 124.879 272.251 124.206 272.764 123.88C273.275 123.554 273.94 123.706 274.267 124.217C274.593 124.716 274.442 125.389 273.929 125.715C273.756 125.823 273.548 125.888 273.352 125.888C272.993 125.889 272.634 125.704 272.426 125.379ZM218.243 122.252C217.786 121.872 217.72 121.188 218.102 120.732C218.483 120.265 219.169 120.2 219.637 120.58C220.095 120.961 220.16 121.644 219.779 122.111C219.561 122.371 219.256 122.501 218.941 122.501C218.7 122.501 218.45 122.426 218.243 122.252ZM277.218 122.078C276.825 121.612 276.891 120.927 277.359 120.548C277.827 120.168 278.513 120.222 278.894 120.689C279.275 121.146 279.21 121.841 278.753 122.22C278.546 122.384 278.295 122.47 278.055 122.47C277.74 122.469 277.435 122.339 277.218 122.078ZM213.898 118.191C213.484 117.757 213.506 117.073 213.941 116.661C214.388 116.248 215.074 116.27 215.488 116.705C215.902 117.139 215.88 117.823 215.445 118.235C215.226 118.431 214.965 118.528 214.693 118.528C214.4 118.528 214.116 118.419 213.898 118.191ZM281.551 118.202C281.116 117.79 281.094 117.095 281.507 116.661C281.911 116.226 282.607 116.204 283.043 116.617C283.478 117.018 283.499 117.713 283.086 118.148C282.88 118.376 282.585 118.496 282.302 118.496C282.03 118.496 281.758 118.397 281.551 118.202ZM210.098 113.621C209.739 113.144 209.848 112.46 210.338 112.101C210.817 111.754 211.503 111.862 211.851 112.34C212.211 112.828 212.101 113.502 211.612 113.86C211.427 114.001 211.198 114.066 210.98 114.066C210.643 114.066 210.305 113.914 210.098 113.621ZM285.373 113.817C284.883 113.458 284.774 112.775 285.133 112.297C285.482 111.808 286.168 111.7 286.648 112.058C287.137 112.405 287.247 113.089 286.887 113.567C286.68 113.859 286.342 114.022 286.005 114.022C285.788 114.023 285.558 113.947 285.373 113.817ZM206.897 108.616C206.604 108.094 206.788 107.433 207.322 107.139C207.845 106.846 208.509 107.041 208.803 107.562C209.086 108.084 208.901 108.746 208.368 109.039C208.204 109.126 208.019 109.169 207.845 109.169C207.464 109.17 207.093 108.974 206.897 108.616ZM288.607 108.985C288.084 108.692 287.888 108.03 288.183 107.509C288.477 106.987 289.129 106.792 289.663 107.085C290.186 107.368 290.382 108.029 290.089 108.562C289.892 108.919 289.522 109.115 289.129 109.115C288.956 109.115 288.782 109.072 288.607 108.985ZM204.35 103.242C204.12 102.689 204.392 102.059 204.959 101.831C205.514 101.613 206.146 101.885 206.374 102.439C206.592 103.003 206.32 103.633 205.764 103.85C205.623 103.905 205.493 103.927 205.361 103.927C204.926 103.926 204.513 103.677 204.35 103.242ZM291.22 103.785C290.665 103.568 290.382 102.938 290.611 102.384V102.374C290.829 101.82 291.461 101.549 292.027 101.765C292.581 101.993 292.854 102.623 292.637 103.177C292.462 103.601 292.049 103.861 291.624 103.861C291.481 103.861 291.351 103.839 291.22 103.785ZM202.498 97.597C202.346 97.0215 202.694 96.4242 203.282 96.2724C203.859 96.1206 204.458 96.4785 204.6 97.054C204.752 97.6404 204.403 98.2268 203.827 98.378C203.728 98.3996 203.641 98.4112 203.555 98.4112C203.064 98.4112 202.618 98.0851 202.498 97.597ZM293.148 98.302C292.57 98.161 292.211 97.5638 292.364 96.9882C292.516 96.4018 293.103 96.0548 293.692 96.1957C294.269 96.3476 294.617 96.9448 294.476 97.5197C294.345 98.0085 293.899 98.3338 293.42 98.3338C293.333 98.3346 293.235 98.3237 293.148 98.302ZM201.377 91.7562C201.3 91.1698 201.725 90.6267 202.324 90.5508C202.912 90.4749 203.457 90.8986 203.533 91.485C203.609 92.0815 203.195 92.6245 202.596 92.7005C202.542 92.7113 202.498 92.7113 202.455 92.7113C201.921 92.7113 201.441 92.3093 201.377 91.7562ZM294.368 92.6246C293.769 92.5486 293.344 92.0056 293.42 91.4199C293.497 90.8227 294.04 90.3997 294.639 90.4756C295.238 90.5515 295.662 91.0946 295.587 91.6802C295.51 92.2341 295.042 92.6354 294.508 92.6354C294.465 92.6347 294.411 92.6347 294.368 92.6246Z" fill="#32BD9F"/>
<path d="M202.085 86.8378C201.801 86.8378 201.518 86.7185 201.312 86.5124C201.213 86.4141 201.137 86.2948 201.083 86.1646C201.028 86.0345 200.996 85.8935 200.996 85.7525C200.996 85.6115 201.029 85.4705 201.083 85.3288C201.138 85.1986 201.214 85.0793 201.312 84.9817C201.616 84.678 202.106 84.5797 202.498 84.7424C202.639 84.8074 202.759 84.8841 202.858 84.9817C202.956 85.0793 203.032 85.1994 203.086 85.3288C203.151 85.4705 203.173 85.6115 203.173 85.7525C203.173 85.8935 203.151 86.0352 203.086 86.1646C203.031 86.2948 202.956 86.4141 202.858 86.5124C202.759 86.6202 202.639 86.6968 202.498 86.751C202.367 86.8053 202.226 86.8378 202.085 86.8378Z" fill="#32BD9F"/>
<path d="M281.278 86.8383C281.137 86.8383 280.995 86.8057 280.865 86.7515C280.734 86.6973 280.615 86.6214 280.505 86.5129C280.309 86.3177 280.189 86.035 280.189 85.753C280.189 85.612 280.222 85.471 280.276 85.3408C280.331 85.1998 280.407 85.0798 280.505 84.9822C280.614 84.8846 280.733 84.8079 280.865 84.7428C281.061 84.6669 281.278 84.6452 281.496 84.6886C281.562 84.6995 281.627 84.7212 281.692 84.7428C281.758 84.7754 281.823 84.8079 281.889 84.8513C281.943 84.8838 281.997 84.9279 282.051 84.9815C282.15 85.0791 282.226 85.1991 282.279 85.3401C282.335 85.4702 282.367 85.6112 282.367 85.7522C282.367 86.035 282.248 86.3169 282.05 86.5122C281.996 86.5664 281.942 86.6098 281.888 86.6532C281.822 86.6966 281.757 86.7291 281.691 86.7508C281.627 86.784 281.562 86.8057 281.496 86.8159C281.419 86.8274 281.355 86.8383 281.278 86.8383Z" fill="#32BD9F"/>
<path d="M247.414 118.453C247.414 117.856 247.893 117.367 248.503 117.367C249.102 117.367 249.592 117.855 249.592 118.453C249.592 119.05 249.102 119.539 248.503 119.539C247.894 119.538 247.414 119.061 247.414 118.453ZM242.623 119.039C242.024 118.941 241.633 118.376 241.731 117.78C241.839 117.193 242.394 116.791 242.994 116.901C243.581 116.999 243.984 117.563 243.876 118.16C243.789 118.681 243.32 119.061 242.808 119.061C242.743 119.061 242.678 119.049 242.623 119.039ZM253.121 118.149C253.011 117.562 253.415 116.998 254.002 116.89C254.601 116.791 255.156 117.183 255.265 117.769C255.373 118.366 254.972 118.93 254.383 119.028C254.317 119.039 254.253 119.049 254.187 119.049C253.676 119.049 253.208 118.681 253.121 118.149ZM236.917 117.519C236.351 117.324 236.057 116.694 236.264 116.13C236.46 115.565 237.091 115.283 237.658 115.478C238.223 115.684 238.508 116.314 238.31 116.868C238.148 117.313 237.734 117.584 237.288 117.584C237.157 117.584 237.038 117.562 236.917 117.519ZM258.696 116.856C258.488 116.292 258.771 115.673 259.338 115.467C259.904 115.261 260.535 115.553 260.731 116.118C260.939 116.683 260.656 117.301 260.089 117.508C259.958 117.551 259.838 117.573 259.708 117.573C259.272 117.574 258.848 117.302 258.696 116.856ZM231.56 115.033C231.037 114.74 230.863 114.077 231.157 113.556C231.462 113.035 232.126 112.851 232.649 113.155C233.172 113.459 233.346 114.121 233.04 114.642C232.845 114.989 232.474 115.185 232.104 115.185C231.92 115.185 231.734 115.141 231.56 115.033ZM263.943 114.62C263.649 114.099 263.824 113.437 264.346 113.133C264.869 112.829 265.533 113.003 265.838 113.524C266.133 114.045 265.959 114.707 265.435 115.011C265.261 115.109 265.075 115.152 264.89 115.152C264.52 115.152 264.151 114.968 263.943 114.62ZM226.714 111.668C226.714 111.668 226.714 111.668 226.725 111.668C226.257 111.277 226.202 110.593 226.584 110.137C226.975 109.671 227.661 109.616 228.119 109.996C228.577 110.386 228.642 111.07 228.25 111.527C228.043 111.787 227.727 111.917 227.422 111.917C227.172 111.917 226.922 111.83 226.714 111.668ZM268.735 111.493C268.342 111.037 268.408 110.354 268.865 109.963C269.323 109.583 270.019 109.637 270.401 110.104C270.792 110.561 270.727 111.244 270.27 111.624C270.063 111.798 269.812 111.885 269.572 111.885C269.257 111.884 268.953 111.754 268.735 111.493ZM222.544 107.499C222.152 107.042 222.206 106.358 222.675 105.978C223.132 105.587 223.819 105.642 224.21 106.108C224.592 106.564 224.536 107.248 224.069 107.639C223.872 107.802 223.622 107.888 223.372 107.888C223.067 107.89 222.762 107.759 222.544 107.499ZM272.905 107.596C272.448 107.216 272.394 106.533 272.775 106.065C273.156 105.61 273.853 105.556 274.31 105.935C274.767 106.326 274.832 107.01 274.441 107.466C274.222 107.727 273.918 107.856 273.612 107.856C273.362 107.856 273.112 107.77 272.905 107.596ZM219.147 102.689C218.841 102.167 219.016 101.506 219.538 101.201C220.061 100.909 220.725 101.082 221.03 101.603C221.324 102.113 221.15 102.786 220.627 103.08C220.464 103.178 220.267 103.232 220.082 103.232C219.713 103.232 219.343 103.037 219.147 102.689ZM276.347 103.037C275.824 102.744 275.649 102.071 275.943 101.56C276.247 101.039 276.912 100.865 277.435 101.158C277.957 101.462 278.131 102.124 277.838 102.645C277.631 102.992 277.261 103.188 276.89 103.188C276.706 103.188 276.52 103.134 276.347 103.037ZM216.643 97.3583C216.436 96.7936 216.719 96.1754 217.285 95.9686C217.851 95.7625 218.472 96.0554 218.678 96.6092C218.885 97.1739 218.602 97.8037 218.036 98.0098C217.905 98.0532 217.785 98.0749 217.654 98.0749C217.22 98.0749 216.795 97.8037 216.643 97.3583ZM278.938 97.9556C278.371 97.7488 278.078 97.1306 278.284 96.5658C278.491 96.0011 279.112 95.7083 279.677 95.9144C280.245 96.1204 280.538 96.7502 280.33 97.3041C280.168 97.7488 279.754 98.0199 279.307 98.0199C279.188 98.0206 279.057 97.999 278.938 97.9556ZM215.107 91.67C214.998 91.0836 215.39 90.5189 215.989 90.4213C216.577 90.3135 217.144 90.704 217.252 91.3005H217.241C217.35 91.8869 216.957 92.4516 216.359 92.5492C216.305 92.5601 216.239 92.5709 216.174 92.5709C215.652 92.5709 215.194 92.2014 215.107 91.67ZM280.593 92.5058C280.005 92.3974 279.614 91.8327 279.712 91.2463C279.82 90.6599 280.375 90.2578 280.975 90.367C281.563 90.4646 281.965 91.0294 281.857 91.6158C281.77 92.1479 281.312 92.5167 280.79 92.5167C280.723 92.516 280.659 92.516 280.593 92.5058Z" fill="#32BD9F"/>
<path d="M215.674 86.8385C215.597 86.8385 215.532 86.8277 215.455 86.8168C215.39 86.7951 215.325 86.7843 215.26 86.7518C215.194 86.7301 215.129 86.6867 215.063 86.6542C215.008 86.6108 214.954 86.5674 214.9 86.524C214.703 86.3179 214.584 86.0359 214.584 85.7532C214.584 85.4604 214.703 85.1885 214.9 84.9824C214.954 84.9282 215.008 84.8848 215.063 84.8523C215.128 84.8089 215.194 84.7764 215.26 84.7438C215.324 84.7221 215.39 84.7012 215.455 84.6896C215.674 84.6462 215.891 84.6679 216.087 84.7438C216.218 84.798 216.337 84.8855 216.447 84.9832C216.643 85.1892 216.763 85.4604 216.763 85.7539C216.763 86.0367 216.643 86.3187 216.447 86.5247C216.338 86.6223 216.218 86.6983 216.087 86.7525C215.957 86.806 215.815 86.8385 215.674 86.8385Z" fill="#32BD9F"/>
<path d="M267.58 80.3239C267.505 80.3239 267.439 80.3131 267.363 80.3022C267.297 80.2805 267.222 80.2697 267.156 80.2372C267.091 80.2155 267.025 80.1721 266.971 80.1395C266.917 80.0962 266.851 80.0528 266.807 79.9985C266.601 79.8026 266.491 79.5206 266.491 79.2386C266.491 78.9458 266.6 78.6638 266.807 78.4678C266.851 78.4136 266.917 78.3702 266.971 78.3377C267.025 78.2943 267.091 78.2618 267.156 78.2292C267.222 78.2075 267.297 78.1866 267.363 78.175C267.723 78.0991 268.093 78.2184 268.342 78.4678C268.397 78.5221 268.44 78.5763 268.484 78.6305C268.516 78.6956 268.561 78.7498 268.582 78.8149C268.614 78.8915 268.625 78.9566 268.647 79.021C268.658 79.0976 268.668 79.1627 268.668 79.2386C268.668 79.5213 268.549 79.8033 268.342 79.9985C268.147 80.2046 267.864 80.3239 267.58 80.3239Z" fill="#32BD9F"/>
<path d="M267.875 74.6458C267.286 74.5373 266.894 73.9834 266.992 73.3862C267.102 72.7998 267.667 72.3985 268.255 72.5069C268.843 72.6053 269.247 73.1693 269.138 73.7665C269.051 74.2878 268.593 74.6573 268.07 74.6573C268.005 74.6573 267.939 74.6573 267.875 74.6458ZM331.335 73.7123C331.226 73.1259 331.629 72.5612 332.217 72.4527C332.805 72.3551 333.372 72.7455 333.48 73.3319C333.48 73.3319 333.48 73.3319 333.48 73.3428C333.589 73.9292 333.186 74.4939 332.598 74.5915C332.533 74.6024 332.468 74.6132 332.413 74.6132C331.89 74.6139 331.422 74.2445 331.335 73.7123ZM269.159 69.1093C268.604 68.9032 268.31 68.2843 268.516 67.7203C268.712 67.1556 269.344 66.8728 269.91 67.0688C270.476 67.2749 270.77 67.9046 270.563 68.4694C270.401 68.9032 269.986 69.1751 269.54 69.1751C269.41 69.1743 269.29 69.1527 269.159 69.1093ZM329.908 68.4253C329.701 67.8605 329.985 67.2308 330.551 67.0247C331.118 66.8186 331.749 67.1115 331.955 67.6762C332.163 68.2409 331.868 68.8591 331.303 69.0659C331.182 69.1093 331.052 69.131 330.933 69.131C330.486 69.131 330.072 68.8591 329.908 68.4253ZM271.403 63.8873C270.88 63.5945 270.705 62.9322 271 62.4108C271.305 61.8895 271.968 61.716 272.491 62.0088C273.013 62.3132 273.188 62.9748 272.882 63.4961C272.686 63.8432 272.317 64.0392 271.947 64.0392C271.762 64.0392 271.565 63.9958 271.403 63.8873ZM327.568 63.4528H327.579C327.273 62.9314 327.448 62.2698 327.97 61.9763C328.483 61.6719 329.158 61.8461 329.452 62.3667C329.452 62.3667 329.452 62.3667 329.463 62.3667C329.757 62.888 329.583 63.5496 329.059 63.8541C328.886 63.9517 328.701 63.9951 328.515 63.9951C328.144 63.9958 327.774 63.8005 327.568 63.4528ZM274.516 59.1317C274.048 58.7514 273.994 58.0681 274.375 57.6119C274.767 57.1448 275.453 57.0905 275.91 57.4709C276.378 57.8613 276.433 58.5453 276.051 59.0016H276.041C275.833 59.2626 275.518 59.3928 275.213 59.3928C274.963 59.3928 274.713 59.306 274.516 59.1317ZM324.409 58.9691C324.017 58.5128 324.083 57.8295 324.54 57.4383C324.998 57.0479 325.683 57.1129 326.075 57.5685C326.456 58.024 326.402 58.708 325.945 59.0992C325.737 59.2727 325.488 59.3595 325.236 59.3595C324.933 59.3602 324.617 59.2192 324.409 58.9691ZM278.404 54.985C278.012 54.5295 278.078 53.8447 278.535 53.4651C278.991 53.0739 279.688 53.1289 280.07 53.5953C280.451 54.0515 280.396 54.7355 279.939 55.126C279.732 55.2887 279.482 55.3754 279.231 55.3754C278.928 55.3754 278.622 55.2453 278.404 54.985ZM320.511 55.0934C320.044 54.7131 319.989 54.0182 320.37 53.5627C320.762 53.1072 321.448 53.0414 321.905 53.4326C322.373 53.8129 322.427 54.4962 322.047 54.9633C321.828 55.2127 321.524 55.3436 321.208 55.3436C320.958 55.3436 320.719 55.267 320.511 55.0934ZM282.955 51.5757C282.652 51.0544 282.825 50.3928 283.348 50.0884C283.87 49.7956 284.534 49.9691 284.84 50.4904C285.133 51.0118 284.958 51.6734 284.436 51.9669C284.272 52.0754 284.077 52.1188 283.892 52.1188C283.522 52.1188 283.152 51.9228 282.955 51.5757ZM316.003 51.9445C315.481 51.6517 315.306 50.9785 315.6 50.468C315.906 49.9467 316.569 49.7623 317.092 50.066C317.603 50.3704 317.788 51.0327 317.484 51.5533C317.288 51.9004 316.918 52.0964 316.548 52.0964C316.363 52.0971 316.178 52.0428 316.003 51.9445ZM288.03 49.0031C287.824 48.4384 288.117 47.8086 288.672 47.6134C288.672 47.6134 288.672 47.6134 288.672 47.6025C289.239 47.3964 289.87 47.6893 290.077 48.254C290.284 48.8187 289.99 49.4369 289.424 49.6437C289.304 49.698 289.173 49.7081 289.054 49.7081C288.607 49.7081 288.194 49.4369 288.03 49.0031ZM311.016 49.6329C310.449 49.4268 310.156 48.8079 310.362 48.2432C310.569 47.6784 311.19 47.3856 311.756 47.5917C312.323 47.7977 312.616 48.4167 312.41 48.9814C312.246 49.4268 311.833 49.698 311.386 49.698C311.266 49.698 311.136 49.6763 311.016 49.6329ZM293.474 47.3422C293.376 46.7558 293.768 46.1911 294.357 46.0935C294.956 45.985 295.521 46.3755 295.619 46.9727C295.729 47.5584 295.325 48.1231 294.737 48.2316C294.673 48.2424 294.607 48.2424 294.552 48.2424C294.029 48.2432 293.572 47.8737 293.474 47.3422ZM305.703 48.2215C305.103 48.1231 304.711 47.5591 304.82 46.9619C304.918 46.3755 305.485 45.9735 306.072 46.0826C306.671 46.1803 307.064 46.745 306.954 47.3422C306.867 47.8635 306.41 48.2323 305.887 48.2323C305.822 48.2316 305.768 48.2316 305.703 48.2215ZM299.126 46.6683C299.126 46.0718 299.616 45.583 300.214 45.583C300.812 45.583 301.303 46.0602 301.303 46.6683C301.303 47.2656 300.824 47.7544 300.214 47.7544C299.616 47.7544 299.126 47.2656 299.126 46.6683Z" fill="#32BD9F"/>
<path d="M332.903 80.3241C332.62 80.3241 332.337 80.2048 332.14 79.9987C331.934 79.8028 331.814 79.5208 331.814 79.2388C331.814 79.0978 331.847 78.9568 331.901 78.8151C331.955 78.6849 332.032 78.5656 332.14 78.468C332.544 78.066 333.273 78.066 333.676 78.468C333.773 78.5656 333.861 78.6857 333.916 78.8151C333.97 78.9568 333.991 79.0978 333.991 79.2388C333.991 79.5215 333.883 79.8035 333.676 79.9987C333.48 80.2048 333.198 80.3241 332.903 80.3241Z" fill="#32BD9F"/>
<path d="M280.963 80.3236C280.68 80.3236 280.397 80.2043 280.189 79.9982C280.146 79.9549 280.092 79.8999 280.059 79.8348C280.016 79.7806 279.984 79.7155 279.95 79.6505C279.929 79.5854 279.907 79.5203 279.896 79.4444C279.873 79.3793 279.873 79.3034 279.873 79.2383C279.873 79.0973 279.896 78.9563 279.95 78.8146C280.005 78.6844 280.092 78.5651 280.189 78.4675C280.593 78.0655 281.322 78.0655 281.725 78.4675C281.834 78.5651 281.91 78.6852 281.964 78.8146C282.019 78.9563 282.051 79.0973 282.051 79.2383C282.051 79.521 281.932 79.803 281.725 79.9982C281.53 80.2043 281.247 80.3236 280.963 80.3236Z" fill="#32BD9F"/>
<path d="M281.432 74.8525C280.854 74.6898 280.528 74.0817 280.691 73.5068C280.865 72.9313 281.464 72.6059 282.041 72.7686C282.618 72.9428 282.955 73.5394 282.781 74.1149C282.64 74.5929 282.205 74.8966 281.736 74.8966C281.638 74.8958 281.53 74.885 281.432 74.8525ZM317.691 74.1034C317.527 73.5285 317.855 72.9204 318.431 72.7577C319.008 72.5842 319.617 72.9096 319.781 73.4851C319.781 73.4851 319.781 73.4851 319.781 73.496C319.955 74.0607 319.629 74.6688 319.052 74.8423C318.943 74.864 318.844 74.8857 318.736 74.8857C318.268 74.885 317.832 74.5697 317.691 74.1034ZM283.435 69.7498C282.924 69.4237 282.781 68.7505 283.108 68.2509C283.435 67.7411 284.1 67.6001 284.611 67.9255C285.112 68.2509 285.264 68.9241 284.937 69.4237C284.73 69.7498 284.383 69.9233 284.023 69.9233C283.816 69.9233 283.61 69.8691 283.435 69.7498ZM315.535 69.4136C315.209 68.9031 315.35 68.2408 315.863 67.9147C316.364 67.5893 317.039 67.7303 317.365 68.2292C317.692 68.7397 317.55 69.4129 317.039 69.7382C316.865 69.8575 316.658 69.9118 316.451 69.9118C316.101 69.9125 315.742 69.7281 315.535 69.4136ZM286.789 65.4179C286.397 64.9617 286.451 64.2784 286.898 63.8872C287.355 63.4859 288.041 63.5402 288.444 63.9957C288.836 64.4411 288.782 65.1359 288.325 65.5264C288.117 65.6999 287.867 65.7867 287.616 65.7867C287.311 65.7867 287.006 65.6674 286.789 65.4179ZM312.138 65.5156C311.691 65.1251 311.636 64.4411 312.029 63.9848C312.432 63.5293 313.118 63.4852 313.564 63.8764C314.021 64.2668 314.075 64.9508 313.673 65.4071C313.467 65.6566 313.161 65.7759 312.856 65.7759C312.606 65.7766 312.345 65.6891 312.138 65.5156ZM291.242 62.1931C290.981 61.6501 291.22 61.0102 291.776 60.76C292.321 60.5105 292.963 60.7491 293.213 61.2921C293.464 61.8352 293.224 62.4859 292.68 62.7354C292.527 62.8005 292.374 62.8337 292.223 62.8337C291.808 62.8344 291.416 62.5951 291.242 62.1931ZM307.793 62.7253C307.238 62.4758 306.998 61.8352 307.249 61.2921C307.499 60.7383 308.141 60.4997 308.697 60.7491C309.242 60.9986 309.481 61.6392 309.23 62.1924C309.045 62.5835 308.653 62.8222 308.24 62.8222C308.087 62.8229 307.935 62.7903 307.793 62.7253ZM296.414 60.3587C296.327 59.7614 296.74 59.2191 297.339 59.1316C297.927 59.0449 298.484 59.4577 298.569 60.0543C298.656 60.6407 298.243 61.1938 297.644 61.2806C297.59 61.2806 297.535 61.2914 297.492 61.2914C296.959 61.2929 296.491 60.901 296.414 60.3587ZM302.828 61.2813C302.229 61.1945 301.815 60.6407 301.902 60.0434C301.979 59.4577 302.534 59.0449 303.133 59.1316C303.721 59.2076 304.135 59.7614 304.058 60.3587C303.972 60.9017 303.514 61.2929 302.981 61.2929C302.925 61.2929 302.871 61.2813 302.828 61.2813Z" fill="#32BD9F"/>
<path d="M319.52 80.3236C319.237 80.3236 318.954 80.2043 318.747 79.9982C318.551 79.8023 318.431 79.5203 318.431 79.2383C318.431 78.9455 318.551 78.6736 318.747 78.4675C319.16 78.0655 319.89 78.0655 320.293 78.4675C320.5 78.6736 320.609 78.9455 320.609 79.2383C320.609 79.521 320.5 79.803 320.293 79.9982C320.087 80.2043 319.814 80.3236 319.52 80.3236Z" fill="#32BD9F"/>
<path d="M398.911 85.7523C398.618 85.7523 398.346 85.633 398.138 85.427C397.942 85.2317 397.823 84.9497 397.823 84.667C397.823 84.3742 397.943 84.0922 398.138 83.8962C398.541 83.4942 399.281 83.4942 399.684 83.8962C399.88 84.1023 400.001 84.3742 400.001 84.667C400.001 84.9497 399.88 85.2317 399.684 85.427C399.478 85.633 399.194 85.7523 398.911 85.7523Z" fill="#32BD9F"/>
<path d="M365.035 117.367C365.035 116.77 365.525 116.282 366.124 116.282C366.734 116.282 367.213 116.77 367.225 117.367C367.225 117.964 366.734 118.453 366.124 118.453C365.525 118.453 365.035 117.975 365.035 117.367ZM360.245 117.953C360.245 117.953 360.245 117.953 360.256 117.953C359.657 117.855 359.265 117.29 359.363 116.705C359.461 116.107 360.027 115.705 360.626 115.814C361.214 115.912 361.617 116.476 361.508 117.073C361.421 117.595 360.952 117.974 360.441 117.974C360.376 117.975 360.31 117.964 360.245 117.953ZM370.752 117.063C370.643 116.476 371.047 115.912 371.635 115.804C372.223 115.705 372.788 116.097 372.898 116.683C372.996 117.28 372.604 117.844 372.015 117.942C371.951 117.953 371.885 117.964 371.82 117.964C371.308 117.964 370.839 117.584 370.752 117.063ZM354.539 116.434C353.974 116.238 353.689 115.609 353.886 115.044C354.092 114.479 354.724 114.197 355.291 114.392C355.857 114.598 356.14 115.228 355.934 115.793C355.781 116.227 355.356 116.499 354.91 116.499C354.79 116.499 354.67 116.477 354.539 116.434ZM376.317 115.771C376.111 115.206 376.404 114.588 376.969 114.381C377.536 114.175 378.157 114.468 378.363 115.033C378.571 115.586 378.276 116.216 377.721 116.423C377.59 116.466 377.47 116.488 377.34 116.488C376.894 116.488 376.481 116.217 376.317 115.771ZM349.192 113.948C348.67 113.655 348.485 112.992 348.789 112.47C349.094 111.949 349.759 111.776 350.281 112.069C350.793 112.373 350.978 113.035 350.673 113.556C350.477 113.904 350.106 114.099 349.726 114.099C349.552 114.099 349.356 114.055 349.192 113.948ZM381.576 113.535C381.271 113.013 381.456 112.352 381.979 112.048C382.49 111.744 383.166 111.918 383.461 112.439C383.765 112.96 383.591 113.622 383.068 113.926C382.894 114.024 382.709 114.078 382.524 114.078C382.142 114.077 381.783 113.883 381.576 113.535ZM344.346 110.582C343.889 110.191 343.824 109.507 344.216 109.051C344.597 108.585 345.283 108.53 345.751 108.91C346.208 109.301 346.264 109.985 345.882 110.441C345.663 110.701 345.359 110.831 345.043 110.831C344.805 110.831 344.554 110.744 344.346 110.582ZM386.367 110.408C385.975 109.952 386.04 109.269 386.497 108.878C386.956 108.498 387.642 108.552 388.033 109.019C388.414 109.475 388.36 110.159 387.902 110.539C387.696 110.713 387.444 110.799 387.195 110.799C386.89 110.799 386.585 110.669 386.367 110.408ZM340.165 106.423C339.785 105.956 339.839 105.272 340.307 104.893C340.764 104.502 341.451 104.557 341.832 105.023C342.224 105.479 342.158 106.162 341.701 106.554C341.506 106.716 341.255 106.803 341.005 106.803C340.699 106.804 340.384 106.674 340.165 106.423ZM390.538 106.511C390.08 106.131 390.015 105.447 390.408 104.98C390.788 104.524 391.474 104.47 391.942 104.85C392.4 105.241 392.455 105.925 392.073 106.381C391.856 106.642 391.55 106.771 391.235 106.771C390.996 106.771 390.745 106.684 390.538 106.511ZM336.768 101.604C336.474 101.082 336.649 100.421 337.171 100.127C337.684 99.8226 338.357 99.9969 338.652 100.517H338.663C338.957 101.027 338.783 101.7 338.26 101.994C338.085 102.102 337.9 102.146 337.715 102.146C337.335 102.147 336.975 101.951 336.768 101.604ZM393.978 101.951C393.456 101.658 393.282 100.995 393.575 100.474C393.88 99.9528 394.544 99.7792 395.066 100.072C395.589 100.376 395.764 101.039 395.459 101.559C395.263 101.906 394.893 102.102 394.522 102.102C394.338 102.102 394.153 102.059 393.978 101.951ZM334.264 96.2724C334.058 95.7077 334.351 95.0895 334.918 94.8834C335.483 94.6773 336.104 94.9701 336.311 95.524C336.518 96.0887 336.224 96.7185 335.668 96.9246C335.538 96.968 335.419 96.9897 335.288 96.9897C334.852 96.9897 334.428 96.7178 334.264 96.2724ZM396.57 96.8704C396.004 96.6636 395.71 96.0453 395.917 95.4806C396.124 94.9159 396.745 94.6231 397.311 94.8292C397.877 95.0352 398.171 95.665 397.964 96.2297C397.801 96.6636 397.386 96.9354 396.94 96.9354C396.821 96.9347 396.689 96.9137 396.57 96.8704ZM332.728 90.5841C332.63 89.9976 333.023 89.4329 333.611 89.3245C334.209 89.2269 334.776 89.6173 334.874 90.2037V90.2146C334.983 90.801 334.59 91.3657 333.992 91.4633C333.927 91.4741 333.861 91.485 333.807 91.485C333.285 91.4857 332.827 91.1162 332.728 90.5841ZM398.225 91.4199C397.637 91.3115 397.245 90.7467 397.344 90.1603C397.452 89.5739 398.008 89.1719 398.606 89.2811C399.194 89.3787 399.598 89.9434 399.489 90.5407C399.402 91.062 398.934 91.4308 398.41 91.4308C398.356 91.4308 398.29 91.4308 398.225 91.4199Z" fill="#32BD9F"/>
<path d="M333.306 85.7523C333.012 85.7523 332.74 85.633 332.533 85.427C332.325 85.2317 332.217 84.9497 332.217 84.667C332.217 84.3742 332.325 84.1023 332.533 83.8962C332.936 83.4942 333.665 83.4942 334.068 83.8962C334.274 84.1023 334.394 84.3742 334.394 84.667C334.394 84.9497 334.274 85.2317 334.068 85.427C333.873 85.633 333.588 85.7523 333.306 85.7523Z" fill="#32BD9F"/>
<path d="M267.754 86.8384C267.69 86.8384 267.613 86.8275 267.548 86.8167C267.471 86.8058 267.407 86.7842 267.341 86.7516C267.276 86.7299 267.21 86.6974 267.156 86.654C267.091 86.6106 267.035 86.5672 266.992 86.513C266.883 86.4147 266.807 86.2954 266.753 86.1652C266.698 86.0351 266.666 85.8941 266.666 85.7531C266.666 85.4602 266.786 85.1782 266.992 84.9823C267.035 84.9281 267.09 84.8847 267.156 84.8521C267.21 84.8087 267.276 84.7762 267.341 84.7437C267.407 84.722 267.471 84.701 267.548 84.6894C267.69 84.6569 267.831 84.6569 267.972 84.6894C268.038 84.7003 268.114 84.722 268.168 84.7437C268.245 84.7762 268.299 84.8087 268.365 84.8521C268.419 84.8847 268.473 84.9288 268.527 84.9823C268.724 85.1884 268.843 85.4595 268.843 85.7531C268.843 86.0358 268.724 86.3178 268.527 86.513C268.473 86.5672 268.418 86.6106 268.365 86.654C268.299 86.6974 268.244 86.7299 268.168 86.7516C268.114 86.7849 268.038 86.8066 267.972 86.8167C267.895 86.8275 267.831 86.8384 267.754 86.8384Z" fill="#32BD9F"/>
<path d="M245.585 105.859C244.985 105.773 244.572 105.219 244.659 104.632C244.746 104.035 245.301 103.622 245.89 103.71C246.489 103.796 246.903 104.34 246.816 104.937C246.739 105.48 246.271 105.871 245.737 105.871C245.694 105.87 245.639 105.859 245.585 105.859ZM250.147 104.936C250.06 104.339 250.474 103.785 251.073 103.709C251.672 103.622 252.216 104.034 252.304 104.621C252.391 105.218 251.978 105.772 251.378 105.859C251.324 105.859 251.28 105.87 251.226 105.87C250.692 105.87 250.223 105.479 250.147 104.936ZM240.02 104.23C239.476 103.981 239.236 103.34 239.487 102.797C239.738 102.254 240.38 102.005 240.924 102.254C241.469 102.504 241.718 103.155 241.469 103.698C241.284 104.099 240.891 104.327 240.477 104.327C240.326 104.328 240.173 104.306 240.02 104.23ZM255.504 103.688C255.254 103.145 255.483 102.505 256.038 102.255C256.583 102.005 257.225 102.244 257.476 102.786C257.726 103.329 257.486 103.981 256.942 104.23C256.8 104.295 256.637 104.328 256.495 104.328C256.082 104.328 255.679 104.089 255.504 103.688ZM235.153 101.115C234.696 100.724 234.641 100.029 235.033 99.5847C235.425 99.1284 236.122 99.0742 236.579 99.4646C237.026 99.8666 237.08 100.551 236.688 101.006C236.47 101.246 236.165 101.376 235.861 101.376C235.611 101.376 235.349 101.289 235.153 101.115ZM260.273 100.995C259.882 100.539 259.936 99.8558 260.383 99.4538H260.394C260.841 99.0633 261.527 99.1168 261.929 99.5731C262.321 100.018 262.266 100.703 261.809 101.104C261.809 101.104 261.809 101.104 261.82 101.104C261.614 101.277 261.352 101.364 261.102 101.364C260.796 101.364 260.492 101.235 260.273 100.995ZM231.353 96.7503C231.027 96.2506 231.168 95.5774 231.67 95.2521C232.181 94.9267 232.856 95.0677 233.183 95.5775C233.509 96.0771 233.357 96.7503 232.856 97.0764C232.671 97.1957 232.464 97.2499 232.268 97.2499C231.908 97.2499 231.56 97.0764 231.353 96.7503ZM264.107 97.0547C263.596 96.7401 263.453 96.0662 263.781 95.5565C264.107 95.0568 264.782 94.905 265.283 95.2304C265.795 95.5565 265.936 96.2289 265.61 96.7394C265.402 97.0539 265.054 97.2275 264.695 97.2275C264.488 97.2282 264.292 97.174 264.107 97.0547ZM228.935 91.4958C228.761 90.9209 229.088 90.323 229.666 90.1494C230.242 89.9759 230.852 90.3128 231.027 90.8877C231.19 91.4632 230.863 92.0605 230.287 92.234C230.178 92.2557 230.08 92.2774 229.981 92.2774C229.502 92.2781 229.067 91.9737 228.935 91.4958ZM266.677 92.2123C266.1 92.0489 265.762 91.4415 265.936 90.866C266.1 90.2911 266.709 89.965 267.286 90.1277C267.864 90.3013 268.19 90.8985 268.026 91.4733C267.885 91.9506 267.449 92.255 266.981 92.255C266.873 92.2564 266.775 92.2449 266.677 92.2123Z" fill="#32BD9F"/>
<path d="M229.197 86.8383C228.904 86.8383 228.631 86.719 228.424 86.5129C228.218 86.3177 228.108 86.035 228.108 85.753C228.108 85.612 228.13 85.471 228.184 85.3293C228.239 85.1991 228.326 85.0798 228.424 84.9822C228.828 84.5802 229.557 84.5802 229.96 84.9822C230.068 85.0798 230.145 85.1998 230.199 85.3293C230.253 85.471 230.286 85.612 230.286 85.753C230.286 86.0357 230.166 86.3177 229.96 86.5129C229.764 86.719 229.48 86.8383 229.197 86.8383Z" fill="#32BD9F"/>
<path d="M27.775 80.395C23.8883 81.2383 20.3867 81.66 17.27 81.66C14.1533 81.66 11.66 81.275 9.79 80.505C7.92 79.735 6.45333 78.5067 5.39 76.82C4.32667 75.1333 3.59333 73.1533 3.19 70.88C2.78667 68.6067 2.585 65.7467 2.585 62.3C2.585 55.0767 3.59333 50.0533 5.61 47.23C7.66333 44.37 11.4217 42.94 16.885 42.94C20.0383 42.94 23.6867 43.435 27.83 44.425L27.61 50.475C23.98 49.925 20.955 49.65 18.535 49.65C16.1517 49.65 14.4467 49.98 13.42 50.64C12.3933 51.2633 11.6233 52.4733 11.11 54.27C10.6333 56.0667 10.395 59.1283 10.395 63.455C10.395 67.7817 10.89 70.7883 11.88 72.475C12.9067 74.125 14.9233 74.95 17.93 74.95C20.9733 74.95 24.2 74.6933 27.61 74.18L27.775 80.395ZM54.3383 62.08V73.52C54.4116 74.4 54.5583 75.0233 54.7783 75.39C54.9983 75.72 55.4566 75.9583 56.1533 76.105L55.9333 81.66C54.0633 81.66 52.5599 81.5317 51.4233 81.275C50.3233 81.0183 49.2049 80.505 48.0683 79.735C45.4283 81.0183 42.7333 81.66 39.9833 81.66C34.2999 81.66 31.4583 78.6533 31.4583 72.64C31.4583 69.7067 32.2466 67.635 33.8233 66.425C35.3999 65.1783 37.8199 64.445 41.0833 64.225L46.9683 63.785V62.08C46.9683 60.9433 46.7116 60.1733 46.1983 59.77C45.6849 59.33 44.8599 59.11 43.7233 59.11L33.3833 59.55L33.1633 54.435C37.0866 53.3717 40.8083 52.84 44.3283 52.84C47.8849 52.84 50.4333 53.5733 51.9733 55.04C53.5499 56.5067 54.3383 58.8533 54.3383 62.08ZM41.9633 69.34C39.9099 69.5233 38.8833 70.6233 38.8833 72.64C38.8833 74.6567 39.7816 75.665 41.5783 75.665C42.9716 75.665 44.4933 75.445 46.1433 75.005L46.9683 74.785V68.9L41.9633 69.34ZM68.7341 81H61.3641V53.5H68.6791V55.04C71.2091 53.5733 73.3724 52.84 75.1691 52.84C78.1391 52.84 80.4308 53.7017 82.0441 55.425C85.4174 53.7017 88.4974 52.84 91.2841 52.84C94.9141 52.84 97.4258 53.9033 98.8191 56.03C100.249 58.12 100.964 61.475 100.964 66.095V81H93.5941V66.315C93.5941 63.9683 93.3374 62.245 92.8241 61.145C92.3108 60.0083 91.2841 59.44 89.7441 59.44C88.5708 59.44 87.1408 59.6967 85.4541 60.21L84.6291 60.485C84.7758 63.235 84.8491 65.325 84.8491 66.755V81H77.4791V66.865C77.4791 64.1517 77.2408 62.245 76.7641 61.145C76.2874 60.0083 75.2424 59.44 73.6291 59.44C72.1991 59.44 70.7874 59.6967 69.3941 60.21L68.7341 60.43V81ZM107.502 92.55V53.5H114.817V54.985C117.2 53.555 119.29 52.84 121.087 52.84C124.79 52.84 127.522 53.9583 129.282 56.195C131.042 58.395 131.922 62.1533 131.922 67.47C131.922 72.7867 130.95 76.49 129.007 78.58C127.063 80.6333 123.873 81.66 119.437 81.66C118.227 81.66 116.925 81.55 115.532 81.33L114.872 81.22V92.55H107.502ZM119.657 59.44C118.3 59.44 116.925 59.715 115.532 60.265L114.872 60.54V74.95C116.522 75.17 117.86 75.28 118.887 75.28C121.013 75.28 122.462 74.6567 123.232 73.41C124.038 72.1633 124.442 70.0367 124.442 67.03C124.442 61.97 122.847 59.44 119.657 59.44ZM158.484 62.08V73.52C158.557 74.4 158.704 75.0233 158.924 75.39C159.144 75.72 159.602 75.9583 160.299 76.105L160.079 81.66C158.209 81.66 156.705 81.5317 155.569 81.275C154.469 81.0183 153.35 80.505 152.214 79.735C149.574 81.0183 146.879 81.66 144.129 81.66C138.445 81.66 135.604 78.6533 135.604 72.64C135.604 69.7067 136.392 67.635 137.969 66.425C139.545 65.1783 141.965 64.445 145.229 64.225L151.114 63.785V62.08C151.114 60.9433 150.857 60.1733 150.344 59.77C149.83 59.33 149.005 59.11 147.869 59.11L137.529 59.55L137.309 54.435C141.232 53.3717 144.954 52.84 148.474 52.84C152.03 52.84 154.579 53.5733 156.119 55.04C157.695 56.5067 158.484 58.8533 158.484 62.08ZM146.109 69.34C144.055 69.5233 143.029 70.6233 143.029 72.64C143.029 74.6567 143.927 75.665 145.724 75.665C147.117 75.665 148.639 75.445 150.289 75.005L151.114 74.785V68.9L146.109 69.34ZM165.51 81V53.5H172.825V55.04L173.87 54.49C174.53 54.1233 175.428 53.7567 176.565 53.39C177.738 53.0233 178.783 52.84 179.7 52.84C183.366 52.84 185.896 53.9217 187.29 56.085C188.683 58.2483 189.38 61.585 189.38 66.095C189.38 66.095 189.38 71.0633 189.38 81H182.01V66.315C182.01 63.9683 181.735 62.245 181.185 61.145C180.635 60.0083 179.516 59.44 177.83 59.44C176.143 59.44 174.493 59.77 172.88 60.43V81H165.51ZM186.025 46.405C185.658 46.7717 184.961 47.2667 183.935 47.89C182.908 48.5133 181.973 48.825 181.13 48.825C180.323 48.825 179.076 48.495 177.39 47.835C175.703 47.175 174.603 46.845 174.09 46.845C173.063 46.845 171.871 47.2667 170.515 48.11L169.8 48.55L168.205 44.425C168.938 43.5817 169.855 42.83 170.955 42.17C172.091 41.4733 173.063 41.125 173.87 41.125C174.713 41.125 175.978 41.455 177.665 42.115C179.388 42.775 180.47 43.105 180.91 43.105C181.79 43.105 183 42.6467 184.54 41.73L185.31 41.235L186.905 45.415C186.685 45.6717 186.391 46.0017 186.025 46.405ZM216.975 62.08V73.52C217.048 74.4 217.195 75.0233 217.415 75.39C217.635 75.72 218.093 75.9583 218.79 76.105L218.57 81.66C216.7 81.66 215.197 81.5317 214.06 81.275C212.96 81.0183 211.842 80.505 210.705 79.735C208.065 81.0183 205.37 81.66 202.62 81.66C196.937 81.66 194.095 78.6533 194.095 72.64C194.095 69.7067 194.883 67.635 196.46 66.425C198.037 65.1783 200.457 64.445 203.72 64.225L209.605 63.785V62.08C209.605 60.9433 209.348 60.1733 208.835 59.77C208.322 59.33 207.497 59.11 206.36 59.11L196.02 59.55L195.8 54.435C199.723 53.3717 203.445 52.84 206.965 52.84C210.522 52.84 213.07 53.5733 214.61 55.04C216.187 56.5067 216.975 58.8533 216.975 62.08ZM204.6 69.34C202.547 69.5233 201.52 70.6233 201.52 72.64C201.52 74.6567 202.418 75.665 204.215 75.665C205.608 75.665 207.13 75.445 208.78 75.005L209.605 74.785V68.9L204.6 69.34ZM243.746 60.375C239.199 59.7883 236.009 59.495 234.176 59.495C232.379 59.495 231.206 59.66 230.656 59.99C230.142 60.32 229.886 60.8517 229.886 61.585C229.886 62.2817 230.234 62.7767 230.931 63.07C231.664 63.3267 233.497 63.73 236.431 64.28C239.401 64.7933 241.509 65.655 242.756 66.865C244.002 68.075 244.626 70.0367 244.626 72.75C244.626 78.69 240.941 81.66 233.571 81.66C231.151 81.66 228.217 81.33 224.771 80.67L223.011 80.34L223.231 74.18C227.777 74.7667 230.931 75.06 232.691 75.06C234.487 75.06 235.697 74.895 236.321 74.565C236.981 74.1983 237.311 73.6667 237.311 72.97C237.311 72.2733 236.962 71.76 236.266 71.43C235.606 71.1 233.846 70.6967 230.986 70.22C228.162 69.7433 226.054 68.9367 224.661 67.8C223.267 66.6633 222.571 64.6467 222.571 61.75C222.571 58.8167 223.561 56.6167 225.541 55.15C227.521 53.6467 230.069 52.895 233.186 52.895C235.349 52.895 238.301 53.2433 242.041 53.94L243.856 54.27L243.746 60.375ZM24.475 109.08V120.52C24.5483 121.4 24.695 122.023 24.915 122.39C25.135 122.72 25.5933 122.958 26.29 123.105L26.07 128.66C24.2 128.66 22.6967 128.532 21.56 128.275C20.46 128.018 19.3417 127.505 18.205 126.735C15.565 128.018 12.87 128.66 10.12 128.66C4.43667 128.66 1.595 125.653 1.595 119.64C1.595 116.707 2.38333 114.635 3.96 113.425C5.53667 112.178 7.95667 111.445 11.22 111.225L17.105 110.785V109.08C17.105 107.943 16.8483 107.173 16.335 106.77C15.8217 106.33 14.9967 106.11 13.86 106.11L3.52 106.55L3.3 101.435C7.22333 100.372 10.945 99.84 14.465 99.84C18.0217 99.84 20.57 100.573 22.11 102.04C23.6867 103.507 24.475 105.853 24.475 109.08ZM12.1 116.34C10.0467 116.523 9.02 117.623 9.02 119.64C9.02 121.657 9.91833 122.665 11.715 122.665C13.1083 122.665 14.63 122.445 16.28 122.005L17.105 121.785V115.9L12.1 116.34ZM41.7858 99.84C43.6925 99.84 46.1308 100.133 49.1008 100.72L50.5858 101.05L50.3658 106.88C47.4692 106.587 45.3242 106.44 43.9308 106.44C41.4008 106.44 39.7142 106.99 38.8708 108.09C38.0642 109.153 37.6608 111.188 37.6608 114.195C37.6608 117.202 38.0642 119.273 38.8708 120.41C39.7142 121.51 41.4192 122.06 43.9858 122.06L50.3658 121.62L50.5858 127.505C46.6625 128.275 43.6742 128.66 41.6208 128.66C37.5508 128.66 34.6175 127.523 32.8208 125.25C31.0608 122.94 30.1808 119.255 30.1808 114.195C30.1808 109.135 31.0975 105.487 32.9308 103.25C34.7642 100.977 37.7158 99.84 41.7858 99.84ZM71.2817 106.77H64.5167V118.045C64.5167 119.145 64.5351 119.933 64.5717 120.41C64.6451 120.85 64.8467 121.235 65.1767 121.565C65.5434 121.895 66.0934 122.06 66.8267 122.06L71.0067 121.95L71.3367 127.835C68.8801 128.385 67.0101 128.66 65.7267 128.66C62.4267 128.66 60.1717 127.927 58.9617 126.46C57.7517 124.957 57.1467 122.207 57.1467 118.21V106.77H53.9017V100.5H57.1467V92.855H64.5167V100.5H71.2817V106.77ZM76.0809 128V100.5H83.4509V128H76.0809ZM76.0809 96.98V89.5H83.4509V96.98H76.0809ZM87.6756 100.5H95.3756L99.7756 121.73H101.316L105.936 100.5H113.416L106.816 128H94.2756L87.6756 100.5ZM138.396 109.08V120.52C138.469 121.4 138.616 122.023 138.836 122.39C139.056 122.72 139.514 122.958 140.211 123.105L139.991 128.66C138.121 128.66 136.618 128.532 135.481 128.275C134.381 128.018 133.263 127.505 132.126 126.735C129.486 128.018 126.791 128.66 124.041 128.66C118.358 128.66 115.516 125.653 115.516 119.64C115.516 116.707 116.304 114.635 117.881 113.425C119.458 112.178 121.878 111.445 125.141 111.225L131.026 110.785V109.08C131.026 107.943 130.769 107.173 130.256 106.77C129.743 106.33 128.918 106.11 127.781 106.11L117.441 106.55L117.221 101.435C121.144 100.372 124.866 99.84 128.386 99.84C131.943 99.84 134.491 100.573 136.031 102.04C137.608 103.507 138.396 105.853 138.396 109.08ZM126.021 116.34C123.968 116.523 122.941 117.623 122.941 119.64C122.941 121.657 123.839 122.665 125.636 122.665C127.029 122.665 128.551 122.445 130.201 122.005L131.026 121.785V115.9L126.021 116.34ZM165.167 107.375C160.62 106.788 157.43 106.495 155.597 106.495C153.8 106.495 152.627 106.66 152.077 106.99C151.563 107.32 151.307 107.852 151.307 108.585C151.307 109.282 151.655 109.777 152.352 110.07C153.085 110.327 154.918 110.73 157.852 111.28C160.822 111.793 162.93 112.655 164.177 113.865C165.423 115.075 166.047 117.037 166.047 119.75C166.047 125.69 162.362 128.66 154.992 128.66C152.572 128.66 149.638 128.33 146.192 127.67L144.432 127.34L144.652 121.18C149.198 121.767 152.352 122.06 154.112 122.06C155.908 122.06 157.118 121.895 157.742 121.565C158.402 121.198 158.732 120.667 158.732 119.97C158.732 119.273 158.383 118.76 157.687 118.43C157.027 118.1 155.267 117.697 152.407 117.22C149.583 116.743 147.475 115.937 146.082 114.8C144.688 113.663 143.992 111.647 143.992 108.75C143.992 105.817 144.982 103.617 146.962 102.15C148.942 100.647 151.49 99.895 154.607 99.895C156.77 99.895 159.722 100.243 163.462 100.94L165.277 101.27L165.167 107.375Z" fill="#8917FF"/>
</g>
<defs>
<clipPath id="clip0">
<rect width="400" height="133" fill="white"/>
</clipPath>
</defs>
</svg>
