<?xml version="1.0" encoding="utf-8"?>
<!-- Generator: Adobe Illustrator 17.0.0, SVG Export Plug-In . SVG Version: 6.00 Build 0)  -->
<!DOCTYPE svg PUBLIC "-//W3C//DTD SVG 1.1//EN" "http://www.w3.org/Graphics/SVG/1.1/DTD/svg11.dtd">
<svg version="1.1" id="Layer_1" xmlns="http://www.w3.org/2000/svg" xmlns:xlink="http://www.w3.org/1999/xlink" x="0px" y="0px"
	 width="551.561px" height="183.94px" viewBox="0 0 551.561 183.94" enable-background="new 0 0 551.561 183.94"
	 xml:space="preserve">
<g>
	<g>
		<path fill="#8917FF" d="M41.67,75.825H7.11v-61.65H17.1v52.74h24.57V75.825z"/>
		<path fill="#8917FF" d="M51.164,35.685c3.09-3.899,8.235-5.85,15.435-5.85c7.2,0,12.345,1.951,15.436,5.85
			c3.09,3.901,4.635,9.751,4.635,17.55c0,7.8-1.5,13.68-4.5,17.64c-3.001,3.96-8.189,5.94-15.57,5.94
			c-7.38,0-12.57-1.98-15.569-5.94c-3.001-3.96-4.5-9.839-4.5-17.64C46.529,45.436,48.073,39.585,51.164,35.685z M58.499,64.935
			c1.38,2.4,4.079,3.6,8.1,3.6c4.02,0,6.72-1.2,8.101-3.6c1.379-2.399,2.069-6.33,2.069-11.79c0-5.459-0.735-9.329-2.204-11.61
			c-1.472-2.279-4.126-3.42-7.966-3.42s-6.495,1.141-7.965,3.42c-1.471,2.281-2.205,6.151-2.205,11.61
			C56.429,58.605,57.118,62.536,58.499,64.935z"/>
		<path fill="#8917FF" d="M131.758,76.815c-6.181,0-10.665-1.74-13.455-5.22c-2.79-3.479-4.185-9.585-4.185-18.315
			s1.634-14.819,4.905-18.27c3.27-3.45,8.924-5.175,16.965-5.175c2.938,0,7.438,0.27,13.5,0.81l2.97,0.27v64.261h-9.72V74.115
			C138.718,75.915,135.057,76.815,131.758,76.815z M135.988,38.295c-4.74,0-7.936,1.185-9.585,3.555
			c-1.651,2.371-2.476,6.226-2.476,11.565c0,5.341,0.734,9.121,2.205,11.34c1.47,2.22,3.735,3.33,6.795,3.33
			c2.82,0,5.64-0.45,8.46-1.35l1.351-0.45v-27.63C139.858,38.416,137.608,38.295,135.988,38.295z"/>
		<path fill="#8917FF" d="M191.606,30.825h9.72v45h-9.72v-2.79c-4.381,2.52-8.431,3.78-12.15,3.78c-6.18,0-10.32-1.665-12.42-4.995
			c-2.101-3.33-3.149-9.165-3.149-17.505v-23.49h9.81v23.58c0,5.4,0.45,9.031,1.351,10.89c0.899,1.86,2.999,2.79,6.3,2.79
			c3.24,0,6.21-0.599,8.91-1.8l1.35-0.54V30.825z"/>
		<path fill="#8917FF" d="M245.247,67.725l2.52-0.27l0.18,7.29c-6.84,1.379-12.9,2.07-18.18,2.07c-6.66,0-11.445-1.83-14.355-5.49
			c-2.91-3.659-4.364-9.509-4.364-17.55c0-15.96,6.509-23.94,19.529-23.94c12.601,0,18.9,6.871,18.9,20.61l-0.63,7.02h-27.9
			c0.06,3.721,0.869,6.45,2.431,8.19c1.56,1.741,4.469,2.61,8.729,2.61C236.366,68.265,240.747,68.084,245.247,67.725z
			 M239.847,49.905c0-4.439-0.706-7.544-2.115-9.315c-1.41-1.769-3.795-2.655-7.155-2.655s-5.805,0.931-7.335,2.79
			c-1.529,1.86-2.325,4.92-2.385,9.18H239.847z"/>
		<path fill="#8917FF" d="M310.765,67.725l2.52-0.27l0.18,7.29c-6.84,1.379-12.9,2.07-18.18,2.07c-6.66,0-11.445-1.83-14.355-5.49
			c-2.91-3.659-4.364-9.509-4.364-17.55c0-15.96,6.509-23.94,19.529-23.94c12.601,0,18.9,6.871,18.9,20.61l-0.63,7.02h-27.9
			c0.06,3.721,0.869,6.45,2.431,8.19c1.56,1.741,4.469,2.61,8.729,2.61C301.884,68.265,306.265,68.084,310.765,67.725z
			 M305.365,49.905c0-4.439-0.706-7.544-2.115-9.315c-1.41-1.769-3.795-2.655-7.155-2.655s-5.805,0.931-7.335,2.79
			c-1.529,1.86-2.325,4.92-2.385,9.18H305.365z"/>
		<path fill="#8917FF" d="M355.674,40.095c-7.08-0.959-12.21-1.44-15.39-1.44c-3.182,0-5.386,0.375-6.615,1.125
			c-1.23,0.751-1.845,1.935-1.845,3.555c0,1.62,0.675,2.761,2.024,3.42c1.351,0.661,4.53,1.426,9.54,2.295
			c5.01,0.871,8.564,2.236,10.665,4.095c2.1,1.861,3.15,5.161,3.15,9.9c0,4.74-1.517,8.221-4.545,10.44
			c-3.03,2.22-7.456,3.33-13.275,3.33c-3.66,0-8.28-0.511-13.86-1.53l-2.789-0.45l0.359-8.19c7.2,0.96,12.39,1.44,15.57,1.44
			c3.18,0,5.445-0.389,6.795-1.17c1.35-0.779,2.025-2.07,2.025-3.87c0-1.8-0.646-3.045-1.936-3.735
			c-1.291-0.689-4.381-1.44-9.27-2.25c-4.892-0.81-8.476-2.084-10.756-3.825c-2.28-1.74-3.42-4.919-3.42-9.54
			c0-4.62,1.575-8.069,4.726-10.35c3.149-2.28,7.185-3.42,12.104-3.42c3.84,0,8.551,0.481,14.13,1.44l2.79,0.54L355.674,40.095z"/>
		<path fill="#8917FF" d="M390.864,39.195h-12.42v19.8c0,3.661,0.27,6.09,0.81,7.29c0.54,1.201,1.92,1.8,4.14,1.8l7.38-0.27
			l0.45,7.83c-4.021,0.779-7.08,1.17-9.18,1.17c-5.101,0-8.595-1.17-10.485-3.51c-1.89-2.34-2.835-6.75-2.835-13.23v-20.88h-5.76
			v-8.37h5.76v-13.05h9.721v13.05h12.42V39.195z"/>
		<path fill="#8917FF" d="M432.172,44.685v20.52c0.059,1.321,0.404,2.295,1.035,2.925c0.63,0.63,1.604,1.035,2.925,1.215
			l-0.271,7.47c-5.16,0-9.15-1.11-11.97-3.33c-4.801,2.22-9.63,3.33-14.49,3.33c-8.94,0-13.41-4.77-13.41-14.31
			c0-4.559,1.216-7.86,3.646-9.9c2.43-2.039,6.165-3.27,11.205-3.69l11.609-0.99v-3.24c0-2.399-0.525-4.08-1.574-5.04
			c-1.051-0.959-2.597-1.44-4.636-1.44c-3.84,0-8.64,0.241-14.399,0.72l-2.88,0.18l-0.36-6.93c6.539-1.56,12.555-2.34,18.045-2.34
			s9.45,1.186,11.88,3.555C430.958,35.761,432.172,39.525,432.172,44.685z M402.382,17.595l21.24-9.09l3.06,8.46l-21.96,7.02
			L402.382,17.595z M412.012,55.845c-4.14,0.36-6.21,2.61-6.21,6.75s1.829,6.21,5.49,6.21c2.999,0,6.179-0.479,9.54-1.44l1.619-0.54
			v-11.97L412.012,55.845z"/>
		<path fill="#8917FF" d="M5.94,175.175v-64.351h9.72v2.79c4.14-2.52,8.01-3.78,11.609-3.78c5.94,0,10.29,1.816,13.051,5.445
			c2.759,3.631,4.14,9.72,4.14,18.271c0,8.55-1.575,14.565-4.725,18.045c-3.15,3.48-8.296,5.22-15.436,5.22
			c-2.461,0-5.31-0.27-8.55-0.81v19.17H5.94z M25.56,118.565c-2.82,0-5.64,0.63-8.46,1.89l-1.35,0.63v26.551
			c2.399,0.48,5.04,0.72,7.92,0.72c4.08,0,6.899-1.17,8.46-3.51c1.56-2.34,2.34-6.33,2.34-11.971
			C34.47,123.334,31.5,118.565,25.56,118.565z"/>
		<path fill="#8917FF" d="M87.569,124.685v20.52c0.059,1.321,0.404,2.295,1.035,2.926c0.63,0.63,1.604,1.034,2.925,1.215
			l-0.271,7.47c-5.16,0-9.15-1.109-11.97-3.33c-4.801,2.221-9.63,3.33-14.49,3.33c-8.94,0-13.41-4.77-13.41-14.31
			c0-4.56,1.216-7.86,3.646-9.9c2.43-2.039,6.165-3.27,11.205-3.69l11.609-0.989v-3.24c0-2.399-0.525-4.08-1.574-5.04
			c-1.051-0.959-2.597-1.44-4.636-1.44c-3.84,0-8.64,0.241-14.399,0.721l-2.88,0.18l-0.36-6.93
			c6.539-1.56,12.555-2.341,18.045-2.341s9.45,1.186,11.88,3.556C86.354,115.761,87.569,119.526,87.569,124.685z M67.409,135.845
			c-4.14,0.359-6.21,2.609-6.21,6.75c0,4.14,1.829,6.21,5.49,6.21c2.999,0,6.179-0.479,9.54-1.44l1.619-0.54v-11.97L67.409,135.845z
			"/>
		<path fill="#8917FF" d="M131.128,120.095c-7.08-0.959-12.21-1.44-15.39-1.44c-3.182,0-5.386,0.376-6.615,1.125
			c-1.23,0.751-1.845,1.936-1.845,3.555c0,1.62,0.675,2.761,2.024,3.421c1.351,0.66,4.53,1.426,9.54,2.295
			c5.01,0.87,8.564,2.235,10.665,4.095c2.1,1.86,3.15,5.161,3.15,9.9c0,4.74-1.517,8.221-4.545,10.439
			c-3.03,2.221-7.456,3.33-13.275,3.33c-3.66,0-8.28-0.511-13.86-1.53l-2.789-0.45l0.359-8.189c7.2,0.96,12.39,1.439,15.57,1.439
			c3.18,0,5.445-0.389,6.795-1.17c1.35-0.778,2.025-2.069,2.025-3.869c0-1.801-0.646-3.045-1.936-3.735
			c-1.291-0.689-4.381-1.44-9.27-2.25c-4.892-0.811-8.476-2.084-10.756-3.825c-2.28-1.739-3.42-4.919-3.42-9.54
			c0-4.619,1.575-8.069,4.726-10.35c3.149-2.28,7.185-3.42,12.104-3.42c3.84,0,8.551,0.48,14.13,1.439l2.79,0.54L131.128,120.095z"
			/>
		<path fill="#8917FF" d="M175.407,124.685v20.52c0.059,1.321,0.404,2.295,1.035,2.926c0.63,0.63,1.604,1.034,2.925,1.215
			l-0.271,7.47c-5.16,0-9.15-1.109-11.97-3.33c-4.801,2.221-9.63,3.33-14.49,3.33c-8.94,0-13.41-4.77-13.41-14.31
			c0-4.56,1.216-7.86,3.646-9.9c2.43-2.039,6.165-3.27,11.205-3.69l11.609-0.989v-3.24c0-2.399-0.525-4.08-1.574-5.04
			c-1.051-0.959-2.597-1.44-4.636-1.44c-3.84,0-8.64,0.241-14.399,0.721l-2.88,0.18l-0.36-6.93
			c6.539-1.56,12.555-2.341,18.045-2.341s9.45,1.186,11.88,3.556C174.192,115.761,175.407,119.526,175.407,124.685z
			 M155.247,135.845c-4.14,0.359-6.21,2.609-6.21,6.75c0,4.14,1.829,6.21,5.49,6.21c2.999,0,6.179-0.479,9.54-1.44l1.619-0.54
			v-11.97L155.247,135.845z"/>
		<path fill="#8917FF" d="M197.546,155.825h-9.81v-45h9.72v2.79c4.379-2.52,8.519-3.78,12.42-3.78
			c5.999,0,10.094,1.696,12.285,5.086c2.189,3.39,3.285,8.985,3.285,16.784v24.12h-9.721v-23.85c0-4.86-0.525-8.31-1.574-10.351
			c-1.051-2.039-3.195-3.06-6.436-3.06c-3.06,0-6,0.601-8.82,1.8l-1.35,0.54V155.825z"/>
		<path fill="#8917FF" d="M273.596,92.104v63.72h-9.72v-2.34c-4.381,2.221-8.401,3.33-12.061,3.33c-5.881,0-10.186-1.77-12.915-5.31
			c-2.73-3.54-4.095-9.479-4.095-17.82c0-8.339,1.515-14.4,4.545-18.18c3.029-3.78,7.754-5.671,14.175-5.671
			c2.16,0,5.58,0.392,10.26,1.171V92.104H273.596z M262.256,146.465l1.529-0.631v-26.64c-3.6-0.599-6.93-0.899-9.989-0.899
			c-6.062,0-9.091,5.039-9.091,15.119c0,5.521,0.705,9.347,2.115,11.476c1.409,2.13,3.646,3.194,6.705,3.194
			C256.586,148.084,259.495,147.545,262.256,146.465z"/>
		<path fill="#8917FF" d="M287.95,115.685c3.09-3.899,8.235-5.851,15.435-5.851c7.2,0,12.345,1.951,15.436,5.851
			c3.09,3.9,4.635,9.751,4.635,17.55c0,7.801-1.5,13.68-4.5,17.64c-3.001,3.96-8.189,5.94-15.57,5.94
			c-7.38,0-12.57-1.98-15.569-5.94c-3.001-3.96-4.5-9.839-4.5-17.64C283.315,125.436,284.859,119.585,287.95,115.685z
			 M295.285,144.935c1.38,2.4,4.079,3.6,8.1,3.6c4.02,0,6.72-1.199,8.101-3.6c1.379-2.399,2.069-6.33,2.069-11.79
			c0-5.459-0.735-9.329-2.204-11.61c-1.472-2.279-4.126-3.42-7.966-3.42s-6.495,1.141-7.965,3.42
			c-1.471,2.281-2.205,6.151-2.205,11.61C293.214,138.605,293.904,142.536,295.285,144.935z"/>
	</g>
</g>
<g>
	<g>
		<g>
			<path fill="#32BD9F" d="M187.846,112.59c-0.405,0-0.796-0.165-1.066-0.45c-0.15-0.136-0.256-0.301-0.331-0.481
				c-0.075-0.18-0.12-0.375-0.12-0.57c0-0.405,0.165-0.795,0.451-1.066c0.345-0.345,0.856-0.51,1.351-0.405
				c0.09,0.015,0.195,0.045,0.285,0.075c0.09,0.046,0.18,0.09,0.255,0.15c0.075,0.046,0.15,0.106,0.225,0.18
				c0.285,0.271,0.436,0.661,0.436,1.066c0,0.195-0.03,0.391-0.105,0.57c-0.075,0.18-0.195,0.345-0.331,0.481
				c-0.075,0.075-0.15,0.135-0.225,0.195c-0.075,0.045-0.165,0.09-0.255,0.135c-0.09,0.045-0.195,0.06-0.285,0.09
				C188.041,112.576,187.936,112.59,187.846,112.59z"/>
		</g>
		<g>
			<path fill="#32BD9F" d="M188.145,104.558c-0.825-0.105-1.396-0.856-1.306-1.681l0,0l0,0l0,0c0.105-0.826,0.856-1.412,1.681-1.307
				l0,0c0.826,0.105,1.411,0.856,1.307,1.682l0,0c-0.105,0.751-0.751,1.321-1.486,1.321l0,0
				C188.281,104.573,188.206,104.558,188.145,104.558z M313.773,103.146L313.773,103.146c-0.105-0.826,0.481-1.576,1.306-1.682l0,0
				c0.811-0.105,1.562,0.481,1.666,1.307l0,0c0.106,0.826-0.48,1.577-1.291,1.682l0,0c-0.075,0-0.135,0.015-0.195,0.015l0,0
				C314.509,104.467,313.863,103.912,313.773,103.146z M189.452,96.63c-0.795-0.21-1.276-1.021-1.081-1.832l0,0
				c0.21-0.795,1.021-1.276,1.832-1.081l0,0c0.795,0.21,1.291,1.021,1.081,1.831l0,0c-0.18,0.676-0.781,1.126-1.457,1.126l0,0
				C189.707,96.675,189.587,96.66,189.452,96.63z M312.302,95.444c-0.21-0.796,0.27-1.622,1.081-1.817l0,0
				c0.795-0.21,1.622,0.27,1.817,1.066l0,0c0.21,0.811-0.271,1.622-1.081,1.831l0,0c-0.12,0.03-0.24,0.046-0.36,0.046l0,0
				C313.083,96.57,312.467,96.12,312.302,95.444z M191.764,88.928c-0.781-0.301-1.156-1.172-0.856-1.952l0,0
				c0.315-0.765,1.186-1.141,1.952-0.841l0,0c0.781,0.315,1.156,1.186,0.841,1.952l0,0c-0.225,0.585-0.796,0.946-1.397,0.946l0,0
				C192.124,89.033,191.945,89.003,191.764,88.928z M309.87,87.997c-0.315-0.766,0.06-1.636,0.841-1.952l0,0
				c0.765-0.3,1.636,0.076,1.936,0.841l0,0c0.316,0.766-0.059,1.652-0.826,1.952l0,0c-0.18,0.075-0.375,0.105-0.556,0.105l0,0
				C310.666,88.942,310.095,88.582,309.87,87.997z M195.008,81.585c-0.721-0.405-0.991-1.321-0.586-2.042l0,0
				c0.405-0.721,1.307-0.991,2.042-0.586l0,0c0.721,0.39,0.991,1.307,0.586,2.027l0,0c-0.27,0.51-0.781,0.781-1.321,0.781l0,0
				C195.488,81.766,195.233,81.706,195.008,81.585z M306.522,80.909v0.015c-0.405-0.736-0.15-1.652,0.585-2.042l0,0
				c0.721-0.405,1.637-0.15,2.043,0.586l0,0l0,0l0,0c0.39,0.721,0.135,1.637-0.586,2.042l0,0c-0.24,0.12-0.48,0.18-0.736,0.18l0,0
				C307.303,81.69,306.792,81.405,306.522,80.909z M199.167,74.708c-0.676-0.496-0.826-1.427-0.331-2.102l0,0
				c0.48-0.676,1.427-0.826,2.087-0.331l0,0c0.675,0.481,0.826,1.427,0.33,2.102l0,0c-0.285,0.391-0.751,0.616-1.216,0.616l0,0
				C199.737,74.994,199.422,74.889,199.167,74.708z M302.303,74.303c-0.496-0.661-0.345-1.606,0.33-2.087l0,0
				c0.661-0.495,1.607-0.345,2.087,0.315l0,0c0,0,0,0,0.015,0l0,0c0.481,0.676,0.331,1.622-0.33,2.103l0,0
				c-0.271,0.195-0.586,0.285-0.886,0.285l0,0C303.053,74.919,302.588,74.708,302.303,74.303z M204.136,68.402
				c-0.6-0.57-0.631-1.516-0.059-2.132l0,0c0.57-0.6,1.516-0.631,2.116-0.06l0,0c0.6,0.571,0.631,1.517,0.06,2.117l0,0
				c-0.285,0.315-0.691,0.48-1.096,0.48l0,0C204.797,68.807,204.422,68.672,204.136,68.402z M297.287,68.282
				c-0.555-0.616-0.54-1.562,0.075-2.133l0,0c0.6-0.57,1.546-0.54,2.117,0.06l0,0c0.571,0.616,0.541,1.562-0.059,2.133l0,0
				c-0.301,0.27-0.661,0.405-1.037,0.405l0,0C297.993,68.747,297.588,68.582,297.287,68.282z M209.857,62.757
				c-0.525-0.63-0.435-1.576,0.196-2.102l0,0c0.645-0.541,1.591-0.451,2.116,0.195l0,0c0.526,0.63,0.451,1.576-0.195,2.117l0,0
				c-0.285,0.225-0.616,0.345-0.961,0.345l0,0C210.593,63.313,210.157,63.117,209.857,62.757z M291.567,62.907L291.567,62.907
				c-0.631-0.526-0.721-1.471-0.196-2.117l0,0c0.526-0.63,1.471-0.721,2.117-0.195l0,0c0.63,0.526,0.721,1.471,0.195,2.117l0,0
				c-0.3,0.36-0.721,0.54-1.156,0.54l0,0C292.198,63.252,291.852,63.147,291.567,62.907z M216.238,57.892
				c-0.45-0.705-0.24-1.636,0.465-2.086l0,0c0.691-0.436,1.622-0.225,2.072,0.465l0,0c0.435,0.705,0.24,1.636-0.465,2.072l0,0
				c-0.256,0.165-0.526,0.24-0.796,0.24l0,0C217.004,58.583,216.523,58.343,216.238,57.892z M285.231,58.297L285.231,58.297
				c-0.706-0.435-0.916-1.366-0.465-2.072l0,0c0.436-0.691,1.367-0.901,2.072-0.465l0,0c0.691,0.451,0.901,1.381,0.465,2.073l0,0
				c-0.285,0.45-0.781,0.705-1.276,0.705l0,0C285.756,58.538,285.471,58.463,285.231,58.297z M223.175,53.838
				c-0.36-0.736-0.03-1.636,0.721-1.997l0,0c0.751-0.345,1.636-0.03,1.997,0.721l0,0c0.345,0.751,0.03,1.652-0.721,1.997l0,0
				c-0.21,0.105-0.42,0.15-0.63,0.15l0,0C223.971,54.709,223.43,54.394,223.175,53.838z M278.354,54.529
				c-0.751-0.361-1.081-1.246-0.721-1.997l0,0c0.361-0.751,1.246-1.081,1.997-0.721l0,0l0,0l0,0
				c0.751,0.345,1.066,1.246,0.721,1.997l0,0c-0.255,0.54-0.795,0.856-1.367,0.856l0,0
				C278.775,54.664,278.564,54.619,278.354,54.529z M230.562,50.715c-0.255-0.795,0.18-1.636,0.961-1.907l0,0c0,0,0,0,0.015,0l0,0
				c0.781-0.255,1.637,0.18,1.892,0.976l0,0c0.255,0.781-0.18,1.637-0.976,1.892l0,0c-0.15,0.045-0.301,0.075-0.466,0.075l0,0
				C231.358,51.751,230.772,51.346,230.562,50.715z M271.057,51.646L271.057,51.646c-0.781-0.255-1.216-1.111-0.961-1.892l0,0
				c0.255-0.795,1.096-1.216,1.892-0.976l0,0c0,0,0,0,0,0.015l0,0c0.781,0.24,1.215,1.096,0.96,1.877l0,0
				c-0.21,0.645-0.795,1.051-1.426,1.051l0,0C271.372,51.721,271.207,51.691,271.057,51.646z M238.294,48.523
				c-0.15-0.811,0.375-1.592,1.202-1.757l0,0c0.811-0.15,1.592,0.39,1.757,1.201l0,0c0.15,0.811-0.39,1.607-1.201,1.757l0,0
				c-0.09,0.015-0.18,0.03-0.285,0.03l0,0C239.061,49.754,238.43,49.244,238.294,48.523z M263.459,49.709
				c-0.826-0.165-1.351-0.946-1.201-1.757l0,0c0.15-0.826,0.946-1.352,1.757-1.202l0,0l0,0l0,0c0.811,0.15,1.351,0.946,1.201,1.757
				l0,0c-0.135,0.721-0.765,1.216-1.471,1.216l0,0C263.64,49.724,263.55,49.724,263.459,49.709z M246.237,47.337
				c-0.045-0.826,0.571-1.546,1.412-1.592l0,0c0.826-0.045,1.531,0.57,1.591,1.411l0,0c0.045,0.826-0.585,1.531-1.411,1.592l0,0
				c-0.03,0-0.06,0-0.09,0l0,0C246.943,48.748,246.283,48.132,246.237,47.337z M255.682,48.733
				c-0.841-0.046-1.471-0.766-1.411-1.592l0,0c0.045-0.826,0.766-1.457,1.592-1.397l0,0c0.826,0.045,1.457,0.751,1.397,1.592l0,0
				c-0.045,0.795-0.706,1.397-1.487,1.397l0,0C255.742,48.733,255.712,48.733,255.682,48.733z"/>
		</g>
		<g>
			<path fill="#32BD9F" d="M315.77,112.59c-0.195,0-0.39-0.045-0.57-0.12c-0.195-0.075-0.345-0.18-0.496-0.33
				c-0.27-0.27-0.435-0.661-0.435-1.051c0-0.405,0.166-0.781,0.435-1.066c0.15-0.135,0.315-0.255,0.496-0.331
				c0.556-0.225,1.216-0.089,1.636,0.331c0.271,0.285,0.436,0.661,0.436,1.066c0,0.391-0.165,0.781-0.436,1.051
				c-0.135,0.15-0.3,0.255-0.495,0.33C316.161,112.546,315.966,112.59,315.77,112.59z"/>
		</g>
	</g>
	<g>
		<g>
			<path fill="#32BD9F" d="M206.764,112.59c-0.105,0-0.195-0.015-0.3-0.03c-0.09-0.03-0.18-0.045-0.271-0.09
				c-0.105-0.03-0.18-0.09-0.27-0.135c-0.076-0.06-0.15-0.12-0.226-0.195c-0.075-0.06-0.135-0.136-0.18-0.226
				c-0.06-0.075-0.106-0.165-0.15-0.255c-0.03-0.09-0.06-0.18-0.075-0.285c-0.03-0.09-0.03-0.195-0.03-0.285
				c0-0.405,0.15-0.781,0.435-1.066c0.421-0.42,1.081-0.556,1.637-0.331c0.18,0.076,0.345,0.196,0.48,0.331
				c0.15,0.135,0.255,0.301,0.331,0.48c0.075,0.196,0.12,0.391,0.12,0.586c0,0.391-0.165,0.781-0.45,1.051
				C207.544,112.426,207.154,112.59,206.764,112.59z"/>
		</g>
		<g>
			<path fill="#32BD9F" d="M207.184,104.738c-0.826-0.15-1.367-0.916-1.231-1.742l0,0c0.15-0.811,0.93-1.366,1.741-1.216l0,0
				c0.826,0.136,1.367,0.916,1.216,1.742l0,0c-0.12,0.721-0.751,1.232-1.471,1.232l0,0
				C207.349,104.753,207.275,104.753,207.184,104.738z M294.675,103.447c-0.135-0.811,0.405-1.592,1.216-1.742l0,0
				c0.826-0.135,1.606,0.405,1.741,1.216l0,0c0.15,0.825-0.405,1.606-1.216,1.742l0,0c-0.09,0.015-0.18,0.03-0.256,0.03l0,0
				C295.44,104.693,294.81,104.182,294.675,103.447z M208.956,97.08c-0.781-0.285-1.186-1.141-0.901-1.921l0,0l0,0l0,0
				c0.285-0.781,1.141-1.172,1.921-0.901l0,0c0.781,0.285,1.186,1.156,0.901,1.937l0,0c-0.225,0.6-0.795,0.991-1.411,0.991l0,0
				C209.302,97.186,209.121,97.156,208.956,97.08z M292.708,96.12L292.708,96.12c-0.285-0.766,0.12-1.637,0.901-1.922l0,0
				c0.781-0.285,1.636,0.12,1.921,0.901l0,0c0.285,0.781-0.12,1.636-0.901,1.922l0,0c-0.165,0.06-0.345,0.09-0.51,0.09l0,0
				C293.503,97.11,292.933,96.735,292.708,96.12z M212.034,89.858c-0.721-0.405-0.961-1.321-0.54-2.042l0,0
				c0.405-0.721,1.321-0.961,2.042-0.556l0,0c0.721,0.421,0.961,1.336,0.556,2.057l0,0c-0.285,0.48-0.796,0.751-1.306,0.751l0,0
				C212.53,90.068,212.275,89.994,212.034,89.858z M289.495,89.258c-0.42-0.721-0.18-1.636,0.541-2.042l0,0
				c0.721-0.421,1.636-0.18,2.056,0.54l0,0c0.405,0.706,0.166,1.636-0.555,2.042l0,0c-0.226,0.15-0.496,0.21-0.751,0.21l0,0
				C290.275,90.008,289.765,89.738,289.495,89.258z M216.328,83.282c-0.63-0.526-0.721-1.471-0.18-2.102l0,0
				c0.526-0.646,1.472-0.721,2.103-0.195l0,0c0.645,0.54,0.721,1.486,0.195,2.117l0,0c-0.301,0.361-0.721,0.541-1.156,0.541l0,0
				C216.944,83.642,216.613,83.522,216.328,83.282z M285.126,83.057c-0.541-0.631-0.451-1.592,0.18-2.117l0,0
				c0.631-0.54,1.577-0.45,2.117,0.18l0,0c0.526,0.631,0.45,1.576-0.18,2.117l0,0c-0.285,0.24-0.63,0.345-0.96,0.345l0,0
				C285.847,83.582,285.426,83.402,285.126,83.057z M221.689,77.546c-0.526-0.631-0.451-1.577,0.195-2.102l0,0c0,0,0,0-0.015,0l0,0
				c0.646-0.541,1.592-0.451,2.117,0.18l0,0c0.54,0.631,0.45,1.577-0.18,2.117l0,0c-0.285,0.225-0.631,0.345-0.96,0.345l0,0
				C222.409,78.087,221.989,77.906,221.689,77.546z M279.751,77.697c-0.631-0.526-0.721-1.487-0.18-2.117l0,0
				c0.526-0.631,1.471-0.721,2.117-0.18l0,0c0.63,0.526,0.721,1.471,0.18,2.117l0,0c-0.3,0.345-0.721,0.526-1.156,0.526l0,0
				C280.381,78.042,280.036,77.936,279.751,77.697z M227.965,72.832c-0.42-0.721-0.165-1.636,0.541-2.057l0,0
				c0.721-0.405,1.636-0.165,2.056,0.556l0,0c0.421,0.706,0.166,1.636-0.54,2.057l0,0c-0.24,0.135-0.496,0.195-0.751,0.195l0,0
				C228.745,73.582,228.235,73.312,227.965,72.832z M273.534,73.342c-0.721-0.405-0.961-1.336-0.54-2.042l0,0
				c0.405-0.721,1.321-0.976,2.042-0.556l0,0c0.721,0.421,0.961,1.337,0.556,2.042l0,0c-0.285,0.495-0.781,0.765-1.306,0.765l0,0
				C274.03,73.552,273.775,73.478,273.534,73.342z M234.962,69.273c-0.285-0.781,0.12-1.652,0.901-1.921l0,0
				c0.781-0.301,1.636,0.105,1.921,0.886l0,0c0.285,0.781-0.12,1.636-0.901,1.922l0,0c-0.165,0.06-0.345,0.089-0.51,0.089l0,0
				C235.757,70.249,235.187,69.873,234.962,69.273z M266.657,70.144c-0.781-0.285-1.186-1.141-0.901-1.921l0,0
				c0.286-0.781,1.141-1.186,1.922-0.901l0,0c0.781,0.285,1.186,1.141,0.901,1.921l0,0c-0.226,0.616-0.796,0.991-1.411,0.991l0,0
				C267.003,70.234,266.822,70.204,266.657,70.144z M242.469,66.991c-0.135-0.826,0.405-1.606,1.231-1.741l0,0
				c0.811-0.15,1.592,0.39,1.726,1.216l0,0c0.15,0.81-0.39,1.591-1.216,1.741l0,0c-0.09,0.015-0.166,0.015-0.256,0.015l0,0
				C243.234,68.222,242.604,67.711,242.469,66.991z M259.33,68.192c-0.811-0.15-1.367-0.916-1.216-1.742l0,0
				c0.135-0.811,0.916-1.367,1.726-1.216l0,0l0,0l0,0c0.826,0.135,1.367,0.916,1.232,1.742l0,0
				c-0.136,0.721-0.766,1.231-1.487,1.231l0,0C259.511,68.207,259.421,68.207,259.33,68.192z M251.763,67.546
				c-0.826,0-1.502-0.676-1.502-1.502l0,0c0-0.826,0.676-1.502,1.502-1.502l0,0c0.841,0,1.502,0.661,1.517,1.502l0,0
				c0,0.826-0.676,1.502-1.502,1.502l0,0C250.937,67.546,251.778,67.546,251.763,67.546z"/>
		</g>
		<g>
			<path fill="#32BD9F" d="M296.852,112.59c-0.195,0-0.39-0.045-0.585-0.12c-0.18-0.075-0.345-0.18-0.481-0.33
				c-0.135-0.136-0.255-0.301-0.33-0.481c-0.076-0.18-0.106-0.375-0.106-0.57c0-0.105,0-0.195,0.03-0.301
				c0.015-0.089,0.046-0.195,0.076-0.285c0.045-0.09,0.09-0.165,0.15-0.255c0.045-0.075,0.105-0.15,0.18-0.225
				c0.136-0.135,0.301-0.255,0.481-0.331c0.556-0.225,1.231-0.089,1.652,0.331c0.059,0.075,0.12,0.15,0.18,0.225
				c0.046,0.09,0.106,0.165,0.136,0.255c0.03,0.09,0.06,0.196,0.09,0.285c0.015,0.106,0.029,0.196,0.029,0.301
				c0,0.195-0.045,0.391-0.12,0.57c-0.075,0.18-0.18,0.345-0.315,0.481C297.633,112.426,297.242,112.59,296.852,112.59z"/>
		</g>
	</g>
	<g>
		<g>
			<path fill="#32BD9F" d="M225.217,112.59c-0.39,0-0.781-0.165-1.066-0.45c-0.27-0.27-0.436-0.661-0.436-1.051
				c0-0.405,0.166-0.781,0.436-1.066c0.421-0.42,1.096-0.556,1.637-0.331c0.195,0.076,0.345,0.196,0.495,0.331
				c0.271,0.285,0.436,0.661,0.436,1.066c0,0.09-0.015,0.195-0.03,0.285c-0.015,0.106-0.045,0.195-0.089,0.285
				c-0.03,0.09-0.075,0.18-0.136,0.255c-0.06,0.09-0.12,0.166-0.18,0.226C225.998,112.426,225.607,112.59,225.217,112.59z"/>
		</g>
		<g>
			<path fill="#32BD9F" d="M225.863,105.023c-0.795-0.225-1.246-1.066-1.006-1.861l0,0c0.225-0.796,1.066-1.246,1.861-1.021l0,0
				c0.781,0.24,1.246,1.066,1.007,1.862l0,0c-0.18,0.661-0.781,1.081-1.442,1.081l0,0
				C226.148,105.083,226.013,105.069,225.863,105.023z M275.877,103.987L275.877,103.987c-0.24-0.795,0.21-1.636,1.006-1.861l0,0
				c0.796-0.241,1.636,0.21,1.862,1.006l0,0c0.24,0.795-0.21,1.636-1.007,1.861l0,0c-0.149,0.046-0.285,0.076-0.42,0.076l0,0
				C276.657,105.069,276.072,104.633,275.877,103.987z M228.625,97.967c-0.705-0.451-0.9-1.382-0.45-2.073l0,0l0,0l0,0
				c0.45-0.705,1.381-0.9,2.072-0.45l0,0c0.706,0.45,0.901,1.381,0.451,2.072l0,0c-0.286,0.451-0.766,0.691-1.262,0.691l0,0
				C229.151,98.206,228.881,98.132,228.625,97.967z M272.904,97.501c-0.451-0.691-0.255-1.622,0.435-2.073l0,0
				c0.705-0.45,1.636-0.255,2.087,0.436l0,0c0,0,0,0-0.015,0l0,0c0.465,0.706,0.255,1.637-0.436,2.087l0,0
				c-0.255,0.165-0.54,0.241-0.811,0.241l0,0C273.669,98.192,273.189,97.951,272.904,97.501z M233.265,91.975
				c-0.556-0.63-0.481-1.576,0.15-2.117l0,0l0,0l0,0c0.616-0.555,1.562-0.48,2.117,0.15l0,0c0.54,0.631,0.465,1.577-0.15,2.117l0,0
				c-0.285,0.241-0.645,0.36-0.99,0.36l0,0C233.97,92.486,233.55,92.321,233.265,91.975z M268.219,92.11L268.219,92.11
				c-0.631-0.54-0.705-1.486-0.15-2.117l0,0c0.541-0.631,1.487-0.691,2.117-0.15l0,0l0,0l0,0c0.616,0.54,0.691,1.486,0.15,2.117l0,0
				c-0.301,0.345-0.721,0.51-1.142,0.51l0,0C268.849,92.471,268.504,92.351,268.219,92.11z M239.391,87.516
				c-0.346-0.751-0.015-1.636,0.735-1.982l0,0l0,0l0,0c0.751-0.345,1.652-0.015,1.997,0.736l0,0
				c0.345,0.751,0.015,1.651-0.751,1.996l0,0c-0.195,0.09-0.405,0.136-0.616,0.136l0,0
				C240.187,88.402,239.631,88.071,239.391,87.516z M262.213,88.252L262.213,88.252c-0.751-0.345-1.096-1.231-0.751-1.982l0,0
				c0.345-0.766,1.246-1.096,1.997-0.751l0,0c0.751,0.345,1.081,1.231,0.735,1.996l0,0c-0.24,0.541-0.795,0.871-1.366,0.871l0,0
				C262.619,88.387,262.408,88.342,262.213,88.252z M246.523,84.978c-0.12-0.825,0.45-1.576,1.276-1.696l0,0l0,0l0,0
				c0.811-0.12,1.577,0.451,1.697,1.276l0,0c0.12,0.811-0.451,1.576-1.276,1.697l0,0c-0.075,0-0.136,0.015-0.21,0.015l0,0
				C247.274,86.27,246.628,85.729,246.523,84.978z M255.366,86.255L255.366,86.255c-0.826-0.12-1.396-0.886-1.276-1.712l0,0
				c0.106-0.81,0.871-1.381,1.697-1.261l0,0c0,0,0,0,0-0.015l0,0c0.826,0.12,1.396,0.886,1.276,1.711l0,0
				c-0.105,0.751-0.751,1.292-1.486,1.292l0,0C255.502,86.27,255.426,86.255,255.366,86.255z"/>
		</g>
		<g>
			<path fill="#32BD9F" d="M278.399,112.59c-0.405,0-0.781-0.165-1.067-0.435c-0.075-0.075-0.135-0.15-0.195-0.241
				c-0.045-0.075-0.09-0.165-0.135-0.255c-0.03-0.09-0.06-0.18-0.075-0.285c-0.03-0.09-0.03-0.195-0.03-0.285
				c0-0.39,0.15-0.781,0.435-1.066c0.556-0.556,1.562-0.556,2.117,0c0.285,0.285,0.451,0.676,0.451,1.066
				c0,0.09-0.015,0.195-0.03,0.285c-0.03,0.106-0.06,0.195-0.09,0.285c-0.045,0.09-0.09,0.18-0.135,0.255
				c-0.06,0.09-0.12,0.166-0.195,0.241c-0.06,0.06-0.135,0.12-0.225,0.18c-0.075,0.045-0.165,0.105-0.255,0.135
				c-0.09,0.045-0.195,0.075-0.285,0.09C278.594,112.576,278.489,112.59,278.399,112.59z"/>
		</g>
	</g>
	<g>
		<g>
			<path fill="#32BD9F" d="M406.595,120.098c-0.406,0-0.782-0.165-1.066-0.45c-0.075-0.06-0.135-0.136-0.18-0.226
				c-0.06-0.075-0.106-0.165-0.15-0.255c-0.031-0.09-0.06-0.18-0.076-0.285c-0.029-0.09-0.029-0.195-0.029-0.285
				c0-0.105,0-0.195,0.029-0.301c0.016-0.089,0.045-0.18,0.076-0.285c0.044-0.09,0.089-0.165,0.15-0.255
				c0.045-0.075,0.106-0.15,0.18-0.225c0.135-0.135,0.301-0.255,0.481-0.331c0.375-0.15,0.795-0.15,1.155,0
				c0.18,0.075,0.346,0.196,0.481,0.331c0.075,0.075,0.135,0.15,0.195,0.225c0.045,0.09,0.104,0.165,0.135,0.255
				c0.046,0.106,0.06,0.196,0.089,0.285c0.016,0.106,0.031,0.196,0.031,0.301c0,0.09-0.015,0.195-0.031,0.285
				c-0.029,0.106-0.044,0.195-0.089,0.285c-0.031,0.09-0.089,0.18-0.135,0.255c-0.06,0.09-0.12,0.166-0.195,0.226
				C407.375,119.933,406.985,120.098,406.595,120.098z"/>
		</g>
		<g>
			<path fill="#32BD9F" d="M338.562,183.94c-0.825-0.06-1.456-0.765-1.396-1.592l0,0c0.045-0.826,0.751-1.456,1.576-1.411l0,0
				c0.827,0.06,1.472,0.766,1.412,1.592l0,0c-0.045,0.795-0.705,1.411-1.501,1.411l0,0
				C338.622,183.94,338.593,183.94,338.562,183.94z M345.184,182.529c-0.044-0.826,0.587-1.547,1.412-1.592l0,0
				c0.826-0.06,1.531,0.57,1.591,1.397l0,0c0.045,0.826-0.585,1.546-1.411,1.592l0,0c-0.031,0-0.06,0.015-0.091,0.015l0,0
				C345.891,183.94,345.244,183.324,345.184,182.529z M330.41,182.919c0,0,0,0,0,0.015l0,0c-0.811-0.165-1.35-0.946-1.201-1.757l0,0
				c0.166-0.826,0.946-1.351,1.757-1.202l0,0c0.826,0.15,1.352,0.931,1.201,1.757l0,0c-0.135,0.721-0.765,1.216-1.471,1.216l0,0
				C330.605,182.949,330.515,182.934,330.41,182.919z M353.172,181.718c-0.15-0.826,0.39-1.606,1.201-1.757l0,0
				c0.811-0.165,1.607,0.375,1.757,1.186l0,0c0.151,0.811-0.375,1.606-1.201,1.757l0,0c0,0,0,0,0.015,0l0,0
				c-0.104,0.015-0.195,0.03-0.285,0.03l0,0C353.938,182.934,353.322,182.424,353.172,181.718z M322.452,180.893
				c-0.796-0.256-1.231-1.096-0.976-1.892l0,0c0.255-0.781,1.111-1.216,1.892-0.961l0,0c0.796,0.256,1.216,1.096,0.961,1.892l0,0
				c-0.195,0.631-0.796,1.036-1.427,1.036l0,0C322.752,180.967,322.602,180.937,322.452,180.893z M360.995,179.901
				c-0.255-0.796,0.18-1.636,0.977-1.892l0,0c0.78-0.255,1.622,0.166,1.892,0.961l0,0c0.255,0.781-0.18,1.636-0.977,1.892l0,0l0,0
				l0,0c-0.149,0.045-0.301,0.075-0.45,0.075l0,0C361.791,180.937,361.204,180.532,360.995,179.901z M314.795,177.874
				c-0.751-0.36-1.066-1.246-0.721-1.997l0,0c0.361-0.751,1.246-1.081,1.997-0.721l0,0c0.751,0.345,1.081,1.246,0.721,1.997l0,0
				c-0.255,0.54-0.796,0.856-1.351,0.856l0,0C315.215,178.009,315.005,177.965,314.795,177.874z M368.531,177.109
				c-0.344-0.751-0.029-1.637,0.721-1.997l0,0c0.751-0.345,1.651-0.03,1.997,0.721l0,0c0.361,0.751,0.029,1.652-0.721,1.997l0,0
				c-0.195,0.105-0.419,0.15-0.63,0.15l0,0C369.328,177.979,368.788,177.649,368.531,177.109z M307.588,173.91
				c-0.691-0.45-0.901-1.366-0.466-2.072l0,0c0.45-0.705,1.381-0.901,2.072-0.465l0,0c0.706,0.451,0.916,1.367,0.466,2.073l0,0
				c-0.285,0.45-0.766,0.705-1.261,0.705l0,0C308.113,174.151,307.843,174.076,307.588,173.91z M375.649,173.4
				c-0.436-0.691-0.241-1.622,0.466-2.072l0,0c0.705-0.451,1.622-0.241,2.072,0.465l0,0c0.45,0.691,0.241,1.622-0.466,2.072l0,0
				c-0.239,0.15-0.525,0.24-0.795,0.24l0,0C376.43,174.106,375.935,173.85,375.649,173.4z M300.936,169.076
				c-0.63-0.526-0.721-1.471-0.195-2.102l0,0c0.526-0.646,1.471-0.736,2.117-0.21l0,0c0.631,0.526,0.721,1.471,0.196,2.117l0,0
				c-0.301,0.36-0.721,0.54-1.156,0.54l0,0C301.566,169.421,301.221,169.316,300.936,169.076z M382.256,168.836
				c-0.541-0.645-0.45-1.592,0.195-2.117l0,0c0.645-0.525,1.591-0.45,2.117,0.196l0,0c0.525,0.631,0.435,1.592-0.195,2.117l0,0l0,0
				l0,0c-0.286,0.226-0.631,0.345-0.962,0.345l0,0C382.976,169.376,382.556,169.196,382.256,168.836z M294.945,163.46
				c-0.571-0.6-0.541-1.546,0.059-2.116l0,0c0.616-0.571,1.562-0.541,2.133,0.06l0,0c0.57,0.6,0.54,1.546-0.06,2.117l0,0
				c-0.301,0.27-0.661,0.405-1.036,0.405l0,0C295.636,163.926,295.245,163.775,294.945,163.46z M388.231,163.475
				c-0.6-0.57-0.63-1.531-0.06-2.132l0,0c0.556-0.601,1.517-0.631,2.117-0.06l0,0c0.601,0.555,0.63,1.516,0.06,2.117l0,0l0,0l0,0
				c-0.284,0.315-0.691,0.481-1.081,0.481l0,0C388.892,163.881,388.517,163.745,388.231,163.475z M289.705,157.139
				c-0.496-0.66-0.345-1.606,0.331-2.102l0,0c0.66-0.48,1.606-0.331,2.086,0.331l0,0c0.496,0.675,0.345,1.606-0.33,2.102l0,0
				c-0.255,0.195-0.571,0.285-0.871,0.285l0,0C290.456,157.755,289.99,157.544,289.705,157.139z M393.502,157.41
				c-0.676-0.496-0.827-1.441-0.331-2.102l0,0c0.481-0.676,1.427-0.826,2.088-0.331l0,0c0.675,0.48,0.826,1.427,0.33,2.087l0,0
				c-0.286,0.405-0.751,0.63-1.216,0.63l0,0C394.073,157.695,393.757,157.59,393.502,157.41z M285.291,150.217L285.291,150.217
				L285.291,150.217c-0.405-0.721-0.15-1.636,0.586-2.042l0,0c0.721-0.405,1.636-0.136,2.042,0.585l0,0
				c0.39,0.721,0.135,1.637-0.6,2.042l0,0c-0.226,0.12-0.481,0.18-0.721,0.18l0,0C286.072,150.983,285.561,150.713,285.291,150.217z
				 M397.961,150.728c-0.721-0.405-0.991-1.321-0.585-2.042l0,0c0.405-0.721,1.305-0.991,2.041-0.586l0,0
				c0.721,0.391,0.991,1.306,0.587,2.042l0,0c-0.271,0.495-0.781,0.765-1.323,0.765l0,0
				C398.442,150.908,398.202,150.848,397.961,150.728z M281.778,142.785c-0.316-0.765,0.059-1.636,0.84-1.952l0,0
				c0.766-0.301,1.637,0.075,1.952,0.841l0,0c0.3,0.781-0.075,1.652-0.841,1.952l0,0c-0.195,0.076-0.375,0.106-0.556,0.106l0,0
				C282.573,143.731,282.003,143.386,281.778,142.785z M401.564,143.536c-0.765-0.3-1.155-1.171-0.84-1.937v-0.015
				c0.301-0.766,1.172-1.141,1.952-0.841l0,0c0.765,0.315,1.141,1.186,0.842,1.952l0,0l0,0l0,0
				c-0.241,0.586-0.811,0.946-1.397,0.946l0,0C401.924,143.641,401.744,143.611,401.564,143.536z M279.225,134.978
				c-0.21-0.796,0.27-1.622,1.081-1.832l0,0c0.795-0.21,1.621,0.285,1.817,1.081l0,0c0.21,0.811-0.271,1.622-1.066,1.831l0,0
				c-0.136,0.03-0.256,0.046-0.375,0.046l0,0C280.006,136.104,279.39,135.653,279.225,134.978z M404.222,135.953
				c-0.796-0.195-1.292-1.021-1.081-1.817l0,0c0.21-0.811,1.02-1.291,1.831-1.096l0,0c0.796,0.21,1.276,1.036,1.081,1.831l0,0
				c-0.18,0.676-0.795,1.126-1.456,1.126l0,0C404.477,135.998,404.342,135.983,404.222,135.953z M277.679,126.9
				c-0.106-0.811,0.48-1.562,1.306-1.667l0,0c0.811-0.105,1.562,0.481,1.667,1.292l0,0c0.105,0.825-0.466,1.576-1.292,1.681l0,0
				c-0.075,0.015-0.135,0.015-0.195,0.015l0,0C278.429,128.221,277.768,127.665,277.679,126.9z M405.904,128.101
				c-0.826-0.105-1.412-0.856-1.307-1.666l0,0c0.106-0.826,0.856-1.411,1.682-1.306l0,0c0.825,0.105,1.41,0.856,1.306,1.666l0,0
				c-0.106,0.766-0.751,1.321-1.487,1.321l0,0C406.039,128.115,405.964,128.115,405.904,128.101z"/>
		</g>
		<g>
			<path fill="#32BD9F" d="M278.655,120.098c-0.391,0-0.781-0.165-1.066-0.45c-0.136-0.136-0.241-0.301-0.315-0.481
				c-0.076-0.18-0.12-0.375-0.12-0.57s0.045-0.39,0.12-0.586c0.075-0.18,0.18-0.345,0.315-0.48c0.42-0.42,1.096-0.556,1.636-0.331
				c0.195,0.09,0.36,0.196,0.496,0.331c0.135,0.135,0.24,0.301,0.315,0.48c0.09,0.196,0.12,0.391,0.12,0.586s-0.03,0.391-0.12,0.57
				c-0.076,0.18-0.18,0.345-0.315,0.481c-0.136,0.149-0.301,0.255-0.496,0.33C279.045,120.053,278.85,120.098,278.655,120.098z"/>
		</g>
	</g>
	<g>
		<g>
			<path fill="#32BD9F" d="M387.855,120.098c-0.195,0-0.39-0.045-0.57-0.12c-0.18-0.075-0.344-0.18-0.496-0.33
				c-0.27-0.27-0.435-0.661-0.435-1.051c0-0.195,0.045-0.39,0.12-0.57c0.075-0.195,0.18-0.361,0.315-0.496
				c0.151-0.135,0.315-0.241,0.496-0.331c0.271-0.105,0.57-0.135,0.871-0.075c0.091,0.015,0.18,0.045,0.27,0.075
				c0.091,0.045,0.18,0.09,0.271,0.15c0.075,0.045,0.15,0.106,0.224,0.18c0.136,0.135,0.241,0.301,0.315,0.496
				c0.076,0.18,0.12,0.375,0.12,0.57c0,0.391-0.164,0.781-0.436,1.051c-0.075,0.075-0.149,0.135-0.224,0.195
				c-0.091,0.06-0.18,0.105-0.271,0.135c-0.089,0.046-0.179,0.076-0.27,0.09C388.05,120.083,387.961,120.098,387.855,120.098z"/>
		</g>
		<g>
			<path fill="#32BD9F" d="M341.16,163.821c0-0.826,0.661-1.502,1.502-1.502l0,0c0.826,0,1.501,0.675,1.501,1.502l0,0
				c0,0.826-0.676,1.502-1.501,1.502l0,0C341.822,165.322,341.16,164.662,341.16,163.821z M334.553,164.632
				c-0.826-0.136-1.365-0.917-1.23-1.742l0,0c0.149-0.811,0.915-1.367,1.742-1.216l0,0c0.809,0.136,1.365,0.916,1.216,1.742l0,0
				c-0.12,0.721-0.766,1.246-1.472,1.246l0,0C334.719,164.662,334.63,164.646,334.553,164.632z M349.029,163.4
				c-0.151-0.811,0.405-1.591,1.215-1.741l0,0c0.826-0.136,1.592,0.405,1.742,1.216l0,0c0.149,0.826-0.405,1.606-1.216,1.741l0,0
				c-0.091,0.015-0.18,0.03-0.271,0.03l0,0C349.794,164.646,349.149,164.136,349.029,163.4z M326.686,162.53
				c-0.781-0.27-1.186-1.141-0.901-1.922l0,0c0.27-0.781,1.141-1.171,1.922-0.901l0,0c0.78,0.285,1.172,1.156,0.9,1.922l0,0
				c-0.224,0.615-0.795,0.99-1.41,0.99l0,0C327.017,162.619,326.852,162.589,326.686,162.53z M356.716,161.613
				c-0.286-0.781,0.104-1.636,0.886-1.922l0,0c0.78-0.285,1.651,0.12,1.921,0.901l0,0c0.286,0.781-0.104,1.636-0.886,1.922l0,0
				c-0.18,0.06-0.345,0.09-0.525,0.09l0,0C357.511,162.605,356.926,162.229,356.716,161.613z M319.299,159.091
				c-0.721-0.405-0.961-1.322-0.556-2.042l0,0c0.421-0.721,1.336-0.976,2.057-0.555l0,0c0.721,0.42,0.961,1.336,0.54,2.056l0,0
				c-0.27,0.481-0.781,0.751-1.291,0.751l0,0C319.795,159.301,319.539,159.241,319.299,159.091z M363.952,158.52
				c-0.405-0.721-0.164-1.636,0.556-2.056l0,0c0.721-0.421,1.636-0.18,2.057,0.54l0,0c0.406,0.721,0.166,1.636-0.556,2.057l0,0
				c-0.24,0.135-0.496,0.195-0.751,0.195l0,0C364.748,159.256,364.238,159.001,363.952,158.52z M312.617,154.437c0,0,0,0,0.015,0
				l0,0c-0.646-0.54-0.721-1.487-0.195-2.117l0,0c0.54-0.645,1.486-0.721,2.117-0.195l0,0c0.631,0.54,0.721,1.486,0.18,2.117l0,0
				c-0.285,0.36-0.721,0.54-1.141,0.54l0,0C313.248,154.782,312.903,154.662,312.617,154.437z M370.559,154.196
				c-0.541-0.631-0.45-1.576,0.18-2.117l0,0c0.631-0.525,1.591-0.45,2.117,0.196l0,0c0.54,0.631,0.45,1.576-0.18,2.102l0,0
				c-0.286,0.24-0.631,0.36-0.962,0.36l0,0C371.279,154.736,370.86,154.557,370.559,154.196z M306.867,148.671L306.867,148.671
				L306.867,148.671c-0.541-0.631-0.466-1.577,0.18-2.103l0,0c0.631-0.54,1.577-0.465,2.117,0.18l0,0
				c0.526,0.63,0.45,1.576-0.195,2.117l0,0c-0.271,0.225-0.616,0.345-0.961,0.345l0,0
				C307.588,149.212,307.167,149.031,306.867,148.671z M376.31,148.806c-0.631-0.526-0.705-1.471-0.18-2.117l0,0
				c0.525-0.63,1.487-0.705,2.117-0.18l0,0c0.63,0.541,0.72,1.487,0.18,2.117l0,0c-0.301,0.361-0.721,0.54-1.142,0.54l0,0
				C376.94,149.166,376.595,149.047,376.31,148.806z M302.182,142.019c-0.421-0.721-0.18-1.636,0.54-2.057l0,0
				c0.721-0.405,1.636-0.165,2.057,0.556l0,0c0.405,0.705,0.165,1.636-0.556,2.042l0,0c-0.225,0.135-0.496,0.21-0.751,0.21l0,0
				C302.963,142.77,302.453,142.5,302.182,142.019z M381.055,142.5c-0.721-0.405-0.962-1.336-0.556-2.042l0,0
				c0.419-0.721,1.336-0.961,2.057-0.556l0,0c0.72,0.421,0.96,1.336,0.556,2.057l0,0c-0.286,0.48-0.796,0.751-1.307,0.751l0,0
				C381.55,142.71,381.294,142.635,381.055,142.5z M298.729,134.647c-0.285-0.781,0.106-1.636,0.886-1.922l0,0
				c0.781-0.285,1.636,0.12,1.921,0.886l0,0c0.285,0.781-0.105,1.652-0.886,1.937l0,0c-0.18,0.06-0.345,0.09-0.526,0.09l0,0
				C299.525,135.638,298.939,135.263,298.729,134.647z M384.628,135.473c-0.781-0.286-1.186-1.141-0.902-1.922l0,0
				c0.286-0.781,1.142-1.186,1.922-0.901l0,0c0.782,0.285,1.186,1.156,0.9,1.922l0,0c-0.224,0.615-0.795,0.99-1.411,0.99l0,0
				C384.973,135.563,384.792,135.533,384.628,135.473z M296.612,126.78L296.612,126.78L296.612,126.78
				c-0.15-0.811,0.39-1.592,1.216-1.727l0,0c0.811-0.149,1.592,0.391,1.741,1.216h-0.015c0.15,0.811-0.391,1.592-1.216,1.727l0,0
				c-0.075,0.015-0.165,0.03-0.255,0.03l0,0C297.363,128.026,296.732,127.515,296.612,126.78z M386.91,127.936
				c-0.811-0.15-1.35-0.931-1.215-1.742l0,0c0.149-0.811,0.915-1.367,1.742-1.216l0,0c0.811,0.135,1.365,0.916,1.216,1.727l0,0
				c-0.12,0.736-0.751,1.246-1.471,1.246l0,0C387.09,127.95,387.001,127.95,386.91,127.936z"/>
		</g>
		<g>
			<path fill="#32BD9F" d="M297.393,120.098c-0.106,0-0.195-0.015-0.301-0.03c-0.09-0.03-0.18-0.045-0.27-0.09
				c-0.09-0.03-0.18-0.09-0.271-0.135c-0.076-0.06-0.15-0.12-0.225-0.18c-0.271-0.285-0.436-0.675-0.436-1.066
				c0-0.405,0.165-0.781,0.436-1.066c0.075-0.075,0.149-0.135,0.225-0.18c0.09-0.06,0.18-0.105,0.271-0.15
				c0.089-0.03,0.18-0.059,0.27-0.075c0.301-0.06,0.6-0.03,0.871,0.075c0.18,0.075,0.345,0.196,0.496,0.331
				c0.27,0.285,0.436,0.66,0.436,1.066c0,0.391-0.166,0.781-0.436,1.066c-0.15,0.135-0.315,0.24-0.496,0.315
				C297.783,120.053,297.588,120.098,297.393,120.098z"/>
		</g>
	</g>
	<g>
		<g>
			<path fill="#32BD9F" d="M368.967,111.089c-0.104,0-0.195-0.015-0.299-0.03c-0.091-0.03-0.195-0.045-0.286-0.09
				c-0.089-0.03-0.18-0.09-0.255-0.135c-0.075-0.06-0.166-0.12-0.226-0.195c-0.284-0.271-0.436-0.661-0.436-1.051
				c0-0.405,0.151-0.795,0.436-1.066c0.06-0.075,0.151-0.135,0.226-0.18c0.075-0.06,0.166-0.105,0.255-0.15
				c0.091-0.03,0.195-0.059,0.286-0.075c0.496-0.105,1.006,0.06,1.35,0.405c0.075,0.075,0.135,0.15,0.195,0.225
				c0.045,0.09,0.106,0.165,0.136,0.255c0.044,0.106,0.059,0.196,0.089,0.285c0.015,0.106,0.029,0.196,0.029,0.301
				c0,0.391-0.164,0.781-0.45,1.051C369.748,110.924,369.358,111.089,368.967,111.089z"/>
		</g>
		<g>
			<path fill="#32BD9F" d="M369.373,103.236c-0.811-0.15-1.352-0.916-1.217-1.742l0,0l0,0l0,0c0.151-0.811,0.931-1.366,1.742-1.216
				l0,0c0.811,0.136,1.367,0.916,1.217,1.742l0,0c-0.12,0.721-0.751,1.232-1.472,1.232l0,0
				C369.553,103.252,369.462,103.252,369.373,103.236z M456.879,101.945c-0.151-0.811,0.405-1.592,1.216-1.742l0,0
				c0.811-0.135,1.592,0.405,1.742,1.216l0,0c0,0,0,0,0,0.015l0,0c0.15,0.811-0.406,1.592-1.217,1.727l0,0
				c-0.089,0.015-0.179,0.03-0.255,0.03l0,0C457.644,103.192,456.999,102.681,456.879,101.945z M371.144,95.579
				c-0.765-0.285-1.17-1.141-0.886-1.921l0,0l0,0l0,0c0.27-0.781,1.141-1.172,1.922-0.901l0,0c0.78,0.285,1.186,1.156,0.9,1.937l0,0
				c-0.224,0.6-0.796,0.976-1.411,0.976l0,0C371.49,95.669,371.325,95.639,371.144,95.579z M454.911,94.633
				c-0.285-0.781,0.106-1.652,0.886-1.937l0,0c0.782-0.285,1.652,0.12,1.937,0.901l0,0c0.286,0.781-0.12,1.636-0.9,1.922l0,0
				c-0.166,0.06-0.346,0.09-0.51,0.09l0,0C455.708,95.609,455.137,95.233,454.911,94.633z M374.238,88.357
				c-0.721-0.405-0.962-1.321-0.556-2.042l0,0c0.421-0.721,1.336-0.961,2.057-0.556l0,0c0.72,0.421,0.96,1.336,0.539,2.057l0,0
				c-0.27,0.48-0.78,0.751-1.29,0.751l0,0C374.734,88.567,374.462,88.507,374.238,88.357z M451.684,87.756h0.015
				c-0.421-0.721-0.18-1.636,0.54-2.042l0,0c0.707-0.421,1.638-0.18,2.043,0.54l0,0c0,0,0,0,0.015,0l0,0
				c0.406,0.721,0.166,1.636-0.556,2.057l0,0c-0.239,0.135-0.494,0.195-0.751,0.195l0,0
				C452.479,88.507,451.969,88.237,451.684,87.756z M378.531,81.78c-0.645-0.526-0.72-1.471-0.195-2.102l0,0l0,0l0,0
				c0.541-0.646,1.487-0.721,2.117-0.195l0,0c0.645,0.54,0.721,1.486,0.195,2.117h-0.015c-0.286,0.361-0.721,0.541-1.141,0.541l0,0
				C379.147,82.141,378.803,82.021,378.531,81.78z M447.329,81.555c-0.541-0.631-0.45-1.576,0.18-2.117l0,0
				c0.631-0.54,1.576-0.45,2.117,0.18l0,0l0,0l0,0c0.525,0.63,0.45,1.576-0.18,2.117l0,0c-0.286,0.24-0.63,0.36-0.977,0.36l0,0
				C448.051,82.096,447.615,81.901,447.329,81.555z M383.892,76.045c-0.541-0.63-0.45-1.577,0.18-2.102l0,0
				c0.63-0.541,1.591-0.465,2.117,0.18l0,0c0.525,0.631,0.45,1.577-0.18,2.117l0,0c-0.286,0.225-0.631,0.345-0.977,0.345l0,0
				C384.614,76.585,384.193,76.405,383.892,76.045z M441.954,76.195L441.954,76.195c-0.645-0.526-0.72-1.487-0.195-2.117l0,0
				c0.541-0.63,1.487-0.721,2.117-0.18l0,0c0.645,0.526,0.72,1.471,0.195,2.117l0,0c-0.301,0.345-0.721,0.526-1.157,0.526l0,0
				C442.57,76.541,442.24,76.435,441.954,76.195z M390.168,71.33c-0.419-0.721-0.18-1.636,0.541-2.057l0,0
				c0.72-0.405,1.636-0.165,2.057,0.556l0,0c0.405,0.721,0.164,1.636-0.556,2.042l0,0c-0.226,0.15-0.496,0.21-0.751,0.21l0,0
				C390.949,72.081,390.439,71.81,390.168,71.33z M435.738,71.84L435.738,71.84c-0.721-0.405-0.962-1.336-0.556-2.042l0,0
				c0.421-0.721,1.336-0.976,2.057-0.556l0,0l0,0l0,0c0.705,0.421,0.96,1.337,0.54,2.057l0,0c-0.27,0.48-0.78,0.751-1.29,0.751l0,0
				C436.234,72.051,435.979,71.976,435.738,71.84z M397.165,67.772c-0.284-0.781,0.12-1.652,0.886-1.922l0,0c0,0,0,0,0-0.015l0,0
				c0.781-0.285,1.652,0.12,1.937,0.901l0,0c0.286,0.781-0.12,1.636-0.9,1.922l0,0c-0.166,0.075-0.346,0.089-0.51,0.089l0,0
				C397.961,68.747,397.391,68.372,397.165,67.772z M428.861,68.643c-0.782-0.285-1.186-1.141-0.902-1.922l0,0
				c0.286-0.781,1.142-1.186,1.922-0.901l0,0c0.782,0.285,1.186,1.141,0.902,1.922l0,0c-0.226,0.616-0.796,0.991-1.412,0.991l0,0
				C429.206,68.733,429.026,68.703,428.861,68.643z M404.672,65.475c-0.135-0.811,0.406-1.592,1.217-1.727l0,0
				c0.826-0.15,1.606,0.39,1.741,1.216l0,0c0.151,0.81-0.405,1.591-1.216,1.741l0,0c-0.089,0.015-0.18,0.015-0.255,0.015l0,0
				C405.438,66.721,404.807,66.21,404.672,65.475z M421.534,66.691L421.534,66.691c-0.827-0.136-1.367-0.916-1.217-1.742l0,0
				c0.135-0.811,0.917-1.367,1.727-1.216l0,0c0.826,0.135,1.367,0.916,1.216,1.742l0,0c-0.12,0.721-0.751,1.231-1.471,1.231l0,0
				C421.699,66.705,421.624,66.705,421.534,66.691z M412.465,64.543c0-0.825,0.676-1.501,1.501-1.501l0,0
				c0.825,0,1.502,0.66,1.502,1.501l0,0c0,0.826-0.661,1.502-1.502,1.502l0,0C413.141,66.045,412.465,65.369,412.465,64.543z"/>
		</g>
		<g>
			<path fill="#32BD9F" d="M459.04,111.089c-0.39,0-0.78-0.165-1.051-0.45c-0.284-0.271-0.45-0.661-0.45-1.051
				c0-0.195,0.045-0.39,0.12-0.586c0.075-0.18,0.18-0.345,0.33-0.48c0.556-0.556,1.562-0.556,2.117,0
				c0.135,0.135,0.255,0.301,0.331,0.48c0.075,0.196,0.104,0.391,0.104,0.586c0,0.391-0.149,0.781-0.435,1.051
				C459.837,110.924,459.447,111.089,459.04,111.089z"/>
		</g>
	</g>
	<g>
		<g>
			<path fill="#32BD9F" d="M387.42,111.089c-0.39,0-0.78-0.165-1.066-0.45c-0.06-0.06-0.135-0.136-0.18-0.226
				c-0.059-0.075-0.104-0.165-0.15-0.255c-0.029-0.09-0.06-0.18-0.075-0.285c-0.031-0.09-0.031-0.195-0.031-0.285
				c0-0.195,0.031-0.39,0.106-0.586c0.075-0.18,0.195-0.345,0.33-0.48c0.556-0.556,1.562-0.556,2.117,0
				c0.151,0.135,0.255,0.301,0.33,0.48c0.076,0.196,0.12,0.391,0.12,0.586c0,0.391-0.164,0.781-0.45,1.051
				C388.202,110.924,387.812,111.089,387.42,111.089z"/>
		</g>
		<g>
			<path fill="#32BD9F" d="M388.067,103.522c-0.796-0.225-1.246-1.066-1.022-1.861l0,0l0,0l0,0c0.24-0.796,1.066-1.246,1.862-1.021
				l0,0c0.796,0.241,1.261,1.066,1.021,1.862l0,0c-0.195,0.661-0.795,1.081-1.441,1.081l0,0
				C388.351,103.582,388.202,103.567,388.067,103.522z M438.065,102.486c-0.226-0.795,0.226-1.636,1.02-1.861l0,0
				c0.796-0.24,1.636,0.21,1.862,1.006l0,0c0,0,0,0,0,0.015l0,0c0.24,0.781-0.21,1.622-1.006,1.862l0,0
				c-0.149,0.03-0.286,0.06-0.435,0.06l0,0C438.861,103.567,438.26,103.131,438.065,102.486z M390.829,96.465
				c-0.705-0.451-0.902-1.382-0.45-2.073l0,0c0.45-0.705,1.367-0.9,2.072-0.45l0,0c0.691,0.45,0.9,1.381,0.45,2.072l0,0
				c-0.286,0.451-0.765,0.691-1.261,0.691l0,0C391.354,96.705,391.07,96.63,390.829,96.465z M435.092,96
				c-0.45-0.706-0.255-1.622,0.452-2.073l0,0c0.691-0.45,1.622-0.255,2.072,0.435l0,0c0.45,0.706,0.255,1.637-0.45,2.087l0,0
				c-0.24,0.165-0.526,0.24-0.811,0.24l0,0C435.873,96.69,435.377,96.435,435.092,96z M395.454,90.474
				c-0.541-0.631-0.466-1.576,0.15-2.117l0,0c0.631-0.555,1.576-0.48,2.132,0.15l0,0c0.541,0.616,0.466,1.577-0.164,2.117l0,0
				c-0.286,0.24-0.631,0.36-0.977,0.36l0,0C396.174,90.984,395.754,90.819,395.454,90.474z M430.408,90.609
				c-0.616-0.54-0.692-1.486-0.151-2.117l0,0c0.556-0.63,1.502-0.691,2.117-0.15l0,0c0.631,0.54,0.705,1.486,0.15,2.117l0,0
				c-0.284,0.345-0.705,0.51-1.126,0.51l0,0C431.053,90.97,430.693,90.849,430.408,90.609z M401.595,86.014
				c-0.361-0.751-0.031-1.636,0.736-1.982l0,0c0.751-0.345,1.636-0.015,1.981,0.736l0,0c0.346,0.751,0.016,1.651-0.735,1.996l0,0
				c-0.211,0.09-0.421,0.136-0.63,0.136l0,0C402.375,86.901,401.835,86.57,401.595,86.014z M424.417,86.75
				c-0.765-0.345-1.097-1.231-0.751-1.982l0,0c0.345-0.766,1.23-1.096,1.997-0.751l0,0c0.751,0.345,1.081,1.231,0.735,1.996l0,0
				c-0.255,0.541-0.795,0.871-1.365,0.871l0,0C424.822,86.885,424.612,86.84,424.417,86.75z M408.726,83.477
				c-0.12-0.826,0.45-1.576,1.276-1.697l0,0c0.811-0.12,1.578,0.451,1.696,1.276l0,0c0.12,0.811-0.45,1.576-1.276,1.696l0,0
				c-0.075,0-0.15,0.015-0.21,0.015l0,0C409.477,84.769,408.832,84.227,408.726,83.477z M417.57,84.753
				c-0.826-0.12-1.396-0.886-1.276-1.712l0,0c0.106-0.81,0.871-1.381,1.697-1.261l0,0c0.811,0.105,1.381,0.871,1.276,1.697l0,0
				c-0.119,0.751-0.751,1.292-1.485,1.292l0,0C417.704,84.769,417.63,84.753,417.57,84.753z"/>
		</g>
		<g>
			<path fill="#32BD9F" d="M440.587,111.089c-0.39,0-0.78-0.165-1.066-0.45c-0.27-0.271-0.436-0.661-0.436-1.051
				c0-0.405,0.166-0.781,0.436-1.066c0.57-0.556,1.576-0.556,2.132,0c0.286,0.285,0.436,0.661,0.436,1.066
				c0,0.391-0.15,0.781-0.436,1.051C441.369,110.924,440.993,111.089,440.587,111.089z"/>
		</g>
	</g>
	<g>
		<g>
			<path fill="#32BD9F" d="M550.06,118.596c-0.405,0-0.78-0.165-1.066-0.45c-0.27-0.27-0.435-0.66-0.435-1.051
				c0-0.405,0.166-0.795,0.435-1.066c0.556-0.556,1.576-0.556,2.132,0c0.27,0.285,0.436,0.661,0.436,1.066
				c0,0.391-0.166,0.781-0.436,1.051C550.841,118.431,550.45,118.596,550.06,118.596z"/>
		</g>
		<g>
			<path fill="#32BD9F" d="M503.348,162.319c0-0.826,0.676-1.501,1.501-1.501l0,0c0.842,0,1.502,0.675,1.518,1.501l0,0
				c0,0.826-0.676,1.502-1.518,1.502l0,0C504.024,163.821,503.348,163.16,503.348,162.319z M496.743,163.13c0,0,0,0,0.015,0l0,0
				c-0.826-0.136-1.367-0.917-1.232-1.727l0,0c0.136-0.826,0.916-1.382,1.742-1.232l0,0c0.811,0.136,1.367,0.916,1.217,1.742l0,0
				c-0.12,0.721-0.767,1.246-1.472,1.246l0,0C496.923,163.16,496.832,163.145,496.743,163.13z M511.231,161.898
				c-0.15-0.811,0.406-1.591,1.217-1.741l0,0c0.811-0.136,1.591,0.405,1.742,1.216l0,0c0.135,0.825-0.406,1.606-1.217,1.741l0,0
				c-0.089,0.015-0.18,0.03-0.27,0.03l0,0C511.998,163.145,511.351,162.619,511.231,161.898z M488.875,161.028
				c-0.78-0.27-1.172-1.141-0.9-1.922l0,0c0.284-0.781,1.155-1.171,1.937-0.901l0,0c0.78,0.285,1.17,1.156,0.886,1.937l0,0
				c-0.211,0.6-0.796,0.976-1.412,0.976l0,0C489.221,161.118,489.055,161.088,488.875,161.028z M518.904,160.112
				c-0.284-0.781,0.12-1.636,0.9-1.922l0,0c0.781-0.285,1.638,0.12,1.922,0.901l0,0c0.286,0.765-0.12,1.636-0.886,1.922l0,0
				c-0.18,0.06-0.345,0.09-0.525,0.09l0,0C519.7,161.103,519.13,160.728,518.904,160.112z M481.502,157.59L481.502,157.59
				L481.502,157.59c-0.72-0.405-0.975-1.322-0.556-2.043l0,0c0.421-0.721,1.337-0.96,2.057-0.555l0,0
				c0.707,0.42,0.962,1.336,0.541,2.056l0,0c-0.27,0.481-0.782,0.751-1.306,0.751l0,0C481.998,157.8,481.728,157.739,481.502,157.59
				z M526.156,157.019c-0.421-0.721-0.166-1.636,0.556-2.056l0,0c0.705-0.421,1.636-0.18,2.043,0.54l0,0
				c0.419,0.721,0.179,1.636-0.541,2.057l0,0c-0.24,0.135-0.496,0.21-0.751,0.21l0,0C526.936,157.769,526.442,157.5,526.156,157.019
				z M474.82,152.935c-0.631-0.54-0.72-1.487-0.179-2.117l0,0c0.525-0.645,1.471-0.721,2.116-0.195l0,0
				c0.63,0.54,0.707,1.486,0.18,2.117l0,0c-0.301,0.36-0.72,0.54-1.156,0.54l0,0C475.452,153.28,475.106,153.16,474.82,152.935z
				 M532.763,152.695c-0.541-0.631-0.452-1.576,0.179-2.117l0,0c0.632-0.525,1.578-0.45,2.117,0.196l0,0
				c0.526,0.631,0.452,1.576-0.18,2.102l0,0c-0.284,0.24-0.631,0.36-0.975,0.36l0,0
				C533.483,153.235,533.063,153.055,532.763,152.695z M469.055,147.184c-0.525-0.646-0.45-1.592,0.195-2.117l0,0
				c0.631-0.54,1.578-0.465,2.103,0.18l0,0c0.541,0.631,0.45,1.576-0.18,2.117l0,0c-0.27,0.225-0.616,0.345-0.96,0.345l0,0
				C469.791,147.71,469.356,147.53,469.055,147.184z M538.514,147.305c-0.632-0.526-0.721-1.471-0.18-2.117l0,0
				c0.525-0.631,1.471-0.705,2.116-0.18l0,0c0.632,0.541,0.707,1.487,0.18,2.117l0,0c-0.299,0.361-0.72,0.54-1.155,0.54l0,0
				C539.145,147.665,538.799,147.545,538.514,147.305z M464.37,140.518c-0.405-0.721-0.164-1.636,0.556-2.042l0,0
				c0.707-0.421,1.636-0.18,2.042,0.54h0.015c0.406,0.705,0.166,1.636-0.556,2.042l0,0c-0.241,0.15-0.496,0.21-0.751,0.21l0,0
				C465.152,141.269,464.656,140.998,464.37,140.518z M543.257,140.998c-0.72-0.405-0.96-1.321-0.556-2.042l0,0
				c0.421-0.721,1.337-0.961,2.057-0.556l0,0c0.721,0.421,0.962,1.337,0.541,2.057l0,0c-0.27,0.48-0.78,0.751-1.292,0.751l0,0
				C543.753,141.208,543.498,141.148,543.257,140.998z M460.917,133.145L460.917,133.145L460.917,133.145
				c-0.284-0.781,0.12-1.636,0.902-1.921l0,0c0.78-0.285,1.636,0.12,1.921,0.886l0,0c0.286,0.781-0.12,1.652-0.886,1.937l0,0
				c-0.18,0.06-0.344,0.09-0.525,0.09l0,0C461.728,134.137,461.143,133.761,460.917,133.145z M546.831,133.972
				c-0.78-0.286-1.185-1.141-0.9-1.922l0,0c0.286-0.781,1.141-1.186,1.922-0.901l0,0c0.78,0.285,1.186,1.156,0.9,1.937l0,0
				c-0.224,0.6-0.796,0.976-1.411,0.976l0,0C547.177,134.061,546.996,134.032,546.831,133.972z M458.8,125.278
				c-0.135-0.811,0.406-1.592,1.217-1.742l0,0c0.825-0.135,1.606,0.405,1.742,1.216v0.015c0.15,0.811-0.392,1.592-1.217,1.727l0,0
				c-0.089,0.015-0.18,0.03-0.255,0.03l0,0C459.567,126.525,458.936,126.014,458.8,125.278z M549.114,126.434
				c-0.811-0.15-1.352-0.931-1.215-1.742l0,0c0.149-0.811,0.915-1.367,1.74-1.216l0,0c0.811,0.135,1.367,0.916,1.217,1.742l0,0l0,0
				l0,0c-0.12,0.721-0.765,1.231-1.487,1.231l0,0C549.294,126.449,549.203,126.449,549.114,126.434z"/>
		</g>
		<g>
			<path fill="#32BD9F" d="M459.596,118.596c-0.405,0-0.78-0.165-1.066-0.45c-0.286-0.27-0.435-0.66-0.435-1.051
				c0-0.405,0.149-0.781,0.435-1.066c0.556-0.556,1.562-0.556,2.117,0c0.284,0.285,0.45,0.661,0.45,1.066
				c0,0.391-0.166,0.781-0.45,1.051C460.378,118.431,459.986,118.596,459.596,118.596z"/>
		</g>
	</g>
	<g>
		<g>
			<path fill="#32BD9F" d="M369.207,120.098c-0.089,0-0.195-0.015-0.284-0.03c-0.106-0.015-0.195-0.045-0.286-0.09
				c-0.089-0.03-0.18-0.075-0.255-0.135c-0.089-0.06-0.166-0.12-0.226-0.195c-0.15-0.136-0.255-0.301-0.33-0.481
				c-0.075-0.18-0.12-0.375-0.12-0.57c0-0.405,0.166-0.795,0.45-1.066c0.06-0.075,0.136-0.135,0.226-0.18
				c0.075-0.06,0.166-0.105,0.255-0.15c0.091-0.03,0.18-0.059,0.286-0.075c0.195-0.045,0.39-0.045,0.585,0
				c0.091,0.015,0.195,0.045,0.27,0.075c0.106,0.045,0.18,0.09,0.271,0.15c0.075,0.045,0.15,0.106,0.224,0.18
				c0.271,0.285,0.435,0.66,0.435,1.066c0,0.391-0.164,0.781-0.435,1.051c-0.075,0.075-0.15,0.135-0.224,0.195
				c-0.091,0.06-0.166,0.105-0.271,0.135c-0.075,0.046-0.179,0.076-0.27,0.09C369.402,120.083,369.313,120.098,369.207,120.098z"/>
		</g>
		<g>
			<path fill="#32BD9F" d="M338.638,146.404c-0.827-0.12-1.397-0.886-1.277-1.697l0,0c0.12-0.826,0.886-1.397,1.697-1.276l0,0
				c0.827,0.12,1.397,0.871,1.277,1.697l0,0c-0.106,0.751-0.751,1.292-1.487,1.292l0,0
				C338.788,146.419,338.713,146.404,338.638,146.404z M344.929,145.127c-0.12-0.826,0.45-1.592,1.277-1.697l0,0
				c0.826-0.12,1.576,0.45,1.697,1.261l0,0c0.12,0.826-0.45,1.592-1.277,1.712l0,0c-0.075,0-0.135,0.015-0.21,0.015l0,0
				C345.68,146.419,345.034,145.878,344.929,145.127z M330.965,144.151c-0.751-0.345-1.081-1.231-0.736-1.982l0,0
				c0.346-0.751,1.232-1.096,1.982-0.751l0,0c0.751,0.345,1.095,1.246,0.751,1.997l0,0c-0.255,0.555-0.796,0.87-1.367,0.87l0,0
				C331.386,144.286,331.175,144.256,330.965,144.151z M352.316,143.401c-0.345-0.751-0.029-1.636,0.736-1.982l0,0
				c0.751-0.345,1.636-0.015,1.982,0.735l0,0c0.345,0.751,0.015,1.652-0.736,1.997l0,0c-0.195,0.09-0.421,0.135-0.616,0.135l0,0
				C353.112,144.286,352.556,143.956,352.316,143.401z M324.253,139.842c-0.63-0.54-0.705-1.501-0.165-2.116l0,0
				c0.54-0.631,1.502-0.706,2.132-0.166l0,0c0.616,0.556,0.691,1.502,0.15,2.132l0,0c-0.3,0.331-0.721,0.511-1.141,0.511l0,0
				C324.885,140.203,324.524,140.083,324.253,139.842z M358.892,139.677c-0.54-0.631-0.465-1.576,0.151-2.132h0.015
				c0.616-0.54,1.562-0.466,2.117,0.165l0,0c0.541,0.616,0.465,1.562-0.166,2.117l0,0c0,0,0,0,0.015,0l0,0
				c-0.284,0.24-0.645,0.36-0.99,0.36l0,0C359.613,140.187,359.193,140.008,358.892,139.677z M319.014,133.806
				c-0.45-0.691-0.255-1.622,0.436-2.072l0,0c0.705-0.45,1.636-0.255,2.087,0.45l0,0c0.45,0.691,0.24,1.622-0.451,2.073l0,0
				c-0.255,0.165-0.54,0.24-0.811,0.24l0,0C319.779,134.497,319.299,134.257,319.014,133.806z M364.178,134.227
				c-0.705-0.435-0.902-1.367-0.45-2.072l0,0c0.45-0.691,1.381-0.901,2.072-0.451l0,0c0.705,0.451,0.9,1.381,0.45,2.087l0,0
				c-0.286,0.435-0.766,0.675-1.261,0.675l0,0C364.703,134.467,364.433,134.392,364.178,134.227z M315.68,126.539
				c-0.24-0.795,0.21-1.622,1.007-1.862l0,0c0.795-0.24,1.636,0.226,1.877,1.021l0,0c0.225,0.796-0.226,1.622-1.021,1.862l0,0
				c-0.15,0.03-0.285,0.06-0.421,0.06l0,0C316.461,127.621,315.861,127.2,315.68,126.539z M367.722,127.53
				c-0.796-0.226-1.262-1.066-1.022-1.862l0,0c0.226-0.795,1.066-1.246,1.862-1.021l0,0c0.796,0.24,1.246,1.066,1.02,1.861l0,0l0,0
				l0,0c-0.195,0.66-0.795,1.081-1.441,1.081l0,0C367.992,127.591,367.857,127.575,367.722,127.53z"/>
		</g>
		<g>
			<path fill="#32BD9F" d="M316.041,120.098c-0.405,0-0.781-0.165-1.066-0.45c-0.285-0.27-0.436-0.661-0.436-1.051
				c0-0.195,0.03-0.39,0.105-0.586c0.076-0.18,0.196-0.345,0.331-0.48c0.556-0.556,1.562-0.556,2.117,0
				c0.149,0.135,0.255,0.301,0.33,0.48c0.075,0.196,0.12,0.391,0.12,0.586c0,0.391-0.165,0.781-0.45,1.051
				C316.822,119.933,316.431,120.098,316.041,120.098z"/>
		</g>
	</g>
</g>
</svg>
